<svg width="44" height="27" viewBox="0 0 44 27" fill="none" xmlns="http://www.w3.org/2000/svg">
<path d="M42.625 0.875H1.375C1.01033 0.875 0.660591 1.01987 0.402728 1.27773C0.144866 1.53559 0 1.88533 0 2.25L0 25.625C0 25.9897 0.144866 26.3394 0.402728 26.5973C0.660591 26.8551 1.01033 27 1.375 27H42.625C42.9897 27 43.3394 26.8551 43.5973 26.5973C43.8551 26.3394 44 25.9897 44 25.625V2.25C44 1.88533 43.8551 1.53559 43.5973 1.27773C43.3394 1.01987 42.9897 0.875 42.625 0.875ZM1.375 2.25H19.3789V14.9688H1.375V2.25ZM42.625 25.625H1.375V23.2057C1.41746 23.2141 1.46062 23.2185 1.50391 23.2188H42.625V25.625ZM42.625 21.8438H1.50391C1.46062 21.844 1.41746 21.8484 1.375 21.8568V19.7682C1.41746 19.7766 1.46062 19.781 1.50391 19.7812H42.625V21.8438ZM42.625 18.4062H1.50391C1.46062 18.4065 1.41746 18.4109 1.375 18.4193V16.3438H42.625V18.4062ZM42.625 14.9688H20.7539V12.9062H42.625V14.9688ZM42.625 11.5312H20.7539V9.46875H42.625V11.5312ZM42.625 8.09375H20.7539V6.03125H42.625V8.09375ZM42.625 4.65625H20.7539V2.25H42.625V4.65625Z" fill="white"/>
<path d="M3.31788 6.63179L4.21094 6.16257L5.104 6.63179L4.9335 5.63766L5.65572 4.93332L4.65747 4.78826L4.21094 3.88385L3.76441 4.78826L2.76616 4.93332L3.48838 5.63766L3.31788 6.63179Z" fill="white"/>
<path d="M7.44288 6.63179L8.33594 6.16257L9.229 6.63179L9.0585 5.63766L9.78072 4.93332L8.78247 4.78826L8.33594 3.88385L7.88941 4.78826L6.89116 4.93332L7.61338 5.63766L7.44288 6.63179Z" fill="white"/>
<path d="M11.9116 6.63179L12.8047 6.16257L13.6978 6.63179L13.5273 5.63766L14.2495 4.93332L13.2512 4.78826L12.8047 3.88385L12.3582 4.78826L11.3599 4.93332L12.0821 5.63766L11.9116 6.63179Z" fill="white"/>
<path d="M16.0366 6.63179L16.9297 6.16257L17.8228 6.63179L17.6523 5.63766L18.3745 4.93332L17.3762 4.78826L16.9297 3.88385L16.4832 4.78826L15.4849 4.93332L16.2071 5.63766L16.0366 6.63179Z" fill="white"/>
<path d="M3.31788 10.0693L4.21094 9.60007L5.104 10.0693L4.9335 9.07516L5.65572 8.37082L4.65747 8.22576L4.21094 7.32135L3.76441 8.22576L2.76616 8.37082L3.48838 9.07516L3.31788 10.0693Z" fill="white"/>
<path d="M7.44288 10.0693L8.33594 9.60007L9.229 10.0693L9.0585 9.07516L9.78072 8.37082L8.78247 8.22576L8.33594 7.32135L7.88941 8.22576L6.89116 8.37082L7.61338 9.07516L7.44288 10.0693Z" fill="white"/>
<path d="M11.9116 10.0693L12.8047 9.60007L13.6978 10.0693L13.5273 9.07516L14.2495 8.37082L13.2512 8.22576L12.8047 7.32135L12.3582 8.22576L11.3599 8.37082L12.0821 9.07516L11.9116 10.0693Z" fill="white"/>
<path d="M16.0366 10.0693L16.9297 9.60007L17.8228 10.0693L17.6523 9.07516L18.3745 8.37082L17.3762 8.22576L16.9297 7.32135L16.4832 8.22576L15.4849 8.37082L16.2071 9.07516L16.0366 10.0693Z" fill="white"/>
<path d="M3.31788 13.5068L4.21094 13.0376L5.104 13.5068L4.9335 12.5127L5.65572 11.8083L4.65747 11.6633L4.21094 10.7589L3.76441 11.6633L2.76616 11.8083L3.48838 12.5127L3.31788 13.5068Z" fill="white"/>
<path d="M7.44288 13.5068L8.33594 13.0376L9.229 13.5068L9.0585 12.5127L9.78072 11.8083L8.78247 11.6633L8.33594 10.7589L7.88941 11.6633L6.89116 11.8083L7.61338 12.5127L7.44288 13.5068Z" fill="white"/>
<path d="M11.9116 13.5068L12.8047 13.0376L13.6978 13.5068L13.5273 12.5127L14.2495 11.8083L13.2512 11.6633L12.8047 10.7589L12.3582 11.6633L11.3599 11.8083L12.0821 12.5127L11.9116 13.5068Z" fill="white"/>
<path d="M16.0366 13.5068L16.9297 13.0376L17.8228 13.5068L17.6523 12.5127L18.3745 11.8083L17.3762 11.6633L16.9297 10.7589L16.4832 11.6633L15.4849 11.8083L16.2071 12.5127L16.0366 13.5068Z" fill="white"/>
</svg>
