<svg width="46" height="39" viewBox="0 0 46 39" fill="none" xmlns="http://www.w3.org/2000/svg">
<path d="M6.50369 20.7656C6.50369 20.8319 6.49895 20.8982 6.49422 20.9645C6.49422 20.9976 6.46581 21.097 6.49422 20.9692C6.47054 21.0734 6.45161 21.1775 6.41846 21.2769C6.40426 21.3148 6.39006 21.3574 6.37585 21.3953C6.4232 21.2722 6.38532 21.3716 6.37112 21.3953C6.30957 21.5042 6.25276 21.6084 6.18174 21.7125C6.26223 21.5942 6.10599 21.7977 6.07758 21.8261C6.0113 21.8924 5.94501 21.954 5.87399 22.0108C5.98289 21.9256 5.87399 22.0108 5.84559 22.025C5.80298 22.0534 5.76037 22.0818 5.71302 22.1055C5.67514 22.1244 5.63727 22.1434 5.60413 22.1623C5.46683 22.238 5.68461 22.1434 5.54258 22.186C5.44315 22.2191 5.34373 22.2475 5.23957 22.2712C5.107 22.3043 5.20643 22.2807 5.23957 22.2759C5.18749 22.2807 5.13068 22.2854 5.0786 22.2901C4.97917 22.2949 4.87975 22.2901 4.78506 22.2854C4.58147 22.2759 4.87028 22.3043 4.75191 22.2807C4.6809 22.2665 4.60514 22.2475 4.53413 22.2286C4.48678 22.2144 4.2832 22.1339 4.41103 22.1907C4.31634 22.1481 4.22638 22.1007 4.14116 22.0439C4.10802 22.0203 4.07488 21.9966 4.037 21.9729C4.16483 22.0629 4.00386 21.9445 3.98966 21.9303C3.9139 21.8593 3.84289 21.7883 3.7766 21.7125C3.64877 21.5705 3.81921 21.7835 3.75766 21.6841C3.72926 21.6415 3.70085 21.5989 3.67244 21.5563C3.6535 21.5231 3.62983 21.4853 3.61089 21.4474C3.61089 21.4521 3.52567 21.2675 3.56828 21.3622C3.61089 21.4569 3.53514 21.2675 3.53988 21.2722C3.52567 21.2343 3.5162 21.1917 3.502 21.1491C3.4878 21.097 3.47833 21.045 3.46886 20.9929C3.45939 20.9408 3.45939 20.9503 3.46886 21.0213C3.46412 20.9881 3.46412 20.955 3.45939 20.9266C3.44992 20.8272 3.44992 20.7277 3.45939 20.633C3.45939 20.6378 3.4878 20.4295 3.46886 20.5336C3.44992 20.6378 3.49253 20.4342 3.49253 20.4389C3.5162 20.349 3.54461 20.259 3.57302 20.1691C3.61089 20.0602 3.49253 20.3064 3.58722 20.1407C3.61563 20.0886 3.64404 20.0318 3.67718 19.9797C3.69612 19.9465 3.72452 19.9087 3.74346 19.8755C3.83815 19.7098 3.6535 19.9655 3.78134 19.8234C3.83815 19.7619 3.89023 19.7003 3.95178 19.6435C3.99439 19.6009 4.04174 19.5583 4.08908 19.5204C4.06541 19.5394 3.98492 19.5867 4.09382 19.5204C4.19324 19.4636 4.28793 19.4021 4.38736 19.35C4.49151 19.2979 4.23112 19.3973 4.4205 19.3358C4.45837 19.3216 4.50098 19.3074 4.53886 19.2979C4.59094 19.2837 4.63828 19.2695 4.69036 19.26C4.72824 19.2506 4.86554 19.2316 4.72351 19.2458C4.82293 19.2316 4.91762 19.2316 5.01705 19.2316C5.07386 19.2316 5.12594 19.2364 5.18275 19.2411C5.33426 19.2506 5.08806 19.2127 5.24904 19.2506C5.3532 19.2742 5.45262 19.3026 5.55205 19.3358C5.73669 19.3926 5.44315 19.2695 5.6136 19.3595C5.66568 19.3879 5.72249 19.4163 5.77457 19.4494C5.80771 19.4684 5.84559 19.4968 5.87873 19.5157C6.01603 19.5962 5.82192 19.4542 5.93081 19.5536C6.02077 19.6388 6.10599 19.724 6.19121 19.814C6.21015 19.8376 6.26696 19.9229 6.19594 19.814C6.22908 19.8661 6.26696 19.9134 6.29537 19.9702C6.32377 20.0128 6.34271 20.0602 6.37112 20.1075C6.38532 20.1359 6.39953 20.1643 6.41373 20.1927C6.38532 20.1265 6.38532 20.1217 6.39953 20.1691C6.4374 20.278 6.47054 20.3869 6.49422 20.5005C6.52736 20.633 6.50369 20.5336 6.49895 20.5005C6.49895 20.5904 6.50369 20.6757 6.50369 20.7656C6.50842 21.1349 6.82563 21.4947 7.21386 21.4758C7.59263 21.4569 7.92878 21.1633 7.92404 20.7656C7.9051 19.4968 7.1097 18.3984 5.91661 17.9722C4.80399 17.5745 3.46886 17.9533 2.72554 18.8623C1.93961 19.8234 1.79284 21.1917 2.43673 22.2712C3.08063 23.3459 4.32581 23.8762 5.55205 23.6537C6.92979 23.4027 7.9051 22.1386 7.92404 20.7656C7.92878 20.3963 7.59263 20.0365 7.21386 20.0554C6.82563 20.0696 6.51315 20.3679 6.50369 20.7656Z" fill="white"/>
<path d="M7.81988 26.376C7.81988 27.9668 7.84828 29.5576 7.81988 31.1437C7.81988 31.1579 7.81988 31.1768 7.81988 31.191C7.81988 31.2336 7.79147 31.3662 7.81988 31.2289C7.81041 31.281 7.7962 31.333 7.782 31.3804C7.75359 31.4893 7.86249 31.2478 7.77253 31.4135C7.74412 31.4656 7.71098 31.5224 7.67784 31.5745C7.69678 31.5461 7.76306 31.4893 7.67311 31.5745C7.6305 31.6171 7.58789 31.6645 7.54054 31.7023C7.63997 31.6218 7.55948 31.6881 7.53581 31.7023C7.47899 31.7307 7.43165 31.7639 7.3701 31.7923C7.53581 31.7213 7.11443 31.8302 7.30381 31.8112C7.17598 31.8254 7.04342 31.816 6.91558 31.816C6.53209 31.816 6.20541 32.1426 6.20541 32.5261C6.20541 33.3689 6.20541 34.2116 6.20541 35.0496C6.20541 35.5988 6.20541 36.148 6.20541 36.702C6.20541 36.863 6.20541 37.0192 6.20541 37.1802C6.20541 37.2133 6.20541 37.2465 6.20541 37.2796C6.20541 37.2843 6.20541 37.2891 6.20541 37.2938C6.20541 37.3175 6.20541 37.3364 6.20541 37.3601C6.21961 37.2749 6.21487 37.2749 6.19594 37.3553C6.1912 37.3743 6.18173 37.3932 6.177 37.4122C6.21014 37.3364 6.20541 37.3364 6.16753 37.4074C6.1628 37.4169 6.15806 37.4264 6.14859 37.4311C6.12018 37.4737 6.12492 37.4642 6.16753 37.4074C6.15333 37.4216 6.13912 37.4358 6.12492 37.45C6.18173 37.4122 6.1912 37.4027 6.14859 37.4311C6.12492 37.4595 5.99235 37.5069 6.12965 37.4548C6.09178 37.469 6.04917 37.4784 6.01129 37.4879C6.13912 37.4548 5.96395 37.4832 5.9166 37.4832C5.68461 37.4832 5.44788 37.4832 5.21589 37.4832C4.92235 37.4832 4.62408 37.4832 4.33054 37.4832C4.24058 37.4832 4.15062 37.4832 4.06067 37.4832C4.03226 37.4832 4.00385 37.4832 3.98018 37.4832C3.95177 37.4832 3.84288 37.4737 3.92337 37.4832C4.02753 37.4974 3.83815 37.4548 3.83341 37.4548C3.99438 37.5163 3.83341 37.4548 3.83815 37.4453C3.81921 37.4358 3.805 37.4216 3.78607 37.4122C3.85235 37.4595 3.85235 37.4595 3.7908 37.4027C3.79553 37.4122 3.80027 37.4216 3.80974 37.4264C3.83815 37.469 3.83341 37.4595 3.7908 37.4027C3.78133 37.4074 3.74345 37.3033 3.78133 37.4074C3.76713 37.3743 3.74345 37.1944 3.75292 37.3506C3.75292 37.3269 3.74819 37.3033 3.75292 37.2749C3.75766 37.1707 3.75292 37.0665 3.75292 36.9671C3.75292 36.4795 3.75292 35.9965 3.75292 35.5089C3.75292 34.5099 3.75292 33.5157 3.75292 32.5167C3.75292 32.1332 3.42624 31.8065 3.04275 31.8065C2.95752 31.8065 2.8723 31.8065 2.78708 31.8065C2.79182 31.8065 2.5835 31.7876 2.68766 31.8018C2.79182 31.8207 2.59297 31.7733 2.59297 31.7733C2.56929 31.7686 2.4604 31.726 2.58823 31.7781C2.53142 31.7544 2.47934 31.7165 2.42252 31.6881C2.31363 31.6313 2.38938 31.6645 2.41779 31.6881C2.37991 31.655 2.34204 31.6171 2.30416 31.584C2.27575 31.5556 2.20474 31.4514 2.28049 31.5603C2.25682 31.5272 2.23314 31.4893 2.21421 31.4561C2.19527 31.423 2.17159 31.3851 2.15739 31.3472C2.21421 31.4751 2.16213 31.3425 2.15739 31.3094C2.14792 31.2715 2.12898 31.1342 2.14319 31.2762C2.13845 31.2336 2.13845 31.191 2.13845 31.1437C2.13372 30.8927 2.13845 30.6465 2.13845 30.3956C2.13845 29.3114 2.13845 28.2272 2.13845 27.143C2.13845 26.8826 2.13372 26.6222 2.13845 26.3618C2.13845 26.3334 2.17159 26.144 2.13845 26.2908C2.14792 26.2434 2.21894 26.0304 2.16213 26.1629C2.18106 26.1156 2.20947 26.073 2.23314 26.0256C2.24735 25.9925 2.33257 25.8883 2.24735 25.9925C2.27575 25.9594 2.29943 25.9309 2.33257 25.9025C2.35151 25.8836 2.49828 25.7747 2.37991 25.8552C2.41305 25.8315 2.45093 25.8079 2.48407 25.7889C2.48407 25.7889 2.66398 25.7084 2.56929 25.7463C2.48407 25.7794 2.84863 25.699 2.66398 25.7179C2.7208 25.7132 2.77761 25.7132 2.83443 25.7132C3.76239 25.7084 4.69036 25.7132 5.61359 25.7132C6.09178 25.7132 6.56523 25.7132 7.04342 25.7132C7.08603 25.7132 7.1239 25.7132 7.16651 25.7132C7.19019 25.7132 7.21859 25.7132 7.24227 25.7132C7.44112 25.7132 7.16651 25.6895 7.27541 25.7179C7.29435 25.7226 7.47899 25.7747 7.39851 25.7463C7.30381 25.7132 7.48373 25.7889 7.48373 25.7889C7.51213 25.8079 7.65417 25.912 7.54054 25.8173C7.57368 25.8457 7.60209 25.8694 7.6305 25.9025C7.64943 25.9215 7.75833 26.0683 7.67784 25.9499C7.70151 25.983 7.72519 26.0209 7.74412 26.054C7.7678 26.1014 7.81041 26.2245 7.77727 26.1109C7.79147 26.1629 7.80567 26.2103 7.81988 26.2624C7.82935 26.3144 7.82935 26.305 7.81988 26.234C7.81988 26.2908 7.81988 26.3334 7.81988 26.376C7.82935 26.7453 8.14182 27.1051 8.53006 27.0862C8.90882 27.0672 9.2497 26.7737 9.24023 26.376C9.21183 25.235 8.31227 24.3307 7.16651 24.3023C6.8493 24.2975 6.52735 24.3023 6.21014 24.3023C5.11647 24.3023 4.02279 24.3023 2.92438 24.3023C2.14792 24.3023 1.43774 24.6195 1.01637 25.2965C0.727566 25.7558 0.713362 26.2576 0.713362 26.7737C0.713362 27.9242 0.713362 29.0747 0.713362 30.2252C0.713362 30.5945 0.684955 30.9827 0.727566 31.352C0.803318 31.9911 1.13473 32.5545 1.6792 32.9049C2.09584 33.1748 2.55983 33.2268 3.04275 33.2268C2.80602 32.9901 2.56929 32.7534 2.33257 32.5167C2.33257 33.4352 2.33257 34.3584 2.33257 35.2769C2.33257 35.8166 2.33257 36.3611 2.33257 36.9008C2.33257 37.4737 2.38465 38.0182 2.82969 38.449C3.36469 38.9698 4.0654 38.9035 4.74717 38.9035C5.05492 38.9035 5.36266 38.9035 5.66567 38.9035C5.90713 38.9035 6.14859 38.913 6.38532 38.8562C7.19966 38.6621 7.62576 37.9282 7.62576 37.1376C7.62576 36.6688 7.62576 36.2001 7.62576 35.7314C7.62576 34.6614 7.62576 33.5867 7.62576 32.5167C7.38904 32.7534 7.15231 32.9901 6.91558 33.2268C7.32749 33.2268 7.71098 33.189 8.08974 33.0091C8.51112 32.8055 8.86621 32.4409 9.05559 32.0101C9.2497 31.5745 9.2497 31.1437 9.2497 30.6797C9.2497 29.5671 9.2497 28.4497 9.2497 27.3371C9.2497 27.0152 9.2497 26.6885 9.2497 26.3665C9.2497 25.9972 8.92302 25.6374 8.53952 25.6563C8.14656 25.6848 7.81988 25.9783 7.81988 26.376Z" fill="white"/>
<path d="M18.4015 20.7656C18.4015 20.8319 18.3968 20.8982 18.3921 20.9645C18.3921 20.9976 18.3637 21.097 18.3921 20.9692C18.3684 21.0734 18.3494 21.1775 18.3163 21.2769C18.3021 21.3148 18.2879 21.3574 18.2737 21.3953C18.321 21.2722 18.2832 21.3716 18.269 21.3953C18.2074 21.5042 18.1506 21.6084 18.0796 21.7125C18.1601 21.5942 18.0038 21.7977 17.9754 21.8261C17.9091 21.8924 17.8429 21.954 17.7718 22.0108C17.8807 21.9256 17.7718 22.0108 17.7434 22.025C17.7008 22.0534 17.6582 22.0818 17.6109 22.1055C17.573 22.1244 17.5351 22.1434 17.502 22.1623C17.3647 22.238 17.5825 22.1434 17.4404 22.186C17.341 22.2191 17.2416 22.2475 17.1374 22.2712C17.0048 22.3043 17.1043 22.2807 17.1374 22.2759C17.0853 22.2807 17.0285 22.2854 16.9764 22.2901C16.877 22.2949 16.7776 22.2901 16.6829 22.2854C16.4793 22.2759 16.7681 22.3043 16.6498 22.2807C16.5787 22.2665 16.503 22.2475 16.432 22.2286C16.3846 22.2144 16.181 22.1339 16.3089 22.1907C16.2142 22.1481 16.1242 22.1007 16.039 22.0439C16.0059 22.0203 15.9727 21.9966 15.9348 21.9729C16.0627 22.0629 15.9017 21.9445 15.8875 21.9303C15.8117 21.8593 15.7407 21.7883 15.6744 21.7125C15.5466 21.5705 15.7171 21.7835 15.6555 21.6841C15.6271 21.6415 15.5987 21.5989 15.5703 21.5563C15.5513 21.5231 15.5277 21.4853 15.5087 21.4474C15.5087 21.4521 15.4235 21.2675 15.4661 21.3622C15.5087 21.4569 15.433 21.2675 15.4377 21.2722C15.4235 21.2343 15.414 21.1917 15.3998 21.1491C15.3856 21.097 15.3762 21.045 15.3667 20.9929C15.3572 20.9408 15.3572 20.9503 15.3667 21.0213C15.362 20.9881 15.362 20.955 15.3572 20.9266C15.3478 20.8272 15.3478 20.7277 15.3572 20.633C15.3572 20.6378 15.3856 20.4295 15.3667 20.5336C15.3478 20.6378 15.3904 20.4342 15.3904 20.4389C15.414 20.349 15.4425 20.259 15.4709 20.1691C15.5087 20.0602 15.3904 20.3064 15.4851 20.1407C15.5135 20.0886 15.5419 20.0318 15.575 19.9797C15.594 19.9465 15.6224 19.9087 15.6413 19.8755C15.736 19.7098 15.5513 19.9655 15.6792 19.8234C15.736 19.7619 15.7881 19.7003 15.8496 19.6435C15.8922 19.6009 15.9396 19.5583 15.9869 19.5204C15.9632 19.5394 15.8828 19.5867 15.9917 19.5204C16.0911 19.4636 16.1858 19.4021 16.2852 19.35C16.3894 19.2979 16.129 19.3973 16.3183 19.3358C16.3562 19.3216 16.3988 19.3074 16.4367 19.2979C16.4888 19.2837 16.5361 19.2695 16.5882 19.26C16.6261 19.2506 16.7634 19.2316 16.6213 19.2458C16.7208 19.2316 16.8155 19.2316 16.9149 19.2316C16.9717 19.2316 17.0238 19.2364 17.0806 19.2411C17.2321 19.2506 16.9859 19.2127 17.1469 19.2506C17.251 19.2742 17.3505 19.3026 17.4499 19.3358C17.6345 19.3926 17.341 19.2695 17.5114 19.3595C17.5635 19.3879 17.6203 19.4163 17.6724 19.4494C17.7056 19.4684 17.7434 19.4968 17.7766 19.5157C17.9139 19.5962 17.7198 19.4542 17.8287 19.5536C17.9186 19.6388 18.0038 19.724 18.089 19.814C18.108 19.8376 18.1648 19.9229 18.0938 19.814C18.1269 19.8661 18.1648 19.9134 18.1932 19.9702C18.2216 20.0128 18.2406 20.0602 18.269 20.1075C18.2832 20.1359 18.2974 20.1643 18.3116 20.1927C18.2832 20.1265 18.2832 20.1217 18.2974 20.1691C18.3352 20.278 18.3684 20.3869 18.3921 20.5005C18.4252 20.633 18.4015 20.5336 18.3968 20.5005C18.3968 20.5904 18.4015 20.6757 18.4015 20.7656C18.4063 21.1349 18.7235 21.4947 19.1117 21.4758C19.4905 21.4569 19.8266 21.1633 19.8219 20.7656C19.8029 19.4968 19.0075 18.3984 17.8144 17.9722C16.7018 17.5745 15.3667 17.9533 14.6234 18.8623C13.8375 19.8234 13.6907 21.1917 14.3346 22.2712C14.9785 23.3459 16.2236 23.8762 17.4499 23.6537C18.8276 23.4027 19.8029 22.1386 19.8219 20.7656C19.8266 20.3963 19.4905 20.0365 19.1117 20.0554C18.7235 20.0696 18.4063 20.3679 18.4015 20.7656Z" fill="white"/>
<path d="M18.8087 26.5654C19.2727 28.5066 19.7651 30.4477 20.2054 32.3936C20.2054 32.4031 20.2101 32.4125 20.2101 32.422C20.2101 32.4267 20.2054 32.3605 20.2054 32.3605C20.2101 32.4031 20.2101 32.4457 20.2054 32.4883C20.2196 32.4031 20.2196 32.4031 20.2054 32.4836C20.1959 32.5072 20.1201 32.6824 20.1912 32.5498C20.177 32.5735 20.0681 32.744 20.1059 32.6919C20.1675 32.6161 20.0255 32.7724 20.0302 32.7629C19.9971 32.7913 19.9639 32.8197 19.9308 32.8481C19.9876 32.8008 19.9828 32.8055 19.9118 32.8528C19.855 32.8813 19.7982 32.9191 19.7367 32.9475C19.8692 32.8907 19.6704 32.957 19.6609 32.9617C19.4857 33.0186 19.7793 32.9712 19.5946 32.9759C19.5567 32.9759 19.5236 32.9759 19.4857 32.9759C19.339 32.9759 19.1874 32.9759 19.0407 32.9759C18.6193 32.9759 18.3778 33.3026 18.3305 33.6861C18.2453 34.349 18.1601 35.0118 18.0701 35.6746C18.018 36.0865 17.9612 36.4984 17.9091 36.9103C17.8949 37.0192 17.876 37.1281 17.8665 37.2417C17.8665 37.256 17.8618 37.2702 17.8618 37.2844C17.857 37.3317 17.8334 37.398 17.8665 37.2844C17.857 37.3128 17.857 37.3506 17.8428 37.3743C17.786 37.4643 17.8997 37.2844 17.8381 37.3743C17.7624 37.4879 17.8334 37.4169 17.8239 37.4027C17.8286 37.4075 17.6961 37.5116 17.8286 37.4122C17.805 37.4311 17.7766 37.4453 17.7529 37.4595C17.6677 37.5211 17.8428 37.4027 17.7529 37.4643C17.7292 37.4785 17.6913 37.4785 17.6629 37.4879C17.7813 37.4501 17.6535 37.4832 17.6014 37.4832C17.4167 37.4832 17.2368 37.4832 17.0522 37.4832C16.8249 37.4832 16.5929 37.4832 16.3657 37.4832C16.2899 37.4832 16.2189 37.4832 16.1432 37.4832C16.1147 37.4832 15.9632 37.4737 16.039 37.4832C16.1147 37.4974 15.8733 37.398 16.0106 37.4737C15.9774 37.4548 15.9396 37.4359 15.9064 37.4075C15.9964 37.4737 15.9112 37.4027 15.9112 37.398C15.9064 37.4075 15.9869 37.4879 15.9301 37.4217C15.9159 37.4075 15.8543 37.2938 15.8922 37.3743C15.9301 37.4548 15.878 37.3459 15.8828 37.3459C15.8685 37.2749 15.8638 37.2654 15.8733 37.3175C15.878 37.3601 15.878 37.3601 15.878 37.3175C15.8733 37.2512 15.8638 37.1849 15.8543 37.1187C15.807 36.7541 15.7597 36.3848 15.7123 36.0202C15.6129 35.2438 15.5087 34.4673 15.4093 33.6861C15.362 33.3074 15.1252 32.9759 14.6991 32.9759C14.6044 32.9759 14.505 32.9759 14.4103 32.9759C14.3535 32.9759 14.3014 32.9759 14.2446 32.9759C14.202 32.9759 14.041 32.9617 14.1168 32.9759C14.2257 32.9949 14.0221 32.9523 14.0268 32.9523C13.9842 32.9428 13.9463 32.9286 13.9037 32.9144C14.0316 32.957 13.828 32.8671 13.7854 32.8434C13.6197 32.7582 13.8327 32.8955 13.7475 32.8244C13.7096 32.7913 13.6717 32.7534 13.6339 32.7155C13.6102 32.6966 13.5581 32.6114 13.6291 32.7155C13.596 32.6635 13.5628 32.6114 13.5344 32.5546C13.6054 32.7013 13.5202 32.3841 13.5344 32.5593C13.5297 32.5167 13.5297 32.4741 13.5297 32.4315C13.5297 32.4504 13.4966 32.5782 13.5297 32.422C13.5344 32.4078 13.5392 32.3889 13.5392 32.3747C13.5628 32.2752 13.5865 32.1805 13.6102 32.0811C13.8374 31.1247 14.0694 30.1731 14.2967 29.2167C14.5003 28.374 14.6991 27.5312 14.9027 26.6885C14.9216 26.6033 14.9406 26.5181 14.9643 26.4328C14.9879 26.3476 15.0163 26.2671 15.0495 26.1819C14.9974 26.3097 15.111 26.0683 15.13 26.0399C15.1584 25.9973 15.182 25.9547 15.2152 25.912C15.1962 25.9404 15.1252 26.002 15.2152 25.9168C15.2436 25.8931 15.272 25.86 15.2957 25.8316C15.3951 25.7227 15.201 25.8694 15.3335 25.8031C15.3667 25.7842 15.3998 25.7653 15.433 25.7463C15.3051 25.8174 15.414 25.7605 15.4519 25.7416C15.4898 25.7274 15.6224 25.7085 15.4708 25.7274C15.5135 25.7227 15.5561 25.7227 15.5987 25.7227C15.6271 25.7227 15.6555 25.7227 15.6886 25.7227C15.8875 25.7227 16.0863 25.7227 16.2852 25.7227C16.8486 25.7227 17.4073 25.7227 17.9707 25.7227C18.018 25.7227 18.0654 25.7227 18.1127 25.7227C18.1364 25.7227 18.1601 25.7227 18.179 25.7227C18.3494 25.7227 18.0748 25.6801 18.2311 25.7321C18.2595 25.7416 18.3068 25.7558 18.34 25.7653C18.2121 25.7416 18.3163 25.7558 18.3731 25.7889C18.4063 25.8079 18.4347 25.8268 18.4678 25.8505C18.3352 25.7558 18.4631 25.8552 18.4915 25.8836C18.5199 25.912 18.5436 25.9404 18.5672 25.9689C18.4678 25.8458 18.572 25.9831 18.5909 26.0162C18.6193 26.0588 18.6382 26.1062 18.6619 26.1488C18.6761 26.1772 18.6903 26.2056 18.6998 26.234C18.6714 26.1724 18.6714 26.163 18.6856 26.2103C18.7471 26.3287 18.7803 26.447 18.8087 26.5654C18.8939 26.9394 19.3247 27.162 19.6846 27.0625C20.0681 26.9584 20.2669 26.5654 20.1817 26.1866C19.945 25.1687 19.2395 24.326 18.1364 24.3023C17.7197 24.2928 17.2984 24.3023 16.877 24.3023C16.4556 24.3023 16.039 24.2928 15.6176 24.3023C14.5192 24.326 13.8232 25.1829 13.5723 26.1866C13.1178 27.9952 12.7012 29.818 12.2703 31.6313C12.1377 32.19 12.0383 32.7203 12.3177 33.2695C12.5781 33.7855 13.1036 34.1643 13.6528 34.3206C13.9984 34.4152 14.3535 34.3963 14.7039 34.3963C14.4671 34.1596 14.2304 33.9228 13.9937 33.6861C14.0884 34.42 14.1831 35.1491 14.2778 35.8829C14.3298 36.2854 14.3819 36.6925 14.434 37.095C14.4435 37.1802 14.4529 37.2654 14.4624 37.3506C14.5097 37.862 14.7275 38.2928 15.1442 38.6006C15.6034 38.9414 16.1479 38.9036 16.6829 38.9036C17.1137 38.9036 17.5872 38.9556 18.0086 38.8657C18.4536 38.771 18.856 38.468 19.0786 38.0656C19.2253 37.8004 19.2537 37.5353 19.2869 37.2417C19.32 36.9151 19.3721 36.5884 19.4147 36.2617C19.5283 35.4048 19.6372 34.5478 19.7509 33.6861C19.5141 33.9228 19.2774 34.1596 19.0407 34.3963C19.4431 34.3963 19.8455 34.4152 20.2243 34.2685C20.8493 34.0317 21.4079 33.5299 21.5689 32.8623C21.692 32.3605 21.5405 31.8917 21.4221 31.4088C21.1002 30.0595 20.7782 28.7101 20.4516 27.3608C20.3569 26.9678 20.2622 26.5749 20.1675 26.1819C20.0775 25.8079 19.6562 25.5854 19.2916 25.6848C18.9223 25.7937 18.7187 26.1914 18.8087 26.5654Z" fill="white"/>
<path d="M30.2947 20.7656C30.2947 20.8319 30.2899 20.8982 30.2852 20.9645C30.2852 20.9976 30.2568 21.097 30.2852 20.9692C30.2615 21.0734 30.2426 21.1775 30.2094 21.2769C30.1952 21.3148 30.181 21.3574 30.1668 21.3953C30.2142 21.2722 30.1763 21.3716 30.1621 21.3953C30.1005 21.5042 30.0437 21.6084 29.9727 21.7125C30.0532 21.5942 29.897 21.7977 29.8685 21.8261C29.8023 21.8924 29.736 21.954 29.665 22.0108C29.7739 21.9256 29.665 22.0108 29.6366 22.025C29.5939 22.0534 29.5513 22.0818 29.504 22.1055C29.4661 22.1244 29.4282 22.1434 29.3951 22.1623C29.2578 22.238 29.4756 22.1434 29.3335 22.186C29.2341 22.2191 29.1347 22.2475 29.0305 22.2712C28.898 22.3043 28.9974 22.2807 29.0305 22.2759C28.9785 22.2807 28.9216 22.2854 28.8696 22.2901C28.7701 22.2949 28.6707 22.2901 28.576 22.2854C28.3724 22.2759 28.6612 22.3043 28.5429 22.2807C28.4719 22.2665 28.3961 22.2475 28.3251 22.2286C28.2777 22.2144 28.0742 22.1339 28.202 22.1907C28.1073 22.1481 28.0174 22.1007 27.9321 22.0439C27.899 22.0203 27.8658 21.9966 27.828 21.9729C27.9558 22.0629 27.7948 21.9445 27.7806 21.9303C27.7049 21.8593 27.6339 21.7883 27.5676 21.7125C27.4397 21.5705 27.6102 21.7835 27.5486 21.6841C27.5202 21.6415 27.4918 21.5989 27.4634 21.5563C27.4445 21.5231 27.4208 21.4853 27.4019 21.4474C27.4019 21.4521 27.3166 21.2675 27.3593 21.3622C27.4019 21.4569 27.3261 21.2675 27.3308 21.2722C27.3166 21.2343 27.3072 21.1917 27.293 21.1491C27.2788 21.097 27.2693 21.045 27.2598 20.9929C27.2504 20.9408 27.2504 20.9503 27.2598 21.0213C27.2551 20.9881 27.2551 20.955 27.2504 20.9266C27.2409 20.8272 27.2409 20.7277 27.2504 20.633C27.2504 20.6378 27.2788 20.4295 27.2598 20.5336C27.2409 20.6378 27.2835 20.4342 27.2835 20.4389C27.3072 20.349 27.3356 20.259 27.364 20.1691C27.4019 20.0602 27.2835 20.3064 27.3782 20.1407C27.4066 20.0886 27.435 20.0318 27.4681 19.9797C27.4871 19.9465 27.5155 19.9087 27.5344 19.8755C27.6291 19.7098 27.4445 19.9655 27.5723 19.8234C27.6291 19.7619 27.6812 19.7003 27.7427 19.6435C27.7854 19.6009 27.8327 19.5583 27.8801 19.5204C27.8564 19.5394 27.7759 19.5867 27.8848 19.5204C27.9842 19.4636 28.0789 19.4021 28.1783 19.35C28.2825 19.2979 28.0221 19.3973 28.2115 19.3358C28.2493 19.3216 28.292 19.3074 28.3298 19.2979C28.3819 19.2837 28.4293 19.2695 28.4813 19.26C28.5192 19.2506 28.6565 19.2316 28.5145 19.2458C28.6139 19.2316 28.7086 19.2316 28.808 19.2316C28.8648 19.2316 28.9169 19.2364 28.9737 19.2411C29.1252 19.2506 28.879 19.2127 29.04 19.2506C29.1442 19.2742 29.2436 19.3026 29.343 19.3358C29.5277 19.3926 29.2341 19.2695 29.4046 19.3595C29.4566 19.3879 29.5135 19.4163 29.5655 19.4494C29.5987 19.4684 29.6366 19.4968 29.6697 19.5157C29.807 19.5962 29.6129 19.4542 29.7218 19.5536C29.8117 19.6388 29.897 19.724 29.9822 19.814C30.0011 19.8376 30.0579 19.9229 29.9869 19.814C30.0201 19.8661 30.0579 19.9134 30.0863 19.9702C30.1147 20.0128 30.1337 20.0602 30.1621 20.1075C30.1763 20.1359 30.1905 20.1643 30.2047 20.1927C30.1763 20.1265 30.1763 20.1217 30.1905 20.1691C30.2284 20.278 30.2615 20.3869 30.2852 20.5005C30.3183 20.633 30.2947 20.5336 30.2899 20.5005C30.2947 20.5904 30.2947 20.6757 30.2947 20.7656C30.2994 21.1349 30.6166 21.4947 31.0048 21.4758C31.3836 21.4569 31.7197 21.1633 31.715 20.7656C31.6961 19.4968 30.9007 18.3984 29.7076 17.9722C28.595 17.5745 27.2598 17.9533 26.5165 18.8623C25.7306 19.8234 25.5838 21.1917 26.2277 22.2712C26.8716 23.3459 28.1168 23.8762 29.343 23.6537C30.7208 23.4027 31.6961 22.1386 31.715 20.7656C31.7197 20.3963 31.3836 20.0365 31.0048 20.0554C30.6166 20.0696 30.3041 20.3679 30.2947 20.7656Z" fill="white"/>
<path d="M31.6108 26.376C31.6108 27.9668 31.6393 29.5576 31.6108 31.1437C31.6108 31.1579 31.6108 31.1768 31.6108 31.191C31.6108 31.2336 31.5824 31.3662 31.6108 31.2289C31.6014 31.281 31.5872 31.333 31.573 31.3804C31.5446 31.4893 31.6535 31.2478 31.5635 31.4135C31.5351 31.4656 31.502 31.5224 31.4688 31.5745C31.4877 31.5461 31.554 31.4893 31.4641 31.5745C31.4215 31.6171 31.3789 31.6645 31.3315 31.7023C31.4309 31.6218 31.3504 31.6881 31.3268 31.7023C31.27 31.7307 31.2226 31.7639 31.1611 31.7923C31.3268 31.7213 30.9054 31.8302 31.0948 31.8112C30.967 31.8254 30.8344 31.816 30.7066 31.816C30.3231 31.816 29.9964 32.1426 29.9964 32.5261C29.9964 33.3689 29.9964 34.2116 29.9964 35.0496C29.9964 35.5988 29.9964 36.148 29.9964 36.702C29.9964 36.863 29.9964 37.0192 29.9964 37.1802C29.9964 37.2133 29.9964 37.2465 29.9964 37.2796C29.9964 37.2843 29.9964 37.2891 29.9964 37.2938C29.9964 37.3175 29.9964 37.3364 29.9964 37.3601C30.0106 37.2749 30.0058 37.2749 29.9869 37.3553C29.9822 37.3743 29.9727 37.3932 29.968 37.4122C30.0011 37.3364 29.9964 37.3364 29.9585 37.4074C29.9538 37.4169 29.949 37.4264 29.9396 37.4311C29.9112 37.4737 29.9159 37.4642 29.9585 37.4074C29.9443 37.4216 29.9301 37.4358 29.9159 37.45C29.9727 37.4122 29.9822 37.4027 29.9396 37.4311C29.9159 37.4595 29.7833 37.5069 29.9206 37.4548C29.8827 37.469 29.8401 37.4784 29.8023 37.4879C29.9301 37.4548 29.7549 37.4832 29.7076 37.4832C29.4756 37.4832 29.2389 37.4832 29.0069 37.4832C28.7133 37.4832 28.415 37.4832 28.1215 37.4832C28.0315 37.4832 27.9416 37.4832 27.8516 37.4832C27.8232 37.4832 27.7948 37.4832 27.7712 37.4832C27.7427 37.4832 27.6338 37.4737 27.7143 37.4832C27.8185 37.4974 27.6291 37.4548 27.6244 37.4548C27.7854 37.5163 27.6244 37.4548 27.6291 37.4453C27.6102 37.4358 27.596 37.4216 27.577 37.4122C27.6433 37.4595 27.6433 37.4595 27.5818 37.4027C27.5865 37.4122 27.5912 37.4216 27.6007 37.4264C27.6291 37.469 27.6244 37.4595 27.5818 37.4027C27.5723 37.4074 27.5344 37.3033 27.5723 37.4074C27.5581 37.3743 27.5344 37.1944 27.5439 37.3506C27.5439 37.3269 27.5392 37.3033 27.5439 37.2749C27.5486 37.1707 27.5439 37.0665 27.5439 36.9671C27.5439 36.4795 27.5439 35.9965 27.5439 35.5089C27.5439 34.5099 27.5439 33.5157 27.5439 32.5167C27.5439 32.1332 27.2172 31.8065 26.8337 31.8065C26.7485 31.8065 26.6633 31.8065 26.5781 31.8065C26.5828 31.8065 26.3745 31.7876 26.4786 31.8018C26.5828 31.8207 26.3839 31.7733 26.3839 31.7733C26.3603 31.7686 26.2514 31.726 26.3792 31.7781C26.3224 31.7544 26.2703 31.7165 26.2135 31.6881C26.1046 31.6313 26.1804 31.6645 26.2088 31.6881C26.1709 31.655 26.133 31.6171 26.0951 31.584C26.0667 31.5556 25.9957 31.4514 26.0715 31.5603C26.0478 31.5272 26.0241 31.4893 26.0052 31.4561C25.9862 31.423 25.9626 31.3851 25.9484 31.3472C26.0052 31.4751 25.9531 31.3425 25.9484 31.3094C25.9389 31.2715 25.92 31.1342 25.9342 31.2762C25.9294 31.2336 25.9294 31.191 25.9294 31.1437C25.9247 30.8927 25.9294 30.6465 25.9294 30.3956C25.9294 29.3114 25.9294 28.2272 25.9294 27.143C25.9294 26.8826 25.9247 26.6222 25.9294 26.3618C25.9294 26.3334 25.9626 26.144 25.9294 26.2908C25.9389 26.2434 26.0099 26.0304 25.9531 26.1629C25.972 26.1156 26.0004 26.073 26.0241 26.0256C26.0383 25.9925 26.1235 25.8883 26.0383 25.9925C26.0667 25.9594 26.0904 25.9309 26.1235 25.9025C26.1425 25.8836 26.2892 25.7747 26.1709 25.8552C26.204 25.8315 26.2419 25.8079 26.275 25.7889C26.275 25.7889 26.455 25.7084 26.3603 25.7463C26.275 25.7794 26.6396 25.699 26.455 25.7179C26.5118 25.7132 26.5686 25.7132 26.6254 25.7132C27.5534 25.7084 28.4813 25.7132 29.4046 25.7132C29.8827 25.7132 30.3562 25.7132 30.8344 25.7132C30.877 25.7132 30.9149 25.7132 30.9575 25.7132C30.9812 25.7132 31.0096 25.7132 31.0332 25.7132C31.2321 25.7132 30.9575 25.6895 31.0664 25.7179C31.0853 25.7226 31.27 25.7747 31.1895 25.7463C31.0948 25.7132 31.2747 25.7889 31.2747 25.7889C31.3031 25.8079 31.4451 25.912 31.3315 25.8173C31.3647 25.8457 31.3931 25.8694 31.4215 25.9025C31.4404 25.9215 31.5493 26.0683 31.4688 25.9499C31.4925 25.983 31.5162 26.0209 31.5351 26.054C31.5588 26.1014 31.6014 26.2245 31.5682 26.1109C31.5824 26.1629 31.5966 26.2103 31.6108 26.2624C31.6203 26.3144 31.6203 26.305 31.6108 26.234C31.6061 26.2908 31.6108 26.3334 31.6108 26.376C31.6203 26.7453 31.9328 27.1051 32.321 27.0862C32.6998 27.0672 33.0407 26.7737 33.0312 26.376C33.0028 25.235 32.1032 24.3307 30.9575 24.3023C30.6403 24.2975 30.3183 24.3023 30.0011 24.3023C28.9074 24.3023 27.8138 24.3023 26.7154 24.3023C25.9389 24.3023 25.2287 24.6195 24.8073 25.2965C24.5185 25.7558 24.5043 26.2576 24.5043 26.7737C24.5043 27.9242 24.5043 29.0747 24.5043 30.2252C24.5043 30.5945 24.4759 30.9827 24.5185 31.352C24.5943 31.9911 24.9257 32.5545 25.4702 32.9049C25.8868 33.1748 26.3508 33.2268 26.8337 33.2268C26.597 32.9901 26.3603 32.7534 26.1235 32.5167C26.1235 33.4352 26.1235 34.3584 26.1235 35.2769C26.1235 35.8166 26.1235 36.3611 26.1235 36.9008C26.1235 37.4737 26.1756 38.0182 26.6207 38.449C27.1557 38.9698 27.8564 38.9035 28.5381 38.9035C28.8459 38.9035 29.1536 38.9035 29.4566 38.9035C29.6981 38.9035 29.9396 38.913 30.1763 38.8562C30.9906 38.6621 31.4167 37.9282 31.4167 37.1376C31.4167 36.6688 31.4167 36.2001 31.4167 35.7314C31.4167 34.6614 31.4167 33.5867 31.4167 32.5167C31.18 32.7534 30.9433 32.9901 30.7066 33.2268C31.1185 33.2268 31.502 33.189 31.8807 33.0091C32.3021 32.8055 32.6572 32.4409 32.8466 32.0101C33.0407 31.5745 33.0407 31.1437 33.0407 30.6797C33.0407 29.5671 33.0407 28.4497 33.0407 27.3371C33.0407 27.0152 33.0407 26.6885 33.0407 26.3665C33.0407 25.9972 32.714 25.6374 32.3305 25.6563C31.9375 25.6848 31.6108 25.9783 31.6108 26.376Z" fill="white"/>
<path d="M42.1925 20.7656C42.1925 20.8319 42.1877 20.8982 42.183 20.9645C42.183 20.9976 42.1546 21.097 42.183 20.9692C42.1593 21.0734 42.1404 21.1775 42.1073 21.2769C42.0931 21.3148 42.0789 21.3574 42.0647 21.3953C42.112 21.2722 42.0741 21.3716 42.0599 21.3953C41.9984 21.5042 41.9416 21.6084 41.8705 21.7125C41.951 21.5942 41.7948 21.7977 41.7664 21.8261C41.7001 21.8924 41.6338 21.954 41.5628 22.0108C41.6717 21.9256 41.5628 22.0108 41.5344 22.025C41.4918 22.0534 41.4492 22.0818 41.4018 22.1055C41.3639 22.1244 41.3261 22.1434 41.2929 22.1623C41.1556 22.238 41.3734 22.1434 41.2314 22.186C41.132 22.2191 41.0325 22.2475 40.9284 22.2712C40.7958 22.3043 40.8952 22.2807 40.9284 22.2759C40.8763 22.2807 40.8195 22.2854 40.7674 22.2901C40.668 22.2949 40.5685 22.2901 40.4739 22.2854C40.2703 22.2759 40.5591 22.3043 40.4407 22.2807C40.3697 22.2665 40.2939 22.2475 40.2229 22.2286C40.1756 22.2144 39.972 22.1339 40.0998 22.1907C40.0051 22.1481 39.9152 22.1007 39.83 22.0439C39.7968 22.0203 39.7637 21.9966 39.7258 21.9729C39.8536 22.0629 39.6927 21.9445 39.6785 21.9303C39.6027 21.8593 39.5317 21.7883 39.4654 21.7125C39.3376 21.5705 39.508 21.7835 39.4465 21.6841C39.4181 21.6415 39.3896 21.5989 39.3612 21.5563C39.3423 21.5231 39.3186 21.4853 39.2997 21.4474C39.2997 21.4521 39.2145 21.2675 39.2571 21.3622C39.2997 21.4569 39.2239 21.2675 39.2287 21.2722C39.2145 21.2343 39.205 21.1917 39.1908 21.1491C39.1766 21.097 39.1671 21.045 39.1577 20.9929C39.1482 20.9408 39.1482 20.9503 39.1577 21.0213C39.1529 20.9881 39.1529 20.955 39.1482 20.9266C39.1387 20.8272 39.1387 20.7277 39.1482 20.633C39.1482 20.6378 39.1766 20.4295 39.1577 20.5336C39.1387 20.6378 39.1813 20.4342 39.1813 20.4389C39.205 20.349 39.2334 20.259 39.2618 20.1691C39.2997 20.0602 39.1813 20.3064 39.276 20.1407C39.3044 20.0886 39.3328 20.0318 39.366 19.9797C39.3849 19.9465 39.4133 19.9087 39.4323 19.8755C39.5269 19.7098 39.3423 19.9655 39.4701 19.8234C39.5269 19.7619 39.579 19.7003 39.6406 19.6435C39.6832 19.6009 39.7305 19.5583 39.7779 19.5204C39.7542 19.5394 39.6737 19.5867 39.7826 19.5204C39.882 19.4636 39.9767 19.4021 40.0762 19.35C40.1803 19.2979 39.9199 19.3973 40.1093 19.3358C40.1472 19.3216 40.1898 19.3074 40.2277 19.2979C40.2797 19.2837 40.3271 19.2695 40.3792 19.26C40.417 19.2506 40.5543 19.2316 40.4123 19.2458C40.5117 19.2316 40.6064 19.2316 40.7058 19.2316C40.7627 19.2316 40.8147 19.2364 40.8716 19.2411C41.0231 19.2506 40.7769 19.2127 40.9378 19.2506C41.042 19.2742 41.1414 19.3026 41.2408 19.3358C41.4255 19.3926 41.132 19.2695 41.3024 19.3595C41.3545 19.3879 41.4113 19.4163 41.4634 19.4494C41.4965 19.4684 41.5344 19.4968 41.5675 19.5157C41.7048 19.5962 41.5107 19.4542 41.6196 19.5536C41.7096 19.6388 41.7948 19.724 41.88 19.814C41.8989 19.8376 41.9558 19.9229 41.8847 19.814C41.9179 19.8661 41.9558 19.9134 41.9842 19.9702C42.0126 20.0128 42.0315 20.0602 42.0599 20.1075C42.0741 20.1359 42.0883 20.1643 42.1025 20.1927C42.0741 20.1265 42.0741 20.1217 42.0883 20.1691C42.1262 20.278 42.1593 20.3869 42.183 20.5005C42.2162 20.633 42.1925 20.5336 42.1877 20.5005C42.1877 20.5904 42.1925 20.6757 42.1925 20.7656C42.1972 21.1349 42.5144 21.4947 42.9027 21.4758C43.2814 21.4569 43.6176 21.1633 43.6128 20.7656C43.5939 19.4968 42.7985 18.3984 41.6054 17.9722C40.4928 17.5745 39.1577 17.9533 38.4143 18.8623C37.6284 19.8234 37.4816 21.1917 38.1255 22.2712C38.7694 23.3459 40.0146 23.8762 41.2408 23.6537C42.6186 23.4027 43.5939 22.1386 43.6128 20.7656C43.6176 20.3963 43.2814 20.0365 42.9027 20.0554C42.5144 20.0696 42.1972 20.3679 42.1925 20.7656Z" fill="white"/>
<path d="M42.5997 26.5654C43.0636 28.5066 43.556 30.4477 43.9963 32.3936C43.9963 32.4031 44.0011 32.4125 44.0011 32.422C44.0011 32.4267 43.9963 32.3605 43.9963 32.3605C44.0011 32.4031 44.0011 32.4457 43.9963 32.4883C44.0105 32.4031 44.0105 32.4031 43.9963 32.4836C43.9869 32.5072 43.9111 32.6824 43.9821 32.5498C43.9679 32.5735 43.859 32.744 43.8969 32.6919C43.9585 32.6161 43.8164 32.7724 43.8212 32.7629C43.788 32.7913 43.7549 32.8197 43.7217 32.8481C43.7786 32.8008 43.7738 32.8055 43.7028 32.8528C43.646 32.8813 43.5892 32.9191 43.5276 32.9475C43.6602 32.8907 43.4613 32.957 43.4519 32.9617C43.2767 33.0186 43.5702 32.9712 43.3856 32.9759C43.3477 32.9759 43.3146 32.9759 43.2767 32.9759C43.1299 32.9759 42.9784 32.9759 42.8316 32.9759C42.4103 32.9759 42.1688 33.3026 42.1215 33.6861C42.0362 34.349 41.951 35.0118 41.8611 35.6746C41.809 36.0865 41.7522 36.4984 41.7001 36.9103C41.6859 37.0192 41.667 37.1281 41.6575 37.2417C41.6575 37.256 41.6528 37.2702 41.6528 37.2844C41.648 37.3317 41.6243 37.398 41.6575 37.2844C41.648 37.3128 41.648 37.3506 41.6338 37.3743C41.577 37.4643 41.6906 37.2844 41.6291 37.3743C41.5533 37.4879 41.6243 37.4169 41.6149 37.4027C41.6196 37.4075 41.487 37.5116 41.6196 37.4122C41.5959 37.4311 41.5675 37.4453 41.5439 37.4595C41.4586 37.5211 41.6338 37.4027 41.5439 37.4643C41.5202 37.4785 41.4823 37.4785 41.4539 37.4879C41.5723 37.4501 41.4444 37.4832 41.3924 37.4832C41.2077 37.4832 41.0278 37.4832 40.8431 37.4832C40.6159 37.4832 40.3839 37.4832 40.1566 37.4832C40.0809 37.4832 40.0099 37.4832 39.9341 37.4832C39.9057 37.4832 39.7542 37.4737 39.83 37.4832C39.9057 37.4974 39.6643 37.398 39.8016 37.4737C39.7684 37.4548 39.7305 37.4359 39.6974 37.4075C39.7874 37.4737 39.7021 37.4027 39.7021 37.398C39.6974 37.4075 39.7779 37.4879 39.7211 37.4217C39.7069 37.4075 39.6453 37.2938 39.6832 37.3743C39.7211 37.4548 39.669 37.3459 39.6737 37.3459C39.6595 37.2749 39.6548 37.2654 39.6643 37.3175C39.669 37.3601 39.669 37.3601 39.669 37.3175C39.6643 37.2512 39.6548 37.1849 39.6453 37.1187C39.598 36.7541 39.5506 36.3848 39.5033 36.0202C39.4039 35.2438 39.2997 34.4673 39.2003 33.6861C39.1529 33.3074 38.9162 32.9759 38.4901 32.9759C38.3954 32.9759 38.296 32.9759 38.2013 32.9759C38.1445 32.9759 38.0924 32.9759 38.0356 32.9759C37.993 32.9759 37.832 32.9617 37.9077 32.9759C38.0166 32.9949 37.8131 32.9523 37.8178 32.9523C37.7752 32.9428 37.7373 32.9286 37.6947 32.9144C37.8225 32.957 37.6189 32.8671 37.5763 32.8434C37.4106 32.7582 37.6237 32.8955 37.5385 32.8244C37.5006 32.7913 37.4627 32.7534 37.4248 32.7155C37.4012 32.6966 37.3491 32.6114 37.4201 32.7155C37.387 32.6635 37.3538 32.6114 37.3254 32.5546C37.3964 32.7013 37.3112 32.3841 37.3254 32.5593C37.3207 32.5167 37.3207 32.4741 37.3207 32.4315C37.3207 32.4504 37.2875 32.5782 37.3207 32.422C37.3254 32.4078 37.3301 32.3889 37.3301 32.3747C37.3538 32.2752 37.3775 32.1805 37.4012 32.0811C37.6284 31.1247 37.8604 30.1731 38.0877 29.2167C38.2912 28.374 38.4901 27.5312 38.6937 26.6885C38.7126 26.6033 38.7316 26.5181 38.7552 26.4328C38.7789 26.3476 38.8073 26.2671 38.8404 26.1819C38.7884 26.3097 38.902 26.0683 38.9209 26.0399C38.9493 25.9973 38.973 25.9547 39.0062 25.912C38.9872 25.9404 38.9162 26.002 39.0062 25.9168C39.0346 25.8931 39.063 25.86 39.0866 25.8316C39.1861 25.7227 38.992 25.8694 39.1245 25.8031C39.1577 25.7842 39.1908 25.7653 39.2239 25.7463C39.0961 25.8174 39.205 25.7605 39.2429 25.7416C39.2808 25.7274 39.4133 25.7085 39.2618 25.7274C39.3044 25.7227 39.347 25.7227 39.3897 25.7227C39.4181 25.7227 39.4465 25.7227 39.4796 25.7227C39.6785 25.7227 39.8773 25.7227 40.0762 25.7227C40.6396 25.7227 41.1982 25.7227 41.7616 25.7227C41.809 25.7227 41.8563 25.7227 41.9037 25.7227C41.9274 25.7227 41.951 25.7227 41.97 25.7227C42.1404 25.7227 41.8658 25.6801 42.022 25.7321C42.0505 25.7416 42.0978 25.7558 42.1309 25.7653C42.0031 25.7416 42.1073 25.7558 42.1641 25.7889C42.1972 25.8079 42.2256 25.8268 42.2588 25.8505C42.1262 25.7558 42.254 25.8552 42.2824 25.8836C42.3109 25.912 42.3345 25.9404 42.3582 25.9689C42.2588 25.8458 42.3629 25.9831 42.3819 26.0162C42.4103 26.0588 42.4292 26.1062 42.4529 26.1488C42.4671 26.1772 42.4813 26.2056 42.4908 26.234C42.4624 26.1724 42.4624 26.163 42.4766 26.2103C42.5381 26.3287 42.5712 26.447 42.5997 26.5654C42.6849 26.9394 43.1157 27.162 43.4755 27.0625C43.859 26.9584 44.0579 26.5654 43.9727 26.1866C43.7359 25.1687 43.0305 24.326 41.9274 24.3023C41.5107 24.2928 41.0893 24.3023 40.668 24.3023C40.2513 24.3023 39.83 24.2928 39.4086 24.3023C38.3102 24.326 37.6142 25.1829 37.3633 26.1866C36.9088 27.9952 36.4921 29.818 36.0613 31.6313C35.9287 32.19 35.8293 32.7203 36.1086 33.2695C36.369 33.7855 36.8946 34.1643 37.4438 34.3206C37.7894 34.4152 38.1445 34.3963 38.4948 34.3963C38.2581 34.1596 38.0214 33.9228 37.7847 33.6861C37.8793 34.42 37.974 35.1491 38.0687 35.8829C38.1208 36.2854 38.1729 36.6925 38.225 37.095C38.2344 37.1802 38.2439 37.2654 38.2534 37.3506C38.3007 37.862 38.5185 38.2928 38.9351 38.6006C39.3944 38.9414 39.9389 38.9036 40.4739 38.9036C40.9047 38.9036 41.3782 38.9556 41.7995 38.8657C42.2446 38.771 42.647 38.468 42.8695 38.0656C43.0163 37.8004 43.0447 37.5353 43.0778 37.2417C43.111 36.9151 43.1631 36.5884 43.2057 36.2617C43.3193 35.4048 43.4282 34.5478 43.5418 33.6861C43.3051 33.9228 43.0684 34.1596 42.8316 34.3963C43.2341 34.3963 43.6365 34.4152 44.0153 34.2685C44.6402 34.0317 45.1989 33.5299 45.3599 32.8623C45.483 32.3605 45.3315 31.8917 45.2131 31.4088C44.8912 30.0595 44.5692 28.7101 44.2425 27.3608C44.1478 26.9678 44.0532 26.5749 43.9585 26.1819C43.8685 25.8079 43.4471 25.5854 43.0826 25.6848C42.7133 25.7937 42.5097 26.1914 42.5997 26.5654Z" fill="white"/>
<path d="M9.44855 14.6107C9.44855 14.5444 9.45328 14.4781 9.45802 14.4118C9.46749 14.3266 9.46749 14.3266 9.45802 14.4071C9.46275 14.374 9.46749 14.3456 9.47695 14.3124C9.49116 14.2509 9.50536 14.1893 9.5243 14.1278C9.53377 14.0946 9.61899 13.8958 9.55271 14.0331C9.60479 13.9194 9.67107 13.8153 9.73262 13.7111C9.82731 13.5549 9.6474 13.7916 9.77049 13.659C9.8131 13.6117 9.85098 13.5691 9.89359 13.5217C9.9362 13.4791 9.98355 13.4365 10.0309 13.3986C10.1493 13.2945 9.95988 13.4365 10.083 13.3608C10.1351 13.3276 10.1871 13.2945 10.2392 13.2613C10.2582 13.2519 10.4523 13.1572 10.3765 13.1903C10.3008 13.2235 10.4759 13.1572 10.4949 13.1525C10.5659 13.1288 10.6369 13.1146 10.7079 13.0956C10.8547 13.0578 10.6085 13.0909 10.7742 13.0862C10.8405 13.0814 10.9068 13.0767 10.9731 13.0767C11.0393 13.0767 11.1056 13.0814 11.1719 13.0862C11.3708 13.1004 11.0488 13.053 11.2382 13.0956C11.3613 13.124 11.4797 13.1572 11.6028 13.2045C11.4607 13.1477 11.6596 13.2377 11.688 13.2519C11.7401 13.2803 11.7921 13.3134 11.8489 13.3466C11.8726 13.3655 11.901 13.3797 11.9247 13.3986C11.8726 13.356 11.8632 13.3513 11.901 13.3797C11.9578 13.4271 12.0099 13.4744 12.062 13.5217C12.1046 13.5644 12.1472 13.6117 12.1851 13.659C12.2845 13.7679 12.1425 13.5738 12.223 13.7111C12.2845 13.82 12.3508 13.9194 12.4029 14.0331C12.3413 13.8958 12.4124 14.0662 12.4218 14.0946C12.4408 14.1562 12.4597 14.2177 12.4739 14.2793C12.4834 14.3219 12.4928 14.3645 12.4976 14.4024C12.4881 14.3314 12.4881 14.3219 12.4928 14.374C12.5023 14.4497 12.5023 14.5255 12.5023 14.6012C12.507 14.9705 12.8243 15.3303 13.2125 15.3114C13.5913 15.2925 13.9274 14.9989 13.9227 14.6012C13.899 12.9962 12.597 11.6516 10.9731 11.6516C9.35386 11.6516 8.04713 12.9962 8.02346 14.6012C8.01872 14.9705 8.35487 15.3303 8.73363 15.3114C9.13133 15.3019 9.44381 15.0084 9.44855 14.6107Z" fill="white"/>
<path d="M21.3464 14.6107C21.3464 14.5444 21.3511 14.4781 21.3559 14.4118C21.3653 14.3266 21.3653 14.3266 21.3559 14.4071C21.3606 14.374 21.3653 14.3456 21.3748 14.3124C21.389 14.2509 21.4032 14.1893 21.4222 14.1278C21.4316 14.0946 21.5168 13.8958 21.4506 14.0331C21.5026 13.9194 21.5689 13.8153 21.6305 13.7111C21.7252 13.5549 21.5453 13.7916 21.6684 13.659C21.711 13.6117 21.7488 13.5691 21.7914 13.5217C21.8341 13.4791 21.8814 13.4365 21.9288 13.3986C22.0471 13.2945 21.8577 13.4365 21.9808 13.3608C22.0329 13.3276 22.085 13.2945 22.1371 13.2613C22.156 13.2519 22.3501 13.1572 22.2744 13.1903C22.1986 13.2235 22.3738 13.1572 22.3927 13.1525C22.4638 13.1288 22.5348 13.1146 22.6058 13.0956C22.7526 13.0578 22.5064 13.0909 22.6721 13.0862C22.7384 13.0814 22.8046 13.0767 22.8709 13.0767C22.9372 13.0767 23.0035 13.0814 23.0698 13.0862C23.2686 13.1004 22.9467 13.053 23.1361 13.0956C23.2592 13.124 23.3775 13.1572 23.5006 13.2045C23.3586 13.1477 23.5574 13.2377 23.5858 13.2519C23.6379 13.2803 23.69 13.3134 23.7468 13.3466C23.7705 13.3655 23.7989 13.3797 23.8226 13.3986C23.7705 13.356 23.761 13.3513 23.7989 13.3797C23.8557 13.4271 23.9078 13.4744 23.9599 13.5217C24.0025 13.5644 24.0451 13.6117 24.083 13.659C24.1824 13.7679 24.0403 13.5738 24.1208 13.7111C24.1824 13.82 24.2487 13.9194 24.3007 14.0331C24.2392 13.8958 24.3102 14.0662 24.3197 14.0946C24.3386 14.1562 24.3576 14.2177 24.3718 14.2793C24.3812 14.3219 24.3907 14.3645 24.3954 14.4024C24.386 14.3314 24.386 14.3219 24.3907 14.374C24.4002 14.4497 24.4002 14.5255 24.4002 14.6012C24.4049 14.9705 24.7221 15.3303 25.1103 15.3114C25.4891 15.2925 25.8253 14.9989 25.8205 14.6012C25.7969 12.9962 24.4949 11.6516 22.8709 11.6516C21.2517 11.6516 19.945 12.9962 19.9213 14.6012C19.9166 14.9705 20.2527 15.3303 20.6315 15.3114C21.0245 15.3019 21.3417 15.0084 21.3464 14.6107Z" fill="white"/>
<path d="M33.2395 14.6107C33.2395 14.5444 33.2443 14.4781 33.249 14.4118C33.2585 14.3266 33.2585 14.3266 33.249 14.4071C33.2537 14.374 33.2585 14.3456 33.2679 14.3124C33.2821 14.2509 33.2963 14.1893 33.3153 14.1278C33.3247 14.0946 33.41 13.8958 33.3437 14.0331C33.3958 13.9194 33.462 13.8153 33.5236 13.7111C33.6183 13.5549 33.4384 13.7916 33.5615 13.659C33.6041 13.6117 33.642 13.5691 33.6846 13.5217C33.7272 13.4791 33.7745 13.4365 33.8219 13.3986C33.9402 13.2945 33.7508 13.4365 33.8739 13.3608C33.926 13.3276 33.9781 13.2945 34.0302 13.2613C34.0491 13.2519 34.2432 13.1572 34.1675 13.1903C34.0917 13.2235 34.2669 13.1572 34.2858 13.1525C34.3569 13.1288 34.4279 13.1146 34.4989 13.0956C34.6457 13.0578 34.3995 13.0909 34.5652 13.0862C34.6315 13.0814 34.6977 13.0767 34.764 13.0767C34.8303 13.0767 34.8966 13.0814 34.9629 13.0862C35.1617 13.1004 34.8398 13.053 35.0292 13.0956C35.1523 13.124 35.2706 13.1572 35.3937 13.2045C35.2517 13.1477 35.4505 13.2377 35.4789 13.2519C35.531 13.2803 35.5831 13.3134 35.6399 13.3466C35.6636 13.3655 35.692 13.3797 35.7157 13.3986C35.6636 13.356 35.6541 13.3513 35.692 13.3797C35.7488 13.4271 35.8009 13.4744 35.853 13.5217C35.8956 13.5644 35.9382 13.6117 35.9761 13.659C36.0755 13.7679 35.9335 13.5738 36.0139 13.7111C36.0755 13.82 36.1418 13.9194 36.1939 14.0331C36.1323 13.8958 36.2033 14.0662 36.2128 14.0946C36.2317 14.1562 36.2507 14.2177 36.2649 14.2793C36.2743 14.3219 36.2838 14.3645 36.2885 14.4024C36.2791 14.3314 36.2791 14.3219 36.2838 14.374C36.2933 14.4497 36.2933 14.5255 36.2933 14.6012C36.298 14.9705 36.6152 15.3303 37.0035 15.3114C37.3822 15.2925 37.7184 14.9989 37.7136 14.6012C37.69 12.9962 36.388 11.6516 34.764 11.6516C33.1448 11.6516 31.8381 12.9962 31.8144 14.6012C31.8097 14.9705 32.1458 15.3303 32.5246 15.3114C32.9223 15.3019 33.2348 15.0084 33.2395 14.6107Z" fill="white"/>
<path d="M15.3998 8.61685C15.3998 8.55057 15.4046 8.48428 15.4093 8.418C15.4188 8.33278 15.4188 8.33278 15.4093 8.41327C15.414 8.38013 15.4188 8.35172 15.4282 8.31858C15.4425 8.25703 15.4567 8.19548 15.4756 8.13393C15.4851 8.10079 15.5703 7.90194 15.504 8.03924C15.5561 7.92561 15.6224 7.82145 15.6839 7.71729C15.7786 7.56105 15.5987 7.79778 15.7218 7.66521C15.7644 7.61787 15.8023 7.57526 15.8449 7.52791C15.8875 7.4853 15.9348 7.44269 15.9822 7.40481C16.1005 7.30065 15.9112 7.44269 16.0343 7.36694C16.0863 7.3338 16.1384 7.30065 16.1905 7.26751C16.2094 7.25804 16.4036 7.16335 16.3278 7.1965C16.2521 7.22964 16.4272 7.16335 16.4462 7.15862C16.5172 7.13495 16.5882 7.12074 16.6592 7.1018C16.806 7.06393 16.5598 7.09707 16.7255 7.09234C16.7918 7.0876 16.8581 7.08287 16.9244 7.08287C16.9906 7.08287 17.0569 7.0876 17.1232 7.09234C17.3221 7.10654 17.0001 7.05919 17.1895 7.1018C17.3126 7.13021 17.431 7.16335 17.554 7.2107C17.412 7.15388 17.6109 7.24384 17.6393 7.25804C17.6913 7.28645 17.7434 7.31959 17.8002 7.35273C17.8239 7.37167 17.8523 7.38588 17.876 7.40481C17.8239 7.3622 17.8144 7.35747 17.8523 7.38588C17.9091 7.43322 17.9612 7.48057 18.0133 7.52791C18.0559 7.57052 18.0985 7.61787 18.1364 7.66521C18.2358 7.77411 18.0938 7.57999 18.1743 7.71729C18.2358 7.82619 18.3021 7.92561 18.3542 8.03924C18.2926 7.90194 18.3637 8.07238 18.3731 8.10079C18.3921 8.16234 18.411 8.22389 18.4252 8.28543C18.4347 8.32805 18.4441 8.37066 18.4489 8.40853C18.4394 8.33751 18.4394 8.32805 18.4441 8.38013C18.4536 8.45588 18.4536 8.53163 18.4536 8.60738C18.4583 8.97667 18.7756 9.3365 19.1638 9.31756C19.5425 9.29862 19.8787 9.00508 19.874 8.60738C19.8503 7.00238 18.5483 5.65778 16.9244 5.65778C15.3052 5.65778 13.9984 7.00238 13.9748 8.60738C13.97 8.97667 14.3062 9.3365 14.6849 9.31756C15.0779 9.30809 15.3904 9.01455 15.3998 8.61685Z" fill="white"/>
<path d="M27.293 8.61685C27.293 8.55057 27.2977 8.48428 27.3024 8.418C27.3119 8.33278 27.3119 8.33278 27.3024 8.41327C27.3072 8.38013 27.3119 8.35172 27.3214 8.31858C27.3356 8.25703 27.3498 8.19548 27.3687 8.13393C27.3782 8.10079 27.4634 7.90194 27.3971 8.03924C27.4492 7.92561 27.5155 7.82145 27.577 7.71729C27.6717 7.56105 27.4918 7.79778 27.6149 7.66521C27.6575 7.61787 27.6954 7.57526 27.738 7.52791C27.7806 7.4853 27.828 7.44269 27.8753 7.40481C27.9937 7.30065 27.8043 7.44269 27.9274 7.36694C27.9795 7.3338 28.0316 7.30065 28.0836 7.26751C28.1026 7.25804 28.2967 7.16335 28.2209 7.1965C28.1452 7.22964 28.3204 7.16335 28.3393 7.15862C28.4103 7.13495 28.4813 7.12074 28.5524 7.1018C28.6991 7.06393 28.4529 7.09707 28.6186 7.09234C28.6849 7.0876 28.7512 7.08287 28.8175 7.08287C28.8838 7.08287 28.9501 7.0876 29.0163 7.09234C29.2152 7.10654 28.8932 7.05919 29.0826 7.1018C29.2057 7.13021 29.3241 7.16335 29.4472 7.2107C29.3051 7.15388 29.504 7.24384 29.5324 7.25804C29.5845 7.28645 29.6366 7.31959 29.6934 7.35273C29.717 7.37167 29.7454 7.38588 29.7691 7.40481C29.717 7.3622 29.7076 7.35747 29.7454 7.38588C29.8023 7.43322 29.8543 7.48057 29.9064 7.52791C29.949 7.57052 29.9916 7.61787 30.0295 7.66521C30.1289 7.77411 29.9869 7.57999 30.0674 7.71729C30.1289 7.82619 30.1952 7.92561 30.2473 8.03924C30.1858 7.90194 30.2568 8.07238 30.2662 8.10079C30.2852 8.16234 30.3041 8.22389 30.3183 8.28543C30.3278 8.32805 30.3373 8.37066 30.342 8.40853C30.3325 8.33751 30.3325 8.32805 30.3373 8.38013C30.3467 8.45588 30.3467 8.53163 30.3467 8.60738C30.3515 8.97667 30.6687 9.3365 31.0569 9.31756C31.4357 9.29862 31.7718 9.00508 31.7671 8.60738C31.7434 7.00238 30.4414 5.65778 28.8175 5.65778C27.1983 5.65778 25.8916 7.00238 25.8679 8.60738C25.8631 8.97667 26.1993 9.3365 26.5781 9.31756C26.971 9.30809 27.2882 9.01455 27.293 8.61685Z" fill="white"/>
<path d="M21.3464 2.95908C21.3464 2.89279 21.3511 2.82651 21.3559 2.76023C21.3653 2.675 21.3653 2.675 21.3559 2.75549C21.3606 2.72235 21.3653 2.69394 21.3748 2.6608C21.389 2.59925 21.4032 2.5377 21.4222 2.47615C21.4316 2.44301 21.5168 2.24416 21.4506 2.38146C21.5026 2.26784 21.5689 2.16368 21.6305 2.05952C21.7252 1.90328 21.5453 2.14 21.6684 2.00744C21.711 1.96009 21.7488 1.91748 21.7914 1.87014C21.8341 1.82752 21.8814 1.78491 21.9288 1.74704C22.0471 1.64288 21.8577 1.78491 21.9808 1.70916C22.0329 1.67602 22.085 1.64288 22.1371 1.60974C22.156 1.60027 22.3501 1.50558 22.2744 1.53872C22.1986 1.57186 22.3738 1.50558 22.3927 1.50084C22.4638 1.47717 22.5348 1.46297 22.6058 1.44403C22.7526 1.40615 22.5064 1.43929 22.6721 1.43456C22.7384 1.42983 22.8046 1.42509 22.8709 1.42509C22.9372 1.42509 23.0035 1.42983 23.0698 1.43456C23.2686 1.44876 22.9467 1.40142 23.1361 1.44403C23.2592 1.47244 23.3775 1.50558 23.5006 1.55292C23.3586 1.49611 23.5574 1.58606 23.5858 1.60027C23.6379 1.62868 23.69 1.66182 23.7468 1.69496C23.7705 1.7139 23.7989 1.7281 23.8226 1.74704C23.7705 1.70443 23.761 1.69969 23.7989 1.7281C23.8557 1.77545 23.9078 1.82279 23.9599 1.87014C24.0025 1.91275 24.0451 1.96009 24.083 2.00744C24.1824 2.11633 24.0403 1.92222 24.1208 2.05952C24.1824 2.16841 24.2487 2.26784 24.3007 2.38146C24.2392 2.24416 24.3102 2.41461 24.3197 2.44301C24.3386 2.50456 24.3576 2.56611 24.3718 2.62766C24.3812 2.67027 24.3907 2.71288 24.3954 2.75076C24.386 2.67974 24.386 2.67027 24.3907 2.72235C24.4002 2.7981 24.4002 2.87385 24.4002 2.94961C24.4049 3.3189 24.7221 3.67872 25.1103 3.65978C25.4891 3.64085 25.8253 3.34731 25.8205 2.94961C25.7969 1.3446 24.4949 0 22.8709 0C21.2517 0 19.945 1.3446 19.9213 2.94961C19.9166 3.3189 20.2527 3.67872 20.6315 3.65978C21.0245 3.65505 21.3417 3.35678 21.3464 2.95908Z" fill="white"/>
</svg>
