<svg width="19" height="19" viewBox="0 0 19 19" fill="none" xmlns="http://www.w3.org/2000/svg">
<path d="M6.5 0C7.05228 0 7.5 0.44772 7.5 1V2H11.5V1C11.5 0.44772 11.9477 0 12.5 0C13.0523 0 13.5 0.44772 13.5 1V2H16.5C17.6046 2 18.5 2.89543 18.5 4V17C18.5 18.1046 17.6046 19 16.5 19H2.5C1.39543 19 0.5 18.1046 0.5 17V4C0.5 2.89543 1.39543 2 2.5 2H5.5V1C5.5 0.44772 5.94772 0 6.5 0ZM5.5 4H2.5V7H16.5V4H13.5V5C13.5 5.55228 13.0523 6 12.5 6C11.9477 6 11.5 5.55228 11.5 5V4H7.5V5C7.5 5.55228 7.05228 6 6.5 6C5.94772 6 5.5 5.55228 5.5 5V4ZM16.5 9H2.5V17H16.5V9Z" fill="white"/>
</svg>
