<svg width="36" height="36" viewBox="0 0 36 36" fill="none" xmlns="http://www.w3.org/2000/svg">
<path d="M9 6C9 4.34315 10.3431 3 12 3H24C25.6569 3 27 4.34315 27 6V30C27 31.6569 25.6569 33 24 33H12C10.3431 33 9 31.6569 9 30V6Z" stroke="#141414" stroke-width="2" stroke-linecap="round"/>
<path d="M13.5 9.5C13.2239 9.5 13 9.27614 13 9C13 8.72386 13.2239 8.5 13.5 8.5C13.7761 8.5 14 8.72386 14 9C14 9.27614 13.7761 9.5 13.5 9.5ZM18 9.5C17.7239 9.5 17.5 9.27614 17.5 9C17.5 8.72386 17.7239 8.5 18 8.5C18.2761 8.5 18.5 8.72386 18.5 9C18.5 9.27614 18.2761 9.5 18 9.5ZM22.5 9.5C22.2239 9.5 22 9.27614 22 9C22 8.72386 22.2239 8.5 22.5 8.5C22.7761 8.5 23 8.72386 23 9C23 9.27614 22.7761 9.5 22.5 9.5ZM13.5 14C13.2239 14 13 13.7761 13 13.5C13 13.2239 13.2239 13 13.5 13C13.7761 13 14 13.2239 14 13.5C14 13.7761 13.7761 14 13.5 14ZM18 14C17.7239 14 17.5 13.7761 17.5 13.5C17.5 13.2239 17.7239 13 18 13C18.2761 13 18.5 13.2239 18.5 13.5C18.5 13.7761 18.2761 14 18 14ZM22.5 14C22.2239 14 22 13.7761 22 13.5C22 13.2239 22.2239 13 22.5 13C22.7761 13 23 13.2239 23 13.5C23 13.7761 22.7761 14 22.5 14ZM13.5 29C13.2239 29 13 28.7761 13 28.5C13 28.2239 13.2239 28 13.5 28C13.7761 28 14 28.2239 14 28.5C14 28.7761 13.7761 29 13.5 29ZM18 29C17.7239 29 17.5 28.7761 17.5 28.5C17.5 28.2239 17.7239 28 18 28C18.2761 28 18.5 28.2239 18.5 28.5C18.5 28.7761 18.2761 29 18 29ZM22.5 29C22.2239 29 22 28.7761 22 28.5C22 28.2239 22.2239 28 22.5 28C22.7761 28 23 28.2239 23 28.5C23 28.7761 22.7761 29 22.5 29ZM13.5 18.5C13.2239 18.5 13 18.2761 13 18C13 17.7239 13.2239 17.5 13.5 17.5C13.7761 17.5 14 17.7239 14 18C14 18.2761 13.7761 18.5 13.5 18.5ZM18 18.5C17.7239 18.5 17.5 18.2761 17.5 18C17.5 17.7239 17.7239 17.5 18 17.5C18.2761 17.5 18.5 17.7239 18.5 18C18.5 18.2761 18.2761 18.5 18 18.5Z" fill="#141414" stroke="#141414" stroke-width="2"/>
</svg>
