<svg width="102" height="18" viewBox="0 0 102 18" fill="none" xmlns="http://www.w3.org/2000/svg">
<path fill-rule="evenodd" clip-rule="evenodd" d="M12.7107 2.56594V0C12.7107 0 6.03639 0.00180192 5.97683 0.00420449C5.30786 0.0262875 4.64863 0.163038 4.03107 0.407835C3.16549 0.753862 2.40492 1.29958 1.81856 1.99533C1.23588 2.68873 0.835619 3.50362 0.650849 4.37267C0.47599 5.20503 0.500022 6.06395 0.721178 6.88635C0.925846 7.64302 1.29678 8.35019 1.80969 8.96156C2.34397 9.59881 3.02434 10.1123 3.79917 10.4632C4.63963 10.8436 5.56886 11.0135 6.49828 10.9569C7.16186 10.9136 7.81208 10.7591 8.41869 10.5004L8.44657 10.4884L8.47952 10.4734C8.69772 10.3766 8.90915 10.2667 9.11248 10.1442C9.15493 10.119 9.19611 10.0926 9.23793 10.0667L9.2506 10.0583L9.25187 10.0577L9.26454 10.0487C9.88881 9.64346 10.4224 9.12518 10.8346 8.52369C10.9211 8.39791 11.0014 8.26844 11.0753 8.13568C11.3667 7.6144 11.5706 7.05328 11.6798 6.47251C11.8658 5.47635 11.7678 4.45117 11.3959 3.50294C11.291 3.23359 11.1621 2.97318 11.0107 2.72451C10.986 2.68486 10.922 2.60198 10.8992 2.56534H12.7107V2.56594ZM6.15677 8.41137H6.1536C4.49866 8.41137 3.15798 7.10258 3.15798 5.48866C3.15798 3.87413 4.49866 2.56594 6.1536 2.56594C6.18021 2.56594 6.20746 2.56594 6.23343 2.56774H6.24611C6.48944 2.57455 6.73088 2.61068 6.9646 2.67525C8.22545 3.02002 9.14923 4.14863 9.14923 5.48866C9.14923 6.98906 7.98975 8.22638 6.49701 8.39155L6.41908 8.39996H6.41718C6.34681 8.40618 6.27622 8.40979 6.20556 8.41077L6.15677 8.41137V8.41137Z" fill="#AABFC5"/>
<path fill-rule="evenodd" clip-rule="evenodd" d="M6.23328 18C2.79668 18 0 15.2719 0 11.9185C0 10.7166 0.359247 9.59463 0.979534 8.65103C1.58778 9.63427 2.2727 10.1815 2.92593 10.5454C2.73537 10.9806 2.63761 11.4473 2.63828 11.9185C2.63828 13.8526 4.25141 15.4263 6.23328 15.4263C8.21643 15.4263 9.82829 13.8526 9.82829 11.9185C9.83001 11.2576 9.63737 10.6092 9.27199 10.0463C8.63777 9.06907 7.52138 8.41738 6.25103 8.41137H6.20161L6.12431 8.41257C4.85649 8.40116 3.77685 7.62213 3.35171 6.52776C4.23668 6.0739 5.22711 5.83649 6.23328 5.83702C7.18792 5.83625 8.12917 6.0499 8.97991 6.46049C9.80302 6.85718 10.5237 7.42118 11.0904 8.11225C11.9857 9.19917 12.4703 10.5395 12.4666 11.9185C12.4666 15.2719 9.67053 18 6.23328 18V18Z" fill="#AABFC5"/>
<path fill-rule="evenodd" clip-rule="evenodd" d="M11.4972 3.7834C10.3783 3.28607 8.52185 2.88064 6.96828 2.67522C6.73334 2.61022 6.49062 2.57389 6.24599 2.5671L10.8991 2.5659C10.9225 2.60194 10.9859 2.68603 11.0106 2.72567C11.1627 2.97254 11.2894 3.23442 11.3958 3.5035C11.4319 3.596 11.4655 3.6897 11.4972 3.7834V3.7834ZM9.27202 10.0439C9.26988 10.0459 9.26754 10.0477 9.26505 10.0493L9.25175 10.0583H9.25048L9.23718 10.0673C9.19536 10.0931 9.15481 10.1196 9.11172 10.1454C8.90858 10.2676 8.69737 10.3774 8.4794 10.4739C8.17274 9.76939 7.34083 8.86242 6.26943 8.43597L6.20734 8.41194C6.22803 8.41137 6.24874 8.41137 6.26943 8.41194C7.53345 8.42215 8.63906 9.07084 9.27139 10.0439" fill="white"/>
<path fill-rule="evenodd" clip-rule="evenodd" d="M25.5192 8.39697V10.8788H28.6219C28.1683 12.0711 26.9537 13.076 25.1796 13.076C22.6719 13.076 21.11 11.2668 21.11 9.15978C21.11 6.54159 22.8455 4.92466 25.2785 4.92466C26.2827 4.92466 27.5828 5.19855 28.3507 6.39143H31.4579C30.4885 3.67953 27.9129 2.34491 25.2385 2.34491C21.3609 2.34491 18.2931 5.13008 18.2931 9.1784C18.2931 12.7174 21.1474 15.6737 25.1612 15.6737C26.9701 15.6737 28.3241 15.0851 29.2321 14.1499V15.4094H31.7899V8.39757H25.5192V8.39697ZM39.922 12.19C39.3043 12.9246 38.5712 13.3192 37.8958 13.3192C36.6413 13.3192 35.9082 12.548 35.9082 11.1173V6.39143H33.2256V11.3617C33.2256 13.9787 34.8463 15.6924 37.2774 15.6924C38.3197 15.6924 39.1687 15.353 39.9214 14.7692V15.4094H42.6034V6.39143H39.9214V12.19H39.922ZM50.9871 6.91939C50.2731 6.46711 49.405 6.20343 48.3628 6.20343C45.8157 6.20343 43.7508 8.25521 43.7508 10.91C43.7508 13.527 45.8157 15.5974 48.3628 15.5974C49.405 15.5974 50.2731 15.3344 50.9871 14.8827V15.4094H53.6691V6.39143H50.9871V6.91879V6.91939ZM50.9871 12.3408C50.389 13.1126 49.5976 13.3763 48.8063 13.3763C47.3978 13.3763 46.4138 12.2279 46.4138 10.91C46.4138 9.57302 47.3978 8.40598 48.8063 8.40598C49.5983 8.40598 50.389 8.66966 50.9871 9.4607V12.3408V12.3408ZM58.0244 6.39143H55.3418V15.4094H58.0238V10.0247C58.7955 9.19582 59.8188 8.78138 61.2659 8.72552V6.24067C59.8954 6.24067 58.8538 6.65511 58.0238 7.40831V6.39083L58.0244 6.39143ZM68.7512 6.91939C68.0371 6.46711 67.1691 6.20343 66.1274 6.20343C63.5804 6.20343 61.5149 8.27444 61.5149 10.8914C61.5149 13.5457 63.5804 15.5974 66.1274 15.5974C67.1691 15.5974 68.0371 15.3344 68.7518 14.8827V15.4094H71.4338V2.5275H68.7518V6.91879L68.7512 6.91939ZM68.7512 12.3408C68.153 13.1312 67.3623 13.3949 66.571 13.3949C65.1625 13.3949 64.1779 12.2279 64.1779 10.8914C64.1779 9.57302 65.1625 8.4252 66.571 8.4252C67.3623 8.4252 68.153 8.68828 68.7518 9.4607V12.3408H68.7512ZM84.4959 6.91939C83.7812 6.46711 82.9132 6.20343 81.871 6.20343C79.3239 6.20343 77.259 8.25521 77.259 10.91C77.259 13.527 79.3239 15.5974 81.8716 15.5974C82.9132 15.5974 83.7812 15.3344 84.4953 14.8827V15.4094H87.1773V6.39143H84.4953V6.91879L84.4959 6.91939ZM84.4959 12.3408C83.8972 13.1126 83.1065 13.3763 82.3151 13.3763C80.9066 13.3763 79.922 12.2279 79.922 10.91C79.922 9.57302 80.9066 8.40598 82.3151 8.40598C83.1065 8.40598 83.8972 8.66966 84.4953 9.4607V12.3408H84.4959ZM94.0942 6.10913C93.052 6.10913 92.203 6.44789 91.4502 7.03171V6.39083H88.7682V15.4088H91.4502V9.61026C92.068 8.87628 92.8011 8.48106 93.4765 8.48106C94.731 8.48106 95.4641 9.25288 95.4641 10.6836V15.4088H98.1467V10.4578C98.1467 7.82155 96.5253 6.10913 94.0942 6.10913V6.10913ZM73.3187 15.4094H76.0007V6.39083H73.3187V15.4094ZM73.3187 5.1445H76.0007V2.52871H73.3187V5.1445ZM101.287 5.74334C101.287 6.26169 100.85 6.6491 100.331 6.6491C99.8118 6.6491 99.3752 6.26169 99.3752 5.74334C99.3752 5.22558 99.8118 4.83397 100.331 4.83397C100.851 4.83397 101.287 5.22558 101.287 5.74334V5.74334ZM101.075 5.74334C101.076 5.55351 100.998 5.3709 100.858 5.23517C100.718 5.09943 100.527 5.02152 100.327 5.01836C99.9296 5.01836 99.5837 5.3367 99.5837 5.74334C99.5837 6.14637 99.9296 6.4611 100.327 6.4611C100.729 6.4611 101.075 6.14637 101.075 5.74334ZM100.504 5.85145L100.736 6.14276H100.54L100.324 5.87007H100.17V6.14276H100.016V5.30186H100.378C100.567 5.30186 100.709 5.41719 100.709 5.59017C100.709 5.72051 100.627 5.81241 100.504 5.85085V5.85145ZM100.374 5.73192C100.477 5.73192 100.547 5.67426 100.547 5.58597C100.547 5.50188 100.477 5.44422 100.374 5.44422H100.17V5.73252H100.374V5.73192Z" fill="#AABFC5"/>
</svg>
