<svg xmlns="http://www.w3.org/2000/svg" xmlns:xlink="http://www.w3.org/1999/xlink" viewBox="0 0 126.05 30.95"><defs><style>.cls-1{fill:#0d3f5e;}.cls-2{fill:#0ca766;}.cls-3{fill:#008eb1;}.cls-4{fill:url(#linear-gradient);}</style><linearGradient id="linear-gradient" x1="27.56" y1="0.41" x2="27.56" y2="15.65" gradientUnits="userSpaceOnUse"><stop offset="0" stop-color="#0ca766"/><stop offset="0.21" stop-color="#0aa470"/><stop offset="0.57" stop-color="#069b89"/><stop offset="1" stop-color="#008eb1"/></linearGradient></defs><g id="Layer_2" data-name="Layer 2"><g id="Layer_1-2" data-name="Layer 1"><path class="cls-1" d="M40.72,13V0h2.46V13Z"/><path class="cls-1" d="M45.45,13V3.79h2.3V5h.34a2.42,2.42,0,0,1,.83-.92,3.24,3.24,0,0,1,1.86-.43,3.55,3.55,0,0,1,1.89.49A3.38,3.38,0,0,1,53.93,5.5a4.28,4.28,0,0,1,.44,2V13H52V7.7a2.16,2.16,0,0,0-.51-1.56,2,2,0,0,0-1.46-.52,2.09,2.09,0,0,0-1.68.71,3.1,3.1,0,0,0-.59,2V13Z"/><path class="cls-1" d="M60.54,13.28a5.17,5.17,0,0,1-3-.78,3.23,3.23,0,0,1-1.4-2.23l2.16-.56a2.24,2.24,0,0,0,.44,1,1.62,1.62,0,0,0,.76.53,2.91,2.91,0,0,0,1,.16,2,2,0,0,0,1.21-.29.86.86,0,0,0,.39-.71.73.73,0,0,0-.38-.66,3.18,3.18,0,0,0-1.19-.38l-.52-.1a8.85,8.85,0,0,1-1.76-.51A3.25,3.25,0,0,1,57,7.87a2.26,2.26,0,0,1-.48-1.49,2.45,2.45,0,0,1,1-2.11,4.37,4.37,0,0,1,2.64-.74,4.5,4.5,0,0,1,2.57.69A3.17,3.17,0,0,1,64.07,6l-2.18.67a1.53,1.53,0,0,0-.6-1,2,2,0,0,0-1.13-.3,1.83,1.83,0,0,0-1,.24.73.73,0,0,0-.35.64.7.7,0,0,0,.37.66,3.09,3.09,0,0,0,1,.32l.53.1a11.42,11.42,0,0,1,1.88.49,3.16,3.16,0,0,1,1.34.87,2.26,2.26,0,0,1,.5,1.54,2.65,2.65,0,0,1-1.06,2.24A4.55,4.55,0,0,1,60.54,13.28Z"/><path class="cls-1" d="M69.81,13.17a3.54,3.54,0,0,1-1.88-.49,3.4,3.4,0,0,1-1.26-1.37,4.31,4.31,0,0,1-.45-2V3.79h2.35V9.11a2.17,2.17,0,0,0,.51,1.57,2,2,0,0,0,1.46.52,2,2,0,0,0,1.67-.72,3,3,0,0,0,.6-2V3.79h2.34V13h-2.3V11.81h-.34a2.51,2.51,0,0,1-.84.91A3.13,3.13,0,0,1,69.81,13.17Z"/><path class="cls-1" d="M77.55,13V3.79h2.31v1h.33A1.44,1.44,0,0,1,80.87,4,2.22,2.22,0,0,1,82,3.76h1.11V5.84H81.94a2.22,2.22,0,0,0-1.47.48,1.78,1.78,0,0,0-.58,1.46V13Z"/><path class="cls-1" d="M87.49,13.28a4.32,4.32,0,0,1-1.76-.34,2.88,2.88,0,0,1-1.24-1A2.78,2.78,0,0,1,84,10.32a2.71,2.71,0,0,1,.46-1.59,2.76,2.76,0,0,1,1.27-1,4.81,4.81,0,0,1,1.85-.33h2.53V6.92a1.49,1.49,0,0,0-.41-1.07,1.78,1.78,0,0,0-1.31-.42,1.84,1.84,0,0,0-1.3.4,2,2,0,0,0-.56,1l-2.15-.72a3.72,3.72,0,0,1,.71-1.29,3.56,3.56,0,0,1,1.32-.95,5.06,5.06,0,0,1,2-.37,4.24,4.24,0,0,1,2.88.92A3.26,3.26,0,0,1,92.4,7.09v3.44c0,.37.18.56.53.56h.74V13H92.11A1.88,1.88,0,0,1,91,12.69a1.09,1.09,0,0,1-.44-.9v0h-.36a2.46,2.46,0,0,1-.33.59A2.21,2.21,0,0,1,89,13,3.4,3.4,0,0,1,87.49,13.28Zm.41-1.9a2.36,2.36,0,0,0,1.61-.54,1.86,1.86,0,0,0,.63-1.46V9.19H87.77a1.65,1.65,0,0,0-1,.28.9.9,0,0,0-.37.78,1,1,0,0,0,.39.82A1.77,1.77,0,0,0,87.9,11.38Z"/><path class="cls-1" d="M95.35,13V3.79h2.31V5H98a2.42,2.42,0,0,1,.83-.92,3.24,3.24,0,0,1,1.86-.43,3.55,3.55,0,0,1,1.89.49,3.38,3.38,0,0,1,1.26,1.36,4.41,4.41,0,0,1,.44,2V13h-2.34V7.7a2.16,2.16,0,0,0-.51-1.56A2,2,0,0,0,100,5.62a2.09,2.09,0,0,0-1.68.71,3.1,3.1,0,0,0-.59,2V13Z"/><path class="cls-1" d="M111,13.28a5.18,5.18,0,0,1-2.43-.56,4.19,4.19,0,0,1-1.72-1.62,4.91,4.91,0,0,1-.63-2.56V8.28a5,5,0,0,1,.63-2.57,4.19,4.19,0,0,1,1.72-1.62A5.3,5.3,0,0,1,111,3.53a5.11,5.11,0,0,1,2.27.47,4.05,4.05,0,0,1,1.53,1.27,4.39,4.39,0,0,1,.78,1.84l-2.27.48a2.63,2.63,0,0,0-.34-1,1.89,1.89,0,0,0-.73-.7,2.37,2.37,0,0,0-1.18-.26,2.69,2.69,0,0,0-1.28.3,2.2,2.2,0,0,0-.89.92,3,3,0,0,0-.33,1.47V8.5a3.05,3.05,0,0,0,.33,1.48,2.17,2.17,0,0,0,.89.91,2.58,2.58,0,0,0,1.28.31,2.18,2.18,0,0,0,1.61-.55,2.64,2.64,0,0,0,.69-1.44l2.27.54a5,5,0,0,1-.83,1.79,4.08,4.08,0,0,1-1.53,1.28A5.11,5.11,0,0,1,111,13.28Z"/><path class="cls-1" d="M121.61,13.28a4.91,4.91,0,0,1-2.43-.58A4.22,4.22,0,0,1,117.54,11,5.16,5.16,0,0,1,117,8.52V8.3a5.27,5.27,0,0,1,.57-2.52,4.11,4.11,0,0,1,1.62-1.66,4.87,4.87,0,0,1,2.42-.59,4.5,4.5,0,0,1,2.36.61,4.21,4.21,0,0,1,1.57,1.67,5.34,5.34,0,0,1,.55,2.49v.8h-6.71a2.06,2.06,0,0,0,.71,1.54,2.34,2.34,0,0,0,1.63.6,2.11,2.11,0,0,0,1.45-.43,3,3,0,0,0,.71-1l1.92,1a5.7,5.7,0,0,1-.76,1.05,4.07,4.07,0,0,1-1.31,1A4.67,4.67,0,0,1,121.61,13.28Zm-2.25-5.93h4.31A1.85,1.85,0,0,0,123,6.06a2.55,2.55,0,0,0-3,0A2,2,0,0,0,119.36,7.35Z"/><path class="cls-1" d="M40.72,30.69l4.25-13h2.11l4.25,13H50.09L49,27.24H43.08L42,30.69Zm2.69-4.52h5.23l-2.5-7.75h-.23Z"/><path class="cls-1" d="M56.93,31a4.87,4.87,0,0,1-2.79-.78,3.5,3.5,0,0,1-1.42-2.58l1.09-.2a3.23,3.23,0,0,0,.6,1.55,2.63,2.63,0,0,0,1.12.81,4,4,0,0,0,1.4.24,3.21,3.21,0,0,0,1.79-.46,1.42,1.42,0,0,0,.67-1.25,1.15,1.15,0,0,0-.64-1.13,6.21,6.21,0,0,0-1.69-.5l-.86-.15a6.78,6.78,0,0,1-1.54-.45,2.84,2.84,0,0,1-1.08-.83,2.06,2.06,0,0,1-.4-1.3,2.13,2.13,0,0,1,.92-1.83,4,4,0,0,1,2.44-.67,4.06,4.06,0,0,1,2.47.69,3.09,3.09,0,0,1,1.18,2l-1,.22a2.12,2.12,0,0,0-.88-1.52,3.11,3.11,0,0,0-1.73-.45,3,3,0,0,0-1.63.39,1.29,1.29,0,0,0-.62,1.15A1.19,1.19,0,0,0,54.85,25a4.29,4.29,0,0,0,1.52.51l.85.15a7.68,7.68,0,0,1,1.67.43,2.77,2.77,0,0,1,1.18.81,2,2,0,0,1,.44,1.37,2.29,2.29,0,0,1-1,2A4.32,4.32,0,0,1,56.93,31Z"/><path class="cls-1" d="M66.73,31a4.87,4.87,0,0,1-2.79-.78,3.53,3.53,0,0,1-1.42-2.58l1.09-.2a3.14,3.14,0,0,0,.61,1.55,2.54,2.54,0,0,0,1.11.81,4.08,4.08,0,0,0,1.4.24,3.19,3.19,0,0,0,1.79-.46,1.43,1.43,0,0,0,.68-1.25,1.16,1.16,0,0,0-.64-1.13,6.41,6.41,0,0,0-1.7-.5L66,26.5a6.63,6.63,0,0,1-1.54-.45,2.8,2.8,0,0,1-1.09-.83,2.29,2.29,0,0,1,.52-3.13,4,4,0,0,1,2.44-.67,4.09,4.09,0,0,1,2.48.69,3.12,3.12,0,0,1,1.17,2l-1,.22a2.09,2.09,0,0,0-.88-1.52,3.11,3.11,0,0,0-1.73-.45,3,3,0,0,0-1.63.39,1.28,1.28,0,0,0-.61,1.15A1.18,1.18,0,0,0,64.65,25a4.29,4.29,0,0,0,1.52.51l.86.15a8,8,0,0,1,1.67.43,2.79,2.79,0,0,1,1.17.81,2,2,0,0,1,.44,1.37,2.27,2.27,0,0,1-1,2A4.32,4.32,0,0,1,66.73,31Z"/><path class="cls-1" d="M73.33,20.12a1,1,0,0,1-1-1,1,1,0,0,1,.28-.7,1,1,0,0,1,.69-.27.92.92,0,0,1,.69.27.94.94,0,0,1,.27.7.93.93,0,0,1-.27.68A.89.89,0,0,1,73.33,20.12Zm-.56,10.57v-9h1.12v9Z"/><path class="cls-1" d="M80.5,31a4.91,4.91,0,0,1-2.79-.78,3.52,3.52,0,0,1-1.41-2.58l1.09-.2a3.23,3.23,0,0,0,.6,1.55,2.6,2.6,0,0,0,1.11.81,4.08,4.08,0,0,0,1.4.24,3.16,3.16,0,0,0,1.79-.46A1.43,1.43,0,0,0,83,28.28a1.15,1.15,0,0,0-.64-1.13,6.29,6.29,0,0,0-1.7-.5l-.85-.15a6.78,6.78,0,0,1-1.54-.45,2.7,2.7,0,0,1-1.08-.83,2.06,2.06,0,0,1-.4-1.3,2.11,2.11,0,0,1,.92-1.83,4,4,0,0,1,2.44-.67,4.06,4.06,0,0,1,2.47.69,3.13,3.13,0,0,1,1.18,2l-1,.22a2.12,2.12,0,0,0-.88-1.52,3.11,3.11,0,0,0-1.73-.45,3,3,0,0,0-1.64.39,1.3,1.3,0,0,0-.61,1.15A1.19,1.19,0,0,0,78.43,25a4.29,4.29,0,0,0,1.52.51l.85.15a7.68,7.68,0,0,1,1.67.43,2.83,2.83,0,0,1,1.18.81,2,2,0,0,1,.43,1.37,2.28,2.28,0,0,1-1,2A4.35,4.35,0,0,1,80.5,31Z"/><path class="cls-1" d="M89.84,30.69a1.47,1.47,0,0,1-1.09-.37,1.43,1.43,0,0,1-.36-1v-6.6H85.5v-1h2.89V18.3H89.5v3.38h3.16v1H89.5v6.45a.5.5,0,0,0,.56.56h2.11v1Z"/><rect class="cls-2" x="24.43" y="15.13" width="6.26" height="15.56"/><path class="cls-3" d="M15.35,30.69A15.35,15.35,0,1,1,30.69,15.35,15.36,15.36,0,0,1,15.35,30.69Zm0-24.43a9.09,9.09,0,1,0,9.08,9.09A9.1,9.1,0,0,0,15.35,6.26Z"/><rect class="cls-4" x="24.43" width="6.26" height="15.56"/></g></g></svg>