<svg width="500" height="500" viewBox="0 0 500 500" fill="none" xmlns="http://www.w3.org/2000/svg">
<path d="M63.19 301.3L76.31 301.58L82.97 301.69C85.2 301.74 87.44 301.69 89.67 301.75H90.11V301.3L90.16 290.11V289.61H89.66L76.42 289.67C72.01 289.67 67.59 289.79 63.18 289.84H62.9V290.11C62.9 292.01 62.98 293.9 63.03 295.76L63.19 301.3ZM63.19 301.3L63.33 295.65C63.38 293.78 63.44 291.94 63.46 290.11L63.19 290.38C67.6 290.43 72.02 290.54 76.43 290.55L89.67 290.61L89.17 290.11L89.22 301.3L89.67 300.85C87.49 300.85 85.31 300.85 83.12 300.91L76.54 301.02L63.19 301.3Z" fill="#EBEBEB"/>
<path d="M78 315.41L91.13 315.69L97.79 315.8C100.01 315.85 102.25 315.8 104.48 315.85H104.92V315.4L104.97 304.21V303.71H104.47L91.23 303.77C86.82 303.77 82.4 303.89 77.99 303.94H77.72V304.21C77.72 306.11 77.8 308 77.85 309.86L78 315.41ZM78 315.41L78.14 309.76C78.14 307.89 78.25 306.05 78.27 304.22L78 304.49C82.41 304.54 86.83 304.65 91.24 304.66L104.48 304.72L103.98 304.22L104 315.41L104.44 314.96C102.26 314.96 100.08 314.96 97.9 315.02L91.32 315.13L78 315.41Z" fill="#EBEBEB"/>
<path d="M48.42 315.41L61.54 315.69L68.2 315.8C70.43 315.85 72.67 315.8 74.9 315.85H75.34V315.4L75.4 304.21V303.71H74.9L61.66 303.77C57.24 303.77 52.83 303.89 48.42 303.94H48.14V304.21C48.14 306.11 48.23 308 48.28 309.86L48.42 315.41ZM48.42 315.41L48.56 309.76C48.56 307.89 48.67 306.05 48.69 304.22L48.42 304.49C52.83 304.54 57.24 304.65 61.66 304.66L74.9 304.72L74.4 304.22L74.45 315.41L74.9 314.96C72.72 314.96 70.54 314.96 68.35 315.02L61.77 315.13L48.42 315.41Z" fill="#EBEBEB"/>
<path d="M425 301.3L438.13 301.58L444.79 301.69C447.01 301.74 449.25 301.69 451.48 301.75H451.93V301.3V290.11V289.61H451.42L438.18 289.67C433.77 289.67 429.36 289.79 424.94 289.84H424.67V290.11C424.67 292.01 424.76 293.9 424.8 295.76L425 301.3ZM425 301.3L425.14 295.65C425.14 293.78 425.26 291.94 425.28 290.11L425 290.38C429.42 290.43 433.83 290.54 438.24 290.55L451.48 290.61L450.98 290.11L451.04 301.3L451.48 300.85C449.3 300.85 447.13 300.85 444.94 300.91L438.36 301.02L425 301.3Z" fill="#EBEBEB"/>
<path d="M410.25 315.41L423.38 315.69L430 315.8C432.22 315.85 434.46 315.8 436.69 315.85H437.14V315.4V304.21V303.71H436.64L423.4 303.77C418.99 303.77 414.57 303.89 410.16 303.94H410V304.21C410 306.11 410.08 308 410.13 309.86L410.25 315.41ZM410.25 315.41L410.39 309.76C410.39 307.89 410.51 306.05 410.52 304.22L410.25 304.49C414.66 304.54 419.08 304.65 423.49 304.66L436.73 304.72L436.23 304.22L436.29 315.41L436.73 314.96C434.55 314.96 432.37 314.96 430.19 315.02L423.61 315.13L410.25 315.41Z" fill="#EBEBEB"/>
<path d="M339.29 204.71L352.41 204.99L359.07 205.1C361.3 205.15 363.54 205.1 365.77 205.15H366.21V204.7L366.26 193.51V193H365.76L352.52 193.06C348.11 193.06 343.69 193.17 339.28 193.23H339V193.5C339 195.4 339.08 197.29 339.13 199.15L339.29 204.71ZM339.29 204.71L339.43 199.05C339.43 197.19 339.54 195.35 339.56 193.52L339.29 193.79C343.7 193.84 348.12 193.95 352.53 193.96L365.77 194.02L365.27 193.52V204.71L365.72 204.26C363.54 204.26 361.36 204.26 359.17 204.32L352.59 204.43L339.29 204.71Z" fill="#EBEBEB"/>
<path d="M354.06 218.82L367.19 219.1L373.85 219.21C376.07 219.21 378.31 219.21 380.54 219.21H381V218.76V207.63V207.13H380.5L367.26 207.19C362.85 207.19 358.43 207.3 354.02 207.36H353.74V207.63C353.74 209.53 353.82 211.42 353.87 213.28L354.06 218.82ZM354.06 218.82L354.2 213.16C354.25 211.3 354.31 209.46 354.33 207.63L354.06 207.9C358.47 207.9 362.89 208.06 367.3 208.07L380.54 208.13L380.04 207.63L380.1 218.82L380.54 218.37C378.36 218.37 376.18 218.37 374 218.43L367.42 218.54L354.06 218.82Z" fill="#EBEBEB"/>
<path d="M324.52 218.82L337.64 219.1L344.3 219.21C346.53 219.21 348.77 219.21 351 219.21H351.44V218.76L351.5 207.57V207.07H351L337.76 207.13C333.34 207.13 328.93 207.24 324.52 207.3H324.24V207.57C324.24 209.47 324.33 211.36 324.38 213.22L324.52 218.82ZM324.52 218.82L324.66 213.16C324.66 211.3 324.77 209.46 324.79 207.63L324.52 207.9C328.93 207.9 333.34 208.06 337.76 208.07L351 208.13L350.5 207.63L350.55 218.82L351 218.37C348.82 218.37 346.64 218.37 344.45 218.43L337.87 218.54L324.52 218.82Z" fill="#EBEBEB"/>
<path d="M64.72 59.45L77.85 59.73L84.51 59.85C86.73 59.85 88.97 59.85 91.2 59.85H91.64V59.4L91.69 48.21V47.71H91.19L77.95 47.77C73.54 47.77 69.12 47.88 64.71 47.93H64.43V48.2C64.43 50.09 64.51 51.98 64.56 53.85L64.72 59.45ZM64.72 59.45L64.86 53.8C64.91 51.94 64.97 50.1 64.99 48.26L64.72 48.54C69.13 48.59 73.55 48.7 77.96 48.7L91.2 48.76L90.7 48.26L90.76 59.45L91.2 59C89.02 59 86.84 59 84.66 59.05L78.08 59.17L64.72 59.45Z" fill="#EBEBEB"/>
<path d="M49.95 73.56L63.07 73.84L69.73 73.96C71.96 73.96 74.2 73.96 76.43 74.01H76.87V73.56L76.92 62.37V61.87H76.42L63.18 61.93C58.77 61.93 54.35 62.04 49.94 62.09H49.66V62.36C49.66 64.26 49.74 66.15 49.79 68.02L49.95 73.56ZM49.95 73.56L50.09 67.91C50.14 66.05 50.2 64.21 50.22 62.37L49.95 62.65C54.36 62.7 58.78 62.81 63.19 62.81L76.43 62.87L75.93 62.37L76 73.56L76.45 73.12C74.27 73.12 72.09 73.12 69.9 73.12L63.32 73.24L49.95 73.56Z" fill="#EBEBEB"/>
<path d="M425.1 59.47L438.23 59.75L444.89 59.86C447.11 59.86 449.35 59.86 451.58 59.86H452V59.41V48.22V47.72H451.5L438.26 47.78C433.85 47.78 429.44 47.89 425.02 47.94H424.75V48.21C424.75 50.11 424.84 51.99 424.88 53.86L425.1 59.47ZM425.1 59.47L425.24 53.81C425.29 51.95 425.36 50.11 425.38 48.28L425.1 48.55C429.52 48.6 433.93 48.71 438.34 48.71L451.58 48.78L451.08 48.28L451.14 59.47L451.58 59C449.4 59 447.22 59 445.04 59.06L438.46 59.17L425.1 59.47Z" fill="#EBEBEB"/>
<path d="M327.1 75.23H381.89V141.69H327.1V75.23Z" fill="#EBEBEB"/>
<path d="M333.36 81.29H375.63V135.62H333.36V81.29Z" fill="white"/>
<path d="M373.98 81.29H375.63V135.62H373.98V81.29Z" fill="#DBDBDB"/>
<path d="M325.46 75.23H327.11V141.69H325.46V75.23Z" fill="#DBDBDB"/>
<path d="M351.5 88.78H361.47V118.47H351.5V88.78Z" fill="#DBDBDB"/>
<path d="M338.74 124.05H366.32V108.5H338.74V124.05ZM365.32 123.05H339.74V109.5H365.32V123.05Z" fill="#EBEBEB"/>
<path d="M392.25 145.44H447.04V211.9H392.25V145.44Z" fill="#EBEBEB"/>
<path d="M398.51 151.51H440.78V205.84H398.51V151.51Z" fill="white"/>
<path d="M439.13 151.51H440.78V205.84H439.13V151.51Z" fill="#DBDBDB"/>
<path d="M390.6 145.44H392.25V211.9H390.6V145.44Z" fill="#DBDBDB"/>
<path d="M415.2 165.55H423.74V187.14H415.2V165.55Z" fill="#EBEBEB"/>
<path d="M405.71 194.06H429.64V178.17H405.71V194.06ZM428.64 193.06H406.71V179.17H428.64V193.06Z" fill="#DBDBDB"/>
<path d="M69.53 284.2H147.95V392.73H69.53V284.2Z" fill="#EBEBEB"/>
<path d="M65.73 280.18H151.75V284.21H65.73V280.18Z" fill="#DBDBDB"/>
<path d="M38.68 280.18H65.73V284.21H38.68V280.18Z" fill="#EBEBEB"/>
<path d="M42.96 284.2H69.53V392.73H42.96V284.2Z" fill="#DBDBDB"/>
<path d="M77.95 334.46H139.54V299.63H77.95V334.46ZM139.29 334.21H78.2V299.88H139.29V334.21Z" fill="#C7C7C7"/>
<path d="M105.35 309.82H117.33V316.71H105.35V309.82Z" fill="#C7C7C7"/>
<path d="M101.69 316.31H113.92V310.21H101.69V316.31ZM113.69 316.06H101.96V310.46H113.67L113.69 316.06Z" fill="#C7C7C7"/>
<path d="M77.95 378.15H139.54V343.32H77.95V378.15ZM139.29 377.9H78.2V343.57H139.29V377.9Z" fill="#C7C7C7"/>
<path d="M105.35 353.51H117.33V360.4H105.35V353.51Z" fill="#C7C7C7"/>
<path d="M101.69 360H113.92V353.91H101.69V360ZM113.69 359.75H101.96V354.16H113.67L113.69 359.75Z" fill="#C7C7C7"/>
<path d="M66.48 0H67.48V94.5H66.48V0Z" fill="#C7C7C7"/>
<path d="M95.27 121.77L93 126.78H40.95L38.68 121.77L60.84 106.44H73.11L95.27 121.77Z" fill="#EBEBEB"/>
<path d="M74.65 91.66L73.11 106.44H60.84L59.3 91.66H74.65Z" fill="#DBDBDB"/>
<path d="M95.27 121.78L92.99 126.78H40.95L38.68 121.78H95.27Z" fill="#DBDBDB"/>
<path d="M123.52 0H124.52V65.34H123.52V0Z" fill="#C7C7C7"/>
<path d="M152.32 92.62L150.04 97.62H98L95.73 92.62L117.88 77.28H130.16L152.32 92.62Z" fill="#EBEBEB"/>
<path d="M131.7 62.51L130.16 77.28H117.88L116.35 62.51H131.7Z" fill="#DBDBDB"/>
<path d="M152.31 92.62L150.04 97.63H97.99L95.73 92.62H152.31Z" fill="#DBDBDB"/>
<path d="M250 455.73C140.476 455.73 51.69 445.039 51.69 431.85C51.69 418.661 140.476 407.97 250 407.97C359.524 407.97 448.31 418.661 448.31 431.85C448.31 445.039 359.524 455.73 250 455.73Z" fill="#EBEBEB"/>
<path d="M461.32 392.73L408.49 392.49L355.66 392.4L250 392.23L144.34 392.4L91.51 392.49L38.68 392.73L91.51 392.98L144.34 393.06L250 393.23L355.66 393.06L408.49 392.97L461.32 392.73Z" fill="#263238"/>
<path d="M181.1 48.26H342.92C345.09 48.2796 347.235 48.7267 349.233 49.5757C351.23 50.4247 353.041 51.659 354.561 53.208C356.081 54.757 357.282 56.5905 358.093 58.6035C358.904 60.6165 359.311 62.7697 359.29 64.94V407.63C359.327 412.012 357.624 416.229 354.555 419.356C351.486 422.483 347.302 424.265 342.92 424.31H181.1C176.716 424.268 172.528 422.488 169.455 419.36C166.382 416.233 164.675 412.014 164.71 407.63V64.94C164.673 60.555 166.378 56.3347 169.452 53.2068C172.525 50.0789 176.715 48.2996 181.1 48.26ZM174.95 397.33C174.95 406.1 181.52 413.19 189.62 413.19H334.38C342.5 413.19 349.07 406.1 349.07 397.33V77.57C349.07 59.7 342.5 58.83 334.38 58.83H305.38C303.7 58.83 302.32 60.75 302.32 63.12V64.12C302.32 69.68 299.32 69.7 295.54 69.7H228.48C224.71 69.7 221.68 69.7 221.68 64.12V63.12C221.68 60.75 220.32 58.83 218.61 58.83H189.61C181.51 58.83 174.94 61.21 174.94 77.57L174.95 397.33Z" fill="#263238"/>
<path d="M174.95 77.57V397.33C174.95 406.1 181.52 413.19 189.62 413.19H334.38C342.5 413.19 349.07 406.1 349.07 397.33V77.57C349.07 59.7 342.5 58.83 334.38 58.83H305.38C303.7 58.83 302.32 60.75 302.32 63.12V64.12C302.32 69.68 299.32 69.7 295.54 69.7H228.48C224.71 69.7 221.68 69.7 221.68 64.12V63.12C221.68 60.75 220.32 58.83 218.61 58.83H189.61C181.52 58.83 174.95 61.21 174.95 77.57Z" fill="white"/>
<path d="M174.95 77.56V397.33C174.95 406.1 181.52 413.19 189.62 413.19H334.38C342.5 413.19 349.07 406.1 349.07 397.33V77.56C349.07 59.7 342.5 58.83 334.38 58.83H305.38C303.7 58.83 302.32 60.75 302.32 63.12V64.12C302.32 69.69 299.32 69.71 295.54 69.71H228.48C224.71 69.71 221.68 69.71 221.68 64.12V63.12C221.68 60.75 220.32 58.83 218.61 58.83H189.61C181.52 58.83 174.95 61.21 174.95 77.56Z" fill="white"/>
<path d="M174.95 77.57V105.18H349.07V77.57C349.07 59.7 342.5 58.83 334.38 58.83H305.38C303.7 58.83 302.32 60.75 302.32 63.12V64.12C302.32 69.68 299.32 69.7 295.54 69.7H228.48C224.71 69.7 221.68 69.7 221.68 64.12V63.12C221.68 60.75 220.32 58.83 218.61 58.83H189.61C181.52 58.83 174.95 61.21 174.95 77.57Z" fill="#0CA766"/>
<path d="M310.39 65.8C310.48 65.89 310.58 65.98 310.67 66.08L310.83 66.24C311.184 65.8845 311.605 65.6023 312.068 65.4098C312.531 65.2173 313.028 65.1182 313.53 65.1182C314.032 65.1182 314.529 65.2173 314.992 65.4098C315.455 65.6023 315.876 65.8845 316.23 66.24L316.38 66.08C316.47 65.99 316.57 65.9 316.66 65.8L316.3 65.48C316.049 65.2734 315.774 65.0987 315.48 64.96C315.139 64.7879 314.775 64.6634 314.4 64.59L313.85 64.52H313.38H313.01C312.668 64.5596 312.333 64.6402 312.01 64.76C311.778 64.8463 311.553 64.9534 311.34 65.08C311.11 65.2092 310.892 65.3598 310.69 65.53L310.4 65.79L310.39 65.8Z" fill="white"/>
<path d="M315.34 67.1201L315.78 66.6801C315.297 66.1858 314.664 65.8658 313.98 65.7701C313.489 65.6976 312.989 65.7413 312.518 65.8977C312.047 66.054 311.62 66.3185 311.27 66.6701L311.72 67.1101C312.201 66.6325 312.852 66.3646 313.53 66.3646C314.208 66.3646 314.859 66.6325 315.34 67.1101V67.1201Z" fill="white"/>
<path d="M312.16 67.56L312.6 68C312.72 67.8753 312.865 67.777 313.025 67.7116C313.185 67.6461 313.357 67.6149 313.53 67.62C313.703 67.6185 313.874 67.6513 314.033 67.7165C314.193 67.7817 314.338 67.8781 314.46 68L314.9 67.56C314.721 67.3792 314.507 67.2357 314.272 67.1377C314.037 67.0398 313.785 66.9894 313.53 66.9894C313.275 66.9894 313.023 67.0398 312.788 67.1377C312.553 67.2357 312.339 67.3792 312.16 67.56Z" fill="white"/>
<path d="M313.13 68.4C313.13 68.4791 313.154 68.5565 313.197 68.6222C313.241 68.688 313.304 68.7393 313.377 68.7696C313.45 68.7998 313.53 68.8077 313.608 68.7923C313.686 68.7769 313.757 68.7388 313.813 68.6828C313.869 68.6269 313.907 68.5556 313.922 68.478C313.938 68.4004 313.93 68.32 313.9 68.2469C313.869 68.1738 313.818 68.1114 313.752 68.0674C313.686 68.0235 313.609 68 313.53 68C313.424 68 313.322 68.0421 313.247 68.1172C313.172 68.1922 313.13 68.2939 313.13 68.4V68.4Z" fill="white"/>
<path d="M337.71 66.6501C337.712 66.4198 337.645 66.1941 337.519 66.0019C337.392 65.8096 337.211 65.6594 336.999 65.5703C336.786 65.4813 336.552 65.4575 336.326 65.5019C336.1 65.5463 335.893 65.657 335.73 65.8199C335.567 65.9827 335.456 66.1903 335.412 66.4162C335.367 66.6422 335.391 66.8763 335.48 67.0886C335.569 67.301 335.72 67.482 335.912 67.6087C336.104 67.7354 336.33 67.802 336.56 67.8001C336.864 67.7975 337.155 67.6755 337.37 67.4604C337.585 67.2452 337.707 66.9543 337.71 66.6501V66.6501Z" fill="white"/>
<path d="M334.08 66.65C334.082 66.4201 334.016 66.1949 333.889 66.0028C333.763 65.8107 333.583 65.6605 333.371 65.5712C333.159 65.4818 332.926 65.4574 332.7 65.5011C332.474 65.5447 332.267 65.6544 332.103 65.8162C331.94 65.978 331.829 66.1847 331.783 66.41C331.738 66.6353 331.76 66.869 331.847 67.0816C331.935 67.2941 332.084 67.4759 332.275 67.6038C332.466 67.7317 332.69 67.8 332.92 67.8C333.226 67.8 333.52 67.6791 333.737 67.4638C333.954 67.2484 334.077 66.9559 334.08 66.65Z" fill="white"/>
<path d="M330.44 66.6501C330.442 66.4198 330.375 66.1941 330.249 66.0019C330.122 65.8096 329.941 65.6594 329.729 65.5703C329.516 65.4813 329.282 65.4575 329.056 65.5019C328.83 65.5463 328.623 65.657 328.46 65.8199C328.297 65.9827 328.186 66.1903 328.142 66.4162C328.097 66.6422 328.121 66.8763 328.21 67.0886C328.299 67.301 328.45 67.482 328.642 67.6087C328.834 67.7354 329.06 67.802 329.29 67.8001C329.441 67.8001 329.591 67.7703 329.73 67.7125C329.87 67.6547 329.996 67.57 330.103 67.4632C330.21 67.3564 330.295 67.2297 330.352 67.0901C330.41 66.9506 330.44 66.8011 330.44 66.6501V66.6501Z" fill="white"/>
<path d="M326.81 66.65C326.812 66.4201 326.746 66.1949 326.619 66.0028C326.493 65.8107 326.313 65.6605 326.101 65.5712C325.889 65.4818 325.656 65.4574 325.43 65.5011C325.204 65.5447 324.997 65.6544 324.833 65.8162C324.67 65.978 324.559 66.1847 324.513 66.41C324.468 66.6353 324.49 66.869 324.577 67.0816C324.665 67.2941 324.814 67.4759 325.005 67.6038C325.196 67.7317 325.42 67.8 325.65 67.8C325.956 67.8 326.249 67.6791 326.467 67.4638C326.684 67.2484 326.807 66.9559 326.81 66.65Z" fill="white"/>
<path d="M323.17 66.6501C323.172 66.4206 323.106 66.1958 322.98 66.0039C322.854 65.8121 322.674 65.6619 322.463 65.5723C322.252 65.4826 322.019 65.4577 321.794 65.5005C321.568 65.5433 321.361 65.652 321.197 65.8128C321.033 65.9736 320.921 66.1794 320.874 66.404C320.828 66.6286 320.849 66.862 320.935 67.0747C321.021 67.2875 321.168 67.4699 321.357 67.599C321.547 67.7281 321.771 67.7981 322 67.8001C322.153 67.8027 322.304 67.7749 322.446 67.7183C322.588 67.6617 322.717 67.5774 322.826 67.4704C322.935 67.3633 323.022 67.2357 323.081 67.0948C323.14 66.954 323.17 66.8028 323.17 66.6501V66.6501Z" fill="white"/>
<path d="M188 69.1601H197.4V64.8101H188V69.1601ZM196.91 68.6901H188.48V65.2901H196.91V68.6901Z" fill="white"/>
<path d="M190.56 65.55H196.62V68.42H190.56V65.55Z" fill="white"/>
<path d="M187.16 65.83H188V68.16H187.16V65.83Z" fill="white"/>
<path d="M333.19 94.9601L338.34 90.1401L333.19 85.3201L332.4 86.1701L336.63 90.1401L332.4 94.1101L333.19 94.9601Z" fill="white"/>
<path d="M190.81 85.3201L185.66 90.1401L190.81 94.9601L191.6 94.1101L187.37 90.1401L191.6 86.1701L190.81 85.3201Z" fill="white"/>
<path d="M252.86 62.78H271.15C271.449 62.7774 271.735 62.6575 271.946 62.4462C272.158 62.2348 272.277 61.9489 272.28 61.65V61.65C272.277 61.3511 272.158 61.0652 271.946 60.8539C271.735 60.6425 271.449 60.5226 271.15 60.52H252.86C252.56 60.52 252.273 60.6391 252.061 60.851C251.849 61.0629 251.73 61.3503 251.73 61.65V61.65C251.73 61.9497 251.849 62.2371 252.061 62.4491C252.273 62.661 252.56 62.78 252.86 62.78V62.78Z" fill="white"/>
<path d="M186.75 118.95H337.25V156.78H186.75V118.95Z" fill="#EBEBEB"/>
<path d="M315.27 151.09C317.885 151.082 320.439 150.3 322.609 148.841C324.78 147.382 326.469 145.313 327.464 142.895C328.46 140.477 328.716 137.818 328.201 135.255C327.686 132.691 326.423 130.337 324.571 128.491C322.719 126.645 320.362 125.389 317.796 124.881C315.231 124.374 312.573 124.639 310.158 125.641C307.743 126.644 305.679 128.339 304.227 130.514C302.775 132.689 302 135.245 302 137.86C302.001 139.6 302.346 141.324 303.014 142.931C303.681 144.538 304.66 145.998 305.892 147.226C307.125 148.455 308.587 149.429 310.196 150.092C311.806 150.755 313.53 151.094 315.27 151.09ZM315.27 126.48C317.524 126.478 319.727 127.145 321.602 128.395C323.476 129.646 324.938 131.425 325.801 133.507C326.664 135.588 326.891 137.879 326.452 140.09C326.012 142.3 324.927 144.33 323.334 145.924C321.74 147.518 319.71 148.603 317.5 149.042C315.289 149.481 312.998 149.254 310.917 148.391C308.835 147.528 307.056 146.066 305.805 144.192C304.555 142.317 303.888 140.114 303.89 137.86C303.895 134.844 305.096 131.952 307.229 129.819C309.362 127.686 312.253 126.485 315.27 126.48V126.48Z" fill="#DBDBDB"/>
<path d="M320.238 131.442L321.681 132.884L310.303 144.261L308.861 142.819L320.238 131.442Z" fill="#DBDBDB"/>
<path d="M321.678 142.828L320.236 144.271L308.859 132.893L310.301 131.451L321.678 142.828Z" fill="#DBDBDB"/>
<path d="M195.51 127.78H292.32V129.61H195.51V127.78Z" fill="#DBDBDB"/>
<path d="M195.51 135.09H292.32V136.92H195.51V135.09Z" fill="#DBDBDB"/>
<path d="M213.29 138.76H292.32V140.59H213.29V138.76Z" fill="#DBDBDB"/>
<path d="M239.87 142.44H292.32V144.27H239.87V142.44Z" fill="#DBDBDB"/>
<path d="M213.29 146.12H292.32V147.95H213.29V146.12Z" fill="#DBDBDB"/>
<path d="M186.75 215.98H337.25V253.81H186.75V215.98Z" fill="#EBEBEB"/>
<path d="M315.27 248.11C317.883 248.1 320.434 247.316 322.601 245.858C324.768 244.399 326.455 242.331 327.448 239.915C328.441 237.498 328.696 234.842 328.18 232.28C327.664 229.719 326.401 227.368 324.55 225.525C322.699 223.681 320.344 222.427 317.781 221.921C315.218 221.415 312.562 221.679 310.149 222.681C307.737 223.683 305.675 225.378 304.225 227.551C302.774 229.724 302 232.278 302 234.89C302.001 236.63 302.346 238.353 303.014 239.959C303.682 241.566 304.66 243.025 305.893 244.253C307.125 245.481 308.588 246.454 310.197 247.115C311.806 247.777 313.53 248.115 315.27 248.11V248.11ZM315.27 223.5C317.523 223.498 319.726 224.164 321.601 225.415C323.475 226.665 324.936 228.443 325.8 230.524C326.664 232.605 326.891 234.896 326.452 237.106C326.014 239.316 324.93 241.347 323.337 242.94C321.745 244.534 319.715 245.62 317.506 246.06C315.296 246.501 313.005 246.276 310.924 245.414C308.842 244.552 307.062 243.092 305.81 241.219C304.558 239.346 303.89 237.143 303.89 234.89C303.893 231.872 305.092 228.978 307.225 226.843C309.359 224.707 312.252 223.505 315.27 223.5Z" fill="#DBDBDB"/>
<path d="M320.238 228.472L321.68 229.915L310.303 241.292L308.86 239.849L320.238 228.472Z" fill="#DBDBDB"/>
<path d="M321.678 239.858L320.235 241.3L308.858 229.923L310.301 228.48L321.678 239.858Z" fill="#DBDBDB"/>
<path d="M195.51 224.8H292.32V226.63H195.51V224.8Z" fill="#DBDBDB"/>
<path d="M195.51 232.11H292.32V233.94H195.51V232.11Z" fill="#DBDBDB"/>
<path d="M213.29 235.79H292.32V237.62H213.29V235.79Z" fill="#DBDBDB"/>
<path d="M239.87 239.47H292.32V241.3H239.87V239.47Z" fill="#DBDBDB"/>
<path d="M213.29 243.15H292.32V244.98H213.29V243.15Z" fill="#DBDBDB"/>
<path d="M186.75 265.12H337.25V302.95H186.75V265.12Z" fill="#EBEBEB"/>
<path d="M315.27 297.26C317.881 297.25 320.43 296.467 322.597 295.011C324.763 293.554 326.45 291.488 327.444 289.074C328.438 286.66 328.695 284.005 328.183 281.445C327.67 278.885 326.411 276.534 324.564 274.689C322.718 272.843 320.366 271.586 317.805 271.075C315.245 270.565 312.591 270.824 310.177 271.82C307.764 272.816 305.699 274.504 304.244 276.671C302.789 278.839 302.008 281.389 302 284C301.996 285.743 302.337 287.47 303.002 289.081C303.668 290.693 304.645 292.156 305.878 293.389C307.112 294.621 308.576 295.597 310.188 296.262C311.8 296.926 313.527 297.265 315.27 297.26ZM315.27 272.65C317.525 272.648 319.73 273.315 321.605 274.567C323.48 275.82 324.941 277.6 325.804 279.684C326.666 281.767 326.891 284.059 326.449 286.271C326.008 288.482 324.92 290.512 323.323 292.105C321.727 293.697 319.693 294.779 317.481 295.215C315.269 295.651 312.977 295.42 310.896 294.552C308.815 293.684 307.038 292.218 305.791 290.34C304.544 288.461 303.882 286.255 303.89 284C303.903 280.989 305.107 278.105 307.24 275.978C309.372 273.852 312.259 272.655 315.27 272.65Z" fill="#DBDBDB"/>
<path d="M320.24 277.619L321.683 279.062L310.306 290.439L308.863 288.997L320.24 277.619Z" fill="#DBDBDB"/>
<path d="M321.691 289.001L320.248 290.443L308.871 279.066L310.313 277.623L321.691 289.001Z" fill="#DBDBDB"/>
<path d="M195.51 273.95H292.32V275.78H195.51V273.95Z" fill="#DBDBDB"/>
<path d="M195.51 281.26H292.32V283.09H195.51V281.26Z" fill="#DBDBDB"/>
<path d="M213.29 284.94H292.32V286.77H213.29V284.94Z" fill="#DBDBDB"/>
<path d="M239.87 288.61H292.32V290.44H239.87V288.61Z" fill="#DBDBDB"/>
<path d="M213.29 292.29H292.32V294.12H213.29V292.29Z" fill="#DBDBDB"/>
<path d="M186.75 314.26H337.25V352.09H186.75V314.26Z" fill="#EBEBEB"/>
<path d="M315.27 346.4C317.883 346.39 320.434 345.606 322.601 344.148C324.768 342.689 326.455 340.621 327.448 338.205C328.441 335.788 328.696 333.132 328.18 330.57C327.664 328.009 326.401 325.658 324.55 323.815C322.699 321.971 320.344 320.717 317.781 320.21C315.218 319.704 312.562 319.969 310.149 320.971C307.737 321.973 305.675 323.668 304.225 325.841C302.774 328.013 302 330.567 302 333.18C302.001 334.92 302.346 336.642 303.014 338.249C303.682 339.856 304.66 341.315 305.893 342.543C307.125 343.771 308.588 344.744 310.197 345.405C311.806 346.067 313.53 346.405 315.27 346.4ZM315.27 321.79C317.523 321.788 319.726 322.454 321.601 323.705C323.475 324.955 324.936 326.733 325.8 328.814C326.664 330.895 326.891 333.186 326.452 335.396C326.014 337.606 324.93 339.636 323.337 341.23C321.745 342.824 319.715 343.91 317.506 344.35C315.296 344.791 313.005 344.566 310.924 343.704C308.842 342.842 307.062 341.382 305.81 339.509C304.558 337.636 303.89 335.433 303.89 333.18C303.893 330.162 305.092 327.268 307.225 325.133C309.359 322.997 312.252 321.795 315.27 321.79V321.79Z" fill="#DBDBDB"/>
<path d="M320.233 326.746L321.676 328.189L310.298 339.566L308.856 338.124L320.233 326.746Z" fill="#DBDBDB"/>
<path d="M321.673 338.153L320.231 339.596L308.854 328.218L310.296 326.776L321.673 338.153Z" fill="#DBDBDB"/>
<path d="M195.51 323.09H292.32V324.92H195.51V323.09Z" fill="#DBDBDB"/>
<path d="M195.51 330.4H292.32V332.23H195.51V330.4Z" fill="#DBDBDB"/>
<path d="M213.29 334.08H292.32V335.91H213.29V334.08Z" fill="#DBDBDB"/>
<path d="M239.87 337.76H292.32V339.59H239.87V337.76Z" fill="#DBDBDB"/>
<path d="M213.29 341.43H292.32V343.26H213.29V341.43Z" fill="#DBDBDB"/>
<path d="M181.82 166.1H342.19V206.41H181.82V166.1Z" fill="#008EB1"/>
<path d="M178.31 210.09H345.69V162.42H178.31V210.09ZM344.69 209.09H179.31V163.42H344.69V209.09Z" fill="#008EB1"/>
<path d="M317.81 193.54L312.32 187.99L314.17 186.16L317.37 189.41L324.03 178.97L326.21 180.37L317.81 193.54Z" fill="white"/>
<path d="M318.77 200.34C321.557 200.34 324.281 199.514 326.598 197.965C328.915 196.417 330.721 194.217 331.787 191.642C332.854 189.067 333.133 186.234 332.589 183.501C332.046 180.768 330.704 178.257 328.733 176.287C326.763 174.316 324.252 172.974 321.519 172.431C318.786 171.887 315.953 172.166 313.378 173.233C310.803 174.299 308.603 176.105 307.055 178.422C305.506 180.739 304.68 183.463 304.68 186.25C304.683 189.986 306.168 193.568 308.81 196.21C311.452 198.852 315.034 200.337 318.77 200.34V200.34ZM318.77 174.12C321.171 174.12 323.519 174.832 325.516 176.167C327.512 177.501 329.068 179.398 329.987 181.617C330.905 183.835 331.145 186.277 330.676 188.632C330.207 190.987 329.05 193.15 327.351 194.848C325.652 196.545 323.488 197.701 321.132 198.168C318.777 198.635 316.335 198.393 314.117 197.473C311.899 196.553 310.004 194.995 308.671 192.997C307.338 191 306.628 188.652 306.63 186.25C306.633 183.032 307.913 179.947 310.189 177.672C312.466 175.398 315.552 174.12 318.77 174.12V174.12Z" fill="white"/>
<path d="M191.14 175.5H294.31V177.45H191.14V175.5Z" fill="white"/>
<path d="M191.14 183.29H294.31V185.24H191.14V183.29Z" fill="white"/>
<path d="M210.09 187.21H294.31V189.16H210.09V187.21Z" fill="white"/>
<path d="M238.42 191.13H294.31V193.08H238.42V191.13Z" fill="white"/>
<path d="M210.09 195.05H294.31V197H210.09V195.05Z" fill="white"/>
<path d="M273.42 390.7C273.418 391.191 273.562 391.672 273.834 392.082C274.106 392.491 274.493 392.81 274.946 392.999C275.4 393.188 275.899 393.238 276.381 393.143C276.863 393.047 277.306 392.811 277.654 392.464C278.001 392.116 278.237 391.673 278.333 391.191C278.428 390.709 278.378 390.21 278.189 389.756C278 389.303 277.681 388.916 277.272 388.644C276.862 388.372 276.381 388.228 275.89 388.23C275.236 388.233 274.609 388.494 274.146 388.956C273.684 389.419 273.423 390.046 273.42 390.7V390.7Z" fill="#DBDBDB"/>
<path d="M262 394.76C259.758 394.76 257.94 392.942 257.94 390.7C257.94 388.458 259.758 386.64 262 386.64C264.242 386.64 266.06 388.458 266.06 390.7C266.06 392.942 264.242 394.76 262 394.76Z" fill="#DBDBDB"/>
<path d="M245.63 390.7C245.628 391.191 245.772 391.671 246.043 392.081C246.314 392.49 246.701 392.809 247.154 392.998C247.607 393.188 248.106 393.238 248.588 393.144C249.069 393.049 249.512 392.814 249.86 392.467C250.208 392.121 250.445 391.679 250.542 391.197C250.638 390.716 250.59 390.217 250.402 389.763C250.215 389.31 249.897 388.922 249.489 388.649C249.081 388.376 248.601 388.23 248.11 388.23C247.454 388.23 246.825 388.49 246.36 388.953C245.895 389.416 245.633 390.044 245.63 390.7V390.7Z" fill="#DBDBDB"/>
<path d="M159.69 129.43L160.09 129.53C160.079 129.484 160.055 129.442 160.02 129.41L159.69 129.43Z" fill="#263238"/>
<path d="M148.18 418.33H148.36V418.2L148.18 418.33Z" fill="#F7A9A0"/>
<path d="M131.68 164.71C126.47 190.54 109.38 232.09 107.68 237.97C106.25 242.97 76.19 233.61 78.26 230.71C80.91 227 107.41 180.34 120.14 163.52C130.66 149.64 134.13 152.57 131.68 164.71Z" fill="#F7A9A0"/>
<path d="M79.64 228.58C76.51 232.7 71.64 244.46 70.49 248.39C69.34 252.32 66.96 263.85 69.88 265.02C72.8 266.19 73.77 262.86 73.77 262.86C73.77 262.86 73.53 267.86 76.57 268.79C79.61 269.72 80.97 264.48 80.97 264.48C80.97 264.48 81.09 269.67 84.19 270.35C87.29 271.03 87.77 265.57 87.77 265.57C87.77 265.57 87.66 270.31 90.46 269.8C93.82 269.19 93.03 260.41 94.59 256.17C94.95 255.17 103.18 237.17 103.18 237.17L79.64 228.58Z" fill="#F7A9A0"/>
<path d="M87.22 265.72C86.65 259.27 87.52 256.35 90.44 250.72C90.5 250.61 90.35 250.5 90.28 250.61C86.91 255.9 85.28 259.41 86.91 265.81C87 266.08 87.25 266 87.22 265.72Z" fill="#263238"/>
<path d="M80.52 264.68C80.52 257.93 81.43 254.75 84.05 248.59C84.05 248.5 83.94 248.43 83.9 248.52C80.82 254.35 79.29 257.88 80.18 264.63C80.22 264.94 80.52 265 80.52 264.68Z" fill="#263238"/>
<path d="M73.41 262.24C73.88 255.7 74.73 252.17 78.05 246.52C78.0686 246.493 78.0759 246.461 78.0702 246.429C78.0646 246.397 78.0465 246.369 78.02 246.35C77.9935 246.331 77.9607 246.324 77.9288 246.33C77.8969 246.335 77.8686 246.353 77.85 246.38C73.91 251.82 72.85 256.21 73.22 262.2C73.24 262.61 73.38 262.65 73.41 262.24Z" fill="#263238"/>
<path d="M107.89 234.9C107.89 234.9 107.52 243.01 106.57 246.53C105.62 250.05 97.26 261.9 94.57 260.24C91.13 258.09 94.57 250.31 96.82 246.71C96.82 246.71 88.82 241.71 90.16 235.63C91.5 229.55 107.89 234.9 107.89 234.9Z" fill="#F7A9A0"/>
<path d="M93.85 259.34C92.13 255.12 95.33 250.6 97.2 246.95C97.2299 246.898 97.2468 246.84 97.2492 246.78C97.2517 246.72 97.2396 246.661 97.214 246.607C97.1885 246.553 97.1502 246.506 97.1024 246.47C97.0547 246.434 96.999 246.41 96.94 246.4C93.75 244.1 89.94 239.92 89.94 235.77C89.9334 235.75 89.9207 235.733 89.9036 235.72C89.8866 235.708 89.866 235.701 89.845 235.701C89.8239 235.701 89.8034 235.708 89.7863 235.72C89.7693 235.733 89.7565 235.75 89.75 235.77C89.07 240.21 92.51 244.62 96.17 246.92C94.17 250.62 91.17 255.31 93.77 259.38L93.85 259.34Z" fill="#263238"/>
<path d="M81.24 221C81.24 221 111.78 234.67 112.49 235.29C112.49 235.29 132.17 173.29 133.79 162.8C135.41 152.31 131.6 149.46 124.86 156.8C113.78 168.82 81.24 221 81.24 221Z" fill="#DBDBDB"/>
<path d="M129.89 169.06C129.89 169.27 129.952 169.475 130.069 169.649C130.185 169.823 130.351 169.959 130.544 170.039C130.738 170.119 130.951 170.14 131.157 170.1C131.362 170.059 131.551 169.958 131.7 169.809C131.848 169.661 131.949 169.472 131.99 169.267C132.031 169.061 132.01 168.848 131.929 168.654C131.849 168.461 131.713 168.295 131.539 168.179C131.365 168.062 131.16 168 130.95 168C130.669 168 130.399 168.112 130.2 168.31C130.002 168.509 129.89 168.779 129.89 169.06V169.06ZM118 168C118.21 168 118.415 168.062 118.589 168.179C118.763 168.295 118.899 168.461 118.979 168.654C119.06 168.848 119.081 169.061 119.04 169.267C118.999 169.472 118.898 169.661 118.75 169.809C118.601 169.958 118.412 170.059 118.207 170.1C118.001 170.14 117.788 170.119 117.594 170.039C117.401 169.959 117.235 169.823 117.119 169.649C117.002 169.475 116.94 169.27 116.94 169.06C116.94 168.779 117.052 168.509 117.25 168.31C117.449 168.112 117.719 168 118 168V168ZM124.46 158.77C124.67 158.77 124.875 158.832 125.049 158.949C125.223 159.065 125.359 159.231 125.439 159.424C125.52 159.618 125.541 159.831 125.5 160.037C125.459 160.242 125.358 160.431 125.21 160.579C125.061 160.728 124.872 160.829 124.667 160.87C124.461 160.91 124.248 160.889 124.054 160.809C123.861 160.729 123.695 160.593 123.579 160.419C123.462 160.245 123.4 160.04 123.4 159.83C123.4 159.688 123.428 159.548 123.483 159.417C123.539 159.287 123.619 159.168 123.721 159.07C123.823 158.971 123.943 158.893 124.075 158.842C124.207 158.79 124.348 158.766 124.49 158.77H124.46ZM118 186.54C118.212 186.528 118.422 186.58 118.604 186.689C118.786 186.798 118.932 186.959 119.021 187.151C119.111 187.343 119.14 187.558 119.106 187.767C119.073 187.977 118.977 188.171 118.831 188.326C118.685 188.48 118.497 188.587 118.29 188.633C118.083 188.679 117.867 188.662 117.669 188.584C117.472 188.506 117.303 188.37 117.184 188.195C117.064 188.019 117 187.812 117 187.6C117 187.329 117.103 187.068 117.289 186.871C117.475 186.674 117.729 186.555 118 186.54ZM105.08 186.54C105.289 186.544 105.492 186.609 105.663 186.728C105.835 186.847 105.968 187.014 106.045 187.208C106.122 187.402 106.14 187.614 106.097 187.819C106.054 188.023 105.952 188.21 105.803 188.356C105.653 188.503 105.465 188.602 105.26 188.641C105.055 188.68 104.842 188.658 104.65 188.577C104.457 188.496 104.293 188.361 104.177 188.187C104.062 188.013 104 187.809 104 187.6C104 187.456 104.029 187.314 104.085 187.182C104.142 187.05 104.224 186.931 104.328 186.832C104.432 186.733 104.555 186.656 104.689 186.606C104.823 186.556 104.967 186.533 105.11 186.54H105.08ZM124.46 177.31C124.67 177.31 124.875 177.372 125.049 177.489C125.223 177.605 125.359 177.771 125.439 177.964C125.52 178.158 125.541 178.371 125.5 178.577C125.459 178.782 125.358 178.971 125.21 179.119C125.061 179.268 124.872 179.369 124.667 179.41C124.461 179.45 124.248 179.43 124.054 179.349C123.861 179.269 123.695 179.133 123.579 178.959C123.462 178.785 123.4 178.58 123.4 178.37C123.4 178.228 123.428 178.088 123.483 177.957C123.539 177.827 123.619 177.708 123.721 177.61C123.823 177.511 123.943 177.433 124.075 177.382C124.207 177.33 124.348 177.306 124.49 177.31H124.46ZM111.54 177.31C111.75 177.31 111.955 177.372 112.129 177.489C112.303 177.605 112.439 177.771 112.519 177.964C112.6 178.158 112.621 178.371 112.58 178.577C112.539 178.782 112.438 178.971 112.29 179.119C112.141 179.268 111.952 179.369 111.747 179.41C111.541 179.45 111.328 179.43 111.134 179.349C110.941 179.269 110.775 179.133 110.659 178.959C110.542 178.785 110.48 178.58 110.48 178.37C110.48 178.228 110.508 178.088 110.563 177.957C110.619 177.827 110.699 177.708 110.801 177.61C110.903 177.511 111.023 177.433 111.155 177.382C111.287 177.33 111.428 177.306 111.57 177.31H111.54ZM118 205.08C118.21 205.08 118.415 205.142 118.589 205.259C118.763 205.375 118.899 205.541 118.979 205.734C119.06 205.928 119.081 206.141 119.04 206.347C118.999 206.552 118.898 206.741 118.75 206.889C118.601 207.038 118.412 207.139 118.207 207.18C118.001 207.22 117.788 207.199 117.594 207.119C117.401 207.039 117.235 206.903 117.119 206.729C117.002 206.555 116.94 206.35 116.94 206.14C116.94 205.859 117.052 205.589 117.25 205.39C117.449 205.192 117.719 205.08 118 205.08V205.08ZM105.08 205.08C105.29 205.08 105.495 205.142 105.669 205.259C105.843 205.375 105.979 205.541 106.059 205.734C106.14 205.928 106.161 206.141 106.12 206.347C106.079 206.552 105.978 206.741 105.83 206.889C105.681 207.038 105.492 207.139 105.287 207.18C105.081 207.22 104.868 207.199 104.674 207.119C104.481 207.039 104.315 206.903 104.199 206.729C104.082 206.555 104.02 206.35 104.02 206.14C104.02 205.998 104.048 205.858 104.103 205.727C104.159 205.597 104.239 205.478 104.341 205.38C104.443 205.281 104.563 205.203 104.695 205.152C104.827 205.1 104.968 205.076 105.11 205.08H105.08ZM92.16 205.08C92.3697 205.08 92.5746 205.142 92.7489 205.259C92.9232 205.375 93.0591 205.541 93.1393 205.734C93.2196 205.928 93.2406 206.141 93.1997 206.347C93.1588 206.552 93.0578 206.741 92.9096 206.889C92.7613 207.038 92.5724 207.139 92.3668 207.18C92.1612 207.22 91.9481 207.199 91.7544 207.119C91.5607 207.039 91.3951 206.903 91.2787 206.729C91.1622 206.555 91.1 206.35 91.1 206.14C91.1 205.998 91.1283 205.858 91.1835 205.727C91.2386 205.597 91.3194 205.478 91.421 205.38C91.5226 205.281 91.6431 205.203 91.7752 205.152C91.9072 205.1 92.0483 205.076 92.19 205.08H92.16ZM124.46 195.85H124.66C124.46 196.52 124.26 197.2 124.05 197.85C123.844 197.744 123.679 197.574 123.579 197.365C123.479 197.157 123.45 196.921 123.496 196.694C123.543 196.468 123.662 196.263 123.836 196.11C124.01 195.958 124.229 195.866 124.46 195.85V195.85ZM111.54 195.85C111.75 195.85 111.955 195.912 112.129 196.029C112.303 196.145 112.439 196.311 112.519 196.504C112.6 196.698 112.621 196.911 112.58 197.117C112.539 197.322 112.438 197.511 112.29 197.659C112.141 197.808 111.952 197.909 111.747 197.95C111.541 197.99 111.328 197.969 111.134 197.889C110.941 197.809 110.775 197.673 110.659 197.499C110.542 197.325 110.48 197.12 110.48 196.91C110.48 196.768 110.508 196.628 110.563 196.497C110.619 196.367 110.699 196.248 110.801 196.15C110.903 196.051 111.023 195.973 111.155 195.922C111.287 195.87 111.428 195.846 111.57 195.85H111.54ZM98.62 195.85C98.8297 195.85 99.0346 195.912 99.2089 196.029C99.3832 196.145 99.5191 196.311 99.5993 196.504C99.6795 196.698 99.7005 196.911 99.6596 197.117C99.6187 197.322 99.5178 197.511 99.3695 197.659C99.2213 197.808 99.0324 197.909 98.8268 197.95C98.6212 197.99 98.4081 197.969 98.2144 197.889C98.0207 197.809 97.8551 197.673 97.7387 197.499C97.6222 197.325 97.56 197.12 97.56 196.91C97.56 196.768 97.5883 196.628 97.6435 196.497C97.6986 196.367 97.7794 196.248 97.881 196.15C97.9827 196.051 98.1031 195.973 98.2351 195.922C98.3672 195.87 98.5083 195.846 98.65 195.85H98.62ZM105.08 223.62C105.361 223.62 105.631 223.732 105.83 223.93C106.028 224.129 106.14 224.399 106.14 224.68C106.14 224.961 106.028 225.231 105.83 225.429C105.631 225.628 105.361 225.74 105.08 225.74C104.799 225.74 104.529 225.628 104.33 225.429C104.132 225.231 104.02 224.961 104.02 224.68C104.02 224.399 104.132 224.129 104.33 223.93C104.529 223.732 104.799 223.62 105.08 223.62ZM92.16 223.62C92.4411 223.62 92.7108 223.732 92.9096 223.93C93.1083 224.129 93.22 224.399 93.22 224.68C93.22 224.961 93.1083 225.231 92.9096 225.429C92.7108 225.628 92.4411 225.74 92.16 225.74C91.8789 225.74 91.6093 225.628 91.4105 225.429C91.2117 225.231 91.1 224.961 91.1 224.68C91.1 224.399 91.2117 224.129 91.4105 223.93C91.6093 223.732 91.8789 223.62 92.16 223.62V223.62ZM111.54 214.39C111.821 214.39 112.091 214.502 112.29 214.7C112.488 214.899 112.6 215.169 112.6 215.45C112.6 215.731 112.488 216.001 112.29 216.199C112.091 216.398 111.821 216.51 111.54 216.51C111.259 216.51 110.989 216.398 110.79 216.199C110.592 216.001 110.48 215.731 110.48 215.45C110.48 215.169 110.592 214.899 110.79 214.7C110.989 214.502 111.259 214.39 111.54 214.39ZM98.62 214.39C98.9011 214.39 99.1708 214.502 99.3695 214.7C99.5683 214.899 99.68 215.169 99.68 215.45C99.68 215.731 99.5683 216.001 99.3695 216.199C99.1708 216.398 98.9011 216.51 98.62 216.51C98.3389 216.51 98.0693 216.398 97.8705 216.199C97.6717 216.001 97.56 215.731 97.56 215.45C97.56 215.169 97.6717 214.899 97.8705 214.7C98.0693 214.502 98.3389 214.39 98.62 214.39ZM85.7 214.39C85.9092 214.392 86.1132 214.456 86.2862 214.573C86.4592 214.691 86.5935 214.857 86.6722 215.051C86.7509 215.245 86.7704 215.458 86.7284 215.663C86.6864 215.868 86.5847 216.056 86.436 216.203C86.2874 216.35 86.0985 216.45 85.8932 216.49C85.6878 216.53 85.4752 216.509 85.2821 216.428C85.089 216.348 84.924 216.212 84.808 216.038C84.692 215.864 84.63 215.659 84.63 215.45C84.6313 215.308 84.6609 215.167 84.7171 215.037C84.7734 214.906 84.8551 214.788 84.9575 214.689C85.0599 214.59 85.181 214.513 85.3136 214.462C85.4463 214.41 85.5878 214.386 85.73 214.39H85.7ZM111.54 232.93C111.82 232.933 112.088 233.045 112.287 233.243C112.485 233.442 112.597 233.71 112.6 233.99C112.609 234.213 112.543 234.433 112.412 234.614C112.282 234.795 112.094 234.928 111.88 234.99L110.54 234.34C110.499 234.228 110.479 234.109 110.48 233.99C110.48 233.848 110.508 233.708 110.563 233.577C110.619 233.447 110.699 233.328 110.801 233.23C110.903 233.131 111.023 233.053 111.155 233.002C111.287 232.95 111.428 232.926 111.57 232.93H111.54Z" fill="white"/>
<path d="M133.8 162.82C132.18 173.33 112.49 235.31 112.49 235.31C111.96 234.85 96.3699 227.78 86.8299 223.52L128.17 153.84C132.79 150.74 135.13 154.19 133.8 162.82Z" fill="#C7C7C7"/>
<path d="M88.58 215C88.5 215 88.43 215.08 88.5 215.12C92.5 217.4 110.91 225.68 113.44 226.48C113.52 226.48 113.57 226.38 113.5 226.35C105 222.08 96.56 218 88.58 215Z" fill="#263238"/>
<path d="M133.87 152.05C133.87 153.05 137.38 160.32 141.87 160.96C143.34 161.17 144.87 153.19 144.87 153.19L145.11 152.62L148.53 144.72L140.02 136.66L138.78 135.57C138.78 135.57 137.98 137.79 137.02 140.57C137.02 140.7 136.93 140.82 136.89 140.96L136.72 141.41L136.29 142.67C136.18 142.99 136.07 143.31 135.97 143.67C135.87 144.03 135.76 144.34 135.65 144.67C134.888 147.086 134.293 149.552 133.87 152.05Z" fill="#F7A9A0"/>
<path d="M137 140.57C137.393 143.045 138.32 145.406 139.717 147.487C141.114 149.568 142.947 151.319 145.09 152.62L148.51 144.72L140 136.66L138.76 135.57C138.76 135.57 138 137.79 137 140.57Z" fill="#263238"/>
<path d="M162.39 133.74C161.81 148.84 152.74 150.35 149.45 150.07C146.5 149.81 136.45 149.18 135.45 134.07C134.45 118.96 141.67 114.49 148.45 114.4C155.23 114.31 163 118.64 162.39 133.74Z" fill="#F7A9A0"/>
<path d="M161.77 130.45C161.43 130.361 161.096 130.251 160.77 130.12C160.403 130.06 160.068 129.876 159.82 129.6C159.757 129.499 159.73 129.381 159.743 129.263C159.756 129.145 159.807 129.035 159.89 128.95C160.077 128.804 160.301 128.71 160.537 128.681C160.773 128.651 161.012 128.685 161.23 128.78C161.7 128.904 162.109 129.196 162.38 129.6C162.433 129.696 162.457 129.805 162.45 129.914C162.444 130.023 162.407 130.128 162.343 130.217C162.279 130.306 162.191 130.375 162.09 130.416C161.989 130.457 161.878 130.469 161.77 130.45V130.45Z" fill="#263238"/>
<path d="M152 129.93C152.36 129.93 152.69 129.86 153 129.82C153.358 129.827 153.709 129.718 154 129.51C154.083 129.425 154.134 129.315 154.147 129.197C154.16 129.079 154.133 128.961 154.07 128.86C153.918 128.679 153.719 128.541 153.496 128.462C153.273 128.383 153.033 128.365 152.8 128.41C152.313 128.432 151.851 128.631 151.5 128.97C151.416 129.056 151.362 129.166 151.345 129.285C151.327 129.403 151.348 129.524 151.403 129.631C151.458 129.737 151.546 129.823 151.653 129.877C151.76 129.931 151.882 129.949 152 129.93V129.93Z" fill="#263238"/>
<path d="M153.83 133.86C153.83 133.86 153.74 133.86 153.74 133.95C153.68 134.95 153.45 136.14 152.49 136.4V136.46C153.64 136.4 153.94 134.84 153.83 133.86Z" fill="#263238"/>
<path d="M153 132.71C151.36 132.45 150.95 135.71 152.47 135.99C153.99 136.27 154.37 132.94 153 132.71Z" fill="#263238"/>
<path d="M152.33 132.81C152.02 132.96 151.7 133.25 151.33 133.24C150.96 133.23 150.66 132.85 150.44 132.49C150.44 132.49 150.44 132.49 150.38 132.49C150.29 133.12 150.45 133.79 151.12 133.97C151.79 134.15 152.24 133.63 152.47 133.02C152.54 132.93 152.46 132.75 152.33 132.81Z" fill="#263238"/>
<path d="M159.38 134C159.38 134 159.46 134.06 159.45 134.1C159.28 135.1 159.26 136.3 160.14 136.76C160.14 136.76 160.14 136.83 160.14 136.82C159 136.49 159.06 134.91 159.38 134Z" fill="#263238"/>
<path d="M160.43 133C162.09 133.1 161.78 136.4 160.25 136.32C158.72 136.24 159 133 160.43 133Z" fill="#263238"/>
<path d="M161.1 133.31C161.35 133.51 161.58 133.86 161.89 133.91C162.2 133.96 162.55 133.63 162.81 133.31H162.86C162.86 133.94 162.55 134.58 161.93 134.65C161.31 134.72 161.01 134.13 160.93 133.48C160.9 133.4 161 133.23 161.1 133.31Z" fill="#263238"/>
<path d="M152.83 141.74C153.03 142.02 153.22 142.39 153.58 142.48C153.957 142.537 154.343 142.513 154.71 142.41C154.71 142.41 154.77 142.41 154.71 142.47C154.533 142.647 154.31 142.771 154.066 142.829C153.823 142.887 153.568 142.877 153.33 142.8C153.136 142.715 152.972 142.574 152.856 142.397C152.741 142.219 152.679 142.012 152.68 141.8C152.72 141.71 152.8 141.7 152.83 141.74Z" fill="#263238"/>
<path d="M157.52 138.53C157.559 139.286 157.559 140.044 157.52 140.8C157.52 140.86 157.34 140.88 157.09 140.86C156.46 140.902 155.83 140.771 155.269 140.48C154.708 140.189 154.238 139.75 153.91 139.21C153.905 139.194 153.906 139.178 153.911 139.162C153.916 139.147 153.926 139.133 153.939 139.123C153.952 139.113 153.968 139.108 153.984 139.107C154 139.107 154.016 139.111 154.03 139.12C154.87 139.848 155.922 140.286 157.03 140.37C157.1 140.18 156.87 137.72 157.03 137.72C157.581 137.836 158.115 138.021 158.62 138.27C158.62 135.04 158.13 131.84 158.19 128.62C158.197 128.6 158.209 128.582 158.226 128.57C158.243 128.558 158.264 128.551 158.285 128.551C158.306 128.551 158.327 128.558 158.344 128.57C158.361 128.582 158.373 128.6 158.38 128.62C159 132.044 159.275 135.521 159.2 139C159.21 139.39 157.79 138.68 157.52 138.53Z" fill="#263238"/>
<path d="M157 140.3C156.56 140.879 155.978 141.334 155.31 141.62C154.944 141.764 154.541 141.788 154.16 141.69C153.33 141.47 153.3 140.69 153.46 140.05C153.544 139.703 153.668 139.368 153.83 139.05C154.725 139.797 155.836 140.235 157 140.3V140.3Z" fill="#263238"/>
<path d="M155.36 141.62C154.994 141.764 154.591 141.788 154.21 141.69C153.38 141.47 153.35 140.69 153.51 140.05C153.948 140.073 154.366 140.239 154.7 140.522C155.035 140.806 155.266 141.192 155.36 141.62V141.62Z" fill="#FF9BBC"/>
<path d="M52.44 393.44C51.31 395.65 50.21 397.84 49.16 399.97C48.4934 401.303 47.8634 402.593 47.27 403.84C43.35 411.9 40.58 418.19 41.03 418.98C42.43 421.42 97.39 450.67 99.65 451.06C101.91 451.45 103.15 445.01 101.92 442.18C101.17 440.45 94.92 432.18 90.19 425.92C87.12 421.92 84.66 418.76 84.66 418.76L88.25 412.39L104.66 383.39L67.84 363.92C67.84 363.92 59.74 379 52.44 393.44Z" fill="#F7A9A0"/>
<path d="M99.65 451.06C97.39 450.68 42.42 421.41 41.03 418.97C40.57 418.19 43.35 411.9 47.27 403.83C47.54 403.26 47.83 402.68 48.12 402.09C55.18 406.34 79.43 426.97 91.28 431.09C95.52 432.57 91.57 427.71 91.57 427.71C96.09 433.64 101.24 440.58 101.92 442.14C103.15 445 101.91 451.43 99.65 451.06Z" fill="#263238"/>
<path d="M96.14 410.4C96.58 410.18 122.36 355.05 128.85 334.53C137.28 307.87 147.3 256.93 149.58 246.73C154.272 234.982 157.457 222.688 159.06 210.14C159.06 210.14 109.71 210.14 109.71 210.14C109.71 210.14 96.77 234.9 103.44 252.39C104 254 93.55 309 88.78 319C84.65 327.66 54.47 387.82 53.66 388.24L96.14 410.4Z" fill="#37474F"/>
<path d="M61.41 380.24C66.32 382.24 85.3 391.84 90.03 394.24L93.9 396.24C95.2252 396.857 96.5021 397.572 97.72 398.38C97.79 398.43 97.72 398.55 97.64 398.53C96.4362 398.157 95.2628 397.692 94.13 397.14C92.91 396.61 91.7 396.06 90.5 395.5C88.08 394.4 63.87 381.99 61.35 380.36C61.3433 380.348 61.3395 380.335 61.339 380.322C61.3386 380.309 61.3415 380.296 61.3475 380.284C61.3534 380.272 61.3623 380.262 61.3732 380.254C61.3841 380.246 61.3968 380.241 61.41 380.24V380.24Z" fill="#263238"/>
<path d="M92.78 393.37C96.94 384.03 116.86 335.37 120.36 324.64C123.86 313.91 126.75 303.17 129.5 292.32C132.3 281.32 134.93 270.22 137.62 259.16C140.34 247.94 143.01 236.68 145.04 225.32C145.3 223.88 145.55 222.44 145.8 221C145.8 220.9 145.99 220.92 145.97 221C144.35 232.47 142.13 243.85 139.6 255.15C137.07 266.45 134.34 277.52 131.55 288.66C128.83 299.58 125.94 310.46 122.55 321.2C119.16 331.94 94.38 392.2 92.92 393.44C92.84 393.53 92.73 393.47 92.78 393.37Z" fill="#263238"/>
<path d="M159.07 210.14C157.46 222.691 154.272 234.988 149.58 246.74C147.86 254.45 141.7 285.47 135.16 311.67L109.72 210.13C109.72 210.13 159.07 210.11 159.07 210.14Z" fill="#263238"/>
<path d="M137 421.87C137 424.36 137.09 426.81 137.15 429.18C137.15 430.66 137.24 432.1 137.29 433.49C137.59 442.44 138.08 449.3 138.85 449.79C141.22 451.29 203.49 451.47 205.67 450.79C207.85 450.11 205.93 443.79 203.52 441.87C202.06 440.7 192.68 436.27 185.52 432.98C180.94 430.88 177.29 429.23 177.29 429.23L177.49 421.92L178 388.6H136.87C136.87 388.6 136.71 405.73 137 421.87Z" fill="#F7A9A0"/>
<path d="M129.65 254.29C129.65 254.29 133.87 294.29 135.84 314.47C136.34 319.47 136.68 323.28 136.84 324.91C136.84 325.55 136.92 336.01 136.94 349.69C136.94 361.69 133.94 417.23 133.94 417.23H180.62C180.62 417.23 178.62 330.86 177.92 321.11C177.83 319.98 177.76 318.81 177.68 317.62C175.84 290.02 174.83 249.84 161.29 210.14H109.64C109.64 210.14 108.37 233.14 118.98 250C119 250 126.57 252.56 129.65 254.29Z" fill="#37474F"/>
<path d="M137.42 407.14C142.72 406.81 163.97 407.14 169.28 407.21L173.63 407.31C175.094 407.283 176.558 407.367 178.01 407.56C178.1 407.56 178.09 407.72 178.01 407.73C176.766 407.922 175.509 408.019 174.25 408.02C172.917 408.073 171.583 408.113 170.25 408.14C167.6 408.2 140.4 407.65 137.42 407.29C137.32 407.27 137.32 407.14 137.42 407.14Z" fill="#263238"/>
<path d="M154.9 215.77C158.387 227.452 161.244 239.312 163.46 251.3C165.66 263.21 167.38 275.21 168.69 287.25C170.02 299.46 170.94 311.71 171.56 323.97C172.18 336.23 172.45 348.45 172.47 360.7C172.49 372.95 172.64 403.25 172.55 404.78C172.55 404.88 172.39 404.88 172.39 404.78C172.32 392.6 171.46 377.65 171.44 365.47C171.42 353.29 171.19 340.97 170.69 328.73C170.19 316.49 169.41 304.43 168.22 292.33C167.03 280.23 165.42 267.96 163.31 255.88C161.2 243.8 158.72 232.05 155.83 220.28C155.46 218.79 155.08 217.28 154.69 215.82C154.689 215.794 154.697 215.769 154.712 215.749C154.728 215.729 154.75 215.714 154.774 215.709C154.799 215.703 154.825 215.706 154.848 215.717C154.871 215.728 154.889 215.747 154.9 215.77V215.77Z" fill="#263238"/>
<path d="M113.41 247.71C114.776 248.989 116.468 249.868 118.3 250.25C120.24 250.75 122.23 251.05 124.19 251.42C128.543 252.329 132.959 252.901 137.4 253.13C139.922 253.284 142.453 253.086 144.92 252.54C144.935 252.546 144.949 252.556 144.958 252.569C144.967 252.583 144.972 252.599 144.972 252.615C144.972 252.631 144.967 252.647 144.958 252.661C144.949 252.674 144.935 252.684 144.92 252.69C142.757 253.376 140.528 253.835 138.27 254.06C135.983 254.232 133.684 254.168 131.41 253.87C129.1 253.59 126.8 253.14 124.52 252.66C122.459 252.259 120.425 251.732 118.43 251.08C116.443 250.488 114.66 249.356 113.28 247.81C113.25 247.74 113.35 247.64 113.41 247.71Z" fill="#263238"/>
<path d="M205.66 450.76C203.47 451.47 141.22 451.29 138.84 449.76C138.07 449.28 137.58 442.42 137.28 433.47C137.28 432.19 137.19 430.88 137.16 429.53C144.82 430.45 177.78 437.66 191.9 437.66C195.33 437.66 189.9 435.32 190.55 435.26C196.46 438.04 202.37 440.91 203.55 441.82C205.92 443.77 207.83 450 205.66 450.76Z" fill="#263238"/>
<path d="M160.85 195.73L165.13 218.73C165.13 218.73 114.34 219.44 102.41 218.6C102.41 218.6 114.88 170.02 127.71 156.09C134.12 149.09 141.71 149.64 146.46 154.51C147.67 155.75 162.17 174.9 163.69 182.22C165 188.63 160.85 195.73 160.85 195.73Z" fill="#DBDBDB"/>
<path d="M155.73 169.06C155.733 169.34 155.845 169.608 156.043 169.807C156.242 170.005 156.51 170.117 156.79 170.12C157.041 170.122 157.284 170.029 157.47 169.86C157.1 169.27 156.72 168.69 156.34 168.1C156.158 168.185 156.003 168.321 155.895 168.491C155.787 168.661 155.73 168.858 155.73 169.06V169.06ZM143.87 168C144.08 168 144.285 168.062 144.459 168.179C144.633 168.295 144.769 168.461 144.849 168.654C144.93 168.848 144.951 169.061 144.91 169.267C144.869 169.472 144.768 169.661 144.62 169.809C144.471 169.958 144.282 170.059 144.077 170.1C143.871 170.14 143.658 170.119 143.464 170.039C143.271 169.959 143.105 169.823 142.989 169.649C142.872 169.475 142.81 169.27 142.81 169.06C142.809 168.92 142.835 168.782 142.888 168.653C142.941 168.524 143.019 168.406 143.118 168.307C143.216 168.209 143.334 168.131 143.463 168.078C143.592 168.025 143.73 167.999 143.87 168V168ZM130.95 168C131.16 168 131.365 168.062 131.539 168.179C131.713 168.295 131.849 168.461 131.929 168.654C132.01 168.848 132.031 169.061 131.99 169.267C131.949 169.472 131.848 169.661 131.7 169.809C131.551 169.958 131.362 170.059 131.157 170.1C130.951 170.14 130.738 170.119 130.544 170.039C130.351 169.959 130.185 169.823 130.069 169.649C129.952 169.475 129.89 169.27 129.89 169.06C129.89 168.779 130.002 168.509 130.201 168.31C130.399 168.112 130.669 168 130.95 168V168ZM149.88 158.87L151.11 160.55C151.004 160.664 150.873 160.754 150.729 160.812C150.584 160.87 150.428 160.895 150.272 160.886C150.116 160.877 149.964 160.833 149.827 160.759C149.69 160.684 149.571 160.58 149.479 160.454C149.387 160.328 149.323 160.183 149.294 160.03C149.264 159.877 149.268 159.719 149.307 159.567C149.345 159.416 149.416 159.275 149.515 159.155C149.614 159.034 149.739 158.937 149.88 158.87V158.87ZM137.41 158.77C137.62 158.77 137.825 158.832 137.999 158.949C138.173 159.065 138.309 159.231 138.389 159.424C138.47 159.618 138.491 159.831 138.45 160.037C138.409 160.242 138.308 160.431 138.16 160.579C138.011 160.728 137.822 160.829 137.617 160.87C137.411 160.91 137.198 160.889 137.004 160.809C136.811 160.729 136.645 160.593 136.529 160.419C136.412 160.245 136.35 160.04 136.35 159.83C136.349 159.69 136.375 159.552 136.428 159.423C136.481 159.294 136.559 159.176 136.658 159.077C136.756 158.979 136.874 158.901 137.003 158.848C137.132 158.795 137.27 158.769 137.41 158.77V158.77ZM125.26 159.11C125.354 159.205 125.428 159.317 125.478 159.441C125.528 159.564 125.552 159.697 125.55 159.83C125.547 160.11 125.435 160.378 125.237 160.577C125.038 160.775 124.77 160.887 124.49 160.89C124.36 160.892 124.231 160.868 124.11 160.82C124.49 160.23 124.88 159.65 125.26 159.11ZM156.79 186.54C157.071 186.54 157.341 186.652 157.54 186.85C157.738 187.049 157.85 187.319 157.85 187.6C157.85 187.881 157.738 188.151 157.54 188.349C157.341 188.548 157.071 188.66 156.79 188.66C156.509 188.66 156.239 188.548 156.041 188.349C155.842 188.151 155.73 187.881 155.73 187.6C155.73 187.319 155.842 187.049 156.041 186.85C156.239 186.652 156.509 186.54 156.79 186.54ZM143.87 186.54C144.08 186.54 144.285 186.602 144.459 186.719C144.633 186.835 144.769 187.001 144.849 187.194C144.93 187.388 144.951 187.601 144.91 187.807C144.869 188.012 144.768 188.201 144.62 188.349C144.471 188.498 144.282 188.599 144.077 188.64C143.871 188.68 143.658 188.659 143.464 188.579C143.271 188.499 143.105 188.363 142.989 188.189C142.872 188.015 142.81 187.81 142.81 187.6C142.809 187.46 142.835 187.322 142.888 187.193C142.941 187.064 143.019 186.946 143.118 186.847C143.216 186.749 143.334 186.671 143.463 186.618C143.592 186.565 143.73 186.539 143.87 186.54V186.54ZM130.95 186.54C131.16 186.54 131.365 186.602 131.539 186.719C131.713 186.835 131.849 187.001 131.929 187.194C132.01 187.388 132.031 187.601 131.99 187.807C131.949 188.012 131.848 188.201 131.7 188.349C131.551 188.498 131.362 188.599 131.157 188.64C130.951 188.68 130.738 188.659 130.544 188.579C130.351 188.499 130.185 188.363 130.069 188.189C129.952 188.015 129.89 187.81 129.89 187.6C129.89 187.319 130.002 187.049 130.201 186.85C130.399 186.652 130.669 186.54 130.95 186.54V186.54ZM118.03 186.54C118.241 186.534 118.449 186.591 118.627 186.704C118.805 186.817 118.946 186.98 119.03 187.173C119.115 187.366 119.141 187.58 119.103 187.788C119.066 187.995 118.967 188.187 118.82 188.338C118.673 188.489 118.485 188.593 118.278 188.637C118.072 188.68 117.857 188.661 117.662 188.582C117.466 188.503 117.299 188.367 117.181 188.192C117.063 188.017 117 187.811 117 187.6C117 187.329 117.103 187.068 117.289 186.871C117.475 186.674 117.729 186.555 118 186.54H118.03ZM162.21 178.16C162.39 178.54 162.56 178.92 162.71 179.28C162.553 179.185 162.423 179.051 162.332 178.892C162.241 178.733 162.192 178.553 162.19 178.37C162.191 178.3 162.198 178.229 162.21 178.16V178.16ZM150.33 177.31C150.611 177.31 150.881 177.422 151.08 177.62C151.278 177.819 151.39 178.089 151.39 178.37C151.39 178.651 151.278 178.921 151.08 179.119C150.881 179.318 150.611 179.43 150.33 179.43C150.049 179.43 149.779 179.318 149.581 179.119C149.382 178.921 149.27 178.651 149.27 178.37C149.27 178.089 149.382 177.819 149.581 177.62C149.779 177.422 150.049 177.31 150.33 177.31V177.31ZM137.41 177.31C137.62 177.31 137.825 177.372 137.999 177.489C138.173 177.605 138.309 177.771 138.389 177.964C138.47 178.158 138.491 178.371 138.45 178.577C138.409 178.782 138.308 178.971 138.16 179.119C138.011 179.268 137.822 179.369 137.617 179.41C137.411 179.45 137.198 179.429 137.004 179.349C136.811 179.269 136.645 179.133 136.529 178.959C136.412 178.785 136.35 178.58 136.35 178.37C136.349 178.23 136.375 178.092 136.428 177.963C136.481 177.834 136.559 177.716 136.658 177.617C136.756 177.519 136.874 177.441 137.003 177.388C137.132 177.335 137.27 177.309 137.41 177.31V177.31ZM124.49 177.31C124.7 177.31 124.905 177.372 125.079 177.489C125.253 177.605 125.389 177.771 125.469 177.964C125.55 178.158 125.571 178.371 125.53 178.577C125.489 178.782 125.388 178.971 125.24 179.119C125.091 179.268 124.902 179.369 124.697 179.41C124.491 179.45 124.278 179.429 124.084 179.349C123.891 179.269 123.725 179.133 123.609 178.959C123.492 178.785 123.43 178.58 123.43 178.37C123.43 178.231 123.457 178.093 123.511 177.964C123.564 177.836 123.642 177.719 123.741 177.62C123.839 177.522 123.956 177.444 124.084 177.391C124.213 177.337 124.351 177.31 124.49 177.31V177.31ZM156.79 205.08C157 205.08 157.205 205.142 157.379 205.259C157.553 205.375 157.689 205.541 157.769 205.734C157.85 205.928 157.871 206.141 157.83 206.347C157.789 206.552 157.688 206.741 157.54 206.889C157.391 207.038 157.202 207.139 156.997 207.18C156.791 207.22 156.578 207.199 156.384 207.119C156.191 207.039 156.025 206.903 155.909 206.729C155.792 206.555 155.73 206.35 155.73 206.14C155.729 206 155.755 205.862 155.808 205.733C155.861 205.604 155.939 205.486 156.038 205.387C156.136 205.289 156.254 205.211 156.383 205.158C156.512 205.105 156.65 205.079 156.79 205.08V205.08ZM143.87 205.08C144.08 205.08 144.285 205.142 144.459 205.259C144.633 205.375 144.769 205.541 144.849 205.734C144.93 205.928 144.951 206.141 144.91 206.347C144.869 206.552 144.768 206.741 144.62 206.889C144.471 207.038 144.282 207.139 144.077 207.18C143.871 207.22 143.658 207.199 143.464 207.119C143.271 207.039 143.105 206.903 142.989 206.729C142.872 206.555 142.81 206.35 142.81 206.14C142.809 206 142.835 205.862 142.888 205.733C142.941 205.604 143.019 205.486 143.118 205.387C143.216 205.289 143.334 205.211 143.463 205.158C143.592 205.105 143.73 205.079 143.87 205.08V205.08ZM130.95 205.08C131.16 205.08 131.365 205.142 131.539 205.259C131.713 205.375 131.849 205.541 131.929 205.734C132.01 205.928 132.031 206.141 131.99 206.347C131.949 206.552 131.848 206.741 131.7 206.889C131.551 207.038 131.362 207.139 131.157 207.18C130.951 207.22 130.738 207.199 130.544 207.119C130.351 207.039 130.185 206.903 130.069 206.729C129.952 206.555 129.89 206.35 129.89 206.14C129.89 206.001 129.917 205.863 129.971 205.734C130.024 205.606 130.102 205.489 130.201 205.39C130.299 205.292 130.416 205.214 130.544 205.161C130.673 205.107 130.811 205.08 130.95 205.08ZM118.03 205.08C118.24 205.08 118.445 205.142 118.619 205.259C118.793 205.375 118.929 205.541 119.009 205.734C119.09 205.928 119.111 206.141 119.07 206.347C119.029 206.552 118.928 206.741 118.78 206.889C118.631 207.038 118.442 207.139 118.237 207.18C118.031 207.22 117.818 207.199 117.624 207.119C117.431 207.039 117.265 206.903 117.149 206.729C117.032 206.555 116.97 206.35 116.97 206.14C116.97 205.864 117.077 205.599 117.27 205.401C117.462 205.203 117.724 205.088 118 205.08H118.03ZM106.03 205.66C106.11 205.807 106.151 205.972 106.15 206.14C106.155 206.326 106.108 206.51 106.015 206.67C105.921 206.831 105.784 206.963 105.62 207.05L106.03 205.66ZM150.31 195.85C150.52 195.85 150.725 195.912 150.899 196.029C151.073 196.145 151.209 196.311 151.289 196.504C151.37 196.698 151.391 196.911 151.35 197.117C151.309 197.322 151.208 197.511 151.06 197.659C150.911 197.808 150.722 197.909 150.517 197.95C150.311 197.99 150.098 197.969 149.904 197.889C149.711 197.809 149.545 197.673 149.429 197.499C149.312 197.325 149.25 197.12 149.25 196.91C149.249 196.769 149.276 196.629 149.33 196.498C149.384 196.367 149.464 196.249 149.564 196.15C149.665 196.051 149.785 195.974 149.917 195.922C150.048 195.87 150.189 195.846 150.33 195.85H150.31ZM137.39 195.85C137.6 195.85 137.805 195.912 137.979 196.029C138.153 196.145 138.289 196.311 138.369 196.504C138.45 196.698 138.471 196.911 138.43 197.117C138.389 197.322 138.288 197.511 138.14 197.659C137.991 197.808 137.802 197.909 137.597 197.95C137.391 197.99 137.178 197.969 136.984 197.889C136.791 197.809 136.625 197.673 136.509 197.499C136.392 197.325 136.33 197.12 136.33 196.91C136.329 196.769 136.356 196.629 136.41 196.498C136.464 196.367 136.544 196.249 136.645 196.15C136.745 196.051 136.865 195.974 136.997 195.922C137.128 195.87 137.269 195.846 137.41 195.85H137.39ZM124.47 195.85C124.68 195.85 124.885 195.912 125.059 196.029C125.233 196.145 125.369 196.311 125.449 196.504C125.53 196.698 125.551 196.911 125.51 197.117C125.469 197.322 125.368 197.511 125.22 197.659C125.071 197.808 124.882 197.909 124.677 197.95C124.471 197.99 124.258 197.969 124.064 197.889C123.871 197.809 123.705 197.673 123.589 197.499C123.472 197.325 123.41 197.12 123.41 196.91C123.41 196.769 123.438 196.63 123.493 196.5C123.547 196.37 123.627 196.252 123.728 196.153C123.828 196.055 123.947 195.977 124.078 195.925C124.209 195.873 124.349 195.847 124.49 195.85H124.47ZM111.55 195.85C111.76 195.85 111.965 195.912 112.139 196.029C112.313 196.145 112.449 196.311 112.529 196.504C112.61 196.698 112.631 196.911 112.59 197.117C112.549 197.322 112.448 197.511 112.3 197.659C112.151 197.808 111.962 197.909 111.757 197.95C111.551 197.99 111.338 197.969 111.144 197.889C110.951 197.809 110.785 197.673 110.669 197.499C110.552 197.325 110.49 197.12 110.49 196.91C110.49 196.769 110.518 196.63 110.573 196.5C110.627 196.37 110.707 196.252 110.808 196.153C110.908 196.055 111.027 195.977 111.158 195.925C111.289 195.873 111.429 195.847 111.57 195.85H111.55ZM163.23 214.39C163.44 214.39 163.645 214.452 163.819 214.569C163.993 214.685 164.129 214.851 164.209 215.044C164.29 215.238 164.311 215.451 164.27 215.657C164.229 215.862 164.128 216.051 163.98 216.199C163.831 216.348 163.642 216.449 163.437 216.49C163.231 216.53 163.018 216.509 162.824 216.429C162.631 216.349 162.465 216.213 162.349 216.039C162.232 215.865 162.17 215.66 162.17 215.45C162.17 215.309 162.198 215.17 162.253 215.04C162.307 214.91 162.387 214.792 162.488 214.693C162.588 214.595 162.707 214.517 162.838 214.465C162.969 214.413 163.109 214.387 163.25 214.39H163.23ZM150.31 214.39C150.52 214.39 150.725 214.452 150.899 214.569C151.073 214.685 151.209 214.851 151.289 215.044C151.37 215.238 151.391 215.451 151.35 215.657C151.309 215.862 151.208 216.051 151.06 216.199C150.911 216.348 150.722 216.449 150.517 216.49C150.311 216.53 150.098 216.509 149.904 216.429C149.711 216.349 149.545 216.213 149.429 216.039C149.312 215.865 149.25 215.66 149.25 215.45C149.25 215.309 149.278 215.17 149.333 215.04C149.387 214.91 149.467 214.792 149.568 214.693C149.668 214.595 149.787 214.517 149.918 214.465C150.049 214.413 150.189 214.387 150.33 214.39H150.31ZM137.39 214.39C137.6 214.39 137.805 214.452 137.979 214.569C138.153 214.685 138.289 214.851 138.369 215.044C138.45 215.238 138.471 215.451 138.43 215.657C138.389 215.862 138.288 216.051 138.14 216.199C137.991 216.348 137.802 216.449 137.597 216.49C137.391 216.53 137.178 216.509 136.984 216.429C136.791 216.349 136.625 216.213 136.509 216.039C136.392 215.865 136.33 215.66 136.33 215.45C136.33 215.309 136.358 215.17 136.413 215.04C136.467 214.91 136.547 214.792 136.648 214.693C136.748 214.595 136.867 214.517 136.998 214.465C137.129 214.413 137.269 214.387 137.41 214.39H137.39ZM124.47 214.39C124.751 214.39 125.021 214.502 125.22 214.7C125.418 214.899 125.53 215.169 125.53 215.45C125.53 215.731 125.418 216.001 125.22 216.199C125.021 216.398 124.751 216.51 124.47 216.51C124.189 216.51 123.919 216.398 123.721 216.199C123.522 216.001 123.41 215.731 123.41 215.45C123.41 215.169 123.522 214.899 123.721 214.7C123.919 214.502 124.189 214.39 124.47 214.39V214.39ZM111.55 214.39C111.831 214.39 112.101 214.502 112.3 214.7C112.498 214.899 112.61 215.169 112.61 215.45C112.61 215.731 112.498 216.001 112.3 216.199C112.101 216.398 111.831 216.51 111.55 216.51C111.269 216.51 110.999 216.398 110.801 216.199C110.602 216.001 110.49 215.731 110.49 215.45C110.49 215.169 110.602 214.899 110.801 214.7C110.999 214.502 111.269 214.39 111.55 214.39Z" fill="white"/>
<path d="M118.27 171.51C117.05 174.19 115.89 176.88 114.76 179.6C114.94 178.78 115.14 177.96 115.37 177.16C115.37 177.04 115.22 177 115.18 177.16C114.739 178.352 114.433 179.59 114.27 180.85C110.669 189.66 107.593 198.676 105.06 207.85C104.58 209.58 104.06 211.32 103.7 213.07C103.34 214.82 102.7 216.7 102.5 218.55C102.5 218.571 102.508 218.592 102.523 218.607C102.538 218.622 102.559 218.63 102.58 218.63C102.601 218.63 102.622 218.622 102.637 218.607C102.652 218.592 102.66 218.571 102.66 218.55C103.25 217.02 103.66 215.38 104.1 213.8C104.54 212.22 104.99 210.8 105.45 209.24C106.38 206.14 107.31 203.04 108.28 199.95C110.2 193.84 112.28 187.81 114.47 181.78C115.7 178.33 117.06 174.93 118.39 171.52C118.42 171.49 118.3 171.44 118.27 171.51Z" fill="#263238"/>
<path d="M141.74 163.36C144.86 170.27 161.3 198.06 170.25 201.06C184.25 205.77 201.46 202.77 210.53 201.94C215.59 201.47 210.59 171.03 205.18 172.83C197.77 175.29 179.75 177.62 177.08 177.54C174.41 177.46 161.5 164.4 151.61 156.67C142.44 149.51 136.58 151.92 141.74 163.36Z" fill="#F7A9A0"/>
<path d="M250 170.76C250.37 175.19 234.88 175.81 234.88 175.81C236.158 176.461 237.167 177.541 237.73 178.86C238.62 181.23 235.29 183.66 235.29 183.66C236.471 184.617 237.338 185.906 237.78 187.36C238.4 189.72 235.39 192.64 235.39 192.64C235.99 194.12 236.04 195.766 235.53 197.28C234.01 201.28 227.61 202.52 223.53 203.35C219.45 204.18 207.42 203.18 204.42 202.57L198.78 175.22C205.817 171.473 213.405 168.867 221.26 167.5C225.33 166.83 249.53 165.75 250 170.76Z" fill="#F7A9A0"/>
<path d="M234.57 175.43C230.11 174.65 225.65 175.23 221.18 175.56C221.168 175.555 221.155 175.554 221.142 175.556C221.129 175.557 221.117 175.562 221.106 175.569C221.096 175.577 221.087 175.586 221.081 175.598C221.075 175.609 221.072 175.622 221.072 175.635C221.072 175.648 221.075 175.661 221.081 175.672C221.087 175.683 221.096 175.693 221.106 175.701C221.117 175.708 221.129 175.713 221.142 175.714C221.155 175.716 221.168 175.714 221.18 175.71C225.63 175.34 230.09 175.85 234.55 175.64C234.68 175.64 234.69 175.45 234.57 175.43Z" fill="#263238"/>
<path d="M235.09 183.34C234.057 183.256 233.018 183.314 232 183.51C230.92 183.64 229.83 183.79 228.75 183.96C226.59 184.31 224.43 184.69 222.29 185.15C222.19 185.15 222.2 185.32 222.29 185.3C224.45 184.97 226.61 184.66 228.78 184.42C229.87 184.3 230.95 184.18 232.04 184.08C233.073 184.044 234.099 183.897 235.1 183.64C235.13 183.628 235.156 183.606 235.174 183.579C235.192 183.551 235.201 183.519 235.199 183.486C235.198 183.454 235.187 183.422 235.168 183.396C235.148 183.37 235.121 183.35 235.09 183.34Z" fill="#263238"/>
<path d="M235.26 192.66C234.326 192.595 233.388 192.697 232.49 192.96L229.49 193.47C227.49 193.8 225.55 194.12 223.57 194.38C223.48 194.38 223.49 194.55 223.57 194.54C225.57 194.28 227.57 194.06 229.57 193.79L232.57 193.37C233.484 193.327 234.382 193.117 235.22 192.75L235.26 192.66Z" fill="#263238"/>
<path d="M198.06 173.65L200.49 206.93C200.49 206.93 172.19 205.01 167.71 201.77C162.37 197.91 144.19 172.6 139.96 162.38C135.73 152.16 141.37 148.72 150.21 155.38C159.05 162.04 174.77 175.15 176 175.77C177.23 176.39 198.06 173.65 198.06 173.65Z" fill="#DBDBDB"/>
<path d="M155.73 169.06C155.73 169.341 155.842 169.611 156.04 169.81C156.239 170.008 156.509 170.12 156.79 170.12C157.071 170.12 157.341 170.008 157.54 169.81C157.738 169.611 157.85 169.341 157.85 169.06C157.85 168.779 157.738 168.509 157.54 168.31C157.341 168.112 157.071 168 156.79 168C156.509 168 156.239 168.112 156.04 168.31C155.842 168.509 155.73 168.779 155.73 169.06ZM143.87 168C144.137 168.004 144.393 168.108 144.587 168.293C144.78 168.477 144.897 168.728 144.913 168.995C144.93 169.262 144.845 169.525 144.675 169.732C144.506 169.938 144.265 170.074 144 170.11L143 168.42C143.098 168.282 143.229 168.171 143.381 168.098C143.533 168.025 143.701 167.991 143.87 168ZM150.33 158.77C150.611 158.77 150.881 158.882 151.08 159.08C151.278 159.279 151.39 159.549 151.39 159.83C151.39 160.111 151.278 160.381 151.08 160.58C150.881 160.778 150.611 160.89 150.33 160.89C150.049 160.89 149.779 160.778 149.58 160.58C149.382 160.381 149.27 160.111 149.27 159.83C149.27 159.549 149.382 159.279 149.58 159.08C149.779 158.882 150.049 158.77 150.33 158.77ZM195.55 186.54C195.76 186.54 195.965 186.602 196.139 186.719C196.313 186.835 196.449 187.001 196.529 187.194C196.61 187.388 196.631 187.601 196.59 187.807C196.549 188.012 196.448 188.201 196.3 188.35C196.151 188.498 195.962 188.599 195.757 188.64C195.551 188.681 195.338 188.66 195.144 188.579C194.951 188.499 194.785 188.363 194.669 188.189C194.552 188.015 194.49 187.81 194.49 187.6C194.49 187.461 194.517 187.323 194.571 187.194C194.624 187.066 194.702 186.949 194.8 186.85C194.899 186.752 195.016 186.674 195.144 186.621C195.273 186.567 195.411 186.54 195.55 186.54V186.54ZM182.63 186.54C182.911 186.54 183.181 186.652 183.38 186.85C183.578 187.049 183.69 187.319 183.69 187.6C183.69 187.881 183.578 188.151 183.38 188.35C183.181 188.548 182.911 188.66 182.63 188.66C182.349 188.66 182.079 188.548 181.88 188.35C181.682 188.151 181.57 187.881 181.57 187.6C181.57 187.319 181.682 187.049 181.88 186.85C182.079 186.652 182.349 186.54 182.63 186.54ZM169.71 186.54C169.991 186.54 170.261 186.652 170.46 186.85C170.658 187.049 170.77 187.319 170.77 187.6C170.77 187.881 170.658 188.151 170.46 188.35C170.261 188.548 169.991 188.66 169.71 188.66C169.429 188.66 169.159 188.548 168.96 188.35C168.762 188.151 168.65 187.881 168.65 187.6C168.65 187.319 168.762 187.049 168.96 186.85C169.159 186.652 169.429 186.54 169.71 186.54ZM156.79 186.54C157.071 186.54 157.341 186.652 157.54 186.85C157.738 187.049 157.85 187.319 157.85 187.6C157.85 187.881 157.738 188.151 157.54 188.35C157.341 188.548 157.071 188.66 156.79 188.66C156.509 188.66 156.239 188.548 156.04 188.35C155.842 188.151 155.73 187.881 155.73 187.6C155.73 187.319 155.842 187.049 156.04 186.85C156.239 186.652 156.509 186.54 156.79 186.54ZM189.09 177.31C189.371 177.31 189.641 177.422 189.84 177.62C190.038 177.819 190.15 178.089 190.15 178.37C190.15 178.651 190.038 178.921 189.84 179.12C189.641 179.318 189.371 179.43 189.09 179.43C188.809 179.43 188.539 179.318 188.34 179.12C188.142 178.921 188.03 178.651 188.03 178.37C188.03 178.089 188.142 177.819 188.34 177.62C188.539 177.422 188.809 177.31 189.09 177.31V177.31ZM176.17 177.31C176.451 177.31 176.721 177.422 176.92 177.62C177.118 177.819 177.23 178.089 177.23 178.37C177.23 178.651 177.118 178.921 176.92 179.12C176.721 179.318 176.451 179.43 176.17 179.43C175.889 179.43 175.619 179.318 175.42 179.12C175.222 178.921 175.11 178.651 175.11 178.37C175.11 178.089 175.222 177.819 175.42 177.62C175.619 177.422 175.889 177.31 176.17 177.31ZM163.25 177.31C163.531 177.31 163.801 177.422 164 177.62C164.198 177.819 164.31 178.089 164.31 178.37C164.31 178.651 164.198 178.921 164 179.12C163.801 179.318 163.531 179.43 163.25 179.43C162.969 179.43 162.699 179.318 162.5 179.12C162.302 178.921 162.19 178.651 162.19 178.37C162.19 178.089 162.302 177.819 162.5 177.62C162.699 177.422 162.969 177.31 163.25 177.31ZM150.33 177.31C150.611 177.31 150.881 177.422 151.08 177.62C151.278 177.819 151.39 178.089 151.39 178.37C151.39 178.651 151.278 178.921 151.08 179.12C150.881 179.318 150.611 179.43 150.33 179.43C150.049 179.43 149.779 179.318 149.58 179.12C149.382 178.921 149.27 178.651 149.27 178.37C149.27 178.089 149.382 177.819 149.58 177.62C149.779 177.422 150.049 177.31 150.33 177.31V177.31ZM195.55 205.08C195.69 205.079 195.829 205.105 195.959 205.158C196.088 205.21 196.206 205.288 196.306 205.387C196.405 205.485 196.484 205.603 196.538 205.732C196.592 205.861 196.62 206 196.62 206.14C196.621 206.308 196.58 206.473 196.5 206.62L194.5 206.46C194.468 206.356 194.451 206.249 194.45 206.14C194.45 205.997 194.479 205.856 194.534 205.725C194.59 205.594 194.672 205.475 194.774 205.376C194.877 205.277 194.999 205.2 195.132 205.149C195.265 205.098 195.407 205.075 195.55 205.08V205.08ZM182.63 205.08C182.833 205.078 183.032 205.137 183.2 205.25L182.3 205.14C182.405 205.099 182.517 205.079 182.63 205.08V205.08ZM189.09 195.85C189.3 195.85 189.505 195.912 189.679 196.029C189.853 196.145 189.989 196.311 190.069 196.504C190.15 196.698 190.171 196.911 190.13 197.117C190.089 197.322 189.988 197.511 189.84 197.66C189.691 197.808 189.502 197.909 189.297 197.95C189.091 197.991 188.878 197.97 188.684 197.889C188.491 197.809 188.325 197.673 188.209 197.499C188.092 197.325 188.03 197.12 188.03 196.91C188.029 196.77 188.055 196.632 188.108 196.503C188.161 196.374 188.239 196.256 188.337 196.158C188.436 196.059 188.554 195.981 188.683 195.928C188.812 195.875 188.95 195.849 189.09 195.85V195.85ZM176.17 195.85C176.38 195.85 176.585 195.912 176.759 196.029C176.933 196.145 177.069 196.311 177.149 196.504C177.23 196.698 177.251 196.911 177.21 197.117C177.169 197.322 177.068 197.511 176.92 197.66C176.771 197.808 176.582 197.909 176.377 197.95C176.171 197.991 175.958 197.97 175.764 197.889C175.571 197.809 175.405 197.673 175.289 197.499C175.172 197.325 175.11 197.12 175.11 196.91C175.109 196.77 175.135 196.632 175.188 196.503C175.241 196.374 175.319 196.256 175.417 196.158C175.516 196.059 175.634 195.981 175.763 195.928C175.892 195.875 176.03 195.849 176.17 195.85V195.85ZM163.25 195.85C163.489 195.845 163.723 195.922 163.913 196.067C164.103 196.211 164.239 196.416 164.298 196.648C164.357 196.88 164.336 197.124 164.238 197.343C164.141 197.561 163.972 197.74 163.76 197.85C163.33 197.36 162.88 196.85 162.41 196.28C162.504 196.145 162.63 196.035 162.776 195.96C162.923 195.885 163.085 195.847 163.25 195.85V195.85Z" fill="white"/>
<path d="M161.29 194.9C160.99 194.46 149.29 178.47 146.52 173.97C145.64 172.51 144.72 170.97 143.83 169.61C143.77 169.53 143.63 169.61 143.68 169.71C144.09 170.61 144.43 171.38 144.87 172.17C145.09 172.55 145.3 172.93 145.52 173.3C145.02 172.78 144.52 172.3 143.96 171.81C143.949 171.798 143.935 171.791 143.919 171.79C143.903 171.789 143.887 171.794 143.875 171.805C143.863 171.816 143.856 171.83 143.855 171.846C143.854 171.862 143.859 171.878 143.87 171.89C144.35 172.48 144.82 173.07 145.35 173.62C145.59 173.873 145.84 174.113 146.1 174.34L146.16 174.46C150.603 181.684 155.619 188.539 161.16 194.96C161.24 195.06 161.35 195 161.29 194.9Z" fill="#263238"/>
<path d="M191.21 176.9C191.21 176.81 191.07 176.81 191.07 176.9C190.95 181.5 192.33 201.64 192.82 204.25C192.82 204.33 192.97 204.32 192.97 204.25C192.7 194.76 192.27 185.39 191.21 176.9Z" fill="#263238"/>
<path d="M153.91 112.68C154.91 113.25 161.91 113.89 163.09 119.54C163.99 123.83 161.15 126.14 157.14 126.47C152.71 126.83 147.85 124.01 147.85 124.01C146.85 128.38 145.64 134.01 143.99 134.64C142.65 135.17 141.09 133.27 141.09 133.27C139.44 136.68 138.88 144.39 139.28 146.05C140.21 149.96 143.28 155.71 138.22 159.86C137.11 160.77 132.81 162.27 128.61 160.18C124.41 158.09 124.18 154.57 122.67 153.13C121.16 151.69 116.17 151.13 115 148.13C113.83 145.13 114.68 141.93 114.19 140.46C113.7 138.99 111.7 138.39 111.56 135.38C111.42 132.37 114.45 131.7 115.66 129.62C116.51 128.17 115.66 126.21 117.6 124.24C120.22 121.53 123.9 123.8 126.74 121.08C128.96 118.95 134.99 110.58 142.9 109.67C146.818 109.246 150.752 110.322 153.91 112.68V112.68Z" fill="#263238"/>
<path d="M135.75 112.7C133.849 114.207 132.048 115.837 130.36 117.58C129.47 118.39 128.62 119.24 127.67 119.97C127.223 120.338 126.732 120.65 126.21 120.9C126.095 120.967 125.97 121.014 125.84 121.04C125.71 121.078 125.575 121.098 125.44 121.1C125.14 121.1 124.83 121.1 124.52 121.1C123.237 121.05 121.951 121.07 120.67 121.16C119.358 121.216 118.1 121.701 117.09 122.54C116.616 122.984 116.271 123.547 116.09 124.17C115.939 124.799 115.912 125.451 116.01 126.09C116.275 127.301 116.254 128.558 115.95 129.76C116.414 128.599 116.573 127.339 116.41 126.1C116.353 125.511 116.411 124.917 116.58 124.35C116.785 123.824 117.131 123.364 117.58 123.02C118.534 122.327 119.672 121.93 120.85 121.88C122.07 121.78 123.34 121.88 124.63 121.88C124.95 121.88 125.28 121.88 125.63 121.88C125.979 121.856 126.32 121.761 126.63 121.6C127.203 121.316 127.738 120.96 128.22 120.54C129.162 119.76 130.05 118.918 130.88 118.02L133.32 115.34C134.073 114.409 134.885 113.527 135.75 112.7V112.7Z" fill="#263238"/>
<path d="M113.43 139.24C113.543 140.083 113.485 140.94 113.26 141.76C113.12 142.61 112.97 143.46 112.87 144.32C112.748 145.195 112.721 146.08 112.79 146.96C112.841 147.879 113.115 148.772 113.59 149.56C114.764 150.96 116.426 151.861 118.24 152.08C119.1 152.25 119.95 152.37 120.77 152.56C121.615 152.677 122.419 153 123.11 153.5C122.489 152.877 121.717 152.425 120.87 152.19C120.04 151.93 119.2 151.74 118.38 151.51C116.78 151.06 115.12 150.43 114.23 149.14C113.817 148.453 113.571 147.679 113.51 146.88C113.425 146.046 113.405 145.207 113.45 144.37C113.45 143.52 113.56 142.67 113.63 141.81C113.63 141.38 113.63 140.95 113.63 140.51C113.68 140.076 113.61 139.637 113.43 139.24V139.24Z" fill="#263238"/>
<path d="M146.92 122.84C147.747 123.67 148.678 124.39 149.69 124.98C150.679 125.573 151.741 126.033 152.85 126.35C153.401 126.512 153.963 126.639 154.53 126.73L155.39 126.85L156.26 126.9C156.843 126.93 157.427 126.93 158.01 126.9C158.59 126.9 159.18 126.8 159.78 126.78C159.21 126.96 158.63 127.12 158.05 127.25C157.456 127.365 156.854 127.435 156.25 127.46C155.035 127.517 153.818 127.371 152.65 127.03C151.478 126.689 150.372 126.151 149.38 125.44C148.394 124.747 147.558 123.863 146.92 122.84V122.84Z" fill="#263238"/>
<path d="M147.41 122C147.954 124.293 148.06 126.668 147.72 129C147.563 130.185 147.198 131.333 146.64 132.39C146.376 132.929 146.005 133.409 145.55 133.799C145.094 134.189 144.563 134.482 143.99 134.66C144.968 134.084 145.725 133.197 146.14 132.14C146.571 131.099 146.863 130.007 147.01 128.89C147.305 126.606 147.439 124.303 147.41 122V122Z" fill="#263238"/>
<path d="M142.43 134.56C142.43 134.56 139.72 129.49 137.43 130.39C135.14 131.29 136.8 138.39 139.18 139.62C139.477 139.797 139.807 139.912 140.15 139.957C140.493 140.003 140.842 139.978 141.175 139.884C141.508 139.791 141.818 139.63 142.087 139.413C142.356 139.196 142.578 138.926 142.74 138.62L142.43 134.56Z" fill="#F7A9A0"/>
<path d="M138 132.41C138 132.41 137.94 132.46 138 132.48C139.67 133.4 140.39 135.13 140.83 136.89C140.748 136.71 140.629 136.55 140.481 136.418C140.333 136.287 140.16 136.188 139.971 136.128C139.783 136.068 139.584 136.047 139.388 136.068C139.191 136.089 139.001 136.151 138.83 136.25C138.78 136.25 138.83 136.36 138.83 136.35C139.15 136.291 139.48 136.333 139.775 136.469C140.07 136.605 140.317 136.829 140.48 137.11C140.747 137.583 140.965 138.082 141.13 138.6C141.19 138.76 141.49 138.71 141.45 138.53V138.48C141.69 136.26 140.34 132.93 138 132.41Z" fill="#263238"/>
<path d="M241.43 217.37L237.52 226.82L241.43 228.44L245.36 218.92L251.83 223.94V197.3L233.18 216.14L241.43 217.37Z" fill="#263238"/>
<path d="M250 190.28C250.348 188.925 250.516 187.529 250.5 186.13C250.524 184.737 250.355 183.347 250 182C249.642 183.357 249.474 184.757 249.5 186.16C249.486 187.549 249.654 188.934 250 190.28V190.28Z" fill="#263238"/>
<path d="M257.15 193.24C258.359 192.533 259.465 191.665 260.44 190.66C261.448 189.688 262.316 188.581 263.02 187.37C260.624 188.832 258.612 190.844 257.15 193.24V193.24Z" fill="#263238"/>
<path d="M260.12 200.39C262.846 201.057 265.693 201.057 268.42 200.39C265.693 199.723 262.846 199.723 260.12 200.39Z" fill="#263238"/>
<path d="M257.15 207.55C258.612 209.946 260.624 211.958 263.02 213.42C262.316 212.209 261.448 211.102 260.44 210.13C259.465 209.125 258.359 208.257 257.15 207.55V207.55Z" fill="#263238"/>
<path d="M239.88 200.39C237.154 199.723 234.306 199.723 231.58 200.39C234.306 201.057 237.154 201.057 239.88 200.39V200.39Z" fill="#263238"/>
<path d="M242.85 193.24C242.14 192.031 241.268 190.924 240.26 189.95C239.287 188.943 238.18 188.074 236.97 187.37C238.432 189.769 240.449 191.782 242.85 193.24V193.24Z" fill="#263238"/>
<path d="M407.67 354.18C401.32 341.13 390.21 334.43 377.67 338.13C365.13 341.83 363.2 359.29 372.55 363.7C381.9 368.11 391.25 355.24 396.18 352.59C401.11 349.94 407.67 354.18 407.67 354.18Z" fill="#0CA766"/>
<path d="M413.81 388.92C413.81 387.35 413.72 385.77 413.67 384.2C413.55 381.06 413.45 377.92 413.33 374.78C413.12 369.03 412.5 363.39 410.12 358.1C408.006 353.291 404.475 349.241 400 346.49C398.347 345.486 396.564 344.716 394.7 344.2C393.01 342.497 390.864 341.32 388.52 340.81C385.622 340.222 382.644 340.148 379.72 340.59C379.61 340.59 379.61 340.77 379.72 340.75C382.509 340.393 385.341 340.597 388.05 341.35C389.21 341.671 390.336 342.107 391.41 342.65C392.086 343.015 392.735 343.429 393.35 343.89C390.824 343.365 388.216 343.389 385.7 343.96C384.791 344.179 383.901 344.474 383.04 344.84C382.359 344.681 381.658 344.621 380.96 344.66C380.045 344.686 379.137 344.814 378.25 345.04C376.438 345.551 374.706 346.308 373.1 347.29C373.087 347.304 373.079 347.321 373.077 347.34C373.074 347.358 373.078 347.377 373.087 347.393C373.095 347.41 373.109 347.423 373.126 347.432C373.143 347.44 373.162 347.443 373.18 347.44C374.75 346.577 376.433 345.937 378.18 345.54C379.029 345.348 379.892 345.221 380.76 345.16C381.24 345.135 381.72 345.135 382.2 345.16C378.634 346.812 375.765 349.67 374.1 353.23C374.1 353.33 374.21 353.41 374.25 353.31C375.238 351.244 376.679 349.428 378.466 347.996C380.252 346.565 382.339 345.554 384.57 345.04C384.84 344.97 385.13 344.93 385.41 344.88C385.339 345.297 385.292 345.718 385.27 346.14C385.19 346.78 385.08 347.41 384.95 348.04C384.697 349.333 384.363 350.609 383.95 351.86C383.531 353.126 383.026 354.362 382.44 355.56C381.875 356.829 381.164 358.027 380.32 359.13C380.313 359.139 380.309 359.148 380.306 359.159C380.303 359.169 380.302 359.18 380.304 359.191C380.305 359.201 380.309 359.212 380.314 359.221C380.319 359.23 380.326 359.238 380.335 359.245C380.344 359.252 380.353 359.256 380.364 359.259C380.374 359.262 380.385 359.263 380.396 359.261C380.406 359.26 380.417 359.256 380.426 359.251C380.435 359.246 380.443 359.239 380.45 359.23C381.2 358.05 382.08 356.97 382.77 355.74C383.427 354.571 383.995 353.354 384.47 352.1C384.943 350.828 385.314 349.521 385.58 348.19C385.72 347.48 385.83 346.78 385.91 346.06C385.997 345.636 386.024 345.202 385.99 344.77C387.463 344.545 388.959 344.515 390.44 344.68C389.88 347.79 389.28 351.04 387.54 353.74C387.48 353.83 387.63 353.91 387.68 353.82C388.498 352.386 389.219 350.9 389.84 349.37C390.41 347.88 390.77 346.319 390.91 344.73C393.494 345.078 395.988 345.913 398.26 347.19C402.536 349.682 405.951 353.418 408.05 357.9C410.255 362.729 411.488 367.945 411.68 373.25C412.09 379.92 412.18 386.63 412.85 393.25C412.85 393.69 413.58 393.83 413.66 393.34C413.852 391.875 413.903 390.395 413.81 388.92V388.92Z" fill="#263238"/>
<path d="M399.14 345.44C398.722 344.934 398.238 344.487 397.7 344.11C397.18 343.68 396.64 343.26 396.09 342.88C394.987 342.128 393.767 341.564 392.48 341.21C392.38 341.21 392.33 341.35 392.48 341.37C393.775 341.7 394.987 342.296 396.04 343.12C396.57 343.51 397.04 343.93 397.58 344.36C398.009 344.822 398.485 345.238 399 345.6C399.09 345.65 399.21 345.54 399.14 345.44Z" fill="#263238"/>
<path d="M378.88 350.17C377.84 351.385 376.878 352.664 376 354C375.132 355.351 374.408 356.789 373.84 358.29C373.84 358.29 373.84 358.36 373.91 358.29C375.364 355.449 377.081 352.75 379.04 350.23C379.06 350.2 378.94 350.09 378.88 350.17Z" fill="#263238"/>
<path d="M392.54 348.88C392.402 349.694 392.16 350.488 391.82 351.24C391.47 351.966 391.065 352.665 390.61 353.33C390.61 353.38 390.61 353.42 390.68 353.39C391.77 352.128 392.465 350.574 392.68 348.92C392.71 348.82 392.55 348.77 392.54 348.88Z" fill="#263238"/>
<path d="M412.93 354.5C412.93 354.5 421.93 343.2 439.27 347.21C455.76 351.01 463.38 381.26 446.71 384.87C430.04 388.48 433 360.51 426.91 355.76C422.45 352.27 416 353 412.93 354.5Z" fill="#0CA766"/>
<path d="M452.67 363.72C451.542 362.735 450.349 361.827 449.1 361C447.92 360.2 446.639 359.561 445.29 359.1C444.605 358.064 443.84 357.085 443 356.17C441.481 354.524 439.721 353.118 437.78 352C437.95 352 438.12 352 438.3 352C439.219 351.95 440.141 351.95 441.06 352C442.909 352.12 444.721 352.57 446.41 353.33C446.51 353.33 446.58 353.22 446.48 353.18C444.765 352.439 442.969 351.899 441.13 351.57C440.236 351.408 439.329 351.331 438.42 351.34C437.936 351.342 437.452 351.368 436.97 351.42H436.69C435.097 350.623 433.42 350.006 431.69 349.58L432.17 349.45C433.019 349.266 433.877 349.125 434.74 349.03C436.466 348.837 438.21 348.863 439.93 349.11C440.04 349.11 440.07 348.96 439.93 348.95C438.192 348.735 436.44 348.665 434.69 348.74C433.218 348.778 431.754 348.966 430.32 349.3C429.277 349.104 428.221 348.984 427.16 348.94C421.16 348.68 414.51 350.94 410.79 355.94C407.07 360.94 406.33 367.56 405.67 373.56C404.658 381.924 404.434 390.364 405 398.77C405 399.27 405.74 399.18 405.75 398.71C405.98 391.58 406.23 384.44 406.91 377.34C407.23 374.05 407.58 370.74 408.13 367.48C408.522 364.674 409.327 361.941 410.52 359.37C411.805 356.738 413.841 354.546 416.37 353.07C418.913 351.615 421.749 350.744 424.67 350.52C427.286 350.3 429.921 350.547 432.45 351.25C432.375 351.757 432.375 352.273 432.45 352.78C432.501 353.426 432.629 354.064 432.83 354.68C433.021 355.261 433.266 355.824 433.56 356.36C433.88 356.96 434.28 357.49 434.64 358.06C434.7 358.15 434.84 358.06 434.78 357.97C434.065 356.95 433.603 355.774 433.43 354.54C433.32 353.959 433.25 353.371 433.22 352.78C433.22 352.33 433.22 351.88 433.22 351.43C435.971 352.279 438.538 353.636 440.79 355.43C441.22 355.77 441.62 356.13 442.02 356.5C441.449 357.029 440.954 357.634 440.55 358.3C439.956 359.171 439.438 360.091 439 361.05C438.199 362.969 437.657 364.987 437.39 367.05C437.39 367.15 437.54 367.18 437.55 367.05C437.883 365.043 438.559 363.107 439.55 361.33C440.005 360.449 440.519 359.601 441.09 358.79C441.38 358.37 441.68 357.96 442 357.56C442.17 357.34 442.35 357.12 442.52 356.89C444.559 358.889 446.225 361.236 447.44 363.82V363.82C446.63 364.687 445.955 365.671 445.44 366.74C444.82 367.857 444.278 369.017 443.82 370.21C442.976 372.523 442.281 374.888 441.74 377.29C441.74 377.39 441.89 377.42 441.91 377.29C442.434 374.863 443.26 372.511 444.37 370.29C444.89 369.2 445.43 368.13 446.01 367.07C446.611 366.102 447.155 365.101 447.64 364.07C448.801 366.588 449.48 369.302 449.64 372.07C449.646 372.088 449.658 372.103 449.673 372.114C449.688 372.125 449.706 372.13 449.725 372.13C449.744 372.13 449.762 372.125 449.777 372.114C449.792 372.103 449.804 372.088 449.81 372.07C449.49 367.712 448.154 363.489 445.91 359.74C446.97 360.19 448.04 360.62 449.06 361.17C450.362 361.867 451.574 362.72 452.67 363.71C452.65 363.92 452.75 363.79 452.67 363.72Z" fill="#263238"/>
<path d="M450.94 360.11C450.256 359.455 449.482 358.903 448.64 358.47C447.782 358.081 446.892 357.767 445.98 357.53C445.88 357.53 445.85 357.67 445.98 357.69C446.876 357.93 447.737 358.287 448.54 358.75C449.363 359.171 450.152 359.656 450.9 360.2C450.909 360.198 450.918 360.194 450.926 360.188C450.934 360.182 450.94 360.174 450.943 360.165C450.947 360.157 450.949 360.147 450.949 360.137C450.948 360.128 450.945 360.118 450.94 360.11V360.11Z" fill="#263238"/>
<path d="M421.47 339.41C421.47 339.41 423.13 319.11 438.22 312.53C450.83 307 458 321.2 449.13 329.87C441.92 336.88 430.37 333.71 421.47 339.41Z" fill="#0CA766"/>
<path d="M446.34 316.46C444.044 317.39 441.803 318.452 439.63 319.64C437.825 320.687 436.085 321.843 434.42 323.1C434.67 322.59 434.89 322.05 435.14 321.55C435.53 320.76 435.96 320 436.42 319.25C437.347 317.699 438.466 316.271 439.75 315C439.82 314.93 439.75 314.81 439.63 314.89C438.355 316.149 437.184 317.511 436.13 318.96C435.607 319.699 435.126 320.467 434.69 321.26C434.248 321.989 433.911 322.777 433.69 323.6L433.52 323.72C430.883 325.819 428.467 328.181 426.31 330.77C426.31 330.57 426.4 330.37 426.45 330.19C426.73 329.19 427.04 328.19 427.36 327.19C428.01 325.107 428.928 323.117 430.09 321.27C430.15 321.18 430 321.1 429.95 321.19C428.761 323.036 427.705 324.964 426.79 326.96C426.387 327.936 426.053 328.938 425.79 329.96C425.577 330.614 425.413 331.282 425.3 331.96C424.65 332.79 424 333.64 423.39 334.5C416.91 343.73 413.66 354.88 412.88 366.04C412.653 369.368 412.597 372.706 412.71 376.04C412.733 379.392 413.031 382.737 413.6 386.04C413.6 386.25 413.97 386.19 413.96 385.98C413.88 383.05 413.58 380.13 413.52 377.19C413.46 374.25 413.57 371.31 413.81 368.38C414.263 362.583 415.332 356.85 417 351.28C418.761 345.506 421.359 340.021 424.71 335C425.35 334.87 425.98 334.7 426.6 334.54C427.22 334.38 428.11 334.15 428.86 333.94C430.311 333.568 431.721 333.052 433.07 332.4C433.089 332.388 433.102 332.369 433.106 332.348C433.111 332.326 433.107 332.304 433.095 332.285C433.083 332.266 433.064 332.253 433.043 332.249C433.021 332.244 432.999 332.248 432.98 332.26C431.651 332.983 430.212 333.48 428.72 333.73C427.53 333.97 426.31 334.12 425.12 334.39C426.22 332.8 427.38 331.25 428.63 329.78C431.509 330.038 434.411 329.822 437.22 329.14C438.711 328.779 440.178 328.321 441.61 327.77C443.13 327.19 444.61 326.44 446.05 325.82C446.16 325.77 446.05 325.6 445.98 325.67C443.278 327.141 440.329 328.103 437.28 328.51C434.588 328.941 431.867 329.169 429.14 329.19C430.21 327.96 431.31 326.76 432.5 325.63C436.5 321.86 441.17 318.39 446.39 316.58C446.49 316.59 446.44 316.42 446.34 316.46Z" fill="#263238"/>
<path d="M434.06 316.52C433.381 317.379 432.763 318.285 432.21 319.23C431.642 320.223 431.196 321.281 430.88 322.38H430.94C431.44 321.38 431.87 320.38 432.38 319.38C432.879 318.404 433.482 317.485 434.18 316.64C434.25 316.56 434.13 316.44 434.06 316.52Z" fill="#263238"/>
<path d="M409.74 335.76C409.65 336.63 407.46 328.39 394.74 321.07C383.15 314.42 369.32 297.12 380.68 286.2C389.81 277.38 414 296.6 409.74 335.76Z" fill="#0CA766"/>
<path d="M418.53 383C418.354 374.416 417.686 365.848 416.53 357.34C415.525 349.509 413.719 341.802 411.14 334.34C410.14 331.66 409.14 329.02 407.93 326.42C407.992 325.42 407.975 324.417 407.88 323.42C407.81 322.12 407.7 320.82 407.58 319.52C407.46 318.22 407.33 316.93 407.17 315.64C407.01 314.35 406.74 313.06 406.69 311.77C406.69 311.749 406.682 311.729 406.667 311.714C406.652 311.699 406.631 311.69 406.61 311.69C406.589 311.69 406.568 311.699 406.553 311.714C406.538 311.729 406.53 311.749 406.53 311.77C406.793 313.166 406.951 314.58 407 316C407.09 317.25 407.16 318.5 407.2 319.75C407.24 321 407.2 322.27 407.2 323.52C407.2 323.97 407.2 324.46 407.2 324.94C405.99 322.4 404.71 319.94 403.32 317.48C404.18 312.19 403.06 306.66 401.98 301.48C401.98 301.38 401.8 301.43 401.82 301.53C402.349 304.232 402.631 306.977 402.66 309.73C402.66 311.9 402.61 314.08 402.6 316.25C402.29 315.73 401.99 315.25 401.67 314.69C400.02 311.99 398.25 309.34 396.37 306.77C396.525 305.515 396.485 304.243 396.25 303C396.038 301.607 395.731 300.231 395.33 298.88C394.92 297.53 394.45 296.2 393.91 294.88C393.37 293.56 392.62 292.27 392.09 290.88C392.09 290.77 391.88 290.88 391.94 290.95C392.619 292.22 393.156 293.562 393.54 294.95C393.949 296.263 394.283 297.599 394.54 298.95C394.81 300.29 395.03 301.64 395.22 303C395.35 303.9 395.43 304.83 395.58 305.73C392.851 302.061 389.867 298.589 386.65 295.34C386.57 295.26 386.46 295.34 386.53 295.46C391.405 300.921 395.757 306.827 399.53 313.1L399.94 313.81C399.24 313.37 398.44 313.02 397.77 312.66C396.54 311.97 395.3 311.29 394.05 310.61C392.8 309.93 391.64 309.3 390.44 308.61C389.82 308.26 389.21 307.9 388.58 307.61C387.825 307.278 387.101 306.876 386.42 306.41C386.32 306.34 386.22 306.49 386.32 306.55C387.55 307.22 388.63 308.22 389.82 308.98C391.01 309.74 392.22 310.48 393.46 311.17C395.73 312.43 398.19 313.34 400.46 314.65C402.01 317.36 403.46 320.14 404.75 322.98C403.4 322.11 402.01 321.28 400.61 320.5C399.7 319.99 398.8 319.5 397.88 319.01C396.969 318.59 396.107 318.07 395.31 317.46C395.293 317.452 395.274 317.449 395.256 317.453C395.238 317.456 395.221 317.465 395.208 317.478C395.194 317.491 395.186 317.508 395.183 317.526C395.179 317.544 395.182 317.563 395.19 317.58C396.65 318.909 398.265 320.057 400 321C401.64 321.95 403.29 322.88 405 323.71C406.36 326.71 407.6 329.71 408.69 332.85C414.1 348 416.07 364.17 417 380.2C417.28 384.98 417.42 389.76 417.48 394.55C417.54 399.34 417.29 404.1 417.3 408.88C417.3 409.02 417.53 409.05 417.55 408.88C418.13 404.64 418.23 400.33 418.41 396.06C418.59 391.79 418.62 387.38 418.53 383Z" fill="#263238"/>
<path d="M395.34 314.19C393.009 313.162 390.745 311.99 388.56 310.68C386.341 309.435 384.191 308.07 382.12 306.59C382.12 306.59 382.05 306.59 382.12 306.65C384.077 308.236 386.142 309.683 388.3 310.98C390.563 312.239 392.9 313.358 395.3 314.33C395.36 314.38 395.44 314.23 395.34 314.19Z" fill="#263238"/>
<path d="M399 297C398.81 296.26 398.58 295.53 398.33 294.8C398.338 294.788 398.343 294.774 398.343 294.76C398.343 294.746 398.338 294.732 398.33 294.72C398.17 294.31 398 293.9 397.83 293.49L397.77 293.34L397.68 293.11C397.68 293.11 397.62 293.11 397.68 293.11C397.74 293.11 397.76 293.4 397.81 293.54C397.824 293.619 397.847 293.697 397.88 293.77C398.719 296.607 399.351 299.501 399.77 302.43C399.765 302.442 399.764 302.455 399.766 302.468C399.767 302.481 399.772 302.493 399.779 302.504C399.787 302.514 399.796 302.523 399.808 302.529C399.819 302.535 399.832 302.538 399.845 302.538C399.858 302.538 399.871 302.535 399.882 302.529C399.893 302.523 399.903 302.514 399.911 302.504C399.918 302.493 399.923 302.481 399.924 302.468C399.926 302.455 399.924 302.442 399.92 302.43C399.784 300.595 399.476 298.777 399 297V297Z" fill="#263238"/>
<path d="M432.01 386.12L431.1 396.91L428.31 429.83H398.45L395.67 396.91L394.76 386.12H432.01Z" fill="#455A64"/>
<path d="M432.01 386.12L431.1 396.91H395.67L394.76 386.12H432.01Z" fill="#263238"/>
<path d="M434.93 392.14H391.82V381.79H434.93V392.14Z" fill="#455A64"/>
</svg>
