<svg width="500" height="373" viewBox="0 0 500 373" fill="none" xmlns="http://www.w3.org/2000/svg">
<path d="M500 327.4H0V327.65H500V327.4Z" fill="#EBEBEB"/>
<path d="M164.59 342.82H131.47V343.07H164.59V342.82Z" fill="#EBEBEB"/>
<path d="M258.84 340.11H250.15V340.36H258.84V340.11Z" fill="#EBEBEB"/>
<path d="M71.65 335.89H52.46V336.14H71.65V335.89Z" fill="#EBEBEB"/>
<path d="M415.78 334.21H389.7V334.46H415.78V334.21Z" fill="#EBEBEB"/>
<path d="M380.79 334.21H357.35V334.46H380.79V334.21Z" fill="#EBEBEB"/>
<path d="M449.91 346.21H356.23V346.46H449.91V346.21Z" fill="#EBEBEB"/>
<path d="M237 282.8H43.91C42.3973 282.797 40.9475 282.195 39.8788 281.124C38.8102 280.054 38.21 278.603 38.21 277.09V5.66C38.2231 4.15603 38.8292 2.71798 39.8964 1.65822C40.9637 0.598458 42.4059 0.00257639 43.91 0H237C238.514 0 239.967 0.601588 241.038 1.67242C242.108 2.74325 242.71 4.19561 242.71 5.71V277.09C242.71 278.604 242.108 280.057 241.038 281.128C239.967 282.198 238.514 282.8 237 282.8V282.8ZM43.91 0.200001C42.4636 0.20265 41.0774 0.779065 40.0556 1.80273C39.0338 2.82639 38.46 4.21365 38.46 5.66V277.09C38.46 278.536 39.0338 279.924 40.0556 280.947C41.0774 281.971 42.4636 282.547 43.91 282.55H237C238.447 282.547 239.834 281.971 240.858 280.948C241.881 279.924 242.457 278.537 242.46 277.09V5.66C242.457 4.21273 241.881 2.82549 240.858 1.80212C239.834 0.77874 238.447 0.202644 237 0.200001H43.91Z" fill="#EBEBEB"/>
<path d="M453.31 282.8H260.21C258.696 282.797 257.246 282.195 256.175 281.125C255.105 280.054 254.503 278.604 254.5 277.09V5.66C254.516 4.15511 255.124 2.71708 256.193 1.65759C257.262 0.598109 258.705 0.00254829 260.21 0H453.31C454.812 0.0052045 456.252 0.602249 457.317 1.66173C458.382 2.72121 458.987 4.15775 459 5.66V277.09C459 278.601 458.401 280.05 457.335 281.121C456.268 282.191 454.821 282.795 453.31 282.8V282.8ZM260.21 0.200001C258.763 0.202644 257.375 0.77874 256.352 1.80212C255.329 2.82549 254.753 4.21273 254.75 5.66V277.09C254.753 278.537 255.329 279.924 256.352 280.948C257.375 281.971 258.763 282.547 260.21 282.55H453.31C454.757 282.547 456.145 281.971 457.168 280.948C458.191 279.924 458.767 278.537 458.77 277.09V5.66C458.767 4.21273 458.191 2.82549 457.168 1.80212C456.145 0.77874 454.757 0.202644 453.31 0.200001H260.21Z" fill="#EBEBEB"/>
<path d="M318.6 324.42H342.15V221.38H318.6V324.42Z" fill="#F0F0F0"/>
<path d="M233.95 327.4H337.64V324.42H233.95V327.4Z" fill="#F0F0F0"/>
<path d="M318.6 221.38H229.42V324.42H318.6V221.38Z" fill="#F5F5F5"/>
<path d="M309.34 227.16H238.68V270.6H309.34V227.16Z" fill="#F0F0F0"/>
<path d="M309.34 275.2H238.68V318.64H309.34V275.2Z" fill="#F0F0F0"/>
<path d="M292.33 234.73H255.7C254.555 234.731 253.42 234.506 252.362 234.068C251.304 233.629 250.343 232.985 249.535 232.174C248.726 231.363 248.086 230.4 247.651 229.34C247.216 228.281 246.995 227.145 247 226H301C301.005 227.143 300.785 228.276 300.352 229.333C299.919 230.391 299.281 231.353 298.476 232.164C297.671 232.974 296.713 233.619 295.659 234.059C294.604 234.499 293.473 234.727 292.33 234.73V234.73Z" fill="#F5F5F5"/>
<path d="M292.33 282.77H255.7C253.395 282.77 251.185 281.854 249.555 280.225C247.926 278.595 247.01 276.385 247.01 274.08H301.01C301.01 276.383 300.096 278.592 298.468 280.221C296.841 281.851 294.633 282.767 292.33 282.77V282.77Z" fill="#F5F5F5"/>
<path d="M414.78 324.42H438.33V221.38H414.78V324.42Z" fill="#F0F0F0"/>
<path d="M330.12 327.4H433.81V324.42H330.12V327.4Z" fill="#F0F0F0"/>
<path d="M414.78 221.38H325.6V324.42H414.78V221.38Z" fill="#F5F5F5"/>
<path d="M405.52 227.16H334.86V270.6H405.52V227.16Z" fill="#F0F0F0"/>
<path d="M405.52 275.2H334.86V318.64H405.52V275.2Z" fill="#F0F0F0"/>
<path d="M388.5 234.73H351.87C349.565 234.73 347.355 233.814 345.725 232.185C344.095 230.555 343.18 228.345 343.18 226.04H397.18C397.18 228.343 396.266 230.552 394.638 232.181C393.011 233.811 390.803 234.727 388.5 234.73V234.73Z" fill="#F5F5F5"/>
<path d="M388.5 282.77H351.87C349.565 282.77 347.355 281.854 345.725 280.225C344.095 278.595 343.18 276.385 343.18 274.08H397.18C397.18 276.383 396.266 278.592 394.638 280.221C393.011 281.851 390.803 282.767 388.5 282.77V282.77Z" fill="#F5F5F5"/>
<path d="M111.42 82.9399H151.76V36.3099L111.42 36.3099V82.9399Z" fill="#E6E6E6"/>
<path d="M106.82 82.9399H150.68V36.3099L106.82 36.3099V82.9399Z" fill="#F5F5F5"/>
<path d="M147 79.27V39.99H110.49V79.27H147Z" fill="white"/>
<path d="M138.16 69.75V68.32C138.157 63.3321 136.175 58.5492 132.648 55.0223C129.121 51.4953 124.338 49.5127 119.35 49.51V49.51V50.94C119.35 55.9287 121.332 60.7131 124.859 64.2407C128.387 67.7682 133.171 69.75 138.16 69.75V69.75Z" fill="#F5F5F5"/>
<path d="M286.64 170.95L438.34 170.95V29.0499L286.64 29.0499V170.95Z" fill="#E6E6E6"/>
<path d="M281.94 170.95L436.14 170.95V29.0499L281.94 29.0499V170.95Z" fill="#F0F0F0"/>
<path d="M286.64 176.01L438.34 176.01V170.95L286.64 170.95V176.01Z" fill="#E6E6E6"/>
<path d="M274.1 176.01L428.3 176.01V170.95L274.1 170.95V176.01Z" fill="#F0F0F0"/>
<path d="M429.55 163.33V36.67L288.51 36.67V163.33H429.55Z" fill="#FAFAFA"/>
<path d="M389.56 163.34L366.07 36.67H327.37L350.86 163.34H389.56Z" fill="white"/>
<path d="M426.51 120.36C426.644 120.35 426.768 120.287 426.856 120.186C426.944 120.085 426.988 119.954 426.98 119.82V41.63C426.98 41.5054 426.931 41.3858 426.842 41.2977C426.754 41.2095 426.635 41.16 426.51 41.16C426.385 41.16 426.266 41.2095 426.178 41.2977C426.09 41.3858 426.04 41.5054 426.04 41.63V119.82C426.032 119.954 426.076 120.085 426.164 120.186C426.252 120.287 426.376 120.35 426.51 120.36V120.36Z" fill="#F0F0F0"/>
<path d="M342.54 163.34L319.06 36.67H303.97L327.45 163.34H342.54Z" fill="white"/>
<path d="M289.35 163.33V36.67H288.51V163.33H289.35Z" fill="#E6E6E6"/>
<path opacity="0.4" d="M280.38 46.42H432.07L432.68 39.64H280.98L280.38 46.42Z" fill="#E6E6E6"/>
<path opacity="0.4" d="M280.38 54.2299H432.07L432.68 47.4399H280.98L280.38 54.2299Z" fill="#E6E6E6"/>
<path opacity="0.4" d="M280.38 62.03H432.07L432.68 55.25H280.98L280.38 62.03Z" fill="#E6E6E6"/>
<path opacity="0.4" d="M280.38 69.84H432.07L432.68 63.05H280.98L280.38 69.84Z" fill="#E6E6E6"/>
<path opacity="0.4" d="M280.38 77.64H432.07L432.68 70.86H280.98L280.38 77.64Z" fill="#E6E6E6"/>
<path opacity="0.4" d="M280.38 85.45H432.07L432.68 78.66H280.98L280.38 85.45Z" fill="#E6E6E6"/>
<path opacity="0.4" d="M280.38 93.25H432.07L432.68 86.47H280.98L280.38 93.25Z" fill="#E6E6E6"/>
<path opacity="0.4" d="M280.38 101.06H432.07L432.68 94.27H280.98L280.38 101.06Z" fill="#E6E6E6"/>
<path opacity="0.4" d="M280.38 108.86H432.07L432.68 102.08H280.98L280.38 108.86Z" fill="#E6E6E6"/>
<path d="M82.82 159.01H114.29V122.9H82.82V159.01Z" fill="#E6E6E6"/>
<path d="M79.26 159.01H113.23V122.9H79.26V159.01Z" fill="#F5F5F5"/>
<path d="M110.39 156.16V125.74H82.1099V156.16H110.39Z" fill="white"/>
<path d="M103.53 141.51V140.4C103.53 139.443 103.341 138.496 102.975 137.612C102.608 136.728 102.071 135.925 101.394 135.249C100.717 134.573 99.9134 134.037 99.029 133.671C98.1446 133.306 97.1969 133.119 96.24 133.12C94.3162 133.131 92.4747 133.902 91.1181 135.266C89.7615 136.63 89 138.476 89 140.4V141.51C89 143.441 89.767 145.292 91.1323 146.658C92.4975 148.023 94.3492 148.79 96.28 148.79C98.2056 148.782 100.05 148.012 101.408 146.647C102.767 145.283 103.53 143.436 103.53 141.51Z" fill="#F5F5F5"/>
<path d="M161.31 146.07H204.52V96.2899H161.31V146.07Z" fill="#E6E6E6"/>
<path d="M156.41 146.07H203.23V96.2899H156.41V146.07Z" fill="#F5F5F5"/>
<path d="M199.31 142.16V100.23H160.33V142.16H199.31Z" fill="white"/>
<path d="M181.45 113.41L188.85 126.23C189.015 126.516 189.102 126.84 189.102 127.171C189.102 127.501 189.015 127.825 188.849 128.111C188.684 128.397 188.447 128.634 188.161 128.799C187.875 128.964 187.55 129.05 187.22 129.05H172.42C172.09 129.05 171.765 128.964 171.479 128.799C171.193 128.634 170.956 128.397 170.79 128.111C170.625 127.825 170.538 127.501 170.538 127.171C170.538 126.84 170.625 126.516 170.79 126.23L178.19 113.41C178.357 113.126 178.595 112.89 178.881 112.727C179.167 112.563 179.49 112.477 179.82 112.477C180.149 112.477 180.473 112.563 180.759 112.727C181.045 112.89 181.283 113.126 181.45 113.41V113.41Z" fill="#F5F5F5"/>
<path d="M90.02 327.39H113.77L113.77 252.51H90.02L90.02 327.39Z" fill="#E6E6E6"/>
<path d="M94.53 327.4H90.02V314.57H99.26L94.53 327.4Z" fill="#F0F0F0"/>
<path d="M178.77 327.39H202.52V252.51H178.77V327.39Z" fill="#E6E6E6"/>
<path d="M90.03 319.52H182.71V252.51H90.03L90.03 319.52Z" fill="#F0F0F0"/>
<path d="M93.52 256.72V303.49H134.85V256.72H93.52Z" fill="#E6E6E6"/>
<path d="M137.88 256.72V303.49H179.21V256.72H137.88Z" fill="#E6E6E6"/>
<path d="M154.46 260.31H162.63C164.385 260.315 166.122 259.963 167.736 259.276C169.351 258.588 170.808 257.579 172.02 256.31H145.02C146.237 257.586 147.702 258.599 149.326 259.287C150.949 259.975 152.697 260.323 154.46 260.31V260.31Z" fill="#F0F0F0"/>
<path d="M109.68 260.31H117.86C119.615 260.315 121.352 259.963 122.966 259.275C124.58 258.587 126.038 257.579 127.25 256.31H100.25C101.466 257.584 102.93 258.596 104.552 259.284C106.174 259.972 107.919 260.321 109.68 260.31Z" fill="#F0F0F0"/>
<path d="M178.2 327.4H182.71V314.57H173.47L178.2 327.4Z" fill="#F0F0F0"/>
<path d="M153.75 242.48C153.748 243.499 154.048 244.496 154.613 245.344C155.178 246.192 155.981 246.854 156.922 247.245C157.863 247.636 158.899 247.74 159.899 247.542C160.898 247.345 161.817 246.855 162.538 246.135C163.259 245.415 163.751 244.498 163.95 243.498C164.15 242.499 164.048 241.463 163.659 240.521C163.269 239.58 162.609 238.775 161.762 238.209C160.915 237.642 159.919 237.34 158.9 237.34C157.537 237.343 156.23 237.885 155.265 238.848C154.3 239.811 153.755 241.117 153.75 242.48Z" fill="#E0E0E0"/>
<path d="M161.23 244.28C164.069 244.28 166.37 241.979 166.37 239.14C166.37 236.301 164.069 234 161.23 234C158.391 234 156.09 236.301 156.09 239.14C156.09 241.979 158.391 244.28 161.23 244.28Z" fill="#E0E0E0"/>
<path d="M128 243.31C128 244.327 128.301 245.32 128.866 246.166C129.431 247.011 130.234 247.67 131.173 248.059C132.112 248.448 133.146 248.55 134.143 248.351C135.14 248.153 136.056 247.663 136.775 246.945C137.493 246.226 137.983 245.31 138.181 244.313C138.38 243.316 138.278 242.282 137.889 241.343C137.5 240.404 136.841 239.601 135.996 239.036C135.15 238.471 134.157 238.17 133.14 238.17C131.777 238.17 130.469 238.712 129.505 239.676C128.542 240.639 128 241.947 128 243.31V243.31Z" fill="#E0E0E0"/>
<path d="M168.11 246.29C171.595 246.29 174.42 243.465 174.42 239.98C174.42 236.495 171.595 233.67 168.11 233.67C164.625 233.67 161.8 236.495 161.8 239.98C161.8 243.465 164.625 246.29 168.11 246.29Z" fill="#E0E0E0"/>
<path d="M149.3 234.17C149.298 235.418 149.666 236.639 150.359 237.678C151.051 238.717 152.036 239.528 153.188 240.007C154.341 240.486 155.61 240.612 156.835 240.37C158.06 240.128 159.185 239.527 160.068 238.645C160.952 237.763 161.554 236.639 161.798 235.415C162.042 234.19 161.918 232.921 161.441 231.768C160.963 230.614 160.155 229.628 159.117 228.934C158.079 228.24 156.858 227.87 155.61 227.87C153.939 227.873 152.337 228.537 151.155 229.718C149.972 230.898 149.305 232.499 149.3 234.17V234.17Z" fill="#E0E0E0"/>
<path d="M139.3 235.78C139.298 237.028 139.666 238.249 140.359 239.288C141.051 240.327 142.036 241.138 143.188 241.617C144.341 242.096 145.61 242.222 146.835 241.98C148.06 241.738 149.185 241.137 150.068 240.255C150.952 239.373 151.554 238.249 151.798 237.025C152.042 235.8 151.918 234.531 151.441 233.378C150.963 232.224 150.155 231.238 149.117 230.544C148.079 229.85 146.858 229.48 145.61 229.48C143.938 229.48 142.335 230.143 141.152 231.325C139.969 232.506 139.303 234.108 139.3 235.78V235.78Z" fill="#E0E0E0"/>
<path d="M143.53 240.87C143.53 242.057 143.882 243.217 144.541 244.203C145.201 245.19 146.138 245.959 147.234 246.413C148.33 246.867 149.537 246.986 150.701 246.755C151.864 246.523 152.934 245.952 153.773 245.113C154.612 244.274 155.183 243.204 155.415 242.041C155.646 240.877 155.527 239.67 155.073 238.574C154.619 237.478 153.85 236.54 152.863 235.881C151.877 235.222 150.717 234.87 149.53 234.87C147.939 234.87 146.413 235.502 145.287 236.627C144.162 237.753 143.53 239.279 143.53 240.87Z" fill="#E0E0E0"/>
<path d="M133.09 240.48C133.09 241.762 133.47 243.014 134.182 244.08C134.894 245.146 135.906 245.976 137.09 246.467C138.274 246.957 139.577 247.086 140.834 246.835C142.091 246.585 143.246 245.968 144.152 245.062C145.058 244.156 145.676 243.001 145.926 241.744C146.176 240.487 146.047 239.184 145.557 238C145.066 236.816 144.236 235.804 143.17 235.092C142.105 234.38 140.852 234 139.57 234C137.851 234 136.203 234.683 134.988 235.898C133.773 237.113 133.09 238.761 133.09 240.48V240.48Z" fill="#E0E0E0"/>
<path d="M178.17 242.48C178.17 242.48 177.47 252.48 150.4 252.48C123.33 252.48 122.62 242.48 122.62 242.48H178.17Z" fill="#F0F0F0"/>
<path d="M250 372.56C357.083 372.56 443.89 367.492 443.89 361.24C443.89 354.988 357.083 349.92 250 349.92C142.918 349.92 56.1101 354.988 56.1101 361.24C56.1101 367.492 142.918 372.56 250 372.56Z" fill="#F5F5F5"/>
<path d="M333.37 231.51H101.83V235.22H333.37V231.51Z" fill="#1999B9"/>
<path d="M333.37 235.22H383.61V231.51H333.37V235.22Z" fill="#1999B9"/>
<path opacity="0.2" d="M333.37 235.22H383.61V231.51H333.37V235.22Z" fill="black"/>
<path d="M366.83 239.19H118.61L110.31 235.22H375.13L366.83 239.19Z" fill="#1999B9"/>
<path opacity="0.6" d="M366.83 239.19H118.61L110.31 235.22H375.13L366.83 239.19Z" fill="white"/>
<path d="M126.11 239.19V357.53H129.29L133.29 239.19H126.11Z" fill="#1999B9"/>
<path d="M163.65 239.19V357.53H166.83L170.83 239.19H163.65Z" fill="#1999B9"/>
<path d="M366.83 239.19V357.53H363.66L359.65 239.19H366.83Z" fill="#1999B9"/>
<path d="M329.3 239.19V357.53H326.12L322.12 239.19H329.3Z" fill="#1999B9"/>
<path d="M253.74 186.59L243.29 229.16L243 231.51H315.08L315.38 229.16L325.82 186.59H253.74Z" fill="#1999B9"/>
<path opacity="0.3" d="M253.74 186.59L243.29 229.16L243 231.51H315.08L315.38 229.16L325.82 186.59H253.74Z" fill="black"/>
<path d="M323.61 186.59H251.52L241.08 229.16H313.16L323.61 186.59Z" fill="#1999B9"/>
<path d="M311.63 227.21L321.13 188.54H253.05L243.56 227.21H311.63Z" fill="white"/>
<path d="M294.38 229.16L294.08 231.51H214.71L215 229.16H294.38Z" fill="#1999B9"/>
<path opacity="0.6" d="M294.38 229.16L294.08 231.51H214.71L215 229.16H294.38Z" fill="white"/>
<path d="M144.44 223.77C144.39 222.247 143.793 220.793 142.76 219.673C141.726 218.553 140.324 217.842 138.81 217.67V216.52C138.809 216.453 138.794 216.388 138.767 216.327C138.74 216.266 138.701 216.211 138.653 216.166C138.605 216.12 138.547 216.085 138.485 216.061C138.423 216.038 138.356 216.027 138.29 216.03H127.49C127.423 216.027 127.356 216.038 127.293 216.061C127.23 216.084 127.173 216.12 127.123 216.165C127.074 216.211 127.034 216.265 127.006 216.326C126.978 216.387 126.963 216.453 126.96 216.52V231.52H138.81V229.88C140.327 229.71 141.731 228.998 142.765 227.876C143.799 226.753 144.394 225.295 144.44 223.77ZM138.81 227.94V219.61C139.809 219.757 140.722 220.259 141.383 221.024C142.043 221.788 142.406 222.765 142.406 223.775C142.406 224.785 142.043 225.762 141.383 226.526C140.722 227.291 139.809 227.793 138.81 227.94V227.94Z" fill="#0CA062"/>
<path d="M346.56 231.51H356.6L353.63 209.52H346.56V231.51Z" fill="#263238"/>
<path d="M331.84 231.51H350.86L354.39 205.77H335.38L331.84 231.51Z" fill="#0CA062"/>
<path opacity="0.3" d="M331.84 231.51H350.86L354.39 205.77H335.38L331.84 231.51Z" fill="black"/>
<path d="M329.3 231.51H349.09L352.63 205.77H332.84L329.3 231.51Z" fill="#0CA062"/>
<path opacity="0.4" d="M347.34 229.48L350.32 207.8H334.59L331.61 229.48H347.34Z" fill="white"/>
<path d="M197.54 193.51L196.72 194.39L195.84 195.39C195.25 196.07 194.66 196.76 194.1 197.47C192.98 198.89 191.9 200.34 190.89 201.83C188.88 204.712 187.203 207.811 185.89 211.07C185.278 212.619 184.803 214.218 184.47 215.85C184.31 216.77 184.21 217.17 184.16 217.56C184.105 217.871 184.105 218.189 184.16 218.5C184.328 218.989 184.591 219.439 184.934 219.826C185.277 220.212 185.694 220.526 186.16 220.75C186.835 221.166 187.544 221.524 188.28 221.82C188.667 221.98 189.067 222.13 189.48 222.27C189.86 222.41 190.34 222.55 190.64 222.67V228.18C189.94 228.28 189.43 228.36 188.84 228.4C188.25 228.44 187.68 228.45 187.09 228.4C185.877 228.376 184.67 228.221 183.49 227.94C182.16 227.628 180.886 227.115 179.71 226.42C178.328 225.611 177.14 224.508 176.23 223.19C175.294 221.786 174.673 220.197 174.41 218.53C174.343 218.14 174.3 217.746 174.28 217.35C174.26 216.97 174.26 216.59 174.28 216.21V215.65C174.269 215.5 174.269 215.35 174.28 215.2L174.36 214.32C174.616 212.034 175.098 209.78 175.8 207.59C177.154 203.383 179.061 199.375 181.47 195.67C182.627 193.851 183.886 192.098 185.24 190.42C185.91 189.58 186.6 188.76 187.32 187.95C187.67 187.54 188.04 187.14 188.42 186.74C188.8 186.34 189.15 185.99 189.67 185.49L197.54 193.51Z" fill="#B55B52"/>
<path d="M188.65 222.55L193.31 219.13L195.96 228.71C195.96 228.71 191.83 230.24 188.68 228.18L188.65 222.55Z" fill="#B55B52"/>
<path d="M199.78 216.83L201.6 224.85L195.96 228.71L193.31 219.13L199.78 216.83Z" fill="#B55B52"/>
<path d="M229.25 156.75C229.04 157.34 229.19 157.93 229.58 158.06C229.97 158.19 230.45 157.83 230.65 157.24C230.85 156.65 230.71 156.05 230.33 155.92C229.95 155.79 229.46 156.15 229.25 156.75Z" fill="#263238"/>
<path d="M229.14 157.91C229.218 159.969 229.578 162.008 230.21 163.97C229.706 164.114 229.177 164.148 228.66 164.069C228.142 163.989 227.647 163.799 227.21 163.51L229.14 157.91Z" fill="#A02724"/>
<path d="M228.29 152.73C228.365 152.755 228.445 152.755 228.52 152.73C228.959 152.584 229.426 152.544 229.883 152.613C230.34 152.683 230.775 152.86 231.15 153.13C231.225 153.185 231.318 153.209 231.411 153.198C231.503 153.187 231.588 153.142 231.648 153.071C231.709 153.001 231.74 152.91 231.737 152.817C231.734 152.724 231.695 152.636 231.63 152.57C231.161 152.22 230.614 151.988 230.037 151.892C229.459 151.796 228.867 151.84 228.31 152.02C228.237 152.045 228.174 152.092 228.129 152.155C228.084 152.218 228.06 152.293 228.06 152.37C228.06 152.447 228.084 152.522 228.129 152.585C228.174 152.648 228.237 152.695 228.31 152.72L228.29 152.73Z" fill="#263238"/>
<path d="M207.32 158.93C208.44 164.62 209.55 175.05 205.57 178.85C205.57 178.85 207.13 184.62 217.71 184.62C229.34 184.62 223.27 178.85 223.27 178.85C216.92 177.33 217.08 172.62 218.19 168.2L207.32 158.93Z" fill="#B55B52"/>
<path d="M204.05 180.83C203.21 179 202.3 176.91 204.19 176.26C206.28 175.54 217.72 174.8 221.66 176.15C222.181 176.292 222.668 176.536 223.094 176.868C223.519 177.201 223.874 177.615 224.138 178.086C224.401 178.557 224.568 179.076 224.629 179.612C224.689 180.149 224.642 180.692 224.49 181.21L204.05 180.83Z" fill="#263238"/>
<path d="M244 190.59C246.45 195 249.08 199.54 251.74 203.9C254.4 208.26 257.19 212.6 260.17 216.56C260.91 217.56 261.68 218.51 262.44 219.46C262.82 219.95 263.22 220.35 263.61 220.8L264.19 221.46L264.34 221.63L264.41 221.71L264.48 221.8C264.946 222.251 265.506 222.592 266.12 222.8C267.065 223.129 268.039 223.367 269.03 223.51C273.891 224.001 278.792 223.944 283.64 223.34L285.16 228.64C283.81 229.24 282.55 229.64 281.21 230.14C279.87 230.64 278.55 230.97 277.21 231.31C274.37 232.023 271.458 232.412 268.53 232.47C266.886 232.497 265.245 232.332 263.64 231.98C261.669 231.589 259.81 230.762 258.2 229.56L257.53 229.01L257.37 228.87L257.27 228.77L257.08 228.58L256.3 227.81C255.79 227.3 255.23 226.81 254.77 226.27C253.77 225.22 252.83 224.17 251.96 223.09C248.466 218.868 245.243 214.429 242.31 209.8C240.85 207.52 239.443 205.217 238.09 202.89C236.73 200.54 235.42 198.24 234.15 195.76L244 190.59Z" fill="#B55B52"/>
<path d="M191.64 180.61C184.34 182.28 175.98 202.17 175.98 202.17L190.63 212.17C194.274 206.945 197.507 201.445 200.3 195.72C204.63 186.66 199.1 178.9 191.64 180.61Z" fill="#0CA062"/>
<path opacity="0.2" d="M196.86 193.29L189.94 211.73L190.62 212.21C190.62 212.21 193.62 208 196.86 202.32V193.29Z" fill="black"/>
<path d="M235.24 181C235.24 181 243.52 190.36 235.7 248.26H194.07C193.79 241.87 197.8 210.71 191.64 180.6C196.241 179.714 200.894 179.126 205.57 178.84C211.465 178.495 217.375 178.495 223.27 178.84C227.31 179.247 231.312 179.969 235.24 181V181Z" fill="#0CA062"/>
<path opacity="0.2" d="M230.61 197.75C231.696 204.322 234.536 210.478 238.83 215.57C239 211.84 239.07 208.49 239.06 205.5L230.61 197.75Z" fill="black"/>
<path d="M227 187.32C226 194.69 240.5 213.51 240.5 213.51L255.09 203.51C255.09 203.51 251.04 193.14 244.23 186.34C236.47 178.54 228.14 179.3 227 187.32Z" fill="#0CA062"/>
<path d="M282 223.39L287.94 220.95L294.05 225.57C294.05 225.57 288.22 230.73 282.92 228.72L282 223.39Z" fill="#B55B52"/>
<path d="M291.86 220.71L296.34 223.91L294.02 225.57L287.91 220.95L291.86 220.71Z" fill="#B55B52"/>
<path d="M209.91 148.61C207.83 156.05 206.23 160.3 208.61 165.31C212.18 172.86 222.33 172.65 226.61 165.99C230.45 159.99 233.21 148.83 227.09 143.46C225.746 142.267 224.12 141.436 222.365 141.049C220.61 140.661 218.785 140.728 217.064 141.244C215.342 141.76 213.781 142.708 212.529 143.997C211.277 145.286 210.375 146.874 209.91 148.61V148.61Z" fill="#B55B52"/>
<path d="M225.75 148.69C222.75 157.23 219.22 166.61 210.6 164.83C205.04 163.68 204.6 154.73 202.6 150.66C200.83 147.09 200.94 139.91 204.6 139.82C202.96 137.44 211.25 128.73 216.91 133.33C218.36 131.33 228.81 125.44 236.55 134.79C243.84 143.63 240.27 151 225.75 148.69Z" fill="#263238"/>
<path d="M219 154.15C218.8 156.058 219.228 157.978 220.22 159.62C221.55 161.76 223.5 160.94 224.22 158.75C224.86 156.75 224.93 153.3 223.08 151.91C221.23 150.52 219.28 151.85 219 154.15Z" fill="#B55B52"/>
<path d="M282.88 351.88C283.88 351.88 284.88 351.74 285.17 351.29C285.253 351.171 285.297 351.03 285.297 350.885C285.297 350.74 285.253 350.599 285.17 350.48C285.037 350.27 284.83 350.116 284.59 350.05C283.29 349.7 280.59 351.25 280.46 351.32C280.426 351.337 280.398 351.365 280.382 351.399C280.366 351.434 280.361 351.473 280.37 351.51C280.377 351.546 280.393 351.579 280.418 351.606C280.443 351.632 280.475 351.651 280.51 351.66C281.292 351.803 282.085 351.876 282.88 351.88V351.88ZM284.12 350.37C284.236 350.354 284.354 350.354 284.47 350.37C284.545 350.384 284.617 350.415 284.679 350.46C284.741 350.505 284.793 350.563 284.83 350.63C284.96 350.86 284.92 350.97 284.83 351.03C284.47 351.54 282.5 351.55 281.05 351.34C282.001 350.821 283.043 350.491 284.12 350.37Z" fill="#263238"/>
<path d="M280.53 351.66H280.61C281.55 351.24 283.41 349.56 283.26 348.66C283.26 348.45 283.08 348.2 282.58 348.14C282.4 348.125 282.219 348.145 282.048 348.2C281.876 348.255 281.717 348.343 281.58 348.46C280.58 349.27 280.38 351.37 280.37 351.46C280.366 351.492 280.371 351.524 280.383 351.554C280.395 351.584 280.415 351.61 280.44 351.63C280.467 351.646 280.498 351.656 280.53 351.66V351.66ZM282.43 348.51H282.54C282.87 348.51 282.89 348.68 282.9 348.72C282.99 349.25 281.72 350.57 280.76 351.14C280.84 350.26 281.189 349.425 281.76 348.75C281.946 348.591 282.185 348.505 282.43 348.51V348.51Z" fill="#263238"/>
<path d="M271.48 351.48H279.26L281.03 333.45H273.25L271.48 351.48Z" fill="#B55B52"/>
<path d="M279.7 350.58H271.21C271.054 350.581 270.902 350.635 270.781 350.733C270.659 350.831 270.574 350.967 270.54 351.12L269 358C268.96 358.168 268.96 358.342 268.998 358.51C269.036 358.678 269.112 358.835 269.22 358.969C269.328 359.103 269.465 359.211 269.621 359.284C269.777 359.357 269.948 359.393 270.12 359.39C273.18 359.34 277.61 359.16 281.46 359.16C285.97 359.16 289.86 359.4 295.14 359.4C298.34 359.4 299.23 356.17 297.89 355.88C291.8 354.55 286.83 354.41 281.57 351.16C281.012 350.798 280.365 350.597 279.7 350.58Z" fill="#263238"/>
<path opacity="0.2" d="M281.02 333.46L280.12 342.75H272.33L273.24 333.46H281.02Z" fill="black"/>
<path d="M251.69 351.87C252.02 351.913 252.355 351.89 252.676 351.803C252.997 351.715 253.298 351.565 253.56 351.36C253.652 351.234 253.701 351.081 253.701 350.925C253.701 350.769 253.652 350.616 253.56 350.49C253.501 350.38 253.418 350.285 253.318 350.21C253.218 350.136 253.102 350.085 252.98 350.06C251.84 349.79 249.69 351.26 249.6 351.32C249.571 351.342 249.549 351.371 249.535 351.405C249.521 351.438 249.516 351.474 249.52 351.51C249.527 351.545 249.544 351.576 249.569 351.601C249.594 351.626 249.625 351.643 249.66 351.65C250.327 351.795 251.007 351.869 251.69 351.87V351.87ZM252.69 350.39C252.763 350.38 252.837 350.38 252.91 350.39C252.981 350.401 253.05 350.428 253.109 350.469C253.168 350.511 253.216 350.566 253.25 350.63C253.42 350.94 253.32 351.06 253.25 351.11C252.92 351.54 251.33 351.55 250.16 351.36C250.912 350.851 251.771 350.519 252.67 350.39H252.69Z" fill="#263238"/>
<path d="M249.71 351.66H249.79C250.6 351.22 252.16 349.52 251.99 348.66C251.964 348.522 251.891 348.398 251.784 348.308C251.676 348.219 251.54 348.17 251.4 348.17C251.26 348.153 251.119 348.165 250.984 348.207C250.85 348.248 250.726 348.317 250.62 348.41C249.72 349.15 249.53 351.41 249.52 351.49C249.52 351.524 249.528 351.557 249.543 351.587C249.559 351.616 249.582 351.642 249.61 351.66C249.643 351.67 249.677 351.67 249.71 351.66V351.66ZM251.28 348.51H251.36C251.6 348.51 251.62 348.65 251.63 348.7C251.73 349.21 250.73 350.5 249.93 351.11C249.984 350.223 250.304 349.372 250.85 348.67C250.97 348.567 251.122 348.51 251.28 348.51V348.51Z" fill="#263238"/>
<path d="M240.79 351.48H248.57L252.48 333.45H244.7L240.79 351.48Z" fill="#B55B52"/>
<path d="M249.12 350.58H240.38C240.225 350.581 240.075 350.636 239.955 350.734C239.835 350.832 239.752 350.968 239.72 351.12L238.18 358C238.144 358.169 238.146 358.344 238.187 358.512C238.228 358.679 238.306 358.836 238.415 358.969C238.525 359.103 238.663 359.21 238.82 359.283C238.976 359.356 239.147 359.392 239.32 359.39C242.37 359.34 243.86 359.16 247.7 359.16C250.07 359.16 253.1 359.4 256.37 359.4C259.64 359.4 260.06 356.17 258.72 355.88C252.72 354.57 252.31 352.76 250.39 351.03C250.036 350.73 249.584 350.57 249.12 350.58V350.58Z" fill="#263238"/>
<g opacity="0.2">
<path opacity="0.2" d="M244.7 333.46H252.48L250.46 342.75H242.68L244.7 333.46Z" fill="black"/>
</g>
<path d="M235.7 248.27C235.7 248.27 294 254.44 293.36 284.18C292.947 302.858 289.356 321.328 282.74 338.8H271.18C271.18 338.8 271.77 319.93 271.38 289.48C271.26 280.35 252.83 277.34 234.82 276.28C227.193 275.801 219.853 273.199 213.626 268.769C207.399 264.34 202.534 258.258 199.58 251.21L198.35 248.27H235.7Z" fill="#263238"/>
<path d="M285.57 335.7C285.63 335.7 284.82 341.17 284.82 341.17H268.82L268.38 336.29L285.57 335.7Z" fill="#0CA062"/>
<path d="M223.22 248.27C223.22 248.27 265.48 262.27 266.55 279.63C268.55 311.57 252.84 338.8 252.84 338.8H241.17C241.17 338.8 245.6 325.3 247.17 296.36C249.17 260.01 181.34 296.3 194.05 248.27H223.22Z" fill="#263238"/>
<path d="M256.37 335.7C256.43 335.7 254.9 341.17 254.9 341.17H238.9L239.19 336.29L256.37 335.7Z" fill="#0CA062"/>
<path d="M253.7 278.89H188.7C188.7 276.922 189.482 275.035 190.873 273.643C192.265 272.252 194.152 271.47 196.12 271.47H246.28C248.248 271.47 250.135 272.252 251.527 273.643C252.918 275.035 253.7 276.922 253.7 278.89V278.89Z" fill="#1999B9"/>
<path d="M191.71 278.88L181.91 361.04H184.01L196.44 278.88H191.71Z" fill="#1999B9"/>
<path opacity="0.4" d="M191.71 278.88L181.91 361.04H184.01L196.44 278.88H191.71Z" fill="black"/>
<path d="M204.82 278.88L204.63 361.04H206.72L209.55 278.88H204.82Z" fill="#1999B9"/>
<path opacity="0.4" d="M204.82 278.88L204.63 361.04H206.72L209.55 278.88H204.82Z" fill="black"/>
<path d="M250.69 278.88L260.49 361.04H258.39L245.97 278.88H250.69Z" fill="#1999B9"/>
<path opacity="0.4" d="M250.69 278.88L260.49 361.04H258.39L245.97 278.88H250.69Z" fill="black"/>
<path d="M237.58 278.88L237.77 361.04H235.68L232.85 278.88H237.58Z" fill="#1999B9"/>
<path opacity="0.4" d="M237.58 278.88L237.77 361.04H235.68L232.85 278.88H237.58Z" fill="black"/>
</svg>
