<svg width="614" height="455" viewBox="0 0 614 455" fill="none" xmlns="http://www.w3.org/2000/svg">
<path d="M508.37 64.6801C509.065 69.3789 508.35 74.1783 506.316 78.4706C504.282 82.7629 501.02 86.3551 496.943 88.7923C492.866 91.2295 488.157 92.4021 483.414 92.1617C478.67 91.9213 474.104 90.2786 470.294 87.4417C466.484 84.6047 463.602 80.7011 462.013 76.2251C460.423 71.7491 460.197 66.9021 461.364 62.2976C462.53 57.6932 465.037 53.5385 468.566 50.3596C472.096 47.1807 476.489 45.1206 481.19 44.4401C487.477 43.53 493.868 45.1494 498.963 48.9433C504.057 52.7372 507.44 58.3962 508.37 64.6801V64.6801Z" fill="#F5F5F5"/>
<path d="M502.73 65.5001C503.26 69.0803 502.716 72.7373 501.167 76.0081C499.618 79.279 497.133 82.0167 494.027 83.8748C490.921 85.7328 487.334 86.6276 483.719 86.4459C480.104 86.2643 476.625 85.0143 473.721 82.8542C470.817 80.6941 468.619 77.7211 467.406 74.3113C466.192 70.9016 466.018 67.2085 466.904 63.6995C467.791 60.1906 469.698 57.0234 472.385 54.599C475.073 52.1746 478.419 50.602 482 50.0801C486.794 49.3763 491.671 50.6054 495.558 53.4971C499.446 56.3889 502.026 60.7065 502.73 65.5001V65.5001Z" fill="#EBEBEB"/>
<path d="M502.64 64.93C502.302 64.2591 502.034 63.5555 501.84 62.83C500.698 59.6286 498.707 56.7977 496.08 54.64C494.859 53.65 493.514 52.8231 492.08 52.18C491.311 51.8224 490.515 51.5248 489.7 51.29C488.851 51.0433 487.986 50.8595 487.11 50.74C486.205 50.6208 485.293 50.5673 484.38 50.58C483.438 50.6093 482.499 50.7029 481.57 50.86C480.644 51.0281 479.731 51.2655 478.84 51.57C477.972 51.8634 477.129 52.2279 476.32 52.66C475.538 53.0711 474.789 53.5425 474.08 54.07C473.395 54.5654 472.75 55.1138 472.15 55.71C471.027 56.8127 470.053 58.0564 469.25 59.41C468.552 60.5946 467.985 61.8521 467.56 63.16C466.956 65.0718 466.649 67.065 466.65 69.07C466.729 69.8179 466.729 70.5721 466.65 71.32C466.319 70.6261 466.142 69.8688 466.13 69.1C465.912 67.0136 466.081 64.9047 466.63 62.88C467.458 59.8378 469.048 57.0569 471.25 54.8C471.871 54.1509 472.539 53.5492 473.25 53C474.794 51.8192 476.515 50.8909 478.35 50.25C479.311 49.9255 480.293 49.6682 481.29 49.48C482.282 49.3116 483.284 49.2147 484.29 49.19C485.277 49.1752 486.264 49.2421 487.24 49.39C488.186 49.5207 489.12 49.7315 490.03 50.02C490.902 50.2854 491.751 50.6198 492.57 51.02C494.089 51.7414 495.502 52.6666 496.77 53.77C497.886 54.7264 498.887 55.8105 499.75 57C500.966 58.712 501.854 60.6344 502.37 62.67C502.619 63.3956 502.711 64.166 502.64 64.93V64.93Z" fill="#E0E0E0"/>
<path d="M488.25 78.6201L488.75 81.7701L485.94 82.2201L485.45 79.1601C482.94 79.4669 480.394 79.0651 478.1 78.0001L479.1 74.3301C480.891 75.1957 482.875 75.5816 484.86 75.4501L484.11 70.7601C480.87 70.5001 477.23 70.0201 476.58 66.0001C476.11 63.0001 477.86 60.1301 482.21 58.9101L481.72 55.7901L484.52 55.3401L485.01 58.4101C487.045 58.1932 489.103 58.4676 491.01 59.2101L490.16 62.8801C488.715 62.3308 487.176 62.0693 485.63 62.1101L486.39 66.8901C489.63 67.1201 493.22 67.6101 493.85 71.5701C494.3 74.5201 492.57 77.3901 488.25 78.6201ZM483.45 66.6201L482.81 62.6201C481.38 63.1901 480.92 64.1001 481.07 65.0301C481.22 65.9601 482.15 66.4701 483.45 66.6601V66.6201ZM489.36 72.6201C489.21 71.6201 488.31 71.2301 487.03 71.0001L487.65 74.8801C489 74.3801 489.51 73.5601 489.36 72.6601V72.6201Z" fill="#E0E0E0"/>
<path d="M433.61 68.93C434.815 77.0834 433.573 85.4109 430.043 92.8584C426.512 100.306 420.852 106.538 413.777 110.767C406.703 114.996 398.533 117.031 390.302 116.614C382.07 116.197 374.148 113.348 367.536 108.426C360.925 103.505 355.923 96.7325 353.163 88.9666C350.402 81.2006 350.008 72.7903 352.03 64.8003C354.052 56.8102 358.399 49.5996 364.521 44.0812C370.642 38.5629 378.264 34.9848 386.42 33.8C397.336 32.201 408.441 35.0038 417.291 41.5919C426.14 48.18 432.011 58.0138 433.61 68.93V68.93Z" fill="#F5F5F5"/>
<path d="M423.8 70.35C424.717 76.5618 423.771 82.906 421.081 88.5799C418.392 94.2538 414.08 99.0026 408.691 102.225C403.302 105.448 397.078 107 390.807 106.685C384.536 106.37 378.499 104.202 373.46 100.455C368.422 96.708 364.608 91.5509 362.501 85.6359C360.394 79.7209 360.088 73.3139 361.623 67.2253C363.158 61.1368 366.465 55.6403 371.124 51.4314C375.784 47.2224 381.587 44.4901 387.8 43.58C391.922 42.9709 396.123 43.1804 400.164 44.1965C404.205 45.2126 408.006 47.0154 411.35 49.5017C414.693 51.988 417.514 55.1091 419.65 58.6865C421.787 62.2638 423.197 66.2272 423.8 70.35Z" fill="#EBEBEB"/>
<path d="M423.65 69.37C423.46 69.37 423.13 68.05 422.27 65.71C421.082 62.4373 419.395 59.3678 417.27 56.61C415.795 54.7322 414.118 53.022 412.27 51.51C410.151 49.7914 407.823 48.3498 405.34 47.22C403.999 46.6087 402.616 46.0973 401.2 45.69C399.732 45.2404 398.23 44.9061 396.71 44.69C395.136 44.4754 393.548 44.3818 391.96 44.41C388.682 44.4626 385.435 45.0399 382.34 46.12C380.844 46.6503 379.393 47.2991 378 48.06C376.644 48.7742 375.343 49.5898 374.11 50.5C372.924 51.3733 371.801 52.329 370.75 53.36C368.815 55.277 367.135 57.4347 365.75 59.78C364.541 61.8376 363.558 64.0204 362.82 66.29C361.77 69.6121 361.237 73.0759 361.24 76.56C361.24 79.04 361.4 80.43 361.24 80.46C361.08 80.49 360.63 79.15 360.33 76.61C359.947 72.9839 360.242 69.3181 361.2 65.8C362.621 60.5242 365.376 55.7029 369.2 51.8C370.296 50.6587 371.483 49.6085 372.75 48.66C374.044 47.6705 375.411 46.7813 376.84 46C378.346 45.1777 379.918 44.482 381.54 43.92C383.207 43.3436 384.915 42.8923 386.65 42.57C388.388 42.2739 390.147 42.1101 391.91 42.08C393.623 42.0528 395.335 42.1631 397.03 42.41C398.666 42.6456 400.281 43.0101 401.86 43.5C403.371 43.9629 404.845 44.5379 406.27 45.22C408.907 46.4775 411.363 48.0853 413.57 50C415.472 51.6673 417.171 53.5537 418.63 55.62C420.745 58.5885 422.288 61.9256 423.18 65.46C423.78 67.93 423.79 69.35 423.65 69.37Z" fill="#E0E0E0"/>
<path d="M398.67 93.14L399.54 98.6L394.67 99.37L393.82 94.06C388.95 94.54 384.07 93.77 381.06 92.06L382.78 85.68C385.884 87.1996 389.33 87.8887 392.78 87.68L391.47 79.54C385.85 79.09 379.52 78.25 378.4 71.28C377.58 66.11 380.62 61.08 388.18 58.97L387.31 53.56L392.19 52.78L393.04 58.09C396.558 57.726 400.112 58.2024 403.41 59.48L402 65.87C399.495 64.9037 396.823 64.4448 394.14 64.52L395.46 72.81C401.08 73.21 407.31 74.06 408.41 80.93C409.17 86 406.17 91 398.67 93.14ZM390.34 72.37L389.24 65.45C386.75 66.45 385.95 68.03 386.24 69.64C386.53 71.25 388.09 72 390.34 72.37V72.37ZM400.61 82.78C400.34 81.07 398.77 80.37 396.56 79.97L397.64 86.7C400 85.78 400.86 84.34 400.61 82.78Z" fill="#E0E0E0"/>
<path d="M65.37 210.76C66.0668 215.458 65.3538 220.258 63.3212 224.551C61.2887 228.844 58.028 232.437 53.952 234.876C49.8761 237.315 45.1682 238.489 40.4243 238.251C35.6805 238.012 31.1141 236.371 27.3034 233.536C23.4926 230.701 20.6089 226.798 19.0172 222.323C17.4256 217.848 17.1976 213.001 18.3622 208.396C19.5268 203.791 22.0316 199.636 25.5595 196.455C29.0873 193.275 33.4795 191.213 38.18 190.53C44.4668 189.617 50.8591 191.234 55.9559 195.026C61.0527 198.818 64.438 204.476 65.37 210.76Z" fill="#F5F5F5"/>
<path d="M59.7199 211.58C60.2504 215.161 59.7065 218.818 58.157 222.09C56.6076 225.361 54.1224 228.099 51.0159 229.957C47.9095 231.815 44.3216 232.709 40.7065 232.527C37.0914 232.345 33.6117 231.094 30.7079 228.933C27.8041 226.772 25.6068 223.798 24.3942 220.387C23.1816 216.977 23.0083 213.283 23.8962 209.774C24.784 206.265 26.6931 203.098 29.3818 200.675C32.0705 198.251 35.4178 196.68 38.9999 196.16C43.7917 195.462 48.6647 196.693 52.5494 199.584C56.4341 202.475 59.0129 206.79 59.7199 211.58V211.58Z" fill="#EBEBEB"/>
<path d="M59.63 211C59.2925 210.327 59.0277 209.619 58.84 208.89C58.1501 207.004 57.1718 205.236 55.94 203.65C55.0936 202.568 54.1312 201.582 53.07 200.71C51.8493 199.717 50.5047 198.887 49.07 198.24C48.3012 197.884 47.5054 197.59 46.69 197.36C45.8428 197.108 44.9766 196.924 44.1 196.81C43.1955 196.686 42.2828 196.632 41.37 196.65C40.428 196.671 39.4888 196.761 38.56 196.92C35.8483 197.395 33.2841 198.494 31.07 200.13C30.387 200.632 29.7419 201.183 29.14 201.78C28.0176 202.879 27.0428 204.12 26.24 205.47C25.5434 206.656 24.9768 207.913 24.55 209.22C23.9453 211.135 23.6384 213.132 23.64 215.14C23.7246 215.888 23.7246 216.643 23.64 217.39C23.3109 216.695 23.1336 215.939 23.12 215.17C22.9002 213.08 23.0697 210.968 23.62 208.94C24.0052 207.548 24.5522 206.205 25.25 204.94C26.0694 203.48 27.0781 202.135 28.25 200.94C28.8677 200.285 29.5364 199.68 30.25 199.13C31.8007 197.963 33.5205 197.039 35.35 196.39C36.3123 196.056 37.2985 195.796 38.3 195.61C39.2919 195.444 40.2945 195.35 41.3 195.33C42.3034 195.315 43.3065 195.378 44.3 195.52C45.242 195.656 46.1716 195.866 47.08 196.15C47.9503 196.42 48.7993 196.754 49.62 197.15C52.4719 198.501 54.925 200.568 56.74 203.15C57.956 204.862 58.8443 206.785 59.36 208.82C59.5967 209.521 59.6886 210.263 59.63 211V211Z" fill="#E0E0E0"/>
<path d="M45.24 224.71L45.74 227.85L42.9299 228.3L42.44 225.24C39.9334 225.564 37.3862 225.176 35.0899 224.12L36.0899 220.44C37.8823 221.311 39.8718 221.697 41.86 221.56L41.1 216.87C37.87 216.62 34.22 216.14 33.58 212.12C33.1 209.12 34.85 206.24 39.21 205.03L38.71 201.91L41.52 201.46L42.0099 204.52C44.0452 204.302 46.103 204.576 48.0099 205.32L47.16 209C45.7173 208.44 44.1764 208.178 42.63 208.23L43.3899 213C46.6299 213.23 50.22 213.72 50.85 217.68C51.29 220.6 49.56 223.47 45.24 224.71ZM40.44 212.71L39.8 208.71C38.37 209.29 37.9099 210.19 38.0599 211.12C38.2099 212.05 39.14 212.55 40.44 212.75V212.71ZM46.36 218.71C46.2 217.71 45.3 217.33 44.02 217.1L44.6399 220.97C45.9999 220.47 46.5 219.64 46.36 218.74V218.71Z" fill="#E0E0E0"/>
<path d="M24.26 157.94C21.6516 159.595 18.6108 160.439 15.5226 160.364C12.4345 160.29 9.43775 159.301 6.91183 157.523C4.3859 155.745 2.44434 153.257 1.33294 150.375C0.221533 147.493 -0.0097461 144.346 0.668373 141.332C1.34649 138.318 2.90352 135.574 5.14236 133.445C7.38119 131.317 10.2012 129.901 13.2453 129.376C16.2894 128.851 19.4209 129.241 22.2432 130.497C25.0655 131.753 27.4518 133.817 29.1 136.43C30.1946 138.16 30.9376 140.089 31.2868 142.106C31.6359 144.124 31.5843 146.19 31.1349 148.187C30.6855 150.185 29.847 152.074 28.6674 153.748C27.4878 155.421 25.9902 156.846 24.26 157.94V157.94Z" fill="#F5F5F5"/>
<path d="M22.2699 154.8C20.2806 156.06 17.9623 156.701 15.6084 156.643C13.2546 156.584 10.9709 155.829 9.04646 154.472C7.12203 153.115 5.64337 151.218 4.7976 149.021C3.95183 146.823 3.77698 144.424 4.29518 142.127C4.81338 139.83 6.00134 137.739 7.7087 136.117C9.41605 134.496 11.5661 133.417 13.8866 133.018C16.2072 132.619 18.594 132.918 20.7449 133.876C22.8958 134.834 24.7142 136.408 25.9699 138.4C27.6535 141.065 28.2095 144.291 27.5157 147.366C26.8218 150.441 24.9349 153.115 22.2699 154.8V154.8Z" fill="#EBEBEB"/>
<path d="M22.59 154.6C22.59 154.54 22.96 154.22 23.59 153.6C24.5314 152.693 25.3244 151.643 25.94 150.49C26.8525 148.796 27.3334 146.904 27.34 144.98C27.3509 144.428 27.3175 143.876 27.24 143.33C27.1632 142.762 27.0428 142.2 26.88 141.65C26.713 141.078 26.5024 140.52 26.25 139.98C25.7314 138.877 25.0393 137.864 24.2 136.98C23.7977 136.544 23.3595 136.143 22.89 135.78C22.441 135.409 21.9628 135.074 21.46 134.78C20.9953 134.481 20.507 134.22 20 134C19.0365 133.622 18.0281 133.37 17 133.25C16.1122 133.16 15.2177 133.16 14.33 133.25C13.032 133.384 11.7632 133.722 10.57 134.25C10.1401 134.487 9.68789 134.681 9.21997 134.83C9.21997 134.83 9.57997 134.42 10.41 133.93C11.5919 133.248 12.8909 132.794 14.24 132.59C15.1755 132.44 16.1256 132.403 17.07 132.48C18.1612 132.573 19.2345 132.816 20.26 133.2C20.8189 133.403 21.3606 133.65 21.88 133.94C22.4228 134.231 22.9411 134.565 23.43 134.94C24.4615 135.74 25.3593 136.698 26.09 137.78C26.4676 138.33 26.8019 138.908 27.09 139.51C27.3585 140.092 27.5825 140.694 27.76 141.31C27.9268 141.906 28.0471 142.515 28.12 143.13C28.196 143.72 28.2228 144.315 28.2 144.91C28.1725 146.002 27.9976 147.085 27.68 148.13C27.3979 149.036 27.0085 149.906 26.52 150.72C25.8246 151.898 24.9158 152.935 23.84 153.78C23.4847 154.137 23.059 154.416 22.59 154.6Z" fill="#E0E0E0"/>
<path d="M10.6499 149.66L8.90991 150.79L7.90991 149.24L9.59991 148.14C8.74137 146.736 8.30083 145.116 8.32991 143.47L10.7699 143.09C10.7282 144.387 11.0246 145.672 11.6299 146.82L14.2199 145.13C13.5199 143.13 12.8399 140.84 15.0599 139.4C16.6999 138.33 18.8899 138.6 20.7599 140.87L22.4799 139.75L23.4799 141.3L21.7899 142.4C22.4513 143.548 22.8317 144.837 22.8999 146.16L20.4799 146.63C20.4324 145.624 20.1842 144.638 19.7499 143.73L17.1099 145.45C17.8299 147.45 18.4899 149.7 16.2999 151.12C14.6899 152.17 12.5199 151.9 10.6499 149.66ZM16.4899 143.66L18.6899 142.22C17.9699 141.52 17.3099 141.49 16.7999 141.82C16.2899 142.15 16.2599 142.82 16.4899 143.65V143.66ZM14.4899 148.76C15.0299 148.4 15.0299 147.76 14.8299 146.94L12.6899 148.34C13.3699 149 13.9999 149.07 14.4899 148.75V148.76Z" fill="#E0E0E0"/>
<path d="M443 29.14C440.392 30.7949 437.351 31.6386 434.263 31.5644C431.174 31.4902 428.178 30.5014 425.652 28.7232C423.126 26.945 421.184 24.4574 420.073 21.5752C418.962 18.693 418.73 15.5458 419.408 12.5321C420.086 9.51843 421.644 6.77367 423.882 4.64532C426.121 2.51697 428.941 1.10072 431.985 0.575862C435.029 0.051001 438.161 0.441125 440.983 1.69685C443.805 2.95257 446.192 5.01744 447.84 7.63005C448.936 9.35982 449.68 11.2886 450.03 13.3062C450.38 15.3238 450.328 17.3906 449.879 19.3884C449.429 21.3861 448.59 23.2757 447.41 24.9489C446.23 26.6222 444.731 28.0464 443 29.14V29.14Z" fill="#F5F5F5"/>
<path d="M441 26.0001C439.011 27.2625 436.693 27.9064 434.338 27.8503C431.984 27.7943 429.699 27.0407 427.773 25.6851C425.846 24.3294 424.366 22.4327 423.519 20.2351C422.671 18.0375 422.495 15.6378 423.012 13.34C423.53 11.0422 424.717 8.94956 426.425 7.32714C428.132 5.70471 430.283 4.62546 432.604 4.22606C434.925 3.82666 437.313 4.12507 439.464 5.08351C441.616 6.04194 443.434 7.61729 444.69 9.61006C446.374 12.2729 446.931 15.4956 446.239 18.5692C445.547 21.6429 443.663 24.3159 441 26.0001V26.0001Z" fill="#EBEBEB"/>
<path d="M441.3 25.8C441.3 25.74 441.67 25.42 442.3 24.8C443.241 23.8929 444.034 22.8434 444.65 21.69C445.079 20.9053 445.415 20.0729 445.65 19.21C445.915 18.2316 446.056 17.2237 446.07 16.21C446.089 15.6391 446.065 15.0676 446 14.5C445.923 13.9317 445.803 13.37 445.64 12.82C445.476 12.2472 445.265 11.6887 445.01 11.15C444.751 10.5947 444.45 10.0598 444.11 9.55005C443.776 9.04682 443.405 8.56887 443 8.12005C442.595 7.6805 442.153 7.27575 441.68 6.91005C441.233 6.53652 440.754 6.20196 440.25 5.91005C439.772 5.63402 439.274 5.39337 438.76 5.19004C437.798 4.81036 436.789 4.56147 435.76 4.45005C434.873 4.35014 433.977 4.35014 433.09 4.45005C431.792 4.58493 430.523 4.92235 429.33 5.45005C428.903 5.69251 428.45 5.88702 427.98 6.03005C427.98 6.03005 428.34 5.62005 429.17 5.13005C430.355 4.46592 431.654 4.02846 433 3.84005C433.935 3.68902 434.886 3.65543 435.83 3.74005C436.921 3.82939 437.994 4.06829 439.02 4.45005C439.579 4.65304 440.121 4.9005 440.64 5.19004C441.752 5.80259 442.764 6.5816 443.64 7.50005C444.082 7.9679 444.486 8.46941 444.85 9.00005C445.227 9.5502 445.562 10.1286 445.85 10.73C446.115 11.3124 446.336 11.9142 446.51 12.53C446.682 13.1253 446.802 13.7342 446.87 14.35C446.946 14.9401 446.973 15.5355 446.95 16.13C446.923 17.2219 446.748 18.305 446.43 19.35C446.146 20.2782 445.75 21.1681 445.25 22C444.552 23.1554 443.647 24.1724 442.58 25C442.213 25.3516 441.777 25.6239 441.3 25.8V25.8Z" fill="#E0E0E0"/>
<path d="M429.36 20.8601L427.62 22.0001L426.62 20.4501L428.31 19.3501C427.44 17.9451 426.986 16.3225 427 14.6701L429.44 14.2901C429.403 15.5865 429.699 16.8708 430.3 18.0201L432.89 16.3301C432.19 14.3301 431.51 12.0401 433.73 10.6001C435.37 9.53009 437.56 9.80009 439.43 12.0701L441.19 11.0001L442.19 12.5501L440.5 13.6501C441.159 14.8025 441.535 16.0943 441.6 17.4201L439.19 17.8801C439.136 16.8775 438.884 15.8954 438.45 14.9901L435.81 16.7001C436.53 18.7001 437.19 20.9501 435 22.3701C433.4 23.3701 431.24 23.1001 429.36 20.8601ZM435.2 14.8601L437.4 13.4301C436.68 12.7201 436.02 12.6901 435.51 13.0201C435 13.3501 435 14.0001 435.2 14.8501V14.8601ZM433.2 19.9601C433.74 19.6001 433.74 18.9601 433.54 18.1501L431.4 19.5401C432.08 20.1901 432.7 20.2701 433.2 20.0001V19.9601Z" fill="#E0E0E0"/>
<path d="M613.26 440.36C613.26 440.5 495.893 440.62 351.146 440.62C206.398 440.62 89 440.5 89 440.36C89 440.22 206.343 440.1 351.146 440.1C495.948 440.1 613.26 440.21 613.26 440.36Z" fill="#263238"/>
<path d="M572 104.64H191.28C189.719 104.64 188.173 104.948 186.731 105.545C185.289 106.143 183.979 107.019 182.876 108.123C181.773 109.227 180.898 110.538 180.301 111.981C179.705 113.423 179.399 114.969 179.4 116.53V385.44C179.4 388.591 180.652 391.612 182.879 393.84C185.107 396.068 188.129 397.32 191.28 397.32H337.4C337.4 397.32 346.7 426.06 317.88 440.94H454.51C454.51 440.94 422 429.78 430.34 397.32H572C575.151 397.32 578.172 396.068 580.4 393.84C582.628 391.612 583.88 388.591 583.88 385.44V116.53C583.881 114.969 583.575 113.423 582.978 111.981C582.382 110.538 581.507 109.227 580.404 108.123C579.301 107.019 577.99 106.143 576.548 105.545C575.106 104.948 573.561 104.64 572 104.64V104.64Z" fill="#263238"/>
<path d="M386.72 369C391.9 376.4 383.8 384.51 376.39 379.33C376.144 379.155 375.931 378.939 375.76 378.69C370.59 371.29 378.69 363.2 386.09 368.37C386.334 368.544 386.547 368.756 386.72 369V369Z" fill="#455A64"/>
<path d="M195.65 109.57H567.65C570.223 109.57 572.69 110.592 574.509 112.411C576.328 114.23 577.35 116.697 577.35 119.27V348.13H186V119.27C186 116.706 187.015 114.246 188.823 112.429C190.632 110.611 193.086 109.583 195.65 109.57Z" fill="white"/>
<path d="M231.95 163.42H219.11V306.78H231.95V163.42Z" fill="#1999B9"/>
<path d="M256.73 212.11H243.89V306.78H256.73V212.11Z" fill="#1999B9"/>
<path d="M281.51 181.24H268.67V307.51H281.51V181.24Z" fill="#1999B9"/>
<path d="M306.3 168.96H293.46V306.78H306.3V168.96Z" fill="#1999B9"/>
<path d="M331.08 215.03H318.24V306.78H331.08V215.03Z" fill="#1999B9"/>
<path d="M355.86 233.02H343.02V306.78H355.86V233.02Z" fill="#1999B9"/>
<path d="M380.64 178.14H367.8V306.78H380.64V178.14Z" fill="#1999B9"/>
<path d="M405.42 201.33H392.58V306.78H405.42V201.33Z" fill="#1999B9"/>
<path d="M430.21 182.8H417.37V306.78H430.21V182.8Z" fill="#1999B9"/>
<path d="M454.99 222.31H442.15V306.78H454.99V222.31Z" fill="#1999B9"/>
<path d="M504.42 178.14H491.58V306.78H504.42V178.14Z" fill="#1999B9"/>
<path d="M557.05 260.91H544.21V304.93H557.05V260.91Z" fill="#1999B9"/>
<path d="M531.39 222.31H518.55V306.78H531.39V222.31Z" fill="#1999B9"/>
<path d="M479.77 206.24H466.93V306.78H479.77V206.24Z" fill="#1999B9"/>
<path d="M560.65 181.7C560.273 181.666 559.899 181.606 559.53 181.52L556.26 180.85C554.496 180.473 552.714 180.189 550.92 180C548.483 179.66 546.029 179.456 543.57 179.39C536.825 179.164 530.078 179.742 523.47 181.11C514.735 182.984 506.334 186.167 498.55 190.55C489.117 195.864 480.593 202.649 473.3 210.65C465.44 219.27 458.81 229.92 452.03 241.19C445.25 252.46 438.21 264.56 428.12 275C423.073 280.395 417.111 284.854 410.51 288.17C407.084 289.833 403.42 290.953 399.65 291.49C395.818 292 391.928 291.868 388.14 291.1C380.52 289.42 373.77 285.42 368.09 280.59C362.519 275.79 357.534 270.349 353.24 264.38C344.62 252.78 338.5 240.28 331.95 228.89C325.4 217.5 318.83 206.78 310.68 198.43C306.821 194.364 302.391 190.881 297.53 188.09C295.245 186.772 292.869 185.619 290.42 184.64C288.053 183.766 285.631 183.048 283.17 182.49C274.466 180.503 265.399 180.757 256.82 183.23C250.34 185.083 244.223 188.025 238.73 191.93C235.295 194.456 232.113 197.309 229.23 200.45L227 202.92C226.756 203.215 226.489 203.489 226.2 203.74C226.396 203.415 226.624 203.11 226.88 202.83L228.99 200.23C231.807 196.988 234.954 194.049 238.38 191.46C243.881 187.431 250.039 184.386 256.58 182.46C265.279 179.847 274.501 179.503 283.37 181.46C293.24 183.46 303.3 189.1 311.51 197.56C319.72 206.02 326.56 216.75 333.08 228.19C339.6 239.63 345.82 252.06 354.35 263.51C358.586 269.398 363.5 274.768 368.99 279.51C374.55 284.24 381.11 288.1 388.41 289.71C392.031 290.439 395.748 290.564 399.41 290.08C403.036 289.56 406.561 288.484 409.86 286.89C416.325 283.644 422.165 279.28 427.11 274C437.06 263.77 444.02 251.69 450.9 240.5C457.78 229.31 464.42 218.5 472.42 209.84C479.835 201.792 488.487 194.98 498.05 189.66C505.945 185.28 514.463 182.134 523.31 180.33C529.983 179.003 536.794 178.499 543.59 178.83C546.066 178.932 548.534 179.182 550.98 179.58C552.778 179.806 554.562 180.14 556.32 180.58L559.56 181.39C559.931 181.464 560.295 181.568 560.65 181.7V181.7Z" fill="#263238"/>
<path d="M205 316.77C204.71 316.77 204.47 275.89 204.47 225.47C204.47 175.05 204.71 134.17 205 134.17C205.29 134.17 205.53 175.04 205.53 225.47C205.53 275.9 205.27 316.77 205 316.77Z" fill="#263238"/>
<path d="M557 316.77C557 317.06 480 317.29 385 317.29C290 317.29 213 317.06 213 316.77C213 316.48 290 316.24 385 316.24C480 316.24 557 316.48 557 316.77Z" fill="#263238"/>
<path d="M237.42 328.05C237.42 328.34 233.16 328.58 227.9 328.58C222.64 328.58 218.37 328.34 218.37 328.05C218.37 327.76 222.63 327.52 227.9 327.52C233.17 327.52 237.42 327.76 237.42 328.05Z" fill="#263238"/>
<path d="M269 328.62C269 328.92 263.9 329.15 257.62 329.15C251.34 329.15 246.23 328.92 246.23 328.62C246.23 328.32 251.33 328.1 257.62 328.1C263.91 328.1 269 328.33 269 328.62Z" fill="#263238"/>
<path d="M296 328.62C296 328.92 290.9 329.15 284.62 329.15C278.34 329.15 273.23 328.92 273.23 328.62C273.23 328.32 278.33 328.1 284.62 328.1C290.91 328.1 296 328.33 296 328.62Z" fill="#263238"/>
<path d="M322.92 328.62C322.92 328.92 317.82 329.15 311.54 329.15C305.26 329.15 300.15 328.92 300.15 328.62C300.15 328.32 305.25 328.1 311.54 328.1C317.83 328.1 322.92 328.33 322.92 328.62Z" fill="#263238"/>
<path d="M349.87 328.62C349.87 328.92 344.78 329.15 338.49 329.15C332.2 329.15 327.1 328.92 327.1 328.62C327.1 328.32 332.2 328.1 338.49 328.1C344.78 328.1 349.87 328.33 349.87 328.62Z" fill="#263238"/>
<path d="M376.83 328.62C376.83 328.92 371.73 329.15 365.44 329.15C359.15 329.15 354.06 328.92 354.06 328.62C354.06 328.32 359.15 328.1 365.44 328.1C371.73 328.1 376.83 328.33 376.83 328.62Z" fill="#263238"/>
<path d="M403.78 328.62C403.78 328.92 398.68 329.15 392.39 329.15C386.1 329.15 381.01 328.92 381.01 328.62C381.01 328.32 386.1 328.1 392.39 328.1C398.68 328.1 403.78 328.33 403.78 328.62Z" fill="#263238"/>
<path d="M430.73 328.62C430.73 328.92 425.63 329.15 419.34 329.15C413.05 329.15 407.96 328.92 407.96 328.62C407.96 328.32 413.06 328.1 419.34 328.1C425.62 328.1 430.73 328.33 430.73 328.62Z" fill="#263238"/>
<path d="M457.68 328.62C457.68 328.92 452.58 329.15 446.3 329.15C440.02 329.15 434.91 328.92 434.91 328.62C434.91 328.32 440.01 328.1 446.3 328.1C452.59 328.1 457.68 328.33 457.68 328.62Z" fill="#263238"/>
<path d="M484.63 328.62C484.63 328.92 479.53 329.15 473.25 329.15C466.97 329.15 461.86 328.92 461.86 328.62C461.86 328.32 466.96 328.1 473.25 328.1C479.54 328.1 484.63 328.33 484.63 328.62Z" fill="#263238"/>
<path d="M509.7 328.63C509.7 328.93 504.6 329.16 498.31 329.16C492.02 329.16 486.93 328.93 486.93 328.63C486.93 328.33 492.03 328.11 498.31 328.11C504.59 328.11 509.7 328.34 509.7 328.63Z" fill="#263238"/>
<path d="M534.77 328.64C534.77 328.93 529.67 329.17 523.38 329.17C517.09 329.17 512 328.93 512 328.64C512 328.35 517.09 328.12 523.38 328.12C529.67 328.12 534.77 328.35 534.77 328.64Z" fill="#263238"/>
<path d="M559.83 328.65C559.83 328.94 554.73 329.18 548.45 329.18C542.17 329.18 537.06 328.94 537.06 328.65C537.06 328.36 542.16 328.12 548.45 328.12C554.74 328.12 559.83 328.36 559.83 328.65Z" fill="#263238"/>
<path d="M336 230.17C336 229.95 337.58 230.5 338.08 232.65C338.4 233.891 338.258 235.206 337.68 236.35C337.291 237.104 336.618 237.672 335.81 237.93C334.933 238.176 333.995 238.065 333.2 237.62C332.48 237.218 331.889 236.62 331.495 235.897C331.1 235.173 330.918 234.352 330.97 233.53C331.017 232.883 331.201 232.253 331.509 231.683C331.818 231.112 332.244 230.613 332.76 230.22C333.098 229.944 333.493 229.746 333.917 229.643C334.341 229.539 334.783 229.531 335.21 229.62C335.81 229.8 336.01 230.09 335.97 230.15C335.93 230.21 334.67 229.75 333.41 231C332.718 231.683 332.317 232.608 332.29 233.58C332.285 234.142 332.43 234.696 332.71 235.185C332.989 235.673 333.393 236.079 333.88 236.36C334.098 236.495 334.341 236.586 334.594 236.625C334.848 236.664 335.107 236.652 335.355 236.588C335.604 236.524 335.837 236.411 336.041 236.255C336.244 236.099 336.414 235.903 336.54 235.68C337.017 234.811 337.206 233.813 337.08 232.83C336.91 231 335.89 230.34 336 230.17Z" fill="#263238"/>
<path d="M504.94 183C504.94 182.92 505.35 182.79 506.06 183C507.04 183.367 507.854 184.078 508.35 185C508.747 185.672 509.001 186.418 509.098 187.192C509.194 187.966 509.13 188.752 508.91 189.5C508.65 190.478 508.083 191.346 507.293 191.978C506.503 192.61 505.531 192.971 504.52 193.01C503.978 192.985 503.447 192.843 502.965 192.593C502.483 192.342 502.062 191.99 501.73 191.56C501.147 190.83 500.743 189.974 500.55 189.06C500.358 188.305 500.323 187.519 500.447 186.751C500.571 185.982 500.851 185.246 501.27 184.59C502.85 182.36 504.8 182.47 504.73 182.59C504.82 182.8 503.19 183.11 502.14 185.06C501.584 186.188 501.473 187.484 501.83 188.69C502.17 190.01 503.19 191.52 504.57 191.53C505.275 191.473 505.947 191.204 506.498 190.76C507.049 190.316 507.454 189.717 507.66 189.04C508.051 187.854 507.976 186.563 507.45 185.43C506.92 184.354 506.033 183.495 504.94 183V183Z" fill="#263238"/>
<path d="M359.29 36.8101H101.68V237.3H359.29V36.8101Z" fill="white"/>
<path d="M359.29 237.3C359.29 235.3 359.2 157.8 359.05 36.81L359.29 37.05H101.71L102 36.76C102 109.03 102 177.38 102 237.25L101.74 236.99L359.35 237.25L101.74 237.51H101.48V237.25C101.48 177.38 101.48 109.03 101.48 36.76V36.47H101.8H359.38H359.62V36.71C359.39 157.8 359.3 235.3 359.29 237.3Z" fill="#263238"/>
<path d="M155.95 63.1499H114.25V65.4699H155.95V63.1499Z" fill="#263238"/>
<path d="M134.86 68.5801H114.25V70.9001H134.86V68.5801Z" fill="#263238"/>
<path d="M145.57 208.49H138.02V210.67H145.57V208.49Z" fill="#263238"/>
<path d="M164.77 220.13H155.11V222.31H164.77V220.13Z" fill="#263238"/>
<path d="M198.4 220.13H188.74V222.31H198.4V220.13Z" fill="#263238"/>
<path d="M232.03 220.13H222.37V222.31H232.03V220.13Z" fill="#263238"/>
<path d="M265.66 220.13H256V222.31H265.66V220.13Z" fill="#263238"/>
<path d="M299.29 220.13H289.63V222.31H299.29V220.13Z" fill="#263238"/>
<path d="M332.92 220.13H323.26V222.31H332.92V220.13Z" fill="#263238"/>
<path d="M145.57 179.42H138.02V181.6H145.57V179.42Z" fill="#263238"/>
<path d="M145.57 124.7H138.02V126.88H145.57V124.7Z" fill="#263238"/>
<path d="M145.57 97.2H138.02V99.38H145.57V97.2Z" fill="#263238"/>
<path d="M145.96 152.06H138.41V154.24H145.96V152.06Z" fill="#263238"/>
<path d="M332.65 210.67C332.65 210.67 332.38 210.67 331.84 210.67H329.46L320.32 210.72L286.71 210.81L175.8 210.88H149.26V210.62C149.26 173.53 149.33 140.89 149.35 117.51C149.35 105.83 149.41 96.51 149.43 90.01C149.43 86.8 149.43 84.31 149.43 82.61C149.43 81.77 149.43 81.14 149.43 80.69C149.43 80.24 149.43 80.04 149.43 80.04C149.43 80.04 149.43 80.26 149.43 80.69C149.43 81.12 149.43 81.77 149.43 82.61C149.43 84.31 149.43 86.8 149.43 90.01C149.43 96.47 149.43 105.83 149.51 117.51C149.51 140.89 149.56 173.51 149.6 210.62L149.34 210.36H175.8L286.71 210.44L320.32 210.52L329.46 210.57H331.84L332.65 210.67Z" fill="#263238"/>
<path d="M334.78 153.15C334.78 153.29 294.94 153.41 245.78 153.41C196.62 153.41 156.78 153.29 156.78 153.15C156.78 153.01 196.61 152.89 245.78 152.89C294.95 152.89 334.78 153 334.78 153.15Z" fill="#263238"/>
<path d="M334.78 125.79C334.78 125.93 294.94 126.05 245.78 126.05C196.62 126.05 156.78 125.93 156.78 125.79C156.78 125.65 196.61 125.53 245.78 125.53C294.95 125.53 334.78 125.65 334.78 125.79Z" fill="#263238"/>
<path d="M334.78 98.29C334.78 98.44 294.94 98.55 245.78 98.55C196.62 98.55 156.78 98.44 156.78 98.29C156.78 98.14 196.61 98.03 245.78 98.03C294.95 98.03 334.78 98.15 334.78 98.29Z" fill="#263238"/>
<path d="M334.78 180.51C334.78 180.65 294.94 180.77 245.78 180.77C196.62 180.77 156.78 180.65 156.78 180.51C156.78 180.37 196.61 180.25 245.78 180.25C294.95 180.25 334.78 180.37 334.78 180.51Z" fill="#263238"/>
<path d="M158.66 204.78V180.51L173.79 157L184.06 164.88L205.13 132.15L217.56 140.9L234.85 110.7L248.85 122.15L270 82.1099L292.7 126.88L311 104.48L332.61 98.2899V204.78H158.66Z" fill="#455A64"/>
<path d="M334.78 89.67C334.653 89.6787 334.526 89.6787 334.4 89.67H333.27H328.89L312.3 89.74L312.41 89.68L294.63 113L294.56 113.08H294.46H249.96L250.18 112.96L231.47 144.1C225.1 154.7 218.93 164.95 213.1 174.63L212.91 174.96L212.69 174.65L188.57 141.52H188.92L167 175.8L160.89 185.28C160.19 186.36 159.65 187.19 159.27 187.76C158.89 188.33 158.7 188.6 158.7 188.6C158.7 188.6 158.87 188.3 159.22 187.73L160.78 185.22C162.17 183.01 164.2 179.78 166.78 175.67L188.58 141.3L188.75 141.04L188.94 141.29L213.11 174.38H212.69L231 143.86L249.73 112.72L249.8 112.6H250L294.5 112.65L294.34 112.73L312.23 89.59V89.53H312.3L328.89 89.6H333.27H334.4L334.78 89.67Z" fill="#263238"/>
<path d="M196 149.19C196.014 149.531 195.926 149.868 195.747 150.158C195.567 150.449 195.305 150.679 194.994 150.819C194.683 150.959 194.338 151.003 194.001 150.945C193.665 150.887 193.354 150.73 193.108 150.494C192.862 150.258 192.692 149.954 192.62 149.62C192.548 149.287 192.578 148.939 192.705 148.623C192.832 148.306 193.051 148.035 193.333 147.844C193.616 147.653 193.949 147.55 194.29 147.55C194.734 147.542 195.163 147.71 195.483 148.017C195.804 148.325 195.99 148.746 196 149.19V149.19Z" fill="#263238"/>
<path d="M247.36 120C247.374 120.341 247.285 120.679 247.106 120.969C246.926 121.26 246.664 121.49 246.352 121.63C246.04 121.77 245.694 121.813 245.358 121.754C245.021 121.696 244.71 121.538 244.464 121.301C244.218 121.063 244.049 120.758 243.978 120.424C243.908 120.09 243.939 119.742 244.067 119.426C244.196 119.109 244.417 118.839 244.7 118.649C244.984 118.459 245.318 118.358 245.66 118.36C245.879 118.356 246.097 118.395 246.301 118.475C246.506 118.556 246.692 118.675 246.85 118.828C247.008 118.98 247.134 119.162 247.221 119.363C247.309 119.564 247.356 119.781 247.36 120V120Z" fill="#263238"/>
<path d="M285.56 114.49C286.504 114.49 287.27 113.756 287.27 112.85C287.27 111.944 286.504 111.21 285.56 111.21C284.616 111.21 283.85 111.944 283.85 112.85C283.85 113.756 284.616 114.49 285.56 114.49Z" fill="#263238"/>
<path d="M112.45 45.0601C112.45 45.4556 112.333 45.8423 112.113 46.1712C111.893 46.5001 111.581 46.7564 111.215 46.9078C110.85 47.0592 110.448 47.0988 110.06 47.0216C109.672 46.9445 109.315 46.754 109.036 46.4743C108.756 46.1946 108.566 45.8382 108.488 45.4502C108.411 45.0623 108.451 44.6601 108.602 44.2947C108.754 43.9292 109.01 43.6169 109.339 43.3971C109.668 43.1774 110.054 43.0601 110.45 43.0601C110.98 43.0601 111.489 43.2708 111.864 43.6459C112.239 44.0209 112.45 44.5296 112.45 45.0601Z" fill="#263238"/>
<path d="M118.21 45.0601C118.21 45.4556 118.093 45.8423 117.873 46.1712C117.653 46.5001 117.341 46.7564 116.975 46.9078C116.61 47.0592 116.208 47.0988 115.82 47.0216C115.432 46.9445 115.075 46.754 114.796 46.4743C114.516 46.1946 114.326 45.8382 114.248 45.4502C114.171 45.0623 114.211 44.6601 114.362 44.2947C114.514 43.9292 114.77 43.6169 115.099 43.3971C115.428 43.1774 115.814 43.0601 116.21 43.0601C116.74 43.0601 117.249 43.2708 117.624 43.6459C117.999 44.0209 118.21 44.5296 118.21 45.0601Z" fill="#263238"/>
<path d="M124 45.0601C124 45.4556 123.883 45.8423 123.663 46.1712C123.443 46.5001 123.131 46.7564 122.765 46.9078C122.4 47.0592 121.998 47.0988 121.61 47.0216C121.222 46.9445 120.865 46.754 120.586 46.4743C120.306 46.1946 120.116 45.8382 120.038 45.4502C119.961 45.0623 120.001 44.6601 120.152 44.2947C120.304 43.9292 120.56 43.6169 120.889 43.3971C121.218 43.1774 121.604 43.0601 122 43.0601C122.53 43.0601 123.039 43.2708 123.414 43.6459C123.789 44.0209 124 44.5296 124 45.0601Z" fill="#263238"/>
<path d="M359.08 52.8699C359.08 53.0099 301.52 53.1299 230.53 53.1299C159.54 53.1299 102 52.9999 102 52.8699C102 52.7399 159.55 52.6099 230.56 52.6099C301.57 52.6099 359.08 52.7199 359.08 52.8699Z" fill="#263238"/>
<path d="M155.27 432.37L153.55 439.61C153.55 439.61 141.7 455 138.05 454.24C135.65 453.75 138.6 449.74 143.05 438.05L144.05 433.23L155.27 432.37Z" fill="#455A64"/>
<path d="M137.57 452C137.713 452.263 137.933 452.476 138.2 452.61C138.571 452.771 138.98 452.826 139.38 452.769C139.781 452.713 140.158 452.547 140.47 452.29C142.543 450.549 144.51 448.686 146.36 446.71C148.55 444.41 150.36 442.19 151.69 440.56L153.2 438.61C153.35 438.42 153.49 438.25 153.61 438.08C153.657 438.015 153.711 437.955 153.77 437.9C153.723 437.965 153.669 438.026 153.61 438.08L153.23 438.64C152.9 439.12 152.4 439.8 151.77 440.64C150.116 442.801 148.347 444.871 146.47 446.84C144.603 448.835 142.598 450.696 140.47 452.41C140.074 452.689 139.612 452.858 139.13 452.9C138.766 452.921 138.403 452.841 138.08 452.67C137.874 452.566 137.701 452.406 137.58 452.21C137.566 452.141 137.562 452.07 137.57 452V452Z" fill="#263238"/>
<path d="M139.24 447C139.557 446.873 139.903 446.835 140.24 446.89C141.033 446.968 141.797 447.232 142.47 447.66C143.168 448.061 143.732 448.659 144.09 449.38C144.251 449.671 144.341 449.997 144.35 450.33C144.35 450.33 144.24 449.97 143.96 449.45C143.578 448.785 143.025 448.233 142.36 447.85C141.711 447.434 140.982 447.158 140.22 447.04C139.894 447.01 139.567 446.996 139.24 447V447Z" fill="#263238"/>
<path d="M150.46 443.42C150.39 443.313 150.339 443.195 150.31 443.07C150.212 442.742 150.135 442.408 150.08 442.07C149.913 440.94 150.105 439.785 150.63 438.77C151.149 437.751 151.994 436.934 153.03 436.45C153.346 436.3 153.684 436.199 154.03 436.15C154.153 436.13 154.278 436.13 154.4 436.15C153.958 436.266 153.526 436.42 153.11 436.61C152.132 437.116 151.338 437.917 150.84 438.9C150.339 439.88 150.134 440.985 150.25 442.08C150.33 442.9 150.49 443.41 150.46 443.42Z" fill="#263238"/>
<path d="M154.52 433.6C154.52 433.6 154.3 434.6 154.08 435.91C153.988 436.697 153.779 437.465 153.46 438.19C153.46 438.19 153.65 437.19 153.87 435.87C153.965 435.084 154.185 434.318 154.52 433.6V433.6Z" fill="#263238"/>
<path d="M142.89 439.07C143.387 438.932 143.913 438.932 144.41 439.07C144.92 439.149 145.396 439.375 145.78 439.72C145.78 439.78 145.16 439.46 144.36 439.28C143.56 439.1 142.9 439.14 142.89 439.07Z" fill="#263238"/>
<path d="M142.65 440.31C143.064 440.163 143.516 440.163 143.93 440.31C144.367 440.373 144.765 440.594 145.05 440.93C145.05 440.98 144.54 440.67 143.88 440.52C143.22 440.37 142.66 440.38 142.65 440.31Z" fill="#263238"/>
<path d="M141.7 441.87C141.897 441.749 142.117 441.671 142.347 441.642C142.576 441.613 142.809 441.633 143.03 441.7C143.258 441.733 143.477 441.816 143.67 441.942C143.864 442.068 144.027 442.234 144.15 442.43C143.783 442.209 143.39 442.034 142.98 441.91C142.557 441.844 142.127 441.831 141.7 441.87V441.87Z" fill="#263238"/>
<path d="M143.71 438.55C143.71 438.55 144.25 438.41 145.1 438.08C145.592 437.884 146.07 437.653 146.53 437.39C146.78 437.24 147.05 437.07 147.31 436.89C147.57 436.71 147.82 436.45 147.81 436.17C147.8 435.89 147.45 435.73 147.18 435.8C146.898 435.897 146.647 436.066 146.45 436.29C146.01 436.7 145.64 437.09 145.34 437.43C144.73 438.11 144.4 438.56 144.34 438.54C144.391 438.418 144.458 438.304 144.54 438.2C144.68 437.99 144.9 437.69 145.19 437.33C145.533 436.918 145.896 436.524 146.28 436.15C146.499 435.896 146.782 435.706 147.1 435.6C147.195 435.57 147.296 435.561 147.395 435.574C147.495 435.587 147.59 435.621 147.674 435.674C147.759 435.728 147.831 435.799 147.886 435.883C147.94 435.966 147.976 436.061 147.99 436.16C147.97 436.345 147.908 436.523 147.807 436.679C147.706 436.835 147.57 436.966 147.41 437.06C147.147 437.243 146.873 437.41 146.59 437.56C146.121 437.824 145.629 438.045 145.12 438.22C144.777 438.341 144.426 438.437 144.07 438.51C143.85 438.56 143.71 438.57 143.71 438.55Z" fill="#263238"/>
<path d="M144.33 438.4C144.234 437.964 144.161 437.523 144.11 437.08C144.034 436.608 143.9 436.148 143.71 435.71C143.596 435.457 143.448 435.222 143.27 435.01C143.09 434.81 142.81 434.63 142.59 434.76C142.37 434.89 142.34 435.22 142.37 435.49C142.415 435.762 142.492 436.027 142.6 436.28C142.796 436.713 143.056 437.114 143.37 437.47C143.92 438.08 144.37 438.37 144.37 438.4C144.37 438.43 144.25 438.4 144.06 438.22C143.788 438.03 143.533 437.816 143.3 437.58C142.955 437.222 142.672 436.81 142.46 436.36C142.339 436.088 142.252 435.803 142.2 435.51C142.158 435.34 142.168 435.161 142.226 434.996C142.285 434.831 142.39 434.686 142.53 434.58C142.695 434.516 142.877 434.509 143.046 434.562C143.215 434.615 143.361 434.723 143.46 434.87C143.653 435.099 143.811 435.355 143.93 435.63C144.119 436.087 144.244 436.568 144.3 437.06C144.35 437.47 144.37 437.81 144.38 438.06C144.379 438.175 144.362 438.289 144.33 438.4V438.4Z" fill="#263238"/>
<path d="M212 435.73L212.05 426.07L194 425.85L193.75 440L194.87 440.09C199.87 440.43 220.26 441.45 223.61 440.48C227.35 439.38 212 435.73 212 435.73Z" fill="#455A64"/>
<path d="M193.5 439.57H193.81L194.71 439.64L197.99 439.82C200.77 439.96 204.61 440.09 208.85 440.15C213.09 440.21 216.93 440.15 219.71 440.15L223 440.06H223.89H224.2H223.89H223H219.71C216.94 440.06 213.1 440.06 208.86 440.06C204.62 440.06 200.79 439.89 198.01 439.8L194.72 439.68H193.83L193.5 439.57Z" fill="#263238"/>
<path d="M217.87 440.37C218.025 439.829 218.236 439.306 218.5 438.81C218.833 438.356 219.216 437.94 219.64 437.57C219.075 437.764 218.604 438.164 218.32 438.69C217.967 439.175 217.807 439.774 217.87 440.37V440.37Z" fill="#263238"/>
<path d="M212.57 437.6C212.62 437.6 212.88 437.32 213.14 436.91C213.4 436.5 213.59 436.14 213.54 436.1C213.49 436.06 213.23 436.38 212.96 436.79C212.69 437.2 212.51 437.56 212.57 437.6Z" fill="#263238"/>
<path d="M211.11 436.8C211.11 436.85 211.44 436.66 211.75 436.39C212.06 436.12 212.29 435.85 212.25 435.8C212.21 435.75 211.92 435.95 211.61 436.22C211.3 436.49 211.07 436.76 211.11 436.8Z" fill="#263238"/>
<path d="M210.21 435.08C210.509 435.196 210.83 435.244 211.15 435.22C211.486 435.267 211.828 435.236 212.15 435.13C211.832 435.008 211.489 434.963 211.15 435C210.835 434.958 210.514 434.986 210.21 435.08V435.08Z" fill="#263238"/>
<path d="M209.9 433.88C210.213 434.083 210.577 434.193 210.95 434.2C211.319 434.268 211.7 434.219 212.04 434.06C211.696 434.011 211.348 433.991 211 434C210.638 433.924 210.27 433.884 209.9 433.88V433.88Z" fill="#263238"/>
<path d="M213.2 436C213.584 436.064 213.976 436.064 214.36 436C214.781 435.961 215.197 435.877 215.6 435.75C215.848 435.682 216.086 435.585 216.31 435.46C216.451 435.386 216.559 435.261 216.61 435.11C216.63 435.024 216.625 434.933 216.595 434.85C216.564 434.767 216.511 434.694 216.44 434.64C215.998 434.417 215.493 434.353 215.01 434.461C214.526 434.569 214.095 434.84 213.79 435.23C213.607 435.456 213.474 435.719 213.4 436C213.374 436.102 213.374 436.208 213.4 436.31C213.52 435.948 213.703 435.609 213.94 435.31C214.206 435.009 214.553 434.79 214.94 434.68C215.167 434.603 215.408 434.574 215.646 434.592C215.885 434.611 216.118 434.679 216.33 434.79C216.51 434.93 216.44 435.14 216.23 435.26C216.022 435.376 215.8 435.467 215.57 435.53C215.179 435.662 214.778 435.762 214.37 435.83C213.64 436 213.2 436 213.2 436Z" fill="#263238"/>
<path d="M213.5 436.09C213.647 435.847 213.697 435.558 213.64 435.28C213.611 434.976 213.508 434.685 213.34 434.43C213.241 434.25 213.096 434.099 212.921 433.992C212.746 433.885 212.545 433.826 212.34 433.82C212.221 433.847 212.117 433.917 212.049 434.017C211.98 434.117 211.952 434.24 211.97 434.36C211.996 434.545 212.061 434.722 212.16 434.88C212.309 435.138 212.491 435.377 212.7 435.59C212.879 435.8 213.105 435.965 213.36 436.07C213.36 436.07 213.13 435.86 212.82 435.48C212.634 435.266 212.473 435.031 212.34 434.78C212.18 434.53 212.08 434.09 212.34 434.04C212.6 433.99 212.93 434.31 213.1 434.54C213.26 434.768 213.369 435.027 213.42 435.3C213.468 435.561 213.495 435.825 213.5 436.09V436.09Z" fill="#263238"/>
<path d="M193.94 434.62C193.94 434.62 194.45 434.62 195.27 434.68C196.335 434.811 197.341 435.241 198.171 435.921C199.001 436.601 199.622 437.502 199.96 438.52C200.23 439.3 200.25 439.82 200.29 439.82C200.31 439.698 200.31 439.573 200.29 439.45C200.27 439.111 200.209 438.775 200.11 438.45C199.8 437.383 199.173 436.434 198.312 435.731C197.452 435.027 196.398 434.602 195.29 434.51C194.957 434.479 194.623 434.479 194.29 434.51C194.167 434.525 194.049 434.562 193.94 434.62V434.62Z" fill="#263238"/>
<path d="M195.91 427.12C195.764 428.351 195.694 429.59 195.7 430.83C195.627 432.069 195.627 433.311 195.7 434.55C195.839 433.315 195.906 432.073 195.9 430.83C195.973 429.595 195.976 428.356 195.91 427.12V427.12Z" fill="#263238"/>
<path d="M202.61 438.19C203.475 438.395 204.362 438.493 205.25 438.48C206.138 438.541 207.029 438.48 207.9 438.3C207.9 438.24 206.71 438.3 205.26 438.3C203.81 438.3 202.62 438.12 202.61 438.19Z" fill="#263238"/>
<path d="M199.07 438.14C199.02 438.14 199.16 438.39 199.28 438.66C199.4 438.93 199.46 439.17 199.52 439.17C199.58 439.17 199.62 438.89 199.52 438.57C199.42 438.25 199.11 438.09 199.07 438.14Z" fill="#263238"/>
<path d="M197.75 436.46C197.75 436.46 197.82 436.69 198.01 436.88C198.2 437.07 198.38 437.19 198.42 437.15C198.46 437.11 198.35 436.92 198.17 436.73C197.99 436.54 197.8 436.41 197.75 436.46Z" fill="#263238"/>
<path d="M195.85 435.67C195.85 435.73 196.1 435.73 196.37 435.83C196.64 435.93 196.82 436.07 196.87 436.03C196.92 435.99 196.77 435.74 196.44 435.62C196.11 435.5 195.83 435.62 195.85 435.67Z" fill="#263238"/>
<path d="M194.49 435.3C194.49 435.35 194.57 435.45 194.72 435.51C194.87 435.57 195.01 435.57 195.03 435.51C195.05 435.45 194.95 435.36 194.81 435.3C194.67 435.24 194.52 435.24 194.49 435.3Z" fill="#263238"/>
<path d="M224.23 250.76L217.29 432.07L189.11 432.66L193.79 275.57L162.11 433.86H135.32L169.83 251.13L224.23 250.76Z" fill="#263238"/>
<path d="M200.28 257.36C200.258 258.367 200.151 259.371 199.96 260.36C199.7 262.19 199.3 264.73 198.83 267.51C198.65 268.839 198.382 270.156 198.03 271.45C197.71 272.538 197.069 273.504 196.19 274.22C195.599 274.699 194.892 275.013 194.14 275.13C193.871 275.199 193.589 275.199 193.32 275.13C194.29 274.988 195.203 274.584 195.96 273.96C196.747 273.256 197.313 272.339 197.59 271.32C197.912 270.042 198.163 268.746 198.34 267.44C198.81 264.65 199.26 262.13 199.61 260.31C199.755 259.311 199.979 258.324 200.28 257.36V257.36Z" fill="#455A64"/>
<path d="M194.42 258.23C194.48 258.23 194.25 258.57 194.42 259.04C194.454 259.168 194.513 259.287 194.594 259.392C194.675 259.497 194.775 259.584 194.89 259.65C195.034 259.701 195.19 259.712 195.34 259.682C195.49 259.652 195.629 259.583 195.742 259.48C195.856 259.378 195.94 259.247 195.985 259.101C196.031 258.954 196.036 258.799 196 258.65C195.953 258.527 195.881 258.415 195.788 258.322C195.695 258.229 195.583 258.157 195.46 258.11C195 257.91 194.68 258.11 194.65 258.04C194.62 257.97 194.91 257.63 195.57 257.77C195.759 257.816 195.935 257.905 196.084 258.03C196.233 258.155 196.351 258.312 196.43 258.49C196.513 258.727 196.521 258.984 196.453 259.225C196.385 259.467 196.244 259.681 196.05 259.84C195.869 260.012 195.639 260.123 195.392 260.159C195.145 260.195 194.893 260.153 194.67 260.04C194.503 259.939 194.362 259.8 194.258 259.636C194.154 259.471 194.09 259.284 194.07 259.09C194 258.43 194.4 258.17 194.42 258.23Z" fill="#455A64"/>
<path d="M179.29 260.82C178.96 260.007 178.836 259.125 178.931 258.252C179.025 257.38 179.334 256.544 179.83 255.82C179.96 255.88 179.55 256.95 179.42 258.32C179.29 259.69 179.43 260.78 179.29 260.82Z" fill="#455A64"/>
<path d="M182.68 260.6C182.267 259.779 182.123 258.848 182.27 257.94C182.257 257.017 182.529 256.112 183.05 255.35C183.18 255.35 182.86 256.54 182.77 257.97C182.786 258.848 182.756 259.726 182.68 260.6V260.6Z" fill="#455A64"/>
<path d="M211.8 261.34C211.773 260.431 211.827 259.52 211.96 258.62C211.926 257.708 211.966 256.795 212.08 255.89C212.456 256.755 212.584 257.707 212.45 258.64C212.484 259.583 212.259 260.516 211.8 261.34V261.34Z" fill="#455A64"/>
<path d="M215.48 261.14C215.34 261.08 215.78 259.89 215.88 258.37C215.98 256.85 215.72 255.62 215.88 255.58C216.282 256.466 216.457 257.438 216.391 258.408C216.324 259.378 216.018 260.317 215.5 261.14H215.48Z" fill="#455A64"/>
<path d="M185 175.33L202.4 173.94C202.51 171.94 202.4 164.06 202.4 164.06C202.4 164.06 209.64 162.93 209.73 155.7C209.82 148.47 208.56 131.85 208.56 131.85C204.44 130.065 199.917 129.416 195.461 129.97C191.005 130.524 186.778 132.261 183.22 135L182.15 135.83L185 175.33Z" fill="#FFBE9D"/>
<path d="M202.34 164C199 164.068 195.716 163.134 192.91 161.32C192.91 161.32 195.14 166.53 202.36 165.88L202.34 164Z" fill="#EB996E"/>
<path d="M205.67 143.19C205.67 143.455 205.565 143.71 205.377 143.897C205.19 144.085 204.935 144.19 204.67 144.19C204.539 144.2 204.407 144.183 204.282 144.142C204.157 144.1 204.041 144.034 203.942 143.948C203.842 143.861 203.761 143.756 203.702 143.638C203.644 143.52 203.609 143.392 203.6 143.26C203.6 142.995 203.705 142.741 203.893 142.553C204.081 142.366 204.335 142.26 204.6 142.26C204.731 142.251 204.863 142.267 204.988 142.309C205.113 142.35 205.229 142.416 205.328 142.503C205.428 142.589 205.509 142.694 205.568 142.812C205.626 142.93 205.661 143.059 205.67 143.19Z" fill="#263238"/>
<path d="M207.12 142C206.99 142.13 206.21 141.55 205.12 141.55C204.03 141.55 203.19 142.11 203.07 141.98C202.95 141.85 203.14 141.67 203.5 141.41C203.984 141.082 204.556 140.908 205.14 140.91C205.718 140.908 206.282 141.09 206.75 141.43C207.07 141.72 207.18 142 207.12 142Z" fill="#263238"/>
<path d="M194.44 143.45C194.44 143.715 194.335 143.97 194.147 144.157C193.96 144.345 193.705 144.45 193.44 144.45C193.309 144.46 193.177 144.443 193.052 144.402C192.927 144.36 192.811 144.294 192.712 144.208C192.612 144.121 192.531 144.016 192.472 143.898C192.414 143.78 192.379 143.652 192.37 143.52C192.37 143.255 192.475 143.001 192.663 142.813C192.851 142.626 193.105 142.52 193.37 142.52C193.502 142.511 193.634 142.527 193.758 142.569C193.883 142.61 193.999 142.676 194.098 142.763C194.198 142.849 194.279 142.954 194.338 143.072C194.396 143.19 194.431 143.319 194.44 143.45Z" fill="#263238"/>
<path d="M196.19 142.23C196.06 142.37 195.28 141.79 194.19 141.79C193.1 141.79 192.26 142.35 192.14 142.21C192.02 142.07 192.21 141.91 192.57 141.65C193.05 141.313 193.624 141.138 194.21 141.15C194.788 141.148 195.352 141.33 195.82 141.67C196.14 141.93 196.26 142.17 196.19 142.23Z" fill="#263238"/>
<path d="M200.23 150.48C200.815 150.299 201.419 150.188 202.03 150.15C202.32 150.15 202.59 150.07 202.63 149.87C202.656 149.577 202.589 149.284 202.44 149.03C202.18 148.364 201.9 147.644 201.6 146.87C200.823 145.04 200.194 143.151 199.72 141.22C200.644 142.986 201.426 144.821 202.06 146.71C202.34 147.46 202.6 148.19 202.86 148.88C203.037 149.225 203.086 149.622 203 150C202.959 150.101 202.895 150.192 202.813 150.264C202.732 150.337 202.635 150.39 202.53 150.42C202.374 150.465 202.212 150.489 202.05 150.49C201.445 150.562 200.834 150.559 200.23 150.48Z" fill="#263238"/>
<path d="M197 151.25C197.18 151.25 197.18 152.44 198.21 153.3C199.24 154.16 200.53 154.03 200.54 154.19C200.55 154.35 200.25 154.43 199.71 154.44C199.005 154.452 198.318 154.214 197.77 153.77C197.227 153.343 196.869 152.724 196.77 152.04C196.74 151.54 196.87 151.24 197 151.25Z" fill="#263238"/>
<path d="M196.48 137.88C196.37 138.18 195.26 138.03 193.96 138.19C192.66 138.35 191.6 138.71 191.42 138.43C191.35 138.3 191.53 138.02 191.95 137.73C192.518 137.37 193.162 137.144 193.83 137.069C194.499 136.995 195.176 137.074 195.81 137.3C196.29 137.49 196.53 137.73 196.48 137.88Z" fill="#263238"/>
<path d="M206.71 138.81C206.52 139.06 205.71 138.81 204.83 138.81C203.95 138.81 203.13 138.98 202.95 138.71C202.77 138.44 202.95 138.33 203.34 138.09C203.794 137.795 204.33 137.652 204.87 137.68C205.409 137.691 205.932 137.866 206.37 138.18C206.69 138.42 206.8 138.68 206.71 138.81Z" fill="#263238"/>
<path d="M183 143.34C182.88 143.29 178 141.87 178.19 146.82C178.38 151.77 183.28 150.59 183.29 150.45C183.3 150.31 183 143.34 183 143.34Z" fill="#FFBE9D"/>
<path d="M181.75 148.62C181.75 148.62 181.67 148.68 181.53 148.75C181.322 148.835 181.088 148.835 180.88 148.75C180.563 148.552 180.304 148.274 180.128 147.944C179.953 147.614 179.867 147.244 179.88 146.87C179.851 146.444 179.919 146.016 180.08 145.62C180.121 145.465 180.199 145.323 180.307 145.205C180.415 145.086 180.55 144.996 180.7 144.94C180.799 144.912 180.904 144.918 180.999 144.958C181.093 144.998 181.171 145.07 181.22 145.16C181.29 145.3 181.22 145.4 181.29 145.41C181.36 145.42 181.39 145.32 181.35 145.12C181.315 144.997 181.242 144.888 181.14 144.81C180.999 144.716 180.828 144.676 180.66 144.7C180.458 144.747 180.272 144.845 180.12 144.986C179.967 145.126 179.854 145.303 179.79 145.5C179.588 145.934 179.499 146.412 179.53 146.89C179.519 147.331 179.639 147.766 179.876 148.138C180.113 148.51 180.456 148.803 180.86 148.98C180.993 149.015 181.132 149.02 181.267 148.994C181.402 148.968 181.529 148.912 181.64 148.83C181.75 148.74 181.77 148.63 181.75 148.62Z" fill="#EB996E"/>
<path d="M211.26 125.6C210.733 124.558 209.974 123.65 209.042 122.947C208.109 122.243 207.028 121.762 205.882 121.541C204.735 121.32 203.553 121.365 202.426 121.671C201.299 121.978 200.257 122.539 199.38 123.31C198.831 122.215 198.021 121.271 197.022 120.561C196.023 119.852 194.865 119.398 193.65 119.24C192.435 119.082 191.199 119.225 190.052 119.655C188.905 120.086 187.881 120.792 187.07 121.71C185.68 123.29 184.96 125.42 183.34 126.71C181.93 127.86 180.03 128.24 178.61 129.37C177.826 129.998 177.231 130.831 176.889 131.776C176.548 132.721 176.474 133.742 176.676 134.726C176.878 135.71 177.347 136.62 178.032 137.354C178.717 138.089 179.592 138.621 180.56 138.89C180.204 139.602 179.997 140.378 179.95 141.172C179.904 141.966 180.019 142.762 180.289 143.51C180.56 144.258 180.979 144.943 181.522 145.525C182.066 146.106 182.722 146.57 183.45 146.89L184.17 146.59C185.517 145.058 186.378 143.16 186.645 141.138C186.913 139.115 186.573 137.059 185.67 135.23C185.757 135.235 185.843 135.235 185.93 135.23C187.174 135.924 188.632 136.133 190.02 135.815C191.409 135.497 192.631 134.676 193.45 133.51C194.452 134.212 195.635 134.612 196.858 134.664C198.08 134.715 199.292 134.415 200.35 133.8C200.646 133.575 200.987 133.414 201.35 133.33C201.808 133.337 202.255 133.473 202.64 133.72C203.713 134.3 204.936 134.544 206.15 134.42C206.709 134.352 207.242 134.143 207.7 133.815C208.158 133.486 208.526 133.048 208.77 132.54H208.86C209.552 132.382 210.187 132.038 210.696 131.544C211.206 131.05 211.57 130.426 211.75 129.74C212.11 128.347 211.935 126.87 211.26 125.6V125.6Z" fill="#263238"/>
<path d="M222.24 212.44L222.88 179.84C217.09 174.15 214 172.45 205.94 171.5L203.75 171.25L203.06 165.88L183.3 164.76L184.3 171.14C181.44 171.26 179.06 172.14 176.63 172.61C168.95 174.08 163.42 179.67 161.89 184.84C160.62 189.09 152.51 220.6 152.51 220.6L150.86 230.11L169 223.53V230.38V255.54H224C224.19 249.54 222.24 212.44 222.24 212.44Z" fill="#0CA062"/>
<g opacity="0.2">
<path opacity="0.2" d="M222.24 212.44L222.88 179.84C217.09 174.15 214 172.45 205.94 171.5L203.75 171.25L203.06 165.88L183.3 164.76L184.3 171.14C181.44 171.26 179.06 172.14 176.63 172.61C168.95 174.08 163.42 179.67 161.89 184.84C160.62 189.09 152.51 220.6 152.51 220.6L150.86 230.11L169 223.53V230.38V255.54H224C224.19 249.54 222.24 212.44 222.24 212.44Z" fill="black"/>
</g>
<path d="M159.12 221.05L186.25 217.2L191.41 226.44L166.19 237.81C164.784 238.455 163.257 238.796 161.71 238.81V238.81C159.545 238.805 157.43 238.154 155.636 236.941C153.843 235.728 152.451 234.008 151.64 232L150.82 230L159.12 221.05Z" fill="#0CA062"/>
<g opacity="0.2">
<path opacity="0.2" d="M159.12 221.05L186.25 217.2L191.41 226.44L166.19 237.81C164.784 238.455 163.257 238.796 161.71 238.81V238.81C159.545 238.805 157.43 238.154 155.636 236.941C153.843 235.728 152.451 234.008 151.64 232L150.82 230L159.12 221.05Z" fill="black"/>
</g>
<path d="M214.56 173.49C214.56 173.49 222.23 176.1 225.45 183.49C227.55 188.31 230.64 211.49 230.64 211.49L234.53 219C235.466 220.801 235.953 222.801 235.95 224.83V225.98C235.953 228.894 234.95 231.72 233.11 233.98C232.043 235.293 230.723 236.378 229.228 237.172C227.734 237.965 226.096 238.451 224.41 238.6C220.52 238.95 215.82 239.1 214.82 237.96C213.05 235.96 210.39 230.49 210.39 230.49L221.72 224.49L216.84 215.49L214.56 173.49Z" fill="#0CA062"/>
<g opacity="0.2">
<path opacity="0.2" d="M214.56 173.49C214.56 173.49 222.23 176.1 225.45 183.49C227.55 188.31 230.64 211.49 230.64 211.49L234.53 219C235.466 220.801 235.953 222.801 235.95 224.83V225.98C235.953 228.894 234.95 231.72 233.11 233.98C232.043 235.293 230.723 236.378 229.228 237.172C227.734 237.965 226.096 238.451 224.41 238.6C220.52 238.95 215.82 239.1 214.82 237.96C213.05 235.96 210.39 230.49 210.39 230.49L221.72 224.49L216.84 215.49L214.56 173.49Z" fill="black"/>
</g>
<path d="M168.08 237C168.08 237 168.22 236.9 168.52 236.75L169.82 236.12L174.69 233.84L191.31 226.25L191.2 226.6L188.02 220.9L186.02 217.36L186.26 217.48L166.38 219.43L160.48 219.96L158.88 220.08C158.695 220.109 158.506 220.109 158.32 220.08C158.5 220.031 158.684 219.997 158.87 219.98L160.46 219.78L166.35 219.1L186.23 217H186.39L186.47 217.14L188.47 220.68L191.64 226.38L191.77 226.61L191.53 226.72L174.84 234.15L169.91 236.29L168.57 236.85C168.412 236.915 168.248 236.965 168.08 237Z" fill="#263238"/>
<path d="M172.9 218.37C172.76 218.37 172.65 213.52 172.65 207.54C172.65 201.56 172.76 196.71 172.9 196.71C173.04 196.71 173.15 201.56 173.15 207.54C173.15 213.52 173 218.37 172.9 218.37Z" fill="#263238"/>
<path d="M219.6 225.62C219.6 225.62 219.89 225.53 220.42 225.49C221.186 225.419 221.957 225.462 222.71 225.62C223.26 225.738 223.76 226.024 224.14 226.44C224.536 226.938 224.795 227.531 224.89 228.16C225.013 228.854 224.951 229.568 224.71 230.23C224.436 230.939 223.96 231.551 223.34 231.99C222.14 232.723 220.802 233.199 219.41 233.39C218.299 233.605 217.171 233.716 216.04 233.72C214.995 233.81 213.944 233.627 212.99 233.19C213.999 233.345 215.02 233.406 216.04 233.37C217.143 233.318 218.24 233.174 219.32 232.94C220.64 232.74 221.908 232.281 223.05 231.59C223.572 231.217 223.978 230.706 224.224 230.114C224.47 229.522 224.545 228.873 224.44 228.24C224.368 227.684 224.158 227.155 223.83 226.7C223.508 226.34 223.087 226.082 222.62 225.96C221.9 225.78 221.162 225.686 220.42 225.68C220.145 225.692 219.87 225.672 219.6 225.62V225.62Z" fill="#263238"/>
<path d="M224.1 238.73C223.452 238.926 222.775 239.004 222.1 238.96C220.501 239.011 218.908 238.749 217.41 238.19C216.582 237.877 215.798 237.457 215.08 236.94C214.496 236.502 214.007 235.951 213.64 235.32C213.266 234.766 213.026 234.133 212.94 233.47C213.02 233.47 213.28 234.15 213.94 235.13C214.325 235.693 214.806 236.183 215.36 236.58C216.059 237.047 216.811 237.43 217.6 237.72C219.045 238.258 220.568 238.559 222.11 238.61C222.775 238.603 223.44 238.643 224.1 238.73V238.73Z" fill="#263238"/>
<path d="M229.52 215.23C229.13 215.811 228.681 216.351 228.18 216.84C227.31 217.79 226.08 219.09 224.7 220.5C223.32 221.91 222.06 223.18 221.12 224.07C220.65 224.591 220.119 225.054 219.54 225.45C219.916 224.858 220.363 224.314 220.87 223.83C221.74 222.83 222.97 221.57 224.34 220.16C225.938 218.386 227.67 216.738 229.52 215.23V215.23Z" fill="#263238"/>
<path d="M217.16 210.17C216.91 208.117 216.826 206.047 216.91 203.98C216.826 201.91 216.91 199.837 217.16 197.78C217.41 199.837 217.494 201.91 217.41 203.98C217.494 206.047 217.411 208.117 217.16 210.17V210.17Z" fill="#263238"/>
<path d="M221.2 177.69C221.2 177.83 208.99 177.95 193.93 177.95C178.87 177.95 166.66 177.83 166.66 177.69C166.66 177.55 178.87 177.43 193.93 177.43C208.99 177.43 221.2 177.54 221.2 177.69Z" fill="#FAFAFA"/>
<path d="M203.21 171.44C200.08 171.682 196.938 171.752 193.8 171.65C190.663 171.722 187.525 171.615 184.4 171.33C187.528 171.094 190.665 171.028 193.8 171.13C196.94 171.064 200.081 171.167 203.21 171.44V171.44Z" fill="#263238"/>
<path d="M227.13 188.71C227.13 188.85 212.31 188.97 194.02 188.97C175.73 188.97 160.9 188.85 160.9 188.71C160.9 188.57 175.73 188.44 194.02 188.44C212.31 188.44 227.13 188.56 227.13 188.71Z" fill="#FAFAFA"/>
<path d="M229.18 200C229.18 200.15 213.18 200.26 193.39 200.26C173.6 200.26 157.6 200.15 157.6 200C157.6 199.85 173.6 199.74 193.39 199.74C213.18 199.74 229.18 199.89 229.18 200Z" fill="#FAFAFA"/>
<path d="M230.46 211.05C230.46 211.19 213.55 211.31 192.69 211.31C171.83 211.31 154.92 211.19 154.92 211.05C154.92 210.91 171.83 210.79 192.69 210.79C213.55 210.79 230.46 210.9 230.46 211.05Z" fill="#FAFAFA"/>
<path d="M235.57 229C235.57 229.14 216.78 229.26 193.57 229.26C170.36 229.26 151.57 229.14 151.57 229C151.57 228.86 170.36 228.74 193.57 228.74C216.78 228.74 235.57 228.84 235.57 229Z" fill="#FAFAFA"/>
<path d="M223.52 241.57C223.52 241.71 211.12 241.83 195.83 241.83C180.54 241.83 168.14 241.71 168.14 241.57C168.14 241.43 180.53 241.31 195.83 241.31C211.13 241.31 223.52 241.42 223.52 241.57Z" fill="#FAFAFA"/>
<path d="M210.7 212.76L210.11 212.32C208.6 211.187 206.87 210.381 205.031 209.956C203.192 209.53 201.284 209.494 199.43 209.85V209.85C196.378 210.435 193.52 211.776 191.12 213.75L186.47 217.58L191.41 226.44L194.78 221.73C194.78 221.73 197.92 225.99 198.48 225.54C198.978 225.009 199.393 224.405 199.71 223.75L197.47 220.61L202.85 221.73L210.7 218.14L207.33 213.88L210.7 215V212.76Z" fill="#FFBE9D"/>
<path d="M202.41 211.95L185.14 232.86L186.47 234.29L214.49 230.02L228.39 209.11L227.1 207.95L202.41 211.95Z" fill="#263238"/>
<path d="M220.73 217.47C220.192 217.468 219.666 217.63 219.221 217.933C218.776 218.237 218.434 218.668 218.24 219.17C217.937 220.214 217.348 221.153 216.54 221.88C215.29 222.56 213.14 223.1 212.01 222.55C210.88 222 206.35 217.92 205.56 218.37C204.77 218.82 204.09 219.84 204.88 220.75C205.67 221.66 209.88 224.37 209.07 225.28C208.26 226.19 199.44 222.2 198.07 222.55C196.7 222.9 195.92 223.73 196.71 224.28C197.5 224.83 203.5 227.09 203.84 227.88C203.84 227.88 194.78 225.5 194.44 226.07C194.1 226.64 193.54 227.54 194.44 227.88C195.34 228.22 203.16 230.26 203.84 230.6C204.963 231.061 206.133 231.396 207.33 231.6C208.566 231.921 209.784 232.305 210.98 232.75C212.812 233.391 214.815 233.338 216.61 232.6L217.53 232.23C218.226 231.945 218.815 231.45 219.215 230.813C219.615 230.176 219.806 229.43 219.76 228.68L219.58 225.6L220.58 223.05L220.73 217.47Z" fill="#FFBE9D"/>
<path d="M228.44 209.3C228.273 209.365 228.098 209.408 227.92 209.43L226.42 209.69L220.9 210.58L212.7 211.83L207.86 212.56C206.151 212.748 204.528 213.405 203.17 214.46C201.925 215.671 200.784 216.986 199.76 218.39C198.69 219.71 197.67 220.99 196.69 222.21L191.48 228.66L187.93 233L186.93 234.16C186.822 234.3 186.697 234.428 186.56 234.54C186.56 234.54 186.64 234.38 186.85 234.1L187.76 232.88L191.18 228.46L196.31 221.93L199.31 218.09C200.354 216.66 201.518 215.322 202.79 214.09C204.217 212.98 205.923 212.288 207.72 212.09L212.57 211.39L220.79 210.24L226.34 209.51L227.85 209.34C228.043 209.294 228.243 209.28 228.44 209.3V209.3Z" fill="#455A64"/>
<path d="M215.33 213.88C215.03 214.036 214.765 214.25 214.55 214.51C214.452 214.647 214.4 214.812 214.4 214.98C214.4 215.149 214.452 215.313 214.55 215.45C214.71 215.591 214.917 215.668 215.13 215.668C215.343 215.668 215.549 215.591 215.71 215.45C215.936 215.29 216.093 215.051 216.15 214.78C216.179 214.646 216.173 214.506 216.133 214.375C216.093 214.244 216.019 214.125 215.92 214.03C215.811 213.946 215.678 213.9 215.54 213.9C215.402 213.9 215.269 213.946 215.16 214.03" fill="#FAFAFA"/>
<path d="M133.53 166.86L128.45 157.86C131.592 152.758 132.712 146.665 131.589 140.779C130.466 134.893 127.183 129.64 122.383 126.053C117.584 122.465 111.616 120.803 105.653 121.392C99.6905 121.981 94.1637 124.78 90.1596 129.238C86.1554 133.695 83.9635 139.489 84.0148 145.481C84.0661 151.473 86.3568 157.229 90.4366 161.617C94.5165 166.005 100.09 168.709 106.062 169.196C112.035 169.683 117.973 167.919 122.71 164.25V164.25L133.53 166.86Z" fill="#0CA062"/>
<path d="M99.7301 142.46C99.7301 140.3 101.03 138.93 102.88 138.93C104.73 138.93 106.01 140.28 106.01 142.46C106.01 144.64 104.72 146 102.88 146C101.04 146 99.7301 144.63 99.7301 142.46ZM104.2 142.46C104.2 141.09 103.67 140.46 102.88 140.46C102.09 140.46 101.56 141.14 101.56 142.46C101.56 143.78 102.1 144.46 102.88 144.46C103.66 144.46 104.2 143.84 104.2 142.46ZM110.42 139.07H112.57L103.93 151.9H101.78L110.42 139.07ZM108.34 148.51C108.34 146.35 109.64 144.97 111.47 144.97C113.3 144.97 114.61 146.35 114.61 148.51C114.61 150.67 113.31 152.05 111.47 152.05C109.63 152.05 108.34 150.67 108.34 148.51V148.51ZM112.79 148.51C112.79 147.15 112.26 146.51 111.47 146.51C110.68 146.51 110.15 147.17 110.15 148.51C110.15 149.85 110.69 150.51 111.47 150.51C112.25 150.51 112.79 149.87 112.79 148.51V148.51Z" fill="white"/>
</svg>
