<svg width="500" height="373" viewBox="0 0 500 373" fill="none" xmlns="http://www.w3.org/2000/svg">
<path d="M500 327.4H0V327.65H500V327.4Z" fill="#EBEBEB"/>
<path d="M449.9 343.49H429.83V343.74H449.9V343.49Z" fill="#EBEBEB"/>
<path d="M389.5 339.99H357.48V340.24H389.5V339.99Z" fill="#EBEBEB"/>
<path d="M311.17 334.21H274.19V334.46H311.17V334.21Z" fill="#EBEBEB"/>
<path d="M118.65 341.57H75.46V341.82H118.65V341.57Z" fill="#EBEBEB"/>
<path d="M66.5502 341.57H60.2202V341.82H66.5502V341.57Z" fill="#EBEBEB"/>
<path d="M169.23 334.08H131.75V334.33H169.23V334.08Z" fill="#EBEBEB"/>
<path d="M237 282.8H43.91C42.3973 282.797 40.9475 282.195 39.8788 281.124C38.8102 280.054 38.21 278.603 38.21 277.09V5.66C38.2231 4.15603 38.8292 2.71798 39.8964 1.65822C40.9637 0.598458 42.4059 0.00257639 43.91 0H237C238.514 0 239.967 0.601588 241.038 1.67242C242.108 2.74325 242.71 4.19561 242.71 5.71V277.09C242.71 278.604 242.108 280.057 241.038 281.128C239.967 282.198 238.514 282.8 237 282.8V282.8ZM43.91 0.200001C42.4636 0.20265 41.0774 0.779065 40.0556 1.80273C39.0338 2.82639 38.46 4.21365 38.46 5.66V277.09C38.46 278.536 39.0338 279.924 40.0556 280.947C41.0774 281.971 42.4636 282.547 43.91 282.55H237C238.447 282.547 239.834 281.971 240.858 280.948C241.881 279.924 242.457 278.537 242.46 277.09V5.66C242.457 4.21273 241.881 2.82549 240.858 1.80212C239.834 0.77874 238.447 0.202644 237 0.200001H43.91Z" fill="#EBEBEB"/>
<path d="M453.31 282.8H260.21C258.696 282.797 257.246 282.195 256.175 281.125C255.105 280.054 254.503 278.604 254.5 277.09V5.66C254.516 4.15511 255.124 2.71708 256.193 1.65759C257.262 0.598109 258.705 0.00254829 260.21 0H453.31C454.812 0.0052045 456.252 0.602249 457.317 1.66173C458.382 2.72121 458.987 4.15775 459 5.66V277.09C459 278.601 458.401 280.05 457.335 281.121C456.268 282.191 454.821 282.795 453.31 282.8V282.8ZM260.21 0.200001C258.763 0.202644 257.375 0.77874 256.352 1.80212C255.329 2.82549 254.753 4.21273 254.75 5.66V277.09C254.753 278.537 255.329 279.924 256.352 280.948C257.375 281.971 258.763 282.547 260.21 282.55H453.31C454.757 282.547 456.145 281.971 457.168 280.948C458.191 279.924 458.767 278.537 458.77 277.09V5.66C458.767 4.21273 458.191 2.82549 457.168 1.80212C456.145 0.77874 454.757 0.202644 453.31 0.200001H260.21Z" fill="#EBEBEB"/>
<path d="M430.23 275.7C407.81 278.7 405.45 311.2 381.41 284.38C364.79 265.85 351.53 284.45 344.97 327.38H464.1C464 307.13 451.24 272.92 430.23 275.7Z" fill="#EBEBEB"/>
<path d="M272.47 252.87C206.47 257.15 199.47 304.05 128.67 265.38C79.7198 238.66 40.6698 265.48 21.3398 327.38H372.24C372 298.18 334.36 248.85 272.47 252.87Z" fill="#EBEBEB"/>
<path d="M182.38 293.42C233.74 299.63 285.54 291.49 325.1 281.88C364.66 272.27 392.78 299.16 408.1 327.4H50.4302C62.2102 313.26 104.43 284 182.38 293.42Z" fill="#F0F0F0"/>
<path d="M343.2 308.06C283.83 310.51 271.2 311.47 225.59 306C179.98 300.53 144.11 311.33 126.43 327.4H447.22C433.65 319.35 392.91 306 343.2 308.06Z" fill="#FAFAFA"/>
<path d="M81.1476 175.247C92.3147 174.46 100.73 164.77 99.9429 153.603C99.1562 142.436 89.4656 134.021 78.2985 134.808C67.1314 135.594 58.7164 145.285 59.5032 156.452C60.2899 167.619 69.9805 176.034 81.1476 175.247Z" fill="#F0F0F0"/>
<path d="M445.84 75.49H342C342 75.49 343.5 67.2699 362.71 67.7399C358.89 55.7399 369.64 42.6399 393.9 42.1299C418.16 41.6199 409.63 61.1299 409.63 61.1299C409.63 61.1299 450.39 54.1299 438.05 68.6499C458.28 69.3799 462.28 72 445.84 75.49Z" fill="#F0F0F0"/>
<path d="M92.38 170.64C88.99 153.74 117.86 135.24 171.01 134.53C224.16 133.82 197.5 161.36 197.5 161.36C197.5 161.36 289.35 151.42 256.44 171.97C300.24 172.97 307.89 176.61 270.55 181.58H44C44 181.58 50.65 170 92.38 170.64Z" fill="#FAFAFA"/>
<path d="M181.32 75.22H73.7599C73.7599 75.22 49.7599 61.44 78.2099 59.67C73.3199 47.89 85.3299 27.91 127.32 27.44C169.31 26.97 147.54 54.55 147.54 54.55C147.54 54.55 211.54 36.11 189.1 65.44C198.87 65.44 233.76 75.22 181.32 75.22Z" fill="#F5F5F5"/>
<path d="M396.34 206H348C348 206 337.21 199.81 350 199C347.81 193.7 353.2 184.73 372.07 184.52C390.94 184.31 381.16 196.7 381.16 196.7C381.16 196.7 409.92 188.41 399.83 201.59C404.23 201.62 419.9 206 396.34 206Z" fill="#F5F5F5"/>
<path d="M291.24 33.2501C291.24 33.2501 304.87 24.5101 314.36 36.9301C306.57 29.2101 291.76 36.9901 291.76 36.9901C291.76 36.9901 274.81 29.2901 269.16 37.0501C275.2 24.5801 291.24 33.2501 291.24 33.2501Z" fill="#F0F0F0"/>
<path d="M325.39 132.42C325.39 132.42 333.6 127.16 339.31 134.64C334.62 129.99 325.71 134.64 325.71 134.64C325.71 134.64 315.5 130.01 312.1 134.64C315.74 127.2 325.39 132.42 325.39 132.42Z" fill="#F0F0F0"/>
<path d="M175.87 10.52C175.87 10.52 179.98 7.89005 182.87 11.63C180.53 9.31005 176.07 11.63 176.07 11.63C176.07 11.63 170.97 9.31005 169.27 11.63C171.05 7.91005 175.87 10.52 175.87 10.52Z" fill="#F5F5F5"/>
<path d="M75.5802 100.31C75.5802 100.31 79.6802 97.68 82.5802 101.42C80.2302 99.09 75.7802 101.42 75.7802 101.42C75.7802 101.42 70.6702 99.11 68.9702 101.42C70.7502 97.7 75.5802 100.31 75.5802 100.31Z" fill="#F5F5F5"/>
<path d="M250 372.56C357.082 372.56 443.89 367.492 443.89 361.24C443.89 354.988 357.082 349.92 250 349.92C142.917 349.92 56.1099 354.988 56.1099 361.24C56.1099 367.492 142.917 372.56 250 372.56Z" fill="#F5F5F5"/>
<path d="M288.8 158C288.15 147.78 281.08 148.62 282.41 151.72C281.16 150.56 278.02 149.12 274.72 148.39C269.97 147.34 266.8 148.61 267.97 150.39C260.58 150.84 259.08 157.53 261.47 158.89C256.41 161.11 255.67 169.16 263.47 171.11C271.27 173.06 268.53 181.17 275.59 183.17C282.65 185.17 290.7 178.45 289.53 175.45C292.53 173.45 296.26 171.36 293.42 165.09C299.49 162.75 291.18 157.84 288.8 158Z" fill="#263238"/>
<path d="M271.26 353.73C270.26 353.82 269.26 353.73 268.85 353.33C268.756 353.215 268.699 353.073 268.688 352.925C268.678 352.776 268.713 352.628 268.79 352.5C268.844 352.382 268.921 352.277 269.018 352.191C269.114 352.105 269.227 352.04 269.35 352C270.66 351.51 273.61 352.86 273.74 352.92C273.778 352.933 273.811 352.957 273.834 352.989C273.857 353.022 273.87 353.06 273.87 353.1C273.87 353.14 273.857 353.179 273.834 353.211C273.811 353.243 273.778 353.267 273.74 353.28C272.928 353.499 272.098 353.649 271.26 353.73V353.73ZM269.85 352.28C269.724 352.289 269.599 352.316 269.48 352.36C269.405 352.382 269.336 352.421 269.277 352.473C269.219 352.524 269.172 352.588 269.14 352.66C269.02 352.91 269.08 353.02 269.14 353.08C269.56 353.57 271.59 353.4 273.07 353.08C272.059 352.608 270.965 352.336 269.85 352.28V352.28Z" fill="#1999B9"/>
<path d="M273.68 353.28C273.655 353.29 273.626 353.29 273.6 353.28C272.6 352.94 270.51 351.37 270.6 350.45C270.6 350.23 270.74 349.95 271.26 349.85C271.448 349.813 271.642 349.814 271.829 349.854C272.016 349.893 272.194 349.97 272.35 350.08C273.45 350.83 273.86 352.98 273.88 353.08C273.883 353.113 273.878 353.147 273.866 353.178C273.854 353.209 273.835 353.237 273.81 353.26C273.77 353.28 273.725 353.287 273.68 353.28ZM271.42 350.2H271.3C270.96 350.26 270.95 350.4 270.95 350.44C270.95 351 272.34 352.25 273.39 352.75C273.215 351.843 272.765 351.012 272.1 350.37C271.902 350.233 271.66 350.173 271.42 350.2V350.2Z" fill="#1999B9"/>
<path d="M283.4 356.63L275.36 357.35L272.87 338.8L280.91 338.07L283.4 356.63Z" fill="#B55B52"/>
<path d="M274.43 352.08L283.21 351.29C283.371 351.275 283.532 351.316 283.666 351.405C283.801 351.494 283.901 351.626 283.95 351.78L286.18 358.78C286.235 358.947 286.251 359.125 286.229 359.299C286.206 359.474 286.144 359.641 286.048 359.789C285.952 359.937 285.825 360.061 285.674 360.153C285.524 360.245 285.355 360.302 285.18 360.32C282.01 360.55 279.18 360.63 275.24 360.99C270.58 361.41 271.81 361.86 266.36 362.43C263.06 362.77 262.13 359.08 263.51 358.77C269.83 357.39 270.32 355.4 272.58 352.89C273.077 352.402 273.735 352.114 274.43 352.08V352.08Z" fill="#263238"/>
<path d="M256.67 206.31L255.67 206.21L254.82 206.1C254.27 206.04 253.74 205.93 253.2 205.84C252.13 205.65 251.09 205.41 250.06 205.16C248.03 204.646 246.027 204.029 244.06 203.31C240.123 201.875 236.333 200.067 232.74 197.91L231.4 197.08L230.74 196.67L230.37 196.44C230.144 196.289 229.927 196.125 229.72 195.95C229.53 195.79 229.36 195.63 229.23 195.5L228.86 195.1C228.516 194.695 228.208 194.26 227.94 193.8C227.71 193.41 227.54 193.08 227.38 192.75C227.09 192.11 226.87 191.52 226.67 190.96C225.994 188.921 225.482 186.831 225.14 184.71C224.446 180.747 224.085 176.733 224.06 172.71L230.01 171.56C231.5 175.08 232.83 178.71 234.24 182.12C234.58 182.97 234.94 183.81 235.31 184.61C235.68 185.41 236.02 186.19 236.38 186.85C236.57 187.17 236.75 187.47 236.9 187.68C236.951 187.755 237.011 187.822 237.08 187.88C237.08 187.88 237.13 187.88 237.02 187.74L236.9 187.6C236.834 187.523 236.76 187.453 236.68 187.39C236.565 187.29 236.445 187.197 236.32 187.11C236.08 186.96 236.23 187.05 236.26 187.11L236.87 187.4L238.07 187.98C241.278 189.477 244.586 190.75 247.97 191.79C249.65 192.32 251.35 192.79 253.03 193.19C253.88 193.39 254.72 193.57 255.55 193.74L256.78 193.98L257.78 194.15L256.67 206.31Z" fill="#B65B52"/>
<path d="M266.21 208.29C257.59 213.8 244.95 207.65 244.95 207.65C243.44 202.2 242.61 192.53 242.61 188.74C242.61 188.74 257.23 190.53 267.18 189.6C276.9 188.69 273.29 203.77 266.21 208.29Z" fill="#0CA062"/>
<path d="M230.05 176.33L232.36 170.1L223.55 168.22C223.55 168.22 221.93 173.17 225.26 176.85L230.05 176.33Z" fill="#B55B52"/>
<path d="M229.62 163.4L225.62 163.83C225.156 163.875 224.722 164.08 224.394 164.411C224.065 164.741 223.862 165.176 223.82 165.64L223.54 168.22L232.35 170.1L231.85 165.21C231.827 164.943 231.75 164.684 231.624 164.447C231.498 164.211 231.326 164.002 231.118 163.833C230.91 163.664 230.67 163.539 230.413 163.464C230.156 163.39 229.886 163.368 229.62 163.4Z" fill="#B55B52"/>
<path d="M251 200C250.55 207.64 251 223.33 256.6 252.14L299.6 248.25C299.33 242.15 294.2 224.25 296.13 196.81C296.208 195.813 296.083 194.811 295.764 193.863C295.445 192.915 294.938 192.042 294.273 191.295C293.608 190.548 292.799 189.943 291.895 189.516C290.991 189.089 290.01 188.849 289.01 188.81C286.89 188.74 284.54 188.72 282.24 188.81C276.134 189.011 270.044 189.562 264 190.46C261.67 190.89 259.41 191.46 257.47 192C255.692 192.492 254.112 193.527 252.952 194.962C251.791 196.396 251.109 198.158 251 200V200Z" fill="#0CA062"/>
<path opacity="0.1" d="M275.84 217.32C276.03 224.39 272.02 230.08 266.89 230.03C261.76 229.98 257.43 224.19 257.24 217.12C257.05 210.05 261.06 204.35 266.24 204.41C271.42 204.47 275.65 210.24 275.84 217.32Z" fill="black"/>
<path d="M277.34 175.09C277.34 180.75 278.26 187.25 281.76 189.78C276.936 193.895 271.548 197.299 265.76 199.89C259.55 195.5 262.42 191.89 262.42 191.89C267.85 188.89 267.47 184.78 265.77 180.35L273.86 173.23C275.18 171.86 277.34 173 277.34 175.09Z" fill="#B55B52"/>
<path opacity="0.2" d="M277.35 175.09C277.35 173.01 275.18 171.87 273.84 173.21L265.74 180.33C266.615 182.265 266.96 184.398 266.74 186.51C268.642 186.573 270.532 186.179 272.25 185.36C274.486 184.35 276.367 182.691 277.65 180.6C277.431 178.772 277.331 176.931 277.35 175.09V175.09Z" fill="black"/>
<path d="M285.59 167.83C282.78 175.38 281.52 179.94 276.35 182.68C268.56 186.8 259.91 180.33 260.35 172.09C260.75 164.66 265.29 153.57 273.93 152.85C275.819 152.654 277.726 152.943 279.472 153.687C281.219 154.432 282.747 155.609 283.913 157.107C285.08 158.606 285.845 160.376 286.139 162.252C286.432 164.128 286.243 166.047 285.59 167.83Z" fill="#B55B52"/>
<path d="M283.36 158.08C279.36 161.24 280.36 166.28 282.67 166.36C279.11 169.24 280.11 172.95 283.02 172.63C288 172.09 291.37 157.18 283.36 158.08Z" fill="#263238"/>
<path d="M285.58 158.65C281.69 160.18 278.66 158.51 278.5 156.38C275.61 157.82 263.72 156.17 266.44 154.45C268.5 150.78 278.71 148.8 285.58 158.65Z" fill="#263238"/>
<path d="M262.74 170.76L272.35 171.76C272.35 171.76 271.18 174.76 266.7 174.25C263 173.83 262.74 170.76 262.74 170.76Z" fill="white"/>
<path d="M273.36 164.49C273.02 165.12 272.41 165.44 272 165.22C271.59 165 271.54 164.31 271.88 163.69C272.22 163.07 272.82 162.74 273.23 162.96C273.64 163.18 273.7 163.87 273.36 164.49Z" fill="#263238"/>
<path d="M266 162.13C265.66 162.76 265.06 163.13 264.65 162.86C264.24 162.59 264.18 161.95 264.52 161.33C264.86 160.71 265.47 160.33 265.88 160.6C266.29 160.87 266.3 161.51 266 162.13Z" fill="#263238"/>
<path d="M276.94 163.23C276.866 163.204 276.8 163.159 276.749 163.1C276.698 163.04 276.664 162.967 276.65 162.89C276.591 162.374 276.411 161.88 276.124 161.447C275.837 161.014 275.452 160.655 275 160.4C274.899 160.352 274.821 160.267 274.782 160.163C274.743 160.058 274.746 159.942 274.79 159.84C274.812 159.789 274.843 159.744 274.883 159.706C274.923 159.668 274.97 159.639 275.022 159.62C275.073 159.602 275.128 159.594 275.183 159.597C275.238 159.6 275.291 159.615 275.34 159.64C275.927 159.949 276.431 160.394 276.808 160.939C277.186 161.484 277.427 162.112 277.51 162.77C277.519 162.824 277.516 162.879 277.503 162.932C277.49 162.985 277.466 163.035 277.434 163.079C277.401 163.122 277.36 163.159 277.313 163.187C277.266 163.215 277.214 163.233 277.16 163.24C277.087 163.258 277.011 163.254 276.94 163.23V163.23Z" fill="#263238"/>
<path d="M263.85 158.86C263.766 158.828 263.693 158.773 263.64 158.7C263.577 158.61 263.553 158.498 263.572 158.39C263.59 158.281 263.651 158.184 263.74 158.12C264.268 157.72 264.885 157.454 265.538 157.344C266.191 157.234 266.861 157.284 267.49 157.49C267.542 157.509 267.59 157.538 267.63 157.576C267.67 157.613 267.703 157.659 267.725 157.709C267.747 157.759 267.759 157.814 267.76 157.869C267.761 157.924 267.751 157.979 267.73 158.03C267.688 158.131 267.608 158.212 267.507 158.255C267.406 158.298 267.292 158.3 267.19 158.26V158.26C266.683 158.106 266.147 158.075 265.625 158.169C265.104 158.263 264.612 158.479 264.19 158.8C264.14 158.832 264.085 158.854 264.026 158.865C263.968 158.875 263.908 158.873 263.85 158.86V158.86Z" fill="#263238"/>
<path d="M267.55 163.12C266.113 164.504 264.491 165.682 262.73 166.62C262.982 167.066 263.328 167.451 263.744 167.748C264.16 168.046 264.637 168.248 265.14 168.34L267.55 163.12Z" fill="#A02724"/>
<path d="M286 175.23C285.492 175.881 284.857 176.421 284.133 176.818C283.409 177.216 282.612 177.461 281.79 177.54C279.79 177.73 279.18 175.03 280.31 173.1C281.31 171.36 283.41 169.7 285.31 170.01C287.21 170.32 287.68 173 286 175.23Z" fill="#B55B52"/>
<path opacity="0.2" d="M272.87 338.81L274.27 349.24L282.31 348.51L280.92 338.08L272.87 338.81Z" fill="black"/>
<path d="M256.63 252.11C255.473 266.935 255.831 281.838 257.7 296.59C260.92 322.02 270.32 344.72 270.32 344.72L283.71 341.21C283.71 341.21 280.59 322.13 278.93 297.02C277.12 269.64 284.93 249.55 284.93 249.55L256.63 252.11Z" fill="#263238"/>
<path opacity="0.3" d="M280.24 263C273.24 265.2 275.9 277.06 278.73 285C278.936 277.607 279.783 270.246 281.26 263H280.24Z" fill="black"/>
<path d="M327.73 336.83C327.01 337.58 326.22 338.21 325.65 338.13C325.504 338.102 325.369 338.031 325.264 337.926C325.159 337.821 325.088 337.686 325.06 337.54C324.991 337.288 325.023 337.019 325.15 336.79C325.82 335.57 328.93 334.64 329.06 334.6C329.098 334.591 329.138 334.593 329.175 334.605C329.212 334.617 329.245 334.64 329.27 334.67C329.292 334.703 329.303 334.741 329.303 334.78C329.303 334.819 329.292 334.857 329.27 334.89C328.817 335.582 328.301 336.232 327.73 336.83ZM325.73 336.67C325.644 336.76 325.57 336.861 325.51 336.97C325.468 337.038 325.44 337.114 325.428 337.193C325.416 337.272 325.42 337.353 325.44 337.43C325.52 337.69 325.64 337.74 325.72 337.75C326.36 337.84 327.78 336.37 328.67 335.14C327.593 335.453 326.588 335.973 325.71 336.67H325.73Z" fill="#1999B9"/>
<path d="M329.26 334.92H329.19C328.19 335.32 325.6 335.51 325.05 334.77C324.91 334.6 324.83 334.3 325.15 333.89C325.27 333.735 325.421 333.607 325.593 333.514C325.765 333.421 325.955 333.365 326.15 333.35C327.47 333.19 329.15 334.54 329.27 334.59C329.296 334.612 329.315 334.64 329.327 334.672C329.339 334.703 329.344 334.737 329.34 334.77C329.326 334.826 329.298 334.877 329.26 334.92V334.92ZM325.53 334.08L325.45 334.16C325.24 334.44 325.32 334.55 325.35 334.58C325.69 335.02 327.58 335.03 328.7 334.72C327.981 334.133 327.097 333.783 326.17 333.72C325.919 333.755 325.69 333.883 325.53 334.08V334.08Z" fill="#1999B9"/>
<path d="M338.75 330.84L333.36 336.86L318.89 324.98L324.28 318.96L338.75 330.84Z" fill="#B55B52"/>
<path d="M329 333.52L335.09 327.15C335.199 327.021 335.351 326.935 335.518 326.907C335.684 326.88 335.856 326.913 336 327L342.29 330.81C342.443 330.902 342.573 331.028 342.67 331.178C342.768 331.327 342.83 331.497 342.852 331.674C342.874 331.851 342.856 332.031 342.798 332.2C342.741 332.369 342.646 332.523 342.52 332.65C340.28 334.91 336.97 338.1 334.2 340.99C330.97 344.36 333.27 342.33 329.48 346.29C327.18 348.69 324.13 347.03 324.87 345.82C328.24 340.3 328.08 338.7 328.13 335.33C328.186 334.64 328.496 333.994 329 333.52V333.52Z" fill="#263238"/>
<path opacity="0.2" d="M318.9 324.98L327.03 331.66L332.42 325.64L324.29 318.96L318.9 324.98Z" fill="black"/>
<path d="M271.89 250.73C271.89 250.73 277.81 274.44 289.05 295.26C301.35 318.06 321.21 331.07 321.21 331.07L330.73 320.8C330.73 320.8 314.39 304.65 309.52 287.43C302.09 261.15 299.65 248.22 299.65 248.22L271.89 250.73Z" fill="#263238"/>
<path d="M316.23 328.71C316.23 328.76 322.63 333.38 322.63 333.38L332.78 321.54L329.22 317.9L316.23 328.71Z" fill="#0CA062"/>
<path d="M267.82 340.93C267.76 340.93 269.82 347.75 269.82 347.75L285.82 345.41L284.95 340.1L267.82 340.93Z" fill="#0CA062"/>
<path d="M299.85 198L300.69 200.82L301.61 203.72C302.23 205.64 302.9 207.54 303.61 209.38C304.32 211.22 305.08 213 305.9 214.63C306.605 216.074 307.467 217.435 308.47 218.69L308.62 218.86L308.68 218.93L308.58 218.86C308.481 218.796 308.377 218.739 308.27 218.69C308.084 218.592 307.89 218.512 307.69 218.45C307.096 218.275 306.47 218.241 305.86 218.35C305.374 218.435 304.913 218.626 304.51 218.91C304.03 219.29 304.14 219.36 304.23 219.26C304.422 219.067 304.587 218.848 304.72 218.61C305.601 217.013 306.334 215.34 306.91 213.61C308.27 209.84 309.42 205.7 310.63 201.69L316.63 202.36C316.805 206.871 316.55 211.388 315.87 215.85C315.516 218.296 314.889 220.694 314 223C313.699 223.748 313.331 224.468 312.9 225.15C312.262 226.204 311.415 227.117 310.41 227.83C309.509 228.454 308.476 228.861 307.392 229.019C306.308 229.177 305.201 229.082 304.16 228.74C303.706 228.594 303.267 228.403 302.85 228.17C302.502 227.988 302.168 227.781 301.85 227.55L301.44 227.23L301.2 227.03L300.76 226.65C298.769 224.811 297.061 222.688 295.69 220.35C294.454 218.309 293.354 216.187 292.4 214C291.45 211.87 290.63 209.72 289.89 207.56C289.53 206.48 289.18 205.4 288.89 204.3C288.6 203.2 288.29 202.15 288 200.91L299.85 198Z" fill="#B65B52"/>
<path d="M311 203.31L309.49 196.85L318.37 197.47C318.37 197.47 319.45 201.19 315.7 204.47L311 203.31Z" fill="#B55B52"/>
<path d="M313.58 191L316.91 192.22C317.392 192.398 317.805 192.724 318.089 193.152C318.373 193.58 318.513 194.087 318.49 194.6L318.33 197.46L309.45 196.84L310.39 192.73C310.467 192.396 310.614 192.081 310.822 191.808C311.03 191.535 311.293 191.309 311.595 191.145C311.897 190.982 312.23 190.884 312.572 190.859C312.914 190.834 313.258 190.882 313.58 191V191Z" fill="#B55B52"/>
<path d="M292.45 189.48C302.12 192.83 304.45 207.24 304.45 207.24C302.45 210.72 295.99 214.5 290.56 217.38C290.56 217.38 287.31 214.57 283.87 205.19C280.5 196 284.51 186.72 292.45 189.48Z" fill="#0CA062"/>
<path d="M149.49 237.65C142.27 195.02 139.49 141.52 139.49 141.52L177.84 152.32C177.84 152.32 174.47 212.26 172.84 241.27C171.19 271.43 169.46 340.19 169.46 340.19H151.22C151.22 340.19 145.49 274.94 149.49 237.65Z" fill="#263238"/>
<path opacity="0.3" d="M143.87 195.49C144.87 204.68 145.99 214.31 147.34 223.76C150.88 209.32 152.87 181.97 152.87 181.97L143.87 195.49Z" fill="black"/>
<path d="M152.76 352.21L151.2 360.72C151.165 360.927 151.175 361.139 151.231 361.341C151.287 361.543 151.387 361.731 151.523 361.89C151.66 362.05 151.83 362.177 152.021 362.263C152.212 362.35 152.42 362.393 152.63 362.39C155.33 362.39 156.63 361.96 161.32 361.89C166.84 361.8 171.45 362.49 177.92 362.39C178.635 362.453 179.348 362.247 179.918 361.81C180.488 361.374 180.874 360.74 180.999 360.033C181.125 359.326 180.981 358.598 180.596 357.992C180.211 357.386 179.613 356.947 178.92 356.76C172.62 355.05 169.87 351.82 166.92 349.93C166.3 346.87 167.81 338.45 167.81 338.45L152.73 339.45C153.001 343.699 153.011 347.96 152.76 352.21V352.21Z" fill="#0CA062"/>
<path d="M82.8801 352.69L86.5301 346.1C88.2901 341.94 90.9001 334 90.9001 334L104.46 337.53C104.46 337.53 100.72 344.32 99.8701 347.53C101.95 349.95 104.75 355.39 110.59 356.71C113.33 357.33 113.13 362.11 109.5 362.43C103.5 362.94 96.4401 358.31 91.4201 357.23C87.1301 356.3 86.5101 356.59 84.0701 356.02C83.7239 355.946 83.4023 355.784 83.136 355.551C82.8696 355.317 82.6672 355.02 82.5481 354.686C82.4289 354.353 82.3968 353.994 82.455 353.645C82.5131 353.296 82.6594 352.967 82.8801 352.69V352.69Z" fill="#0CA062"/>
<path d="M168.73 342.6L151.93 342.87C151.595 342.875 151.27 342.756 151.018 342.537C150.765 342.317 150.602 342.012 150.56 341.68L149.83 336.13C149.806 335.942 149.822 335.751 149.877 335.569C149.931 335.387 150.023 335.219 150.146 335.075C150.27 334.931 150.422 334.814 150.593 334.732C150.764 334.651 150.95 334.605 151.14 334.6L169.43 334.03C169.627 334.024 169.824 334.061 170.005 334.138C170.187 334.216 170.349 334.332 170.482 334.478C170.614 334.625 170.713 334.798 170.771 334.987C170.83 335.175 170.846 335.374 170.82 335.57L170.06 341.42C170.017 341.744 169.859 342.041 169.615 342.257C169.37 342.474 169.056 342.596 168.73 342.6V342.6Z" fill="#263238"/>
<path opacity="0.1" d="M168.73 342.6L151.93 342.87C151.595 342.875 151.27 342.756 151.018 342.537C150.765 342.317 150.602 342.012 150.56 341.68L149.83 336.13C149.806 335.942 149.822 335.751 149.877 335.569C149.931 335.387 150.023 335.219 150.146 335.075C150.27 334.931 150.422 334.814 150.593 334.732C150.764 334.651 150.95 334.605 151.14 334.6L169.43 334.03C169.627 334.024 169.824 334.061 170.005 334.138C170.187 334.216 170.349 334.332 170.482 334.478C170.614 334.625 170.713 334.798 170.771 334.987C170.83 335.175 170.846 335.374 170.82 335.57L170.06 341.42C170.017 341.744 169.859 342.041 169.615 342.257C169.37 342.474 169.056 342.596 168.73 342.6V342.6Z" fill="white"/>
<path d="M114.3 236.44C120.61 193.59 119.06 160.2 128.3 140.16L164.23 144.59C164.23 144.59 146.44 211.27 138.31 239.59C130.18 267.91 106.07 337.49 106.07 337.49L88.73 333.66C88.73 333.66 103.51 269.6 114.3 236.44Z" fill="#263238"/>
<path d="M105.27 340.57L88.8503 337C88.5168 336.919 88.2272 336.713 88.0412 336.424C87.8551 336.136 87.7868 335.787 87.8503 335.45L88.8503 330C88.8851 329.819 88.9551 329.647 89.0563 329.494C89.1576 329.34 89.288 329.208 89.4403 329.105C89.5926 329.002 89.7638 328.93 89.9439 328.893C90.1241 328.856 90.3097 328.855 90.4903 328.89L108.49 332.51C108.689 332.549 108.877 332.634 109.038 332.757C109.199 332.88 109.33 333.038 109.421 333.22C109.512 333.401 109.56 333.601 109.561 333.804C109.563 334.007 109.518 334.207 109.43 334.39L106.88 339.8C106.743 340.096 106.508 340.334 106.214 340.475C105.92 340.615 105.586 340.649 105.27 340.57V340.57Z" fill="#263238"/>
<path opacity="0.1" d="M105.27 340.57L88.8503 337C88.5168 336.919 88.2272 336.713 88.0412 336.424C87.8551 336.136 87.7868 335.787 87.8503 335.45L88.8503 330C88.8851 329.819 88.9551 329.647 89.0563 329.494C89.1576 329.34 89.288 329.208 89.4403 329.105C89.5926 329.002 89.7638 328.93 89.9439 328.893C90.1241 328.856 90.3097 328.855 90.4903 328.89L108.49 332.51C108.689 332.549 108.877 332.634 109.038 332.757C109.199 332.88 109.33 333.038 109.421 333.22C109.512 333.401 109.56 333.601 109.561 333.804C109.563 334.007 109.518 334.207 109.43 334.39L106.88 339.8C106.743 340.096 106.508 340.334 106.214 340.475C105.92 340.615 105.586 340.649 105.27 340.57V340.57Z" fill="white"/>
<path d="M193.61 93.05C194.41 99.05 195.19 105.2 196.07 111.22C196.49 114.22 196.99 117.22 197.48 120.22C197.97 123.22 198.58 126.09 199.26 128.77C199.43 129.43 199.61 130.06 199.8 130.67L200.08 131.51L200.41 132.39C200.89 133.56 201.46 134.77 202.1 135.98C202.74 137.19 203.45 138.4 204.22 139.61C204.99 140.82 205.79 142.03 206.64 143.22C210.154 148.08 213.919 152.753 217.92 157.22L218.01 157.32C218.554 157.946 218.854 158.747 218.857 159.576C218.86 160.405 218.565 161.208 218.026 161.837C217.487 162.467 216.74 162.883 215.92 163.008C215.1 163.133 214.263 162.96 213.56 162.52C210.814 160.76 208.18 158.833 205.67 156.75C203.134 154.671 200.72 152.447 198.44 150.09C196.069 147.659 193.901 145.037 191.96 142.25C190.933 140.776 190.005 139.236 189.18 137.64L188.56 136.39L188 135C187.65 134.13 187.34 133.29 187 132.47C185.87 129.18 185.09 126.01 184.34 122.86C183.59 119.71 183 116.56 182.42 113.43C181.31 107.14 180.42 100.94 179.8 94.5599C179.593 92.7313 180.122 90.8953 181.268 89.456C182.415 88.0166 184.087 87.0918 185.915 86.8849C187.744 86.6781 189.58 87.2061 191.019 88.3529C192.459 89.4997 193.383 91.1713 193.59 93L193.61 93.05Z" fill="#FF8B7B"/>
<path d="M185.68 76.9399C194.68 84.8499 197 103.67 197 103.67C193.25 108.92 182.17 111.67 174.73 112.36C174.73 112.36 172.73 108.31 170.57 96.57C168.26 83.79 177.28 69.5899 185.68 76.9399Z" fill="#1999B9"/>
<path d="M149 67.83C159.059 68.5459 169.02 70.2781 178.73 73C189.17 76 189.95 86.15 189.33 97C188.41 113.32 182.05 122.42 179.65 161.42C173.01 164.87 142.74 163.83 123.54 151.92C126.15 136.68 134.89 111.04 136.41 79.02C136.485 77.4527 136.872 75.9161 137.549 74.5005C138.225 73.0848 139.178 71.8187 140.351 70.7763C141.524 69.7339 142.893 68.9363 144.378 68.4304C145.863 67.9244 147.435 67.7203 149 67.83V67.83Z" fill="#1999B9"/>
<path d="M171.94 83.51C170.27 84.01 166.66 83.04 166.16 80.98C161.16 81.04 157.16 82.34 155.97 83.34C153.24 78.82 154.11 69.62 154.91 68.15C155.71 66.68 172.97 69.88 176.76 71.51C178.164 72.0587 179.362 73.0301 180.19 74.29C180.76 75.09 183.38 80.7 180.69 84.84C179.434 83.7809 178.115 82.7991 176.74 81.9C176.74 81.9 176.43 84.4 171.94 83.51Z" fill="#1999B9"/>
<path opacity="0.8" d="M171.94 83.51C170.27 84.01 166.66 83.04 166.16 80.98C161.16 81.04 157.16 82.34 155.97 83.34C153.24 78.82 154.11 69.62 154.91 68.15C155.71 66.68 172.97 69.88 176.76 71.51C178.164 72.0587 179.362 73.0301 180.19 74.29C180.76 75.09 183.38 80.7 180.69 84.84C179.434 83.7809 178.115 82.7991 176.74 81.9C176.74 81.9 176.43 84.4 171.94 83.51Z" fill="white"/>
<path d="M165.05 48.9C163.7 56.21 160.05 65.83 157.05 69.48C159.67 73.41 163.11 77.97 169.67 80.17C170.4 80.42 171.61 85.57 172.11 86.26C173.26 84.7836 173.955 83.0046 174.11 81.14C180.01 81.51 179.74 76.49 178.39 73.48C171.14 70.24 172.29 67.16 175.18 62.33L165.05 48.9Z" fill="#FF8B7B"/>
<path opacity="0.2" d="M168.41 57.18C168.676 56.2952 169.01 55.4326 169.41 54.6L175.27 62.33C174.282 63.7808 173.551 65.391 173.11 67.09C170.17 65.25 167.45 60.47 168.41 57.18Z" fill="black"/>
<path d="M170.64 35.05C166.25 43.43 162.91 49.51 166.11 55.48C173.11 68.56 179.51 66.84 186.33 59.93C192.47 53.72 198.63 41.07 192.62 33.14C191.295 31.3751 189.542 29.9768 187.526 29.0769C185.511 28.1769 183.299 27.805 181.1 27.9961C178.901 28.1872 176.787 28.935 174.957 30.1691C173.127 31.4032 171.642 33.0829 170.64 35.05V35.05Z" fill="#FF8B7B"/>
<path d="M167.2 40.44C173.09 42.72 177.14 36.11 176.37 33.72C179.24 37.33 188.48 39.28 191.37 38.39C192.13 44.93 198.43 48.04 201.98 48.39C200.87 47.81 198.87 45.96 199.09 44.69C205.26 43.81 207.75 35.63 200.98 33.37C194.21 31.11 193.76 27 189.92 22.61C185.37 17.39 174.25 17.83 175.23 22.94C171.09 19.61 163.53 23.37 165.76 27.94C157.07 30.48 162.64 42.82 164.48 44.04C166.32 45.26 167.2 40.44 167.2 40.44Z" fill="#263238"/>
<path d="M198.27 44.9999C198.868 45.4645 199.572 45.7734 200.319 45.8991C201.066 46.0247 201.833 45.9632 202.55 45.7199C201.567 45.4685 200.68 44.9328 200 44.1799C200 44.1799 198.27 44.2799 198.27 44.9999Z" fill="#263238"/>
<path d="M176 25.39C174.6 23.33 175.44 17.39 177.05 16.11C172.39 16.38 171.7 22.06 176 25.39Z" fill="#263238"/>
<path opacity="0.2" d="M180.3 46C179.511 44.7437 178.256 43.8518 176.81 43.52C177.8 44.5673 178.986 45.4099 180.3 46Z" fill="black"/>
<path opacity="0.2" d="M179.65 46.74C179.186 46.2603 178.622 45.8881 177.998 45.6497C177.374 45.4112 176.706 45.3124 176.04 45.36C177.129 46.076 178.361 46.5469 179.65 46.74V46.74Z" fill="black"/>
<path opacity="0.2" d="M175 51.19C174 50.71 172.85 50.63 172.41 52.55C172.722 52.1542 173.114 51.8286 173.56 51.5942C174.007 51.3599 174.497 51.2222 175 51.19Z" fill="black"/>
<path d="M184.33 55.0599C185.59 55.9099 187.97 58.99 186.91 61.69C184.19 61.69 176.04 57.2799 174.13 53.8799C174.62 51.3799 180.94 52.7599 184.33 55.0599Z" fill="#263238"/>
<path d="M187.05 48.41C187.05 48.41 185.86 53.01 186.17 55.86C184.32 56.1 182.77 54.28 182.77 54.28L187.05 48.41Z" fill="#FF5652"/>
<path d="M181.22 46.81C180.9 47.51 181.01 48.25 181.47 48.45C181.93 48.65 182.56 48.26 182.89 47.56C183.22 46.86 183.1 46.13 182.64 45.92C182.18 45.71 181.55 46.12 181.22 46.81Z" fill="#263238"/>
<path d="M189.6 50.6C189.28 51.29 189.39 52.03 189.85 52.23C190.31 52.43 190.94 52.04 191.26 51.34C191.58 50.64 191.47 49.91 191.01 49.7C190.55 49.49 189.92 49.9 189.6 50.6Z" fill="#263238"/>
<path opacity="0.5" d="M185.44 48C184.37 50.53 182.04 52 180.23 51.24C178.42 50.48 177.82 47.84 178.89 45.3" fill="#1999B9"/>
<path opacity="0.5" d="M194.35 52C193.28 54.54 190.95 56 189.14 55.24C187.33 54.48 186.73 51.84 187.8 49.3" fill="#1999B9"/>
<path d="M190.14 55.7C189.766 55.7025 189.395 55.6276 189.05 55.48C188.665 55.3166 188.317 55.0762 188.028 54.7736C187.74 54.4709 187.516 54.1124 187.37 53.72C186.847 52.248 186.919 50.63 187.57 49.21C187.8 48.84 187.82 48.56 187.65 48.36C187.362 48.1578 187.027 48.0331 186.676 47.9981C186.326 47.9631 185.973 48.0188 185.65 48.16C184.51 50.76 182.07 52.23 180.16 51.44C179.777 51.2737 179.431 51.0322 179.142 50.73C178.854 50.4277 178.629 50.0707 178.48 49.68C177.982 48.2794 178.021 46.7434 178.59 45.37L168.11 39.05C168.053 39.0147 168.011 38.9585 167.995 38.8932C167.978 38.8279 167.987 38.7586 168.02 38.7C168.057 38.6469 168.112 38.6092 168.175 38.5944C168.238 38.5796 168.304 38.5888 168.36 38.62L179 45.06C179.053 45.0897 179.093 45.1374 179.113 45.1944C179.134 45.2514 179.133 45.3138 179.11 45.37C178.517 46.6667 178.445 48.142 178.91 49.49C179.035 49.8194 179.224 50.1206 179.466 50.3764C179.708 50.6322 179.998 50.8374 180.32 50.98C182 51.67 184.19 50.28 185.2 47.87C185.211 47.8399 185.228 47.8126 185.25 47.79C185.273 47.7675 185.3 47.7504 185.33 47.74C185.755 47.5299 186.231 47.4428 186.702 47.4888C187.174 47.5347 187.624 47.7118 188 48C188.162 48.1995 188.25 48.4484 188.25 48.705C188.25 48.9617 188.162 49.2106 188 49.41C187.422 50.7009 187.358 52.1634 187.82 53.5C187.943 53.8305 188.131 54.1327 188.373 54.3888C188.616 54.6448 188.907 54.8493 189.23 54.99C190.91 55.68 193.1 54.29 194.11 51.88C194.137 51.819 194.186 51.7711 194.248 51.7467C194.31 51.7223 194.379 51.7235 194.44 51.75C194.501 51.7766 194.549 51.8262 194.574 51.8881C194.598 51.95 194.597 52.019 194.57 52.08C193.66 54.28 191.83 55.7 190.14 55.7Z" fill="white"/>
<path d="M180.6 41.19C180.54 41.1419 180.492 41.0802 180.46 41.01C180.413 40.8986 180.412 40.7731 180.457 40.6608C180.502 40.5485 180.589 40.4584 180.7 40.41C181.355 40.1101 182.072 39.9701 182.792 40.0014C183.512 40.0327 184.214 40.2344 184.84 40.59C184.938 40.6588 185.006 40.763 185.028 40.8807C185.051 40.9983 185.026 41.1201 184.96 41.22C184.893 41.3174 184.791 41.3846 184.675 41.4071C184.559 41.4295 184.439 41.4054 184.34 41.34V41.34C183.839 41.07 183.281 40.9204 182.712 40.903C182.143 40.8857 181.577 41.001 181.06 41.24C180.986 41.2721 180.904 41.2843 180.824 41.2756C180.743 41.2668 180.666 41.2373 180.6 41.19V41.19Z" fill="#263238"/>
<path d="M194.49 47.8C194.42 47.7755 194.357 47.7332 194.308 47.6771C194.259 47.621 194.225 47.5531 194.21 47.48C194.1 46.9279 193.862 46.4095 193.514 45.9665C193.167 45.5236 192.72 45.1685 192.21 44.93C192.104 44.8836 192.02 44.7983 191.976 44.6918C191.931 44.5853 191.929 44.4657 191.97 44.3578C192.012 44.2499 192.093 44.1619 192.197 44.1121C192.301 44.0622 192.42 44.0543 192.53 44.09C193.185 44.3735 193.762 44.8104 194.213 45.3639C194.664 45.9173 194.975 46.5711 195.12 47.27C195.133 47.3278 195.135 47.3877 195.125 47.4461C195.115 47.5046 195.094 47.5605 195.062 47.6107C195.031 47.6609 194.989 47.7043 194.941 47.7386C194.893 47.7728 194.838 47.797 194.78 47.81C194.686 47.8441 194.582 47.8405 194.49 47.8V47.8Z" fill="#263238"/>
<path d="M216.59 156.29L222.59 159.14C224.769 160.175 226.738 161.602 228.4 163.35L229.84 164.87C230.57 165.64 230.25 167.13 229.2 167.97L225.3 171.08C225.036 171.324 224.707 171.488 224.353 171.552C223.998 171.615 223.633 171.577 223.3 171.44L219.56 169.52C219.56 169.52 211.56 166.78 212.75 160.33L216.59 156.29Z" fill="#FF8B7B"/>
<path d="M145 83.82L135.5 97.44C133.92 99.7 132.36 101.98 130.84 104.23C129.32 106.48 127.84 108.77 126.63 110.87C126.3 111.41 126.1 111.87 125.82 112.34C125.664 112.629 125.53 112.93 125.42 113.24C125.18 113.99 125.062 114.773 125.07 115.56C125.148 117.737 125.588 119.887 126.37 121.92C128.241 126.75 130.653 131.353 133.56 135.64L133.68 135.83C134.129 136.521 134.316 137.351 134.207 138.168C134.098 138.985 133.699 139.736 133.084 140.285C132.469 140.834 131.677 141.144 130.853 141.16C130.028 141.175 129.226 140.895 128.59 140.37C126.252 138.439 124.087 136.308 122.12 134C120.078 131.651 118.278 129.101 116.75 126.39C115.012 123.38 113.846 120.074 113.31 116.64C113.01 114.628 113.044 112.581 113.41 110.58C113.606 109.517 113.904 108.476 114.3 107.47C114.62 106.69 114.96 105.83 115.3 105.13C116.64 102.22 118.07 99.71 119.53 97.18C120.99 94.65 122.53 92.18 124.05 89.8C127.15 84.98 130.32 80.3 133.77 75.7C134.859 74.2444 136.477 73.2753 138.275 73.0016C140.072 72.7279 141.905 73.1715 143.378 74.2369C144.852 75.3022 145.847 76.9039 146.151 78.6965C146.454 80.4892 146.041 82.3293 145 83.82V83.82Z" fill="#FF8B7B"/>
<path d="M147.73 67.81C131.61 67.25 122.73 87.07 122.73 87.07C126.28 94.79 131.22 101.58 136.89 103C136.89 103 143.34 97.39 148.54 86.66C153 77.52 150.81 68.55 147.73 67.81Z" fill="#1999B9"/>
<path d="M127.5 135.85L133.3 135.34L135.59 138.81C137.484 141.656 138.734 144.881 139.25 148.26L139.35 148.91C139.408 149.331 139.377 149.759 139.259 150.167C139.142 150.576 138.941 150.955 138.67 151.282C138.398 151.608 138.061 151.874 137.68 152.063C137.3 152.252 136.885 152.36 136.46 152.38L132.41 152.7C131.63 152.766 130.85 152.567 130.197 152.135C129.543 151.704 129.055 151.064 128.81 150.32L127.47 145.89C127.47 145.89 123.65 138.27 127.5 135.85Z" fill="#FF8B7B"/>
<path d="M163.22 40.75C162.721 42.9489 163.078 45.2556 164.22 47.2C165.71 49.61 168.35 48.34 169.51 45.6C170.56 43.13 171.05 38.91 168.79 37.48C166.53 36.05 163.84 37.93 163.22 40.75Z" fill="#FF8B7B"/>
<path d="M334.79 49.16C324.1 63.88 334.92 80.79 324.92 78.44C327.47 88.91 340.92 89.34 343.74 86.78C342.783 88.758 341.325 90.4508 339.51 91.69C339.51 91.69 361.79 94.39 366.51 81.93C368.51 84.57 376.02 85.07 378.57 82.61C376.43 81.83 370.71 74.73 371.57 63.07C372.12 55.31 372.1 42.42 363.37 45C359.14 34.84 341.77 39.55 334.79 49.16Z" fill="#263238"/>
<path d="M351.85 109.06C351.3 112.74 350.67 116.39 350.01 120.06C349.35 123.73 348.66 127.36 347.92 131C347.18 134.64 346.42 138.29 345.6 141.93C344.78 145.57 344 149.16 342.88 153L343.04 152C342.77 153.954 342.298 155.874 341.63 157.73C341.03 159.42 340.37 160.98 339.68 162.5C338.319 165.456 336.807 168.339 335.15 171.14C333.53 173.9 331.83 176.57 330.05 179.14C328.27 181.71 326.43 184.29 324.41 186.79C323.852 187.485 323.061 187.954 322.183 188.111C321.306 188.268 320.401 188.101 319.636 187.643C318.872 187.184 318.299 186.465 318.024 185.617C317.749 184.769 317.79 183.85 318.14 183.03V183.03L321.71 174.64C322.89 171.84 324.06 169.05 325.14 166.27C326.22 163.49 327.26 160.71 328.14 158.01C328.57 156.67 328.96 155.33 329.24 154.06C329.513 152.979 329.681 151.874 329.74 150.76C329.73 150.67 329.73 150.58 329.74 150.49L329.88 149.77C330.53 146.46 331.1 142.77 331.71 139.19L333.47 128.31C334.05 124.68 334.67 121.04 335.28 117.41C335.89 113.78 336.54 110.14 337.28 106.53C337.444 105.575 337.794 104.661 338.311 103.841C338.827 103.021 339.5 102.31 340.291 101.751C341.083 101.191 341.976 100.792 342.922 100.577C343.867 100.363 344.845 100.337 345.8 100.5C346.756 100.664 347.669 101.014 348.49 101.53C349.31 102.047 350.02 102.72 350.58 103.511C351.14 104.302 351.538 105.196 351.753 106.141C351.968 107.086 351.994 108.065 351.83 109.02L351.85 109.06Z" fill="#7F3E3B"/>
<path d="M318.15 183.45L315.24 186.91C314.278 188.056 313.637 189.436 313.38 190.91L313.11 192.46C312.98 193.195 313.108 193.951 313.473 194.602C313.837 195.253 314.416 195.757 315.11 196.03L318.74 197.45C319.534 197.756 320.416 197.738 321.196 197.399C321.976 197.06 322.592 196.429 322.91 195.64L323.55 194.03C323.55 194.03 326.77 188.17 326.01 183.03L324.61 182.59C323.54 182.222 322.4 182.109 321.279 182.258C320.157 182.407 319.086 182.815 318.15 183.45V183.45Z" fill="#7F3E3B"/>
<path d="M339.16 100.36C334.62 104.36 330.73 115.71 330.73 115.71C330.73 115.71 342.59 128.23 352.14 131.15C357.37 128.72 354.85 112.82 354.85 112.82L339.16 100.36Z" fill="#263238"/>
<g opacity="0.4">
<path opacity="0.4" d="M336.44 116.66C336.685 116.659 336.93 116.632 337.17 116.58C337.589 116.499 337.985 116.327 338.33 116.076C338.676 115.826 338.962 115.503 339.17 115.13C339.383 114.719 339.507 114.268 339.533 113.806C339.558 113.344 339.486 112.882 339.32 112.45C338.999 111.559 338.373 110.811 337.553 110.339C336.732 109.867 335.771 109.7 334.84 109.87C334.421 109.949 334.026 110.119 333.68 110.368C333.334 110.617 333.048 110.938 332.84 111.31C332.627 111.721 332.503 112.172 332.477 112.634C332.451 113.096 332.524 113.558 332.69 113.99C332.979 114.757 333.491 115.42 334.158 115.896C334.826 116.371 335.62 116.637 336.44 116.66ZM333.32 111.57C333.485 111.271 333.712 111.01 333.986 110.807C334.261 110.603 334.576 110.461 334.91 110.39C335.118 110.35 335.329 110.33 335.54 110.33C336.248 110.348 336.934 110.578 337.509 110.989C338.085 111.401 338.524 111.976 338.77 112.64C338.914 112.997 338.979 113.382 338.96 113.767C338.941 114.152 338.839 114.528 338.66 114.87C338.493 115.17 338.264 115.43 337.988 115.633C337.712 115.837 337.395 115.979 337.06 116.05C336.256 116.186 335.43 116.037 334.725 115.628C334.02 115.218 333.48 114.575 333.2 113.81C333.06 113.45 332.998 113.063 333.018 112.677C333.039 112.291 333.142 111.913 333.32 111.57V111.57Z" fill="white"/>
<path opacity="0.4" d="M347.21 107.65C347.413 107.601 347.621 107.578 347.83 107.58C347.99 107.57 348.15 107.57 348.31 107.58L347.6 107.02C347.429 107.025 347.258 107.045 347.09 107.08C346.671 107.161 346.275 107.333 345.929 107.583C345.583 107.834 345.297 108.157 345.09 108.53C344.877 108.941 344.753 109.392 344.727 109.854C344.701 110.316 344.774 110.778 344.94 111.21C345.23 111.976 345.741 112.638 346.409 113.112C347.077 113.586 347.871 113.85 348.69 113.87C348.936 113.873 349.181 113.846 349.42 113.79C349.839 113.712 350.235 113.543 350.581 113.294C350.927 113.045 351.213 112.723 351.42 112.35C351.742 111.736 351.851 111.033 351.73 110.35L351 109.77L351.06 109.9C351.204 110.259 351.269 110.645 351.251 111.032C351.232 111.419 351.129 111.797 350.95 112.14C350.784 112.439 350.555 112.699 350.279 112.901C350.002 113.103 349.686 113.243 349.35 113.31C348.546 113.448 347.719 113.3 347.014 112.89C346.308 112.481 345.769 111.837 345.49 111.07C345.349 110.711 345.287 110.327 345.308 109.942C345.328 109.557 345.431 109.181 345.61 108.84C345.775 108.538 346.003 108.275 346.279 108.069C346.556 107.864 346.873 107.721 347.21 107.65V107.65Z" fill="white"/>
<path opacity="0.4" d="M339.76 123.64C339.963 123.591 340.171 123.568 340.38 123.57C341.087 123.591 341.772 123.821 342.347 124.233C342.922 124.644 343.362 125.218 343.61 125.88C343.724 126.201 343.785 126.539 343.79 126.88L344.32 127.23C344.362 126.718 344.294 126.203 344.12 125.72C343.801 124.828 343.176 124.077 342.355 123.603C341.535 123.129 340.573 122.961 339.64 123.13C339.435 123.18 339.234 123.247 339.04 123.33L339.54 123.73L339.76 123.64Z" fill="white"/>
<path opacity="0.4" d="M351.93 120.37C351.511 120.449 351.115 120.619 350.77 120.868C350.424 121.117 350.138 121.438 349.93 121.81C349.716 122.221 349.594 122.673 349.569 123.135C349.545 123.597 349.62 124.059 349.79 124.49C350.077 125.258 350.588 125.923 351.256 126.399C351.924 126.875 352.72 127.14 353.54 127.16C353.785 127.158 354.03 127.131 354.27 127.08C354.458 127.035 354.642 126.975 354.82 126.9C354.88 126.67 354.93 126.43 354.97 126.2C354.721 126.366 354.443 126.485 354.15 126.55C353.347 126.69 352.521 126.542 351.816 126.132C351.112 125.722 350.575 125.077 350.3 124.31C350.155 123.951 350.09 123.565 350.109 123.178C350.128 122.791 350.231 122.413 350.41 122.07C350.576 121.771 350.805 121.511 351.081 121.309C351.357 121.107 351.674 120.967 352.01 120.9C352.213 120.851 352.421 120.828 352.63 120.83C353.17 120.843 353.701 120.981 354.179 121.233C354.658 121.484 355.072 121.843 355.39 122.28C355.39 122.02 355.39 121.76 355.39 121.5C354.95 121.043 354.404 120.701 353.801 120.504C353.197 120.307 352.555 120.261 351.93 120.37V120.37Z" fill="white"/>
</g>
<path d="M369.72 242.8C386.29 189.13 390.02 159.32 390.02 159.32L350.46 157.18C350.46 157.18 344.11 211.18 341.34 244.27C338.34 264 334.84 297.53 332.62 320.05C339.238 320.156 345.85 319.61 352.36 318.42C359.58 299.18 368.11 271.15 369.72 242.8Z" fill="#1999B9"/>
<path d="M343.16 344.07C343.16 344.07 347 333.72 351 318.28C346.12 320.01 340.3 315.91 334.25 316.61C333.884 326.326 332.923 336.011 331.37 345.61C333.18 346.54 340.05 345.42 343.16 344.07Z" fill="#7F3E3B"/>
<path d="M315.86 358.44C327.12 354.36 330.49 354.39 330.13 343.74C332.65 342.57 345.25 342.07 345.25 342.07C342.78 352.86 343.4 351.76 344.04 354.4C344.84 357.72 346.73 362.45 342.26 362.45C339.54 362.45 338.54 361.91 335.15 361.94C331.2 361.94 325.02 362.45 317.15 362.45C312.89 362.45 313.66 359.24 315.86 358.44Z" fill="#263238"/>
<path d="M332.28 315C332.12 316.88 331.79 321.59 332.28 323.3C332.305 323.4 332.358 323.49 332.432 323.561C332.506 323.632 332.6 323.68 332.7 323.7C338.699 324.969 344.909 324.843 350.85 323.33C351.043 323.271 351.209 323.147 351.32 322.98C352.76 320.83 354.32 316.16 354.99 314.2C355.031 314.105 355.045 314.001 355.032 313.899C355.018 313.797 354.978 313.7 354.915 313.618C354.852 313.537 354.768 313.474 354.672 313.435C354.577 313.397 354.472 313.385 354.37 313.4C347.319 314.083 340.234 314.357 333.15 314.22C332.937 314.227 332.733 314.309 332.574 314.452C332.415 314.595 332.311 314.789 332.28 315V315Z" fill="#1999B9"/>
<path opacity="0.2" d="M332.28 315C332.12 316.88 331.79 321.59 332.28 323.3C332.305 323.4 332.358 323.49 332.432 323.561C332.506 323.632 332.6 323.68 332.7 323.7C338.699 324.969 344.909 324.843 350.85 323.33C351.043 323.271 351.209 323.147 351.32 322.98C352.76 320.83 354.32 316.16 354.99 314.2C355.031 314.105 355.045 314.001 355.032 313.899C355.018 313.797 354.978 313.7 354.915 313.618C354.852 313.537 354.768 313.474 354.672 313.435C354.577 313.397 354.472 313.385 354.37 313.4C347.319 314.083 340.234 314.357 333.15 314.22C332.937 314.227 332.733 314.309 332.574 314.452C332.415 314.595 332.311 314.789 332.28 315V315Z" fill="black"/>
<path opacity="0.2" d="M369.25 185.82C364.99 203.02 367.51 226.51 371.1 238.29C373.413 230.67 375.463 223.563 377.25 216.97C377.31 216.3 377.36 215.63 377.41 214.97C374.09 203.64 370.24 194.19 369.25 185.82Z" fill="black"/>
<path d="M402.75 242.8C404.04 174.8 394.01 156.15 394.01 156.15L358.68 157.15C358.68 157.15 369.31 210.73 376.5 244.62C380.87 264.11 383.72 297.5 388.02 320.02C394.483 320.143 400.94 319.597 407.29 318.39C408.94 299.18 409.35 271.15 402.75 242.8Z" fill="#1999B9"/>
<path d="M405.53 344.07C406.092 335.485 406.216 326.877 405.9 318.28C401.52 320.01 394.52 315.91 388.67 316.61C391.082 326.158 392.922 335.842 394.18 345.61C396.26 346.54 402.8 345.42 405.53 344.07Z" fill="#7F3E3B"/>
<path d="M382 358C392.39 353.91 395 354.4 392.41 343.75C394.68 342.58 407.17 342.08 407.17 342.08C407.109 346.49 407.768 350.881 409.12 355.08C410.12 358.6 411.47 362.45 407.29 362.45C404.58 362.45 403.51 361.91 400.13 361.94C396.13 361.94 391.28 362.45 383.44 362.45C379.12 362.45 379.94 358.79 382 358Z" fill="#263238"/>
<path d="M386.22 315C386.61 316.88 387.63 321.59 388.62 323.3C388.678 323.4 388.755 323.488 388.848 323.556C388.941 323.625 389.047 323.674 389.16 323.7C396.66 325.27 404.16 324.41 407.16 323.33C407.245 323.305 407.323 323.26 407.387 323.199C407.451 323.139 407.5 323.063 407.53 322.98C408.34 320.83 408.59 316.16 408.66 314.2C408.662 314.089 408.64 313.979 408.597 313.877C408.554 313.776 408.489 313.684 408.408 313.608C408.327 313.533 408.231 313.475 408.126 313.44C408.021 313.404 407.91 313.39 407.8 313.4C400.823 314.091 393.81 314.365 386.8 314.22C386.708 314.226 386.618 314.253 386.537 314.297C386.456 314.341 386.386 314.402 386.331 314.477C386.275 314.551 386.237 314.636 386.218 314.726C386.199 314.817 386.2 314.91 386.22 315Z" fill="#1999B9"/>
<path opacity="0.2" d="M386.22 315C386.61 316.88 387.63 321.59 388.62 323.3C388.678 323.4 388.755 323.488 388.848 323.556C388.941 323.625 389.047 323.674 389.16 323.7C396.66 325.27 404.16 324.41 407.16 323.33C407.245 323.305 407.323 323.26 407.387 323.199C407.451 323.139 407.5 323.063 407.53 322.98C408.34 320.83 408.59 316.16 408.66 314.2C408.662 314.089 408.64 313.979 408.597 313.877C408.554 313.776 408.489 313.684 408.408 313.608C408.327 313.533 408.231 313.475 408.126 313.44C408.021 313.404 407.91 313.39 407.8 313.4C400.823 314.091 393.81 314.365 386.8 314.22C386.708 314.226 386.618 314.253 386.537 314.297C386.456 314.341 386.386 314.402 386.331 314.477C386.275 314.551 386.237 314.636 386.218 314.726C386.199 314.817 386.2 314.91 386.22 315Z" fill="black"/>
<path d="M335.31 114.64C337.7 123.77 332.91 131.54 341.86 134.94C341.18 142.14 347.43 163.49 348.86 167.75C353.86 169.83 375.81 166.23 394.98 156.49C393.87 148.44 385.44 126.76 384.54 100.11C384.496 98.6485 384.145 97.2127 383.51 95.8959C382.874 94.5792 381.969 93.4111 380.852 92.4677C379.735 91.5243 378.431 90.8267 377.027 90.4205C375.622 90.0143 374.148 89.9085 372.7 90.11C371.06 90.34 369.34 90.62 367.58 90.96C361.428 92.0038 355.359 93.4876 349.42 95.3999C347.5 96.0599 345.54 96.7999 343.67 97.5399C340.419 98.8657 337.77 101.342 336.228 104.495C334.687 107.649 334.36 111.26 335.31 114.64V114.64Z" fill="#263238"/>
<g opacity="0.4">
<path opacity="0.4" d="M343.74 99.42C343.562 99.7125 343.322 99.9625 343.037 100.153C342.752 100.343 342.429 100.468 342.09 100.52C341.264 100.649 340.42 100.448 339.74 99.96C339.6 100.08 339.45 100.19 339.32 100.32C339.979 100.822 340.782 101.098 341.61 101.11C341.801 101.108 341.992 101.091 342.18 101.06C342.591 100.992 342.983 100.837 343.328 100.604C343.673 100.371 343.964 100.066 344.18 99.71C344.397 99.3408 344.536 98.9318 344.591 98.5075C344.646 98.0832 344.615 97.6521 344.5 97.24L343.99 97.44C344.082 97.7702 344.107 98.1152 344.064 98.455C344.021 98.7949 343.911 99.1229 343.74 99.42V99.42Z" fill="white"/>
<path opacity="0.4" d="M350.24 96.1099C350.49 96.9218 350.986 97.636 351.66 98.1537C352.334 98.6714 353.151 98.9671 354 98.9999C354.19 99.0197 354.381 99.0197 354.57 98.9999C354.981 98.9311 355.372 98.7749 355.717 98.542C356.062 98.3091 356.353 98.0049 356.57 97.6499C356.805 97.2508 356.952 96.8059 357 96.3453C357.048 95.8847 356.997 95.4191 356.85 94.9799C356.677 94.4586 356.398 93.9786 356.03 93.5699L355.45 93.7199C355.856 94.1138 356.158 94.6015 356.33 95.1399C356.457 95.5055 356.503 95.8941 356.465 96.279C356.427 96.664 356.306 97.0361 356.11 97.3699C355.932 97.6625 355.692 97.9125 355.407 98.1025C355.122 98.2925 354.799 98.4179 354.46 98.4699C353.651 98.568 352.833 98.3798 352.148 97.9377C351.463 97.4957 350.954 96.8278 350.71 96.0499C350.623 95.7548 350.582 95.4477 350.59 95.1399L350.05 95.3099C350.078 95.5838 350.142 95.8528 350.24 96.1099V96.1099Z" fill="white"/>
<path opacity="0.4" d="M362.621 92C362.417 92.6511 362.417 93.3488 362.621 94C362.881 94.8072 363.385 95.5139 364.064 96.0225C364.743 96.5312 365.563 96.8168 366.411 96.84C366.602 96.8382 366.792 96.8215 366.981 96.7899C367.391 96.7211 367.782 96.5649 368.127 96.332C368.472 96.0991 368.763 95.7949 368.981 95.44C369.213 95.0398 369.357 94.5946 369.404 94.1341C369.451 93.6737 369.398 93.2086 369.251 92.77C369.027 92.0639 368.611 91.4338 368.051 90.95L367.511 91.0399H367.341C367.998 91.4858 368.49 92.136 368.741 92.89C368.864 93.256 368.909 93.6441 368.871 94.0287C368.833 94.4132 368.713 94.7852 368.521 95.1199C368.337 95.4101 368.094 95.6582 367.808 95.8478C367.522 96.0374 367.199 96.1642 366.86 96.22C366.051 96.317 365.234 96.1269 364.55 95.6829C363.867 95.2388 363.361 94.5689 363.121 93.7899C362.913 93.154 362.945 92.4639 363.211 91.85L362.621 92Z" fill="white"/>
<path opacity="0.4" d="M375.001 90.09C374.883 90.6576 374.91 91.2458 375.081 91.8C375.339 92.6075 375.841 93.3152 376.518 93.8256C377.195 94.336 378.013 94.624 378.861 94.65C379.052 94.6482 379.242 94.6315 379.431 94.6C379.841 94.5311 380.232 94.3749 380.577 94.142C380.922 93.9092 381.213 93.6049 381.431 93.25C381.431 93.25 381.431 93.16 381.481 93.13C381.351 92.99 381.211 92.87 381.071 92.74C381.071 92.81 381.011 92.89 380.961 92.97C380.781 93.2606 380.541 93.5087 380.256 93.697C379.971 93.8852 379.648 94.0091 379.311 94.06C378.502 94.1616 377.683 93.9746 376.999 93.5319C376.315 93.0892 375.809 92.4192 375.571 91.64C375.419 91.1612 375.394 90.651 375.501 90.16C375.335 90.1279 375.168 90.1045 375.001 90.09V90.09Z" fill="white"/>
<path opacity="0.4" d="M335.76 112.81C335.887 113.175 335.933 113.564 335.895 113.949C335.857 114.334 335.736 114.706 335.54 115.04C335.509 115.085 335.476 115.128 335.44 115.17C335.49 115.4 335.54 115.62 335.58 115.85C335.742 115.691 335.883 115.513 336 115.32C336.235 114.921 336.382 114.476 336.43 114.015C336.478 113.555 336.427 113.089 336.28 112.65C336.01 111.849 335.501 111.151 334.82 110.65C334.82 110.88 334.82 111.12 334.82 111.36C335.247 111.76 335.569 112.257 335.76 112.81V112.81Z" fill="white"/>
<path opacity="0.4" d="M346.391 114.52C346.801 114.451 347.192 114.295 347.537 114.062C347.882 113.829 348.173 113.525 348.391 113.17C348.626 112.771 348.771 112.325 348.818 111.865C348.865 111.404 348.811 110.938 348.661 110.5C348.384 109.594 347.796 108.815 346.999 108.302C346.203 107.789 345.25 107.576 344.311 107.7C343.9 107.769 343.509 107.925 343.164 108.158C342.819 108.391 342.528 108.695 342.311 109.05C342.076 109.449 341.93 109.894 341.882 110.355C341.834 110.815 341.884 111.281 342.031 111.72C342.289 112.529 342.793 113.238 343.472 113.748C344.151 114.259 344.971 114.546 345.821 114.57C346.012 114.568 346.202 114.551 346.391 114.52V114.52ZM342.551 111.52C342.425 111.156 342.38 110.769 342.418 110.386C342.456 110.003 342.576 109.632 342.771 109.3C342.949 109.007 343.189 108.757 343.474 108.567C343.759 108.377 344.082 108.252 344.421 108.2C344.584 108.185 344.748 108.185 344.911 108.2C345.641 108.223 346.347 108.472 346.931 108.912C347.515 109.353 347.948 109.963 348.171 110.66C348.294 111.026 348.339 111.414 348.301 111.799C348.263 112.183 348.144 112.555 347.951 112.89C347.767 113.18 347.525 113.428 347.238 113.618C346.952 113.807 346.629 113.934 346.291 113.99C345.481 114.087 344.664 113.897 343.98 113.453C343.297 113.009 342.791 112.339 342.551 111.56V111.52Z" fill="white"/>
<path opacity="0.4" d="M360.82 111C361.051 110.599 361.194 110.154 361.24 109.694C361.287 109.234 361.236 108.769 361.09 108.33C360.814 107.424 360.226 106.645 359.429 106.132C358.632 105.619 357.68 105.406 356.74 105.53C356.33 105.599 355.939 105.755 355.594 105.988C355.249 106.221 354.958 106.525 354.74 106.88C354.51 107.281 354.367 107.726 354.321 108.186C354.274 108.646 354.325 109.111 354.47 109.55C354.729 110.357 355.231 111.063 355.909 111.572C356.586 112.08 357.404 112.366 358.25 112.39C358.44 112.405 358.631 112.405 358.82 112.39C359.234 112.317 359.628 112.154 359.973 111.914C360.318 111.674 360.607 111.362 360.82 111V111ZM355 109.41C354.874 109.044 354.828 108.656 354.866 108.271C354.904 107.886 355.025 107.514 355.22 107.18C355.401 106.889 355.641 106.641 355.926 106.451C356.211 106.261 356.533 106.135 356.87 106.08C357.034 106.07 357.197 106.07 357.36 106.08C358.091 106.106 358.795 106.357 359.377 106.799C359.959 107.242 360.39 107.853 360.61 108.55C360.736 108.914 360.781 109.301 360.743 109.684C360.705 110.067 360.585 110.438 360.391 110.77C360.213 111.063 359.974 111.314 359.688 111.504C359.403 111.694 359.079 111.819 358.74 111.87C357.927 111.97 357.104 111.777 356.419 111.326C355.734 110.876 355.231 110.197 355 109.41V109.41Z" fill="white"/>
<path opacity="0.4" d="M369.15 103.4C368.74 103.469 368.349 103.625 368.004 103.858C367.659 104.091 367.368 104.395 367.15 104.75C366.919 105.151 366.776 105.596 366.73 106.056C366.683 106.516 366.734 106.981 366.88 107.42C367.14 108.226 367.643 108.931 368.319 109.44C368.996 109.948 369.814 110.235 370.66 110.26C370.85 110.28 371.041 110.28 371.23 110.26C371.641 110.192 372.033 110.037 372.378 109.804C372.723 109.571 373.014 109.266 373.23 108.91C373.467 108.511 373.614 108.066 373.663 107.606C373.711 107.145 373.659 106.679 373.51 106.24C373.242 105.324 372.655 104.535 371.855 104.014C371.055 103.493 370.096 103.275 369.15 103.4V103.4ZM372.76 108.58C372.582 108.872 372.342 109.122 372.057 109.312C371.772 109.502 371.449 109.628 371.11 109.68C370.302 109.778 369.485 109.589 368.802 109.147C368.119 108.705 367.612 108.037 367.37 107.26C367.242 106.895 367.195 106.507 367.231 106.122C367.267 105.737 367.386 105.364 367.58 105.03C367.76 104.737 368.002 104.487 368.289 104.297C368.576 104.107 368.9 103.982 369.24 103.93C369.4 103.915 369.56 103.915 369.72 103.93C370.451 103.953 371.157 104.202 371.741 104.642C372.324 105.083 372.757 105.693 372.98 106.39C373.101 106.75 373.143 107.131 373.105 107.509C373.067 107.886 372.95 108.251 372.76 108.58V108.58Z" fill="white"/>
<path opacity="0.4" d="M381.64 101.78C381.803 101.766 381.967 101.766 382.13 101.78C382.605 101.792 383.072 101.902 383.503 102.103C383.933 102.305 384.317 102.593 384.63 102.95V102.17C384.213 101.815 383.726 101.552 383.2 101.399C382.675 101.245 382.122 101.205 381.58 101.28C381.17 101.349 380.779 101.505 380.434 101.738C380.089 101.971 379.797 102.275 379.58 102.63C379.346 103.029 379.2 103.474 379.152 103.935C379.103 104.395 379.154 104.861 379.3 105.3C379.56 106.108 380.064 106.816 380.743 107.327C381.421 107.837 382.241 108.125 383.09 108.15C383.281 108.148 383.472 108.132 383.66 108.1C384.15 108.014 384.61 107.808 385 107.5C385 107.27 385 107.05 384.95 106.82C384.583 107.217 384.094 107.481 383.56 107.57C382.751 107.667 381.933 107.477 381.25 107.033C380.566 106.589 380.06 105.919 379.82 105.14C379.695 104.776 379.649 104.389 379.687 104.006C379.725 103.623 379.846 103.252 380.04 102.92C380.21 102.627 380.44 102.373 380.716 102.176C380.992 101.98 381.307 101.845 381.64 101.78V101.78Z" fill="white"/>
<path opacity="0.4" d="M338.18 130.14C338.591 130.069 338.982 129.91 339.327 129.676C339.672 129.441 339.963 129.136 340.18 128.78C340.415 128.381 340.561 127.935 340.608 127.475C340.654 127.014 340.601 126.548 340.45 126.11C340.172 125.206 339.583 124.429 338.786 123.918C337.99 123.407 337.038 123.195 336.1 123.32H336.05V123.88H336.19C336.353 123.865 336.517 123.865 336.68 123.88C337.411 123.904 338.116 124.155 338.699 124.598C339.281 125.04 339.711 125.652 339.93 126.35C340.055 126.714 340.101 127.1 340.065 127.483C340.029 127.866 339.911 128.236 339.72 128.57C339.54 128.863 339.298 129.113 339.011 129.303C338.725 129.493 338.4 129.618 338.06 129.67C337.517 129.759 336.96 129.696 336.45 129.49L336.63 130.11C336.939 130.2 337.259 130.248 337.58 130.25C337.783 130.23 337.984 130.193 338.18 130.14V130.14Z" fill="white"/>
<path opacity="0.4" d="M348.54 121.17C348.13 121.239 347.739 121.395 347.394 121.628C347.049 121.861 346.758 122.165 346.54 122.52C346.31 122.921 346.166 123.366 346.12 123.826C346.073 124.286 346.124 124.751 346.27 125.19C346.532 125.982 347.03 126.676 347.696 127.178C348.363 127.68 349.166 127.967 350 128C350.191 127.998 350.382 127.981 350.57 127.95C350.981 127.882 351.373 127.727 351.718 127.494C352.063 127.261 352.354 126.956 352.57 126.6C352.807 126.201 352.954 125.757 353.003 125.296C353.051 124.835 352.999 124.369 352.85 123.93C352.568 123.039 351.982 122.275 351.194 121.77C350.407 121.266 349.468 121.054 348.54 121.17V121.17ZM352.37 124.17C352.497 124.535 352.542 124.924 352.504 125.309C352.466 125.694 352.346 126.066 352.15 126.4C351.969 126.69 351.728 126.938 351.444 127.128C351.159 127.317 350.838 127.444 350.5 127.5C349.692 127.598 348.876 127.409 348.192 126.967C347.509 126.525 347.002 125.857 346.76 125.08C346.635 124.715 346.589 124.327 346.625 123.942C346.661 123.558 346.779 123.185 346.97 122.85C347.151 122.557 347.392 122.307 347.679 122.117C347.966 121.927 348.29 121.802 348.63 121.75C348.79 121.735 348.951 121.735 349.11 121.75C349.83 121.766 350.528 122.002 351.11 122.426C351.693 122.849 352.132 123.44 352.37 124.12V124.17Z" fill="white"/>
<path opacity="0.4" d="M363 125.83C363.411 125.761 363.802 125.605 364.147 125.372C364.492 125.139 364.783 124.835 365 124.48C365.234 124.081 365.381 123.636 365.429 123.175C365.477 122.715 365.426 122.249 365.28 121.81C364.994 120.908 364.401 120.135 363.605 119.624C362.809 119.113 361.859 118.896 360.92 119.01C360.51 119.079 360.119 119.235 359.774 119.468C359.429 119.701 359.138 120.005 358.92 120.36C358.685 120.759 358.539 121.205 358.493 121.665C358.446 122.126 358.5 122.592 358.65 123.03C358.907 123.838 359.409 124.547 360.086 125.058C360.763 125.568 361.582 125.856 362.43 125.88C362.621 125.878 362.812 125.862 363 125.83V125.83ZM359.16 122.83C359.034 122.464 358.989 122.076 359.027 121.691C359.065 121.306 359.185 120.934 359.38 120.6C359.563 120.31 359.805 120.063 360.092 119.874C360.378 119.686 360.702 119.562 361.04 119.51C361.198 119.479 361.359 119.462 361.52 119.46C362.252 119.485 362.958 119.736 363.542 120.178C364.125 120.621 364.558 121.232 364.78 121.93C364.907 122.296 364.952 122.684 364.915 123.069C364.877 123.454 364.756 123.826 364.56 124.16C364.379 124.449 364.138 124.696 363.853 124.884C363.569 125.072 363.247 125.197 362.91 125.25C362.106 125.354 361.29 125.173 360.605 124.739C359.919 124.304 359.408 123.643 359.16 122.87V122.83Z" fill="white"/>
<path opacity="0.4" d="M371.33 118.21C371.096 118.609 370.95 119.054 370.902 119.515C370.853 119.975 370.904 120.441 371.05 120.88C371.31 121.687 371.815 122.394 372.494 122.903C373.172 123.411 373.992 123.697 374.84 123.72C375.026 123.735 375.214 123.735 375.4 123.72C375.811 123.651 376.202 123.495 376.547 123.262C376.892 123.029 377.183 122.725 377.4 122.37C377.63 121.967 377.774 121.52 377.82 121.059C377.867 120.597 377.815 120.131 377.67 119.69C377.392 118.786 376.803 118.009 376.006 117.498C375.21 116.987 374.258 116.775 373.32 116.9C372.915 116.966 372.528 117.116 372.185 117.342C371.842 117.568 371.551 117.864 371.33 118.21ZM373.93 117.35C374.661 117.373 375.367 117.623 375.95 118.066C376.532 118.508 376.962 119.122 377.18 119.82C377.306 120.175 377.355 120.553 377.324 120.929C377.293 121.305 377.182 121.67 377 122C376.82 122.293 376.578 122.543 376.291 122.733C376.005 122.923 375.68 123.048 375.34 123.1C374.532 123.202 373.713 123.015 373.029 122.572C372.345 122.129 371.839 121.459 371.6 120.68C371.474 120.314 371.428 119.926 371.466 119.541C371.504 119.156 371.625 118.784 371.82 118.45C372.001 118.16 372.242 117.912 372.527 117.722C372.811 117.533 373.133 117.406 373.47 117.35C373.623 117.337 373.777 117.337 373.93 117.35Z" fill="white"/>
<path opacity="0.4" d="M386.68 121C386.057 120.878 385.477 120.591 385.002 120.169C384.527 119.747 384.175 119.205 383.98 118.6C383.854 118.234 383.808 117.846 383.846 117.461C383.884 117.076 384.005 116.704 384.2 116.37C384.375 116.084 384.609 115.838 384.887 115.65C385.165 115.462 385.48 115.336 385.81 115.28C385.81 115.1 385.76 114.92 385.74 114.74C385.33 114.81 384.94 114.967 384.595 115.2C384.25 115.432 383.959 115.736 383.74 116.09C383.51 116.491 383.366 116.936 383.32 117.396C383.273 117.856 383.325 118.321 383.47 118.76C383.709 119.489 384.146 120.137 384.733 120.632C385.319 121.126 386.032 121.448 386.79 121.56C386.75 121.34 386.71 121.16 386.68 121Z" fill="white"/>
<path opacity="0.4" d="M344.69 139.58C344.476 138.926 344.102 138.336 343.603 137.863C343.104 137.39 342.494 137.049 341.83 136.87C341.83 137.05 341.83 137.24 341.83 137.43C342.372 137.604 342.865 137.903 343.269 138.305C343.672 138.707 343.974 139.199 344.15 139.74C344.291 140.105 344.35 140.496 344.325 140.887C344.299 141.277 344.188 141.657 344 142C343.679 142.5 343.178 142.858 342.6 143L342.69 143.54C343.424 143.359 344.059 142.9 344.46 142.26C344.687 141.856 344.826 141.407 344.865 140.945C344.905 140.483 344.845 140.017 344.69 139.58V139.58Z" fill="white"/>
<path opacity="0.4" d="M354.79 141.44C355.201 141.371 355.592 141.215 355.937 140.982C356.282 140.749 356.573 140.445 356.79 140.09C357.021 139.689 357.164 139.244 357.211 138.784C357.257 138.324 357.206 137.859 357.06 137.42C356.782 136.516 356.193 135.739 355.396 135.228C354.6 134.717 353.648 134.505 352.71 134.63C352.3 134.699 351.909 134.855 351.564 135.088C351.219 135.321 350.928 135.625 350.71 135.98C350.474 136.378 350.326 136.823 350.278 137.284C350.229 137.745 350.281 138.211 350.43 138.65C350.691 139.457 351.195 140.164 351.874 140.673C352.553 141.181 353.372 141.467 354.22 141.49C354.412 141.494 354.603 141.478 354.79 141.44V141.44ZM351 138.49C350.874 138.124 350.828 137.736 350.866 137.351C350.904 136.966 351.025 136.594 351.22 136.26C351.402 135.97 351.642 135.722 351.927 135.532C352.211 135.343 352.533 135.216 352.87 135.16C353.033 135.145 353.197 135.145 353.36 135.16C354.091 135.183 354.797 135.432 355.381 135.873C355.965 136.313 356.398 136.923 356.62 137.62C356.744 137.986 356.789 138.374 356.751 138.759C356.713 139.143 356.593 139.515 356.4 139.85C356.22 140.143 355.978 140.393 355.691 140.583C355.405 140.773 355.08 140.898 354.74 140.95C353.927 141.047 353.105 140.854 352.421 140.404C351.736 139.954 351.233 139.276 351 138.49V138.49Z" fill="white"/>
<path opacity="0.4" d="M366.63 139.34C366.821 139.338 367.012 139.321 367.2 139.29C367.611 139.221 368.002 139.065 368.347 138.832C368.692 138.599 368.983 138.295 369.2 137.94C369.431 137.539 369.574 137.094 369.62 136.634C369.667 136.174 369.616 135.709 369.47 135.27C369.194 134.364 368.606 133.585 367.809 133.072C367.012 132.559 366.06 132.346 365.12 132.47C364.709 132.541 364.318 132.699 363.974 132.934C363.629 133.169 363.338 133.474 363.12 133.83C362.885 134.229 362.74 134.675 362.693 135.135C362.646 135.596 362.7 136.062 362.85 136.5C363.11 137.306 363.613 138.011 364.29 138.52C364.967 139.028 365.784 139.315 366.63 139.34V139.34ZM363.63 134.11C363.808 133.817 364.047 133.566 364.333 133.376C364.618 133.186 364.941 133.061 365.28 133.01C365.443 132.995 365.607 132.995 365.77 133.01C366.5 133.034 367.204 133.283 367.786 133.723C368.368 134.164 368.8 134.774 369.02 135.47C369.147 135.836 369.193 136.224 369.155 136.609C369.117 136.994 368.996 137.366 368.8 137.7C368.62 137.991 368.38 138.239 368.095 138.429C367.81 138.619 367.488 138.745 367.15 138.8C366.341 138.897 365.523 138.707 364.84 138.263C364.156 137.819 363.651 137.149 363.41 136.37C363.273 136.003 363.218 135.61 363.249 135.22C363.28 134.829 363.396 134.45 363.59 134.11H363.63Z" fill="white"/>
<path opacity="0.4" d="M381.63 135.79C381.864 135.391 382.011 134.946 382.059 134.485C382.107 134.025 382.056 133.559 381.91 133.12C381.634 132.212 381.044 131.432 380.245 130.919C379.446 130.406 378.491 130.193 377.55 130.32C377.14 130.389 376.749 130.545 376.404 130.778C376.059 131.011 375.768 131.315 375.55 131.67C375.318 132.07 375.173 132.515 375.127 132.976C375.08 133.436 375.133 133.901 375.28 134.34C375.538 135.148 376.04 135.855 376.717 136.366C377.394 136.876 378.213 137.164 379.06 137.19C379.251 137.188 379.442 137.172 379.63 137.14C380.041 137.071 380.432 136.915 380.777 136.682C381.122 136.449 381.413 136.145 381.63 135.79V135.79ZM379.52 136.6C378.711 136.7 377.892 136.513 377.206 136.07C376.521 135.628 376.013 134.959 375.77 134.18C375.655 133.821 375.616 133.441 375.656 133.066C375.696 132.691 375.813 132.328 376 132C376.183 131.71 376.425 131.462 376.712 131.274C376.998 131.086 377.322 130.962 377.66 130.91C377.818 130.879 377.979 130.862 378.14 130.86C378.872 130.885 379.578 131.136 380.162 131.578C380.745 132.021 381.178 132.632 381.4 133.33C381.527 133.696 381.573 134.084 381.535 134.469C381.497 134.854 381.376 135.226 381.18 135.56C380.994 135.842 380.749 136.08 380.463 136.26C380.176 136.439 379.855 136.555 379.52 136.6V136.6Z" fill="white"/>
<path opacity="0.4" d="M389.45 134.43C389.39 134.17 389.32 133.91 389.26 133.64C388.757 133.215 388.383 132.657 388.18 132.03C388.054 131.666 388.008 131.279 388.046 130.896C388.084 130.513 388.205 130.142 388.4 129.81L388.25 129.12C388.134 129.242 388.03 129.377 387.94 129.52C387.706 129.919 387.559 130.364 387.511 130.825C387.463 131.285 387.514 131.751 387.66 132.19C387.97 133.127 388.605 133.922 389.45 134.43Z" fill="white"/>
<path opacity="0.4" d="M346.591 157.06C347.001 156.991 347.392 156.835 347.737 156.602C348.082 156.369 348.373 156.065 348.591 155.71C348.821 155.309 348.964 154.864 349.01 154.404C349.057 153.944 349.006 153.479 348.861 153.04C348.584 152.134 347.996 151.355 347.199 150.842C346.402 150.329 345.45 150.116 344.511 150.24C344.351 150.273 344.194 150.316 344.041 150.37L344.161 150.9C344.303 150.845 344.45 150.805 344.601 150.78C344.764 150.765 344.928 150.765 345.091 150.78C345.82 150.804 346.524 151.053 347.106 151.494C347.688 151.934 348.12 152.544 348.341 153.24C348.467 153.606 348.513 153.994 348.475 154.379C348.437 154.764 348.316 155.136 348.121 155.47C347.94 155.761 347.7 156.009 347.415 156.199C347.13 156.389 346.808 156.515 346.471 156.57C346.172 156.615 345.869 156.615 345.571 156.57L345.721 157.12H345.991C346.192 157.117 346.393 157.096 346.591 157.06V157.06Z" fill="white"/>
<path opacity="0.4" d="M354.92 149.44C354.69 149.841 354.547 150.286 354.501 150.746C354.454 151.206 354.505 151.671 354.65 152.11C354.908 152.918 355.41 153.625 356.087 154.136C356.764 154.646 357.583 154.934 358.43 154.96C358.621 154.958 358.812 154.941 359 154.91C359.411 154.842 359.803 154.687 360.148 154.454C360.493 154.221 360.784 153.916 361 153.56C361.234 153.161 361.38 152.716 361.429 152.255C361.477 151.795 361.426 151.329 361.28 150.89C360.995 149.989 360.405 149.216 359.611 148.705C358.816 148.194 357.868 147.976 356.93 148.09C356.518 148.158 356.125 148.313 355.778 148.546C355.431 148.779 355.139 149.084 354.92 149.44V149.44ZM357.52 148.58C358.252 148.605 358.958 148.856 359.542 149.298C360.125 149.741 360.558 150.352 360.78 151.05C360.906 151.414 360.951 151.801 360.913 152.184C360.875 152.567 360.755 152.938 360.56 153.27C360.382 153.563 360.142 153.813 359.857 154.003C359.572 154.193 359.249 154.318 358.91 154.37C358.101 154.47 357.282 154.283 356.596 153.84C355.911 153.398 355.402 152.729 355.16 151.95C355.036 151.584 354.992 151.196 355.03 150.811C355.068 150.427 355.187 150.055 355.38 149.72C355.564 149.43 355.806 149.182 356.092 148.992C356.378 148.803 356.702 148.676 357.04 148.62C357.199 148.597 357.36 148.583 357.52 148.58V148.58Z" fill="white"/>
<path opacity="0.4" d="M370.841 152.8C371.032 152.803 371.223 152.786 371.411 152.75C371.821 152.681 372.212 152.525 372.557 152.292C372.902 152.059 373.193 151.755 373.411 151.4C373.645 151.001 373.792 150.556 373.84 150.095C373.888 149.635 373.837 149.169 373.691 148.73C373.404 147.829 372.811 147.057 372.014 146.547C371.218 146.038 370.269 145.823 369.331 145.94C368.92 146.009 368.529 146.165 368.184 146.398C367.839 146.631 367.548 146.935 367.331 147.29C367.096 147.689 366.949 148.134 366.901 148.595C366.853 149.055 366.904 149.521 367.051 149.96C367.313 150.766 367.818 151.471 368.497 151.979C369.175 152.487 369.993 152.774 370.841 152.8ZM367.841 147.57C368.02 147.278 368.26 147.029 368.545 146.839C368.83 146.649 369.152 146.523 369.491 146.47C369.654 146.455 369.818 146.455 369.981 146.47C370.711 146.493 371.417 146.742 372.001 147.182C372.585 147.623 373.018 148.233 373.241 148.93C373.367 149.295 373.413 149.684 373.375 150.069C373.337 150.454 373.216 150.826 373.021 151.16C372.841 151.452 372.601 151.701 372.316 151.891C372.031 152.081 371.709 152.207 371.371 152.26C370.561 152.358 369.743 152.17 369.058 151.728C368.373 151.286 367.865 150.618 367.621 149.84C367.481 149.472 367.423 149.078 367.453 148.686C367.482 148.294 367.597 147.913 367.791 147.57H367.841Z" fill="white"/>
<path opacity="0.4" d="M383.24 150.65C383.432 150.649 383.622 150.632 383.81 150.6C384.221 150.531 384.612 150.375 384.957 150.142C385.302 149.909 385.593 149.605 385.81 149.25C386.045 148.851 386.191 148.405 386.238 147.945C386.284 147.484 386.231 147.018 386.08 146.58C385.804 145.674 385.216 144.895 384.419 144.382C383.622 143.869 382.67 143.656 381.73 143.78C381.32 143.848 380.928 144.003 380.583 144.236C380.238 144.469 379.947 144.774 379.73 145.13C379.496 145.529 379.35 145.974 379.302 146.435C379.254 146.895 379.304 147.361 379.45 147.8C379.709 148.609 380.213 149.318 380.892 149.829C381.571 150.339 382.391 150.626 383.24 150.65ZM380.24 145.42C380.419 145.128 380.659 144.877 380.944 144.687C381.229 144.497 381.552 144.372 381.89 144.32C382.053 144.305 382.218 144.305 382.38 144.32C383.11 144.344 383.814 144.593 384.396 145.034C384.978 145.474 385.41 146.084 385.63 146.78C385.758 147.145 385.806 147.533 385.77 147.918C385.733 148.303 385.614 148.675 385.42 149.01C385.237 149.3 384.994 149.548 384.708 149.738C384.422 149.927 384.099 150.054 383.76 150.11C382.951 150.207 382.134 150.017 381.45 149.573C380.767 149.129 380.261 148.459 380.02 147.68C379.883 147.313 379.828 146.921 379.859 146.53C379.89 146.139 380.007 145.76 380.2 145.42H380.24Z" fill="white"/>
<path opacity="0.4" d="M391.83 143.76C391.65 144.377 391.65 145.033 391.83 145.65C392.004 146.201 392.298 146.706 392.69 147.13C392.45 146.06 392.14 144.94 391.83 143.76Z" fill="white"/>
<path opacity="0.4" d="M348.74 163.71C348.385 163.774 348.045 163.906 347.74 164.1C347.79 164.27 347.84 164.46 347.9 164.63C348.198 164.423 348.541 164.29 348.9 164.24C349.06 164.225 349.221 164.225 349.38 164.24C350.111 164.263 350.817 164.512 351.401 164.952C351.985 165.393 352.418 166.003 352.64 166.7C352.805 167.238 352.805 167.812 352.64 168.35H353.18C353.345 167.754 353.345 167.125 353.18 166.53C352.906 165.603 352.305 164.806 351.489 164.288C350.673 163.769 349.696 163.564 348.74 163.71V163.71Z" fill="white"/>
<path opacity="0.4" d="M364.59 167L365.32 166.85C365.512 166.472 365.626 166.06 365.657 165.638C365.688 165.216 365.635 164.792 365.5 164.39C365.224 163.484 364.636 162.705 363.839 162.192C363.042 161.679 362.09 161.466 361.15 161.59C360.74 161.659 360.349 161.815 360.004 162.048C359.659 162.281 359.368 162.585 359.15 162.94C358.916 163.339 358.77 163.784 358.722 164.245C358.674 164.705 358.724 165.171 358.87 165.61C359.153 166.469 359.708 167.213 360.45 167.73L361.29 167.6C360.843 167.392 360.443 167.093 360.116 166.723C359.789 166.353 359.542 165.92 359.39 165.45C359.265 165.084 359.219 164.696 359.257 164.311C359.295 163.926 359.416 163.554 359.61 163.22C359.791 162.93 360.032 162.683 360.316 162.495C360.601 162.307 360.923 162.182 361.26 162.13C361.423 162.115 361.587 162.115 361.75 162.13C362.481 162.153 363.187 162.402 363.771 162.842C364.355 163.283 364.788 163.893 365.01 164.59C365.134 164.956 365.179 165.344 365.141 165.729C365.103 166.113 364.983 166.485 364.79 166.82C364.728 166.885 364.661 166.945 364.59 167Z" fill="white"/>
<path opacity="0.4" d="M378.06 163.42C378.084 163.004 378.033 162.588 377.91 162.19C377.632 161.286 377.043 160.509 376.246 159.998C375.45 159.487 374.498 159.275 373.56 159.4C373.15 159.469 372.759 159.625 372.414 159.858C372.069 160.091 371.778 160.395 371.56 160.75C371.33 161.151 371.187 161.596 371.141 162.056C371.094 162.516 371.145 162.981 371.29 163.42C371.502 164.071 371.873 164.659 372.37 165.13L373 165C372.442 164.565 372.028 163.973 371.81 163.3C371.669 162.927 371.612 162.526 371.645 162.128C371.678 161.73 371.799 161.345 372 161C372.181 160.709 372.421 160.461 372.706 160.271C372.991 160.081 373.313 159.955 373.65 159.9C373.81 159.89 373.97 159.89 374.13 159.9C374.863 159.924 375.569 160.174 376.153 160.616C376.737 161.059 377.169 161.672 377.39 162.37C377.518 162.767 377.559 163.186 377.51 163.6L378.06 163.42Z" fill="white"/>
<path opacity="0.4" d="M386 157.25C385.59 157.319 385.199 157.475 384.854 157.708C384.509 157.941 384.218 158.245 384 158.6C383.769 159.001 383.626 159.446 383.58 159.906C383.533 160.366 383.584 160.831 383.73 161.27C383.746 161.322 383.766 161.372 383.79 161.42L384.3 161.23L384.24 161.11C384.114 160.744 384.068 160.356 384.106 159.971C384.144 159.586 384.265 159.214 384.46 158.88C384.641 158.587 384.882 158.337 385.169 158.147C385.456 157.957 385.78 157.832 386.12 157.78C386.28 157.765 386.441 157.765 386.6 157.78C387.133 157.795 387.655 157.932 388.126 158.179C388.598 158.427 389.006 158.78 389.32 159.21L389.82 158.99C389.407 158.374 388.831 157.886 388.157 157.579C387.482 157.271 386.736 157.158 386 157.25Z" fill="white"/>
</g>
<path d="M387.71 98.75C388.53 99.32 389.15 99.75 389.85 100.27C390.55 100.79 391.18 101.27 391.85 101.78C393.16 102.78 394.42 103.88 395.67 104.97C398.2 107.195 400.585 109.58 402.81 112.11C403.93 113.4 405.03 114.75 406.08 116.17C407.146 117.638 408.131 119.164 409.03 120.74C411.138 124.275 412.436 128.233 412.83 132.33V132.75C412.875 133.291 412.828 133.835 412.69 134.36C412.003 136.853 410.994 139.247 409.69 141.48C408.547 143.487 407.26 145.408 405.84 147.23C404.476 148.985 403.024 150.671 401.49 152.28C399.963 153.887 398.344 155.402 396.64 156.82C395.98 157.358 395.154 157.652 394.303 157.655C393.451 157.657 392.624 157.368 391.96 156.834C391.297 156.3 390.836 155.555 390.656 154.722C390.476 153.89 390.587 153.021 390.97 152.26L391.05 152.11L393.8 146.75C394.7 144.96 395.58 143.19 396.37 141.42C397.16 139.65 397.9 137.9 398.5 136.22C399.058 134.732 399.447 133.185 399.66 131.61L399.55 133.61C399.051 131.599 398.187 129.698 397 128C395.507 125.84 393.834 123.809 392 121.93C390.09 119.93 388 118.01 385.87 116.16C384.8 115.22 383.69 114.32 382.59 113.41L380.92 112.09C380.38 111.66 379.76 111.19 379.33 110.87L379.17 110.75C377.672 109.578 376.684 107.874 376.412 105.992C376.14 104.11 376.606 102.195 377.711 100.648C378.816 99.1 380.476 98.0389 382.344 97.6853C384.213 97.3318 386.146 97.7132 387.74 98.75H387.71Z" fill="#7F3E3B"/>
<path d="M360.37 95.6699C362.32 103.15 379.78 114.07 379.78 114.07C379.78 114.07 394.09 109.07 395.07 102.12C393.51 99.7299 388.49 93.0199 381.57 90.8599C375.4 88.9299 366 89.1499 360.37 95.6699Z" fill="#263238"/>
<g opacity="0.4">
<path opacity="0.4" d="M360.5 95.53C360.781 95.3266 361.101 95.1836 361.44 95.11C361.643 95.0621 361.851 95.0386 362.06 95.04C362.767 95.0593 363.453 95.2896 364.028 95.7012C364.604 96.1128 365.043 96.687 365.29 97.35C365.435 97.7074 365.5 98.092 365.481 98.4772C365.462 98.8624 365.359 99.2387 365.18 99.58C365.015 99.8809 364.786 100.142 364.51 100.346C364.233 100.55 363.916 100.691 363.58 100.76H363.42L363.82 101.23C364.206 101.133 364.569 100.957 364.885 100.715C365.202 100.472 365.465 100.168 365.66 99.82C365.874 99.4095 365.997 98.9577 366.022 98.4953C366.046 98.0329 365.97 97.5707 365.8 97.14C365.484 96.2652 364.872 95.528 364.071 95.0553C363.27 94.5825 362.329 94.4039 361.41 94.55C361.1 94.87 360.8 95.19 360.5 95.53Z" fill="white"/>
<path opacity="0.4" d="M373.61 91.84C373.2 91.9233 372.813 92.0953 372.476 92.3441C372.139 92.5928 371.861 92.9123 371.66 93.28C371.445 93.6901 371.32 94.1415 371.295 94.6038C371.269 95.0661 371.342 95.5286 371.51 95.9601C371.799 96.7278 372.309 97.392 372.978 97.8676C373.646 98.3433 374.44 98.6088 375.26 98.63C375.506 98.6281 375.75 98.6013 375.99 98.55C376.407 98.4642 376.802 98.2905 377.146 98.0405C377.491 97.7904 377.779 97.4699 377.99 97.1001C378.204 96.6893 378.327 96.2375 378.351 95.7752C378.375 95.3129 378.3 94.8508 378.13 94.42C377.809 93.5215 377.176 92.7675 376.347 92.2944C375.518 91.8213 374.548 91.6601 373.61 91.84V91.84ZM377.61 94.61C377.755 94.9675 377.819 95.3521 377.801 95.7372C377.782 96.1222 377.679 96.4985 377.5 96.84C377.333 97.1396 377.104 97.4 376.828 97.6035C376.552 97.807 376.236 97.9491 375.9 98.02C375.098 98.1557 374.273 98.0059 373.57 97.5967C372.866 97.1875 372.329 96.5446 372.05 95.78C371.906 95.4209 371.841 95.0347 371.86 94.648C371.879 94.2613 371.981 93.8833 372.16 93.54C372.327 93.2405 372.556 92.9801 372.832 92.7766C373.108 92.573 373.425 92.431 373.76 92.36C373.964 92.3203 374.172 92.3002 374.38 92.3C375.083 92.3226 375.763 92.5545 376.333 92.9661C376.903 93.3776 377.338 93.9501 377.58 94.61H377.61Z" fill="white"/>
<path opacity="0.4" d="M383.8 93.22C384.089 93.9866 384.6 94.6495 385.268 95.1234C385.937 95.5974 386.731 95.8609 387.55 95.88C387.796 95.8834 388.041 95.8565 388.28 95.8C388.634 95.7251 388.972 95.5898 389.28 95.4L388.84 95.03C388.638 95.1365 388.423 95.2172 388.2 95.27C387.398 95.4077 386.572 95.2588 385.868 94.8493C385.165 94.4398 384.627 93.7958 384.35 93.03C384.215 92.6655 384.151 92.2786 384.16 91.89L383.65 91.66C383.582 92.1847 383.634 92.7179 383.8 93.22Z" fill="white"/>
<path opacity="0.4" d="M378.46 105.08C378.04 105.16 377.644 105.331 377.298 105.581C376.952 105.832 376.666 106.156 376.46 106.53C376.242 106.939 376.116 107.391 376.09 107.853C376.065 108.316 376.139 108.779 376.31 109.21C376.6 109.976 377.112 110.638 377.779 111.112C378.447 111.585 379.241 111.849 380.06 111.87C380.306 111.873 380.551 111.846 380.79 111.79C381.208 111.711 381.604 111.541 381.95 111.292C382.296 111.043 382.582 110.722 382.79 110.35C383.003 109.939 383.126 109.488 383.152 109.026C383.178 108.564 383.105 108.102 382.94 107.67C382.621 106.778 381.996 106.027 381.175 105.553C380.355 105.079 379.393 104.911 378.46 105.08ZM382.46 107.85C382.6 108.21 382.662 108.597 382.642 108.983C382.621 109.369 382.518 109.747 382.34 110.09C382.176 110.391 381.948 110.652 381.671 110.854C381.395 111.057 381.077 111.195 380.74 111.26C379.938 111.396 379.113 111.246 378.41 110.837C377.706 110.427 377.169 109.785 376.89 109.02C376.745 108.663 376.68 108.278 376.699 107.893C376.718 107.508 376.821 107.131 377 106.79C377.167 106.49 377.396 106.23 377.672 106.027C377.948 105.823 378.265 105.681 378.6 105.61C378.807 105.562 379.018 105.538 379.23 105.54C379.932 105.566 380.61 105.8 381.179 106.211C381.749 106.622 382.184 107.192 382.43 107.85H382.46Z" fill="white"/>
<path opacity="0.4" d="M390.75 102.34C390.331 102.418 389.935 102.587 389.589 102.836C389.243 103.085 388.957 103.407 388.75 103.78C388.532 104.189 388.406 104.641 388.38 105.104C388.355 105.566 388.43 106.029 388.6 106.46C388.93 107.321 389.534 108.048 390.32 108.53L390.78 108.17C390.012 107.764 389.418 107.092 389.11 106.28C388.965 105.921 388.901 105.535 388.919 105.148C388.938 104.761 389.041 104.383 389.22 104.04C389.386 103.741 389.615 103.481 389.891 103.279C390.168 103.077 390.484 102.937 390.82 102.87C391.027 102.822 391.238 102.799 391.45 102.8C392.003 102.816 392.545 102.962 393.031 103.226C393.518 103.49 393.935 103.865 394.25 104.32C394.35 104.15 394.44 103.97 394.53 103.78C394.085 103.226 393.5 102.8 392.836 102.547C392.171 102.294 391.451 102.222 390.75 102.34V102.34Z" fill="white"/>
</g>
<path d="M351.33 106C351.33 106 360.09 100.18 365.44 104.29C374.83 91.4 369.83 87.85 367.55 90.96C359.14 94.27 351.33 106 351.33 106Z" fill="white"/>
<path d="M351.33 106C351.33 106 346.19 103.35 344.57 105.68C343.8 97.81 347.22 94.5701 348.74 95.6301C348.17 97.8001 351.33 106 351.33 106Z" fill="white"/>
<path d="M363.12 70.41C363.12 76.61 364.01 86.49 367.55 91C362.808 96.6739 357.357 101.715 351.33 106C347.64 99.44 348.74 95.63 348.74 95.63C353.06 93.43 352.42 87.68 351.35 83.34L363.12 70.41Z" fill="#7F3E3B"/>
<path opacity="0.2" d="M351.35 83.38L358 76C358.376 77.2087 358.428 78.495 358.15 79.73C357.238 83.3003 355.096 86.4342 352.1 88.58C352.031 86.8254 351.779 85.0828 351.35 83.38V83.38Z" fill="black"/>
<path d="M364.31 58.77C364.31 68.83 364.58 73.0801 359.94 78.5501C352.94 86.7701 340.84 84.55 337.86 74.73C335.17 65.86 335.55 50.9001 344.91 46.2901C354.27 41.6801 364.26 48.7 364.31 58.77Z" fill="#7F3E3B"/>
<path d="M357.7 47.7199C351.48 53.4399 358.14 61.9999 363.2 63.5599C368.26 65.1199 369.61 42.6599 357.7 47.7199Z" fill="#263238"/>
<path d="M362 47.58C359.33 53.83 335.55 50.5 334.73 59.17C333.31 46.25 351.81 38.17 362 47.58Z" fill="#263238"/>
<path d="M350.25 63C350.3 63.82 349.91 64.51 349.38 64.54C348.85 64.57 348.38 63.94 348.32 63.12C348.26 62.3 348.66 61.62 349.19 61.59C349.72 61.56 350.2 62.19 350.25 63Z" fill="#263238"/>
<path d="M340.22 63.8C340.28 64.62 339.89 65.31 339.35 65.34C338.81 65.37 338.35 64.74 338.29 63.92C338.23 63.1 338.63 62.42 339.16 62.38C339.69 62.34 340.17 63 340.22 63.8Z" fill="#263238"/>
<path d="M339.4 62.41L337.4 61.98C337.4 61.98 338.51 63.44 339.4 62.41Z" fill="#263238"/>
<path d="M342.72 63.87C342.113 65.777 341.244 67.5908 340.14 69.26C340.576 69.5315 341.066 69.7044 341.575 69.7666C342.085 69.8288 342.602 69.7787 343.09 69.62L342.72 63.87Z" fill="#630F0F"/>
<path d="M348 72.33C347.555 72.445 347.099 72.5154 346.64 72.54C346.578 72.5428 346.517 72.5214 346.471 72.4804C346.424 72.4394 346.395 72.3819 346.39 72.32C346.387 72.2885 346.391 72.2567 346.4 72.2265C346.41 72.1964 346.425 72.1684 346.446 72.1442C346.466 72.12 346.491 72.1002 346.52 72.0857C346.548 72.0713 346.578 72.0625 346.61 72.06C347.627 72.0168 348.62 71.7344 349.508 71.2357C350.396 70.7371 351.154 70.0362 351.72 69.19C351.753 69.1359 351.806 69.0964 351.867 69.0797C351.929 69.063 351.994 69.0703 352.05 69.1C352.104 69.1333 352.144 69.1859 352.16 69.2472C352.177 69.3085 352.17 69.3739 352.14 69.43C351.191 70.8994 349.705 71.9399 348 72.33V72.33Z" fill="#263238"/>
<path d="M367.34 67.3399C366.911 68.324 366.278 69.2061 365.483 69.9283C364.689 70.6504 363.75 71.1963 362.73 71.5299C360.11 72.2799 358.79 69.4199 359.5 66.5299C360.15 63.8999 362.28 60.3399 364.91 60.8899C367.54 61.4399 368.53 64.7499 367.34 67.3399Z" fill="#7F3E3B"/>
<path d="M351.79 57.4399C351.724 57.4388 351.66 57.423 351.601 57.3936C351.542 57.3641 351.49 57.3219 351.45 57.2699C351.072 56.7998 350.59 56.4246 350.041 56.1745C349.492 55.9245 348.893 55.8064 348.29 55.8299C348.224 55.8372 348.158 55.8314 348.094 55.8129C348.031 55.7945 347.972 55.7637 347.92 55.7224C347.869 55.6811 347.826 55.63 347.794 55.5721C347.762 55.5142 347.742 55.4506 347.735 55.3849C347.728 55.3193 347.734 55.2528 347.752 55.1894C347.77 55.126 347.801 55.0668 347.843 55.0153C347.884 54.9637 347.935 54.9209 347.993 54.8891C348.051 54.8573 348.114 54.8372 348.18 54.8299C348.94 54.7857 349.7 54.9242 350.396 55.2339C351.092 55.5436 351.704 56.0154 352.18 56.6099C352.26 56.7072 352.298 56.8319 352.287 56.9572C352.276 57.0825 352.216 57.1984 352.12 57.2799C352.035 57.3749 351.917 57.4324 351.79 57.4399V57.4399Z" fill="#263238"/>
<path d="M335.23 58.7999C335.108 58.8123 334.986 58.7764 334.89 58.6999C334.841 58.6602 334.799 58.6109 334.769 58.5551C334.739 58.4992 334.719 58.4379 334.713 58.3746C334.706 58.3113 334.713 58.2474 334.731 58.1865C334.749 58.1256 334.78 58.069 334.82 58.0199C335.289 57.4126 335.897 56.9274 336.594 56.6053C337.29 56.2832 338.054 56.1339 338.82 56.1699C338.953 56.1832 339.075 56.2486 339.159 56.3517C339.244 56.4549 339.283 56.5873 339.27 56.7199C339.257 56.8526 339.192 56.9745 339.088 57.0588C338.985 57.1432 338.853 57.1832 338.72 57.1699C338.117 57.1542 337.519 57.282 336.974 57.5428C336.43 57.8036 335.956 58.1899 335.59 58.6699C335.543 58.7157 335.486 58.7509 335.424 58.7733C335.362 58.7956 335.296 58.8047 335.23 58.7999V58.7999Z" fill="#263238"/>
<path d="M349.43 61.6299L347.43 61.1899C347.43 61.1899 348.54 62.6499 349.43 61.6299Z" fill="#263238"/>
<path d="M392.28 150.67L389.37 154.13C388.408 155.276 387.767 156.656 387.51 158.13L387.24 159.68C387.11 160.414 387.238 161.171 387.603 161.822C387.967 162.473 388.546 162.977 389.24 163.25L392.87 164.67C393.663 164.976 394.546 164.958 395.326 164.619C396.106 164.28 396.722 163.649 397.04 162.86L397.68 161.25C397.68 161.25 400.9 155.39 400.14 150.25L398.74 149.81C397.67 149.442 396.53 149.329 395.409 149.478C394.287 149.627 393.216 150.035 392.28 150.67Z" fill="#7F3E3B"/>
</svg>
