<svg width="500" height="373" viewBox="0 0 500 373" fill="none" xmlns="http://www.w3.org/2000/svg">
<path d="M500 327.4H0V327.65H500V327.4Z" fill="#EBEBEB"/>
<path d="M449.9 343.49H416.78V343.74H449.9V343.49Z" fill="#EBEBEB"/>
<path d="M331.22 346.21H322.53V346.46H331.22V346.21Z" fill="#EBEBEB"/>
<path d="M415.78 334.21H396.59V334.46H415.78V334.21Z" fill="#EBEBEB"/>
<path d="M95.65 335.89H52.46V336.14H95.65V335.89Z" fill="#EBEBEB"/>
<path d="M110.89 335.89H104.56V336.14H110.89V335.89Z" fill="#EBEBEB"/>
<path d="M225.15 340.11H131.47V340.36H225.15V340.11Z" fill="#EBEBEB"/>
<path d="M237 282.8H43.91C42.3973 282.797 40.9475 282.195 39.8788 281.124C38.8102 280.054 38.21 278.603 38.21 277.09V5.66C38.2231 4.15603 38.8292 2.71798 39.8964 1.65822C40.9637 0.598458 42.4059 0.00257639 43.91 0H237C238.514 0 239.967 0.601588 241.038 1.67242C242.108 2.74325 242.71 4.19561 242.71 5.71V277.09C242.71 278.604 242.108 280.057 241.038 281.128C239.967 282.198 238.514 282.8 237 282.8V282.8ZM43.91 0.200001C42.4636 0.20265 41.0774 0.779065 40.0556 1.80273C39.0338 2.82639 38.46 4.21365 38.46 5.66V277.09C38.46 278.536 39.0338 279.924 40.0556 280.947C41.0774 281.971 42.4636 282.547 43.91 282.55H237C238.447 282.547 239.834 281.971 240.858 280.948C241.881 279.924 242.457 278.537 242.46 277.09V5.66C242.457 4.21273 241.881 2.82549 240.858 1.80212C239.834 0.77874 238.447 0.202644 237 0.200001H43.91Z" fill="#EBEBEB"/>
<path d="M453.31 282.8H260.21C258.696 282.797 257.246 282.195 256.175 281.125C255.105 280.054 254.503 278.604 254.5 277.09V5.66C254.516 4.15511 255.124 2.71708 256.193 1.65759C257.262 0.598109 258.705 0.00254829 260.21 0H453.31C454.812 0.0052045 456.252 0.602249 457.317 1.66173C458.382 2.72121 458.987 4.15775 459 5.66V277.09C459 278.601 458.401 280.05 457.335 281.121C456.268 282.191 454.821 282.795 453.31 282.8V282.8ZM260.21 0.200001C258.763 0.202644 257.375 0.77874 256.352 1.80212C255.329 2.82549 254.753 4.21273 254.75 5.66V277.09C254.753 278.537 255.329 279.924 256.352 280.948C257.375 281.971 258.763 282.547 260.21 282.55H453.31C454.757 282.547 456.145 281.971 457.168 280.948C458.191 279.924 458.767 278.537 458.77 277.09V5.66C458.767 4.21273 458.191 2.82549 457.168 1.80212C456.145 0.77874 454.757 0.202644 453.31 0.200001H260.21Z" fill="#EBEBEB"/>
<path d="M267.78 327.4H302.88V196.67H267.78V327.4Z" fill="#E6E6E6"/>
<path d="M273.62 327.4H267.78V315.63H279.75L273.62 327.4Z" fill="#F0F0F0"/>
<path d="M410.64 327.4H445.74V196.67H410.64V327.4Z" fill="#E6E6E6"/>
<path d="M267.78 322.88H415.74V196.67H267.78V322.88Z" fill="#F0F0F0"/>
<path d="M272.32 236.87L411.21 236.87V202.26H272.32V236.87Z" fill="#E6E6E6"/>
<path d="M335.2 213H348.32C354.02 213 359.47 208.73 363.39 201.19H320.13C324.05 208.75 329.5 213 335.2 213Z" fill="#F0F0F0"/>
<path d="M409.9 327.4H415.74V315.63H403.77L409.9 327.4Z" fill="#F0F0F0"/>
<path d="M272.32 277.08H411.21V242.47H272.32V277.08Z" fill="#E6E6E6"/>
<path d="M335.2 253.22H348.32C354.02 253.22 359.47 248.95 363.39 241.41H320.13C324.05 249 329.5 253.22 335.2 253.22Z" fill="#F0F0F0"/>
<path d="M272.32 317.29H411.21V282.68H272.32V317.29Z" fill="#E6E6E6"/>
<path d="M335.2 293.43H348.32C354.02 293.43 359.47 289.16 363.39 281.62H320.13C324.05 289.16 329.5 293.43 335.2 293.43Z" fill="#F0F0F0"/>
<path d="M77.99 167.02L212.03 167.02L212.03 31.39L77.99 31.39L77.99 167.02Z" fill="#E6E6E6"/>
<path d="M68.6801 167.02L209.56 167.02L209.56 31.39L68.6801 31.39L68.6801 167.02Z" fill="#F0F0F0"/>
<path d="M197.77 155.22V43.1899L80.5 43.1899V155.22H197.77Z" fill="white"/>
<path d="M138.32 58L116.8 79.56C111.6 84.7734 108.679 91.8364 108.679 99.2C108.679 106.564 111.6 113.627 116.8 118.84L138.32 140.37C138.425 140.475 138.55 140.559 138.687 140.616C138.824 140.673 138.971 140.702 139.12 140.702C139.269 140.702 139.416 140.673 139.553 140.616C139.69 140.559 139.815 140.475 139.92 140.37L161.45 118.84C166.65 113.627 169.571 106.564 169.571 99.2C169.571 91.8364 166.65 84.7734 161.45 79.56L139.93 58C139.715 57.7893 139.426 57.6713 139.125 57.6713C138.824 57.6713 138.535 57.7893 138.32 58V58ZM118.4 117.2C113.625 112.412 110.944 105.927 110.944 99.165C110.944 92.4034 113.625 85.9177 118.4 81.13V117.2ZM159.85 117.2V81.17C164.625 85.9577 167.306 92.4434 167.306 99.205C167.306 105.967 164.625 112.452 159.85 117.24V117.2Z" fill="#F0F0F0"/>
<path d="M406.85 150H331.96L327.69 194.22H402.58L406.85 150Z" fill="#E6E6E6"/>
<path d="M402.58 194.22L402.28 196.67H327.38L327.69 194.22H402.58Z" fill="#E6E6E6"/>
<path d="M404.55 150H329.66L325.38 194.22H400.27L404.55 150Z" fill="#F0F0F0"/>
<path d="M398.76 191.34L401.89 153C401.898 152.872 401.88 152.745 401.837 152.624C401.794 152.504 401.727 152.393 401.64 152.3C401.553 152.206 401.448 152.131 401.331 152.08C401.214 152.028 401.088 152.001 400.96 152H332.11C331.874 151.999 331.646 152.087 331.472 152.246C331.298 152.406 331.19 152.625 331.17 152.86L328 191.19C327.992 191.318 328.01 191.447 328.054 191.568C328.097 191.689 328.165 191.8 328.253 191.894C328.341 191.988 328.448 192.062 328.566 192.113C328.684 192.164 328.811 192.19 328.94 192.19H397.79C398.03 192.201 398.265 192.119 398.446 191.96C398.627 191.802 398.74 191.58 398.76 191.34V191.34Z" fill="white"/>
<path d="M380.76 194.22L380.46 196.67H297.99L298.29 194.22H380.76Z" fill="#F0F0F0"/>
<path d="M280.09 126.36L420.72 126.36V32.87L280.09 32.87V126.36Z" fill="#E6E6E6"/>
<path d="M276.97 126.36L417.6 126.36V32.87L276.97 32.87V126.36Z" fill="#F5F5F5"/>
<path d="M411.99 120.06V39.1799L282.58 39.1799V120.06L411.99 120.06Z" fill="white"/>
<path d="M284.93 120.05V39.17H282.57V120.05H284.93Z" fill="#E6E6E6"/>
<path d="M279.29 109.33L415.28 109.33V100.87L279.29 100.87V109.33Z" fill="#F5F5F5"/>
<path d="M270.85 22.45H426.85C427.077 22.4525 427.294 22.544 427.455 22.7047C427.616 22.8654 427.707 23.0827 427.71 23.31V23.31C427.71 23.538 427.619 23.7568 427.458 23.9181C427.297 24.0793 427.078 24.17 426.85 24.17H270.85C270.736 24.1713 270.623 24.15 270.518 24.1074C270.412 24.0648 270.316 24.0016 270.235 23.9216C270.154 23.8416 270.09 23.7464 270.046 23.6414C270.003 23.5364 269.98 23.4237 269.98 23.31V23.31C269.983 23.081 270.075 22.8622 270.238 22.7012C270.401 22.5402 270.621 22.4499 270.85 22.45V22.45Z" fill="#E6E6E6"/>
<path d="M267.83 23.31C267.83 23.7368 267.957 24.154 268.193 24.509C268.43 24.864 268.767 25.1409 269.161 25.3046C269.555 25.4684 269.989 25.5118 270.408 25.4292C270.827 25.3467 271.211 25.142 271.514 24.8409C271.816 24.5398 272.023 24.1559 272.107 23.7375C272.192 23.3192 272.15 22.8852 271.989 22.4904C271.827 22.0955 271.551 21.7575 271.197 21.5189C270.843 21.2804 270.427 21.152 270 21.15C269.716 21.1487 269.434 21.2036 269.17 21.3116C268.907 21.4195 268.668 21.5784 268.466 21.7792C268.265 21.9799 268.105 22.2184 267.995 22.4811C267.886 22.7438 267.83 23.0255 267.83 23.31V23.31Z" fill="#E6E6E6"/>
<path d="M419.55 28.15C419.857 28.15 420.151 28.0295 420.37 27.8144C420.589 27.5993 420.715 27.3068 420.72 27V24.5C420.72 24.1897 420.597 23.8921 420.377 23.6726C420.158 23.4532 419.86 23.33 419.55 23.33V23.33C419.397 23.33 419.245 23.3603 419.104 23.4192C418.962 23.4781 418.834 23.5645 418.726 23.6732C418.618 23.782 418.533 23.9111 418.475 24.053C418.418 24.1949 418.389 24.3468 418.39 24.5V27C418.395 27.3051 418.519 27.596 418.736 27.8109C418.953 28.0257 419.245 28.1474 419.55 28.15V28.15Z" fill="#E6E6E6"/>
<path d="M283.87 28.15C284.169 28.1374 284.452 28.0116 284.662 27.798C284.872 27.5845 284.993 27.2992 285 27V24.5C285 24.1897 284.877 23.8921 284.657 23.6726C284.438 23.4532 284.14 23.33 283.83 23.33C283.677 23.33 283.525 23.3603 283.384 23.4192C283.242 23.4781 283.114 23.5645 283.006 23.6732C282.898 23.782 282.813 23.9111 282.755 24.053C282.698 24.1949 282.669 24.3468 282.67 24.5V27C282.673 27.1545 282.706 27.3069 282.768 27.4486C282.829 27.5902 282.919 27.7181 283.03 27.8251C283.142 27.932 283.273 28.0158 283.418 28.0715C283.562 28.1273 283.715 28.1539 283.87 28.15V28.15Z" fill="#E6E6E6"/>
<path opacity="0.4" d="M271.13 114.14L415.28 114.14V23.31L271.13 23.31V114.14Z" fill="#E0E0E0"/>
<path d="M403.51 23.31C403.51 23.7372 403.637 24.1548 403.874 24.5101C404.111 24.8653 404.449 25.1421 404.843 25.3056C405.238 25.4691 405.672 25.5119 406.091 25.4285C406.51 25.3452 406.895 25.1395 407.197 24.8374C407.499 24.5353 407.705 24.1504 407.788 23.7314C407.872 23.3124 407.829 22.8781 407.666 22.4834C407.502 22.0887 407.225 21.7514 406.87 21.514C406.515 21.2767 406.097 21.15 405.67 21.15C405.097 21.15 404.548 21.3776 404.143 21.7827C403.738 22.1877 403.51 22.7372 403.51 23.31Z" fill="#E6E6E6"/>
<path d="M199.5 320.92H211.06V220.65H199.5V320.92Z" fill="#F0F0F0"/>
<path d="M74.1001 327.27H206.62V320.92H74.1001V327.27Z" fill="#F0F0F0"/>
<path d="M199.5 220.65H69.6599V320.92H199.5V220.65Z" fill="#F5F5F5"/>
<path d="M183.29 232.99H85.87C81.9377 232.99 78.75 236.178 78.75 240.11V258.75C78.75 262.682 81.9377 265.87 85.87 265.87H183.29C187.222 265.87 190.41 262.682 190.41 258.75V240.11C190.41 236.178 187.222 232.99 183.29 232.99Z" fill="#F0F0F0"/>
<path d="M183.29 275.69H85.87C81.9377 275.69 78.75 278.878 78.75 282.81V301.45C78.75 305.382 81.9377 308.57 85.87 308.57H183.29C187.222 308.57 190.41 305.382 190.41 301.45V282.81C190.41 278.878 187.222 275.69 183.29 275.69Z" fill="#F0F0F0"/>
<path d="M110.39 251.69H158.77C159.368 251.69 159.941 251.453 160.364 251.032C160.788 250.61 161.027 250.038 161.03 249.44V249.44C161.027 248.841 160.788 248.268 160.365 247.845C159.942 247.422 159.368 247.183 158.77 247.18H110.39C109.791 247.183 109.218 247.422 108.795 247.845C108.371 248.268 108.133 248.841 108.13 249.44V249.44C108.133 250.038 108.372 250.61 108.795 251.032C109.219 251.453 109.792 251.69 110.39 251.69Z" fill="#F5F5F5"/>
<path d="M110.39 294.39H158.77C159.368 294.39 159.941 294.153 160.364 293.732C160.788 293.31 161.027 292.738 161.03 292.14V292.14C161.027 291.541 160.788 290.968 160.365 290.545C159.942 290.122 159.368 289.883 158.77 289.88H110.39C109.791 289.883 109.218 290.122 108.795 290.545C108.371 290.968 108.133 291.541 108.13 292.14V292.14C108.133 292.738 108.372 293.31 108.795 293.732C109.219 294.153 109.792 294.39 110.39 294.39V294.39Z" fill="#F5F5F5"/>
<path d="M250 372.56C357.083 372.56 443.89 367.492 443.89 361.24C443.89 354.988 357.083 349.92 250 349.92C142.918 349.92 56.1101 354.988 56.1101 361.24C56.1101 367.492 142.918 372.56 250 372.56Z" fill="#F5F5F5"/>
<path d="M292.85 46.45H108.05L122.41 298.12H307.2L292.85 46.45Z" fill="#263238"/>
<path d="M296.44 46.45H111.64L126 298.12H310.8L296.44 46.45Z" fill="#1999B9"/>
<path opacity="0.5" d="M283.71 54.9099H120.09L131.82 282.72H299.69L283.71 54.9099Z" fill="black"/>
<path d="M120.09 54.9099C132.25 130.85 123.91 206.79 136.09 282.72H303.94C291.78 206.79 300.12 130.85 287.94 54.9099H120.09Z" fill="white"/>
<g opacity="0.3">
<path opacity="0.3" d="M154.049 81.8303C157.756 81.86 161.31 83.3112 163.978 85.8845C166.647 88.4578 168.225 91.957 168.389 95.6603C168.464 97.4418 168.175 99.2198 167.541 100.886C166.907 102.552 165.94 104.072 164.699 105.353C163.459 106.634 161.971 107.649 160.325 108.336C158.68 109.023 156.912 109.368 155.129 109.35C151.445 109.32 147.914 107.873 145.269 105.309C142.623 102.745 141.066 99.2615 140.919 95.5803C140.842 93.8041 141.124 92.0306 141.748 90.3657C142.371 88.7008 143.324 87.1787 144.549 85.8903C145.778 84.6135 147.254 83.6003 148.888 82.9126C150.521 82.2249 152.277 81.8771 154.049 81.8903V81.8303ZM153.949 79.0003C151.794 78.9868 149.658 79.4131 147.673 80.2531C145.688 81.0932 143.895 82.3293 142.404 83.8858C140.913 85.4424 139.755 87.2868 139.001 89.3061C138.247 91.3255 137.913 93.4774 138.019 95.6303C138.194 100.075 140.073 104.282 143.266 107.378C146.459 110.474 150.721 112.223 155.169 112.26C157.335 112.278 159.481 111.856 161.478 111.02C163.476 110.185 165.283 108.952 166.79 107.397C168.297 105.842 169.473 103.998 170.246 101.975C171.02 99.9525 171.375 97.794 171.289 95.6303C171.074 91.1665 169.157 86.9547 165.932 83.8614C162.706 80.768 158.418 79.0284 153.949 79.0003V79.0003Z" fill="#1999B9"/>
</g>
<path d="M246.859 206.58H193.859C193.463 206.574 193.069 206.651 192.705 206.809C192.341 206.966 192.015 207.199 191.748 207.493C191.481 207.786 191.28 208.133 191.158 208.51C191.036 208.887 190.995 209.286 191.039 209.68V209.68C191.136 210.523 191.534 211.303 192.161 211.875C192.788 212.446 193.601 212.772 194.449 212.79H247.449C247.846 212.798 248.24 212.72 248.604 212.562C248.968 212.404 249.293 212.169 249.559 211.874C249.824 211.579 250.023 211.231 250.143 210.852C250.262 210.474 250.298 210.074 250.249 209.68V209.68C250.155 208.841 249.76 208.064 249.136 207.494C248.513 206.924 247.704 206.599 246.859 206.58V206.58Z" fill="#E0E0E0"/>
<path d="M275.209 193.53H192.789C192.39 193.523 191.994 193.6 191.627 193.756C191.26 193.912 190.931 194.145 190.66 194.437C190.389 194.73 190.183 195.077 190.055 195.455C189.927 195.833 189.881 196.233 189.919 196.63C189.991 197.471 190.373 198.254 190.99 198.829C191.607 199.404 192.416 199.729 193.259 199.74H275.639C276.039 199.752 276.436 199.679 276.805 199.525C277.174 199.372 277.507 199.143 277.781 198.852C278.055 198.561 278.264 198.215 278.395 197.837C278.525 197.46 278.575 197.058 278.539 196.66V196.66C278.474 195.817 278.097 195.029 277.481 194.45C276.865 193.871 276.055 193.543 275.209 193.53V193.53Z" fill="#E0E0E0"/>
<g opacity="0.3">
<path opacity="0.3" d="M155.739 135.66C159.419 135.687 162.946 137.134 165.583 139.7C168.22 142.267 169.763 145.753 169.889 149.43C169.957 151.211 169.665 152.986 169.031 154.651C168.397 156.316 167.434 157.836 166.199 159.12C164.964 160.4 163.481 161.414 161.841 162.102C160.201 162.79 158.438 163.136 156.659 163.12C152.971 163.095 149.434 161.65 146.782 159.086C144.131 156.522 142.568 153.036 142.419 149.35C142.358 147.567 142.659 145.791 143.302 144.127C143.945 142.463 144.918 140.946 146.162 139.667C147.406 138.388 148.896 137.374 150.541 136.686C152.187 135.997 153.955 135.648 155.739 135.66V135.66ZM155.739 132.76C153.572 132.747 151.425 133.171 149.427 134.008C147.428 134.845 145.619 136.077 144.108 137.63C142.597 139.183 141.415 141.025 140.633 143.046C139.852 145.067 139.486 147.225 139.559 149.39C139.737 153.847 141.626 158.063 144.833 161.163C148.04 164.262 152.319 166.006 156.779 166.03C158.939 166.039 161.079 165.61 163.069 164.769C165.059 163.928 166.858 162.693 168.358 161.138C169.858 159.583 171.027 157.741 171.796 155.722C172.564 153.703 172.916 151.549 172.829 149.39C172.679 144.948 170.817 140.736 167.631 137.636C164.445 134.536 160.184 132.789 155.739 132.76V132.76Z" fill="#1999B9"/>
</g>
<path d="M217.439 92.1503H189.089C188.256 92.1434 187.457 91.8168 186.858 91.2381C186.259 90.6594 185.905 89.8726 185.869 89.0403V89.0403C185.856 88.638 185.923 88.2371 186.068 87.8615C186.213 87.4859 186.432 87.1433 186.712 86.8541C186.992 86.5648 187.327 86.3348 187.697 86.1778C188.068 86.0209 188.467 85.9401 188.869 85.9403H217.209C218.043 85.9468 218.842 86.2713 219.444 86.8475C220.046 87.4237 220.406 88.208 220.449 89.0403V89.0403C220.464 89.4443 220.397 89.8471 220.252 90.2245C220.107 90.602 219.888 90.9462 219.607 91.2367C219.326 91.5272 218.989 91.7578 218.616 91.9148C218.244 92.0718 217.843 92.1519 217.439 92.1503V92.1503Z" fill="#E0E0E0"/>
<path d="M250.159 92.1503H230.959C230.125 92.1435 229.325 91.8173 228.725 91.2388C228.124 90.6603 227.768 89.8735 227.729 89.0403V89.0403C227.716 88.638 227.783 88.2371 227.928 87.8615C228.073 87.4859 228.292 87.1433 228.572 86.8541C228.852 86.5648 229.187 86.3348 229.558 86.1778C229.928 86.0209 230.327 85.9401 230.729 85.9403H249.939C250.772 85.947 251.57 86.2718 252.17 86.8482C252.771 87.4246 253.128 88.2089 253.169 89.0403V89.0403C253.184 89.4443 253.117 89.8471 252.972 90.2245C252.828 90.602 252.608 90.9462 252.327 91.2367C252.046 91.5272 251.709 91.7578 251.336 91.9148C250.964 92.0718 250.563 92.1519 250.159 92.1503V92.1503Z" fill="#E0E0E0"/>
<path d="M265.639 105.2H189.539C188.707 105.196 187.908 104.87 187.31 104.29C186.711 103.711 186.36 102.923 186.329 102.09V102.09C186.316 101.688 186.384 101.287 186.528 100.912C186.673 100.536 186.892 100.193 187.172 99.9041C187.452 99.6148 187.787 99.3849 188.158 99.2279C188.528 99.0709 188.927 98.9901 189.329 98.9904H265.419C266.249 98.9949 267.046 99.3199 267.642 99.8976C268.238 100.475 268.588 101.261 268.619 102.09C268.634 102.492 268.568 102.892 268.425 103.268C268.282 103.643 268.065 103.986 267.787 104.276C267.51 104.566 267.176 104.797 266.807 104.956C266.438 105.115 266.041 105.198 265.639 105.2V105.2Z" fill="#E0E0E0"/>
<g opacity="0.3">
<path opacity="0.3" d="M157.909 189.42C161.639 189.494 165.212 190.94 167.942 193.482C170.673 196.025 172.37 199.485 172.709 203.2C172.889 204.941 172.705 206.7 172.169 208.367C171.634 210.033 170.759 211.57 169.599 212.88C168.43 214.168 166.999 215.191 165.402 215.881C163.805 216.571 162.079 216.912 160.339 216.88C156.577 216.82 152.966 215.387 150.185 212.851C147.405 210.315 145.646 206.852 145.239 203.11C145.068 201.357 145.27 199.586 145.831 197.916C146.393 196.246 147.302 194.714 148.499 193.42C149.703 192.136 151.162 191.117 152.782 190.428C154.403 189.739 156.149 189.396 157.909 189.42V189.42ZM157.769 186.53C155.628 186.488 153.501 186.9 151.53 187.737C149.558 188.574 147.786 189.819 146.329 191.389C144.872 192.959 143.763 194.82 143.076 196.848C142.388 198.877 142.137 201.028 142.339 203.16C143.109 212.34 151.439 219.79 160.619 219.79C169.799 219.79 176.379 212.34 175.619 203.16C175.222 198.675 173.181 194.495 169.887 191.425C166.594 188.355 162.281 186.612 157.779 186.53H157.769Z" fill="#1999B9"/>
</g>
<path d="M278.639 152.79H190.829C190.427 152.79 190.028 152.871 189.658 153.028C189.287 153.185 188.952 153.415 188.672 153.704C188.392 153.993 188.173 154.336 188.028 154.712C187.884 155.087 187.816 155.488 187.829 155.89V155.89C187.865 156.72 188.218 157.504 188.816 158.081C189.413 158.658 190.209 158.983 191.039 158.99H278.889C279.292 158.991 279.69 158.91 280.061 158.753C280.432 158.596 280.767 158.366 281.047 158.077C281.327 157.787 281.546 157.445 281.69 157.069C281.835 156.694 281.903 156.293 281.889 155.89V155.89C281.858 155.052 281.501 154.259 280.894 153.68C280.287 153.101 279.478 152.782 278.639 152.79V152.79Z" fill="#E0E0E0"/>
<path d="M257.829 139.73H190.449C190.046 139.73 189.647 139.811 189.275 139.969C188.904 140.126 188.568 140.357 188.288 140.648C188.008 140.938 187.789 141.282 187.645 141.658C187.501 142.035 187.434 142.437 187.449 142.84V142.84C187.478 143.669 187.826 144.455 188.42 145.032C189.015 145.61 189.81 145.936 190.639 145.94H258.029C258.432 145.941 258.83 145.86 259.201 145.703C259.572 145.546 259.907 145.316 260.187 145.027C260.467 144.737 260.686 144.395 260.83 144.019C260.975 143.644 261.043 143.243 261.029 142.84V142.84C261.006 142.007 260.658 141.216 260.061 140.636C259.463 140.055 258.663 139.73 257.829 139.73V139.73Z" fill="#E0E0E0"/>
<path d="M155.569 105.38L154.389 103.44C151.799 99.2104 146.389 95.4404 144.529 94.3304L145.929 91.8504C149.602 94.0739 152.875 96.9001 155.609 100.21C159.859 94.5004 166.069 88.6304 174.479 82.2904L176.289 84.6304C167.289 91.4004 160.909 97.6304 156.819 103.56C156.409 104.17 155.989 104.78 155.569 105.38Z" fill="#1999B9"/>
<path d="M157.069 159.18C156.679 158.53 156.279 157.88 155.879 157.24C153.279 153.01 147.879 149.24 146.039 148.12L147.459 145.64C151.114 147.87 154.369 150.696 157.089 154C161.349 148.3 167.609 142.42 176.149 136.08L177.919 138.42C168.799 145.19 162.379 151.42 158.309 157.35L157.069 159.18Z" fill="#1999B9"/>
<path d="M160.499 213.1L159.179 211.16C156.299 206.93 150.719 203.16 148.799 202.05L150.099 199.57C153.878 201.81 157.283 204.627 160.189 207.92C164.109 202.22 170.069 196.34 178.349 190.01L180.219 192.35C171.379 199.12 165.309 205.35 161.619 211.28L160.499 213.1Z" fill="#1999B9"/>
<path d="M256.74 55.56C253.62 48.99 246.34 44.64 238.49 44.64H222.49C221.391 44.6885 220.299 44.4458 219.325 43.9365C218.35 43.4273 217.528 42.6695 216.94 41.74C214.71 37.56 209.39 34.58 203.35 34.58C197.31 34.58 192.35 37.58 190.59 41.74C189.86 43.5 187.77 44.64 185.37 44.64H169.37C161.52 44.64 154.73 48.99 152.37 55.56C152.283 55.7893 152.248 56.0355 152.27 56.28C152.296 56.7929 152.518 57.2762 152.89 57.63C153.262 57.9837 153.756 58.1806 154.27 58.18H255.15C255.458 58.1807 255.761 58.1017 256.03 57.9508C256.299 57.7999 256.524 57.5822 256.684 57.3186C256.844 57.0551 256.933 56.7547 256.943 56.4466C256.953 56.1385 256.883 55.8331 256.74 55.56V55.56ZM204 46.45C202.806 46.4253 201.665 45.955 200.801 45.1315C199.937 44.308 199.412 43.1909 199.33 42C199.29 41.4264 199.369 40.8507 199.563 40.3093C199.756 39.7679 200.06 39.2724 200.455 38.8543C200.849 38.4361 201.326 38.1044 201.856 37.8799C202.385 37.6554 202.955 37.543 203.53 37.55C204.731 37.5624 205.883 38.0275 206.757 38.8525C207.63 39.6774 208.159 40.8014 208.24 42C208.28 42.5769 208.2 43.156 208.004 43.7002C207.808 44.2444 207.501 44.7418 207.102 45.1606C206.703 45.5793 206.221 45.9103 205.687 46.1323C205.153 46.3543 204.578 46.4625 204 46.45V46.45Z" fill="#263238"/>
<path d="M360.42 354.11C359.638 354.206 358.847 354.011 358.2 353.56C358.115 353.454 358.063 353.326 358.051 353.191C358.038 353.055 358.066 352.92 358.13 352.8C358.178 352.697 358.249 352.607 358.337 352.536C358.426 352.464 358.529 352.415 358.64 352.39C359.82 352.06 362.55 353.52 362.64 353.59C362.674 353.605 362.702 353.631 362.721 353.663C362.739 353.696 362.745 353.733 362.74 353.77C362.739 353.803 362.726 353.835 362.704 353.861C362.682 353.886 362.653 353.903 362.62 353.91C361.894 354.039 361.158 354.106 360.42 354.11V354.11ZM359.1 352.69C358.991 352.674 358.88 352.674 358.77 352.69C358.702 352.703 358.638 352.731 358.582 352.773C358.527 352.814 358.481 352.868 358.45 352.93C358.35 353.15 358.45 353.26 358.45 353.32C358.85 353.79 360.71 353.8 362.05 353.61C361.13 353.129 360.131 352.817 359.1 352.69Z" fill="#1999B9"/>
<path d="M362.62 353.91H362.55C361.62 353.51 359.68 351.91 359.72 351.09C359.72 350.89 359.84 350.65 360.32 350.6C360.679 350.569 361.037 350.677 361.32 350.9C362.068 351.684 362.575 352.666 362.78 353.73C362.792 353.755 362.799 353.782 362.799 353.81C362.799 353.838 362.792 353.865 362.78 353.89C362.757 353.906 362.731 353.917 362.703 353.92C362.675 353.924 362.646 353.92 362.62 353.91V353.91ZM360.49 350.91H360.39C360.08 350.91 360.07 351.06 360.07 351.1C360.07 351.6 361.38 352.85 362.35 353.39C362.16 352.536 361.734 351.753 361.12 351.13C360.939 350.994 360.717 350.923 360.49 350.93V350.91Z" fill="#1999B9"/>
<path d="M370.68 353.74H363.33L360.7 336.72H368.05L370.68 353.74Z" fill="#FFC3BD"/>
<path d="M363.28 352.89H371.28C371.431 352.894 371.577 352.944 371.698 353.034C371.82 353.123 371.911 353.247 371.96 353.39L374.14 359.92C374.186 360.066 374.198 360.221 374.175 360.373C374.152 360.525 374.094 360.669 374.006 360.794C373.918 360.92 373.802 361.024 373.668 361.098C373.533 361.171 373.383 361.213 373.23 361.22C370.33 361.22 366.13 361.01 362.49 361.01C358.24 361.01 358.62 361.24 353.63 361.24C350.63 361.24 349.44 358.19 350.63 357.91C356.24 356.66 356.89 356.52 361.51 353.46C362.028 353.093 362.646 352.894 363.28 352.89V352.89Z" fill="#263238"/>
<path opacity="0.2" d="M360.7 336.73L362.06 345.5H369.41L368.05 336.73H360.7Z" fill="black"/>
<path d="M369.84 170.45L364.84 175.5L372.5 178.21C372.5 178.21 375.5 174.09 373.39 171.27L369.84 170.45Z" fill="#FFC3BD"/>
<path d="M363.16 182.56L370.81 183.68L372.52 178.21L364.86 175.5L363.16 182.56Z" fill="#FFC3BD"/>
<path d="M373.18 108.27C373.83 109.67 374.35 110.86 374.87 112.16C375.39 113.46 375.87 114.71 376.37 115.99C377.32 118.56 378.17 121.18 378.96 123.83C379.764 126.511 380.432 129.231 380.96 131.98L381.34 134.08L381.65 136.22C381.76 136.93 381.83 137.67 381.89 138.4C381.95 139.13 382.05 139.79 382.05 140.71V142.01V143.16L381.99 144.29L381.88 145.36C381.75 146.8 381.56 148.15 381.38 149.52C380.98 152.22 380.52 154.86 380.01 157.52C378.95 162.75 377.79 167.86 376.39 173.01L367.28 171.21C367.86 166.13 368.46 160.97 368.94 155.89C369.17 153.35 369.42 150.82 369.56 148.34C369.62 147.12 369.69 145.88 369.69 144.71V143.83V143.02V142.21L369.62 141.55C369.575 141.023 369.501 140.499 369.4 139.98C369.31 139.42 369.23 138.86 369.1 138.29L368.73 136.58L368.3 134.86C367.68 132.56 366.98 130.25 366.18 127.94C365.38 125.63 364.49 123.33 363.55 121.05C363.09 119.9 362.61 118.76 362.11 117.64C361.61 116.52 361.11 115.35 360.62 114.38L373.18 108.27Z" fill="#263238"/>
<path d="M338.65 166.87C338.65 166.87 339.87 223.11 343.17 245.51C346.61 268.81 359.17 343.8 359.17 343.8H371.61C371.61 343.8 367.15 272.43 365.73 249.5C364.18 224.5 364.52 166.87 364.52 166.87H338.65Z" fill="#0CA062"/>
<path d="M356.18 338.84C356.12 338.84 357.46 344.01 357.46 344.01H372.6L372.49 339.4L356.18 338.84Z" fill="#263238"/>
<path d="M335.847 75.6992C335.885 75.0763 335.586 74.551 335.178 74.5259C334.77 74.5008 334.408 74.9855 334.37 75.6084C334.331 76.2313 334.631 76.7565 335.039 76.7816C335.447 76.8067 335.809 76.3221 335.847 75.6992Z" fill="#263238"/>
<path d="M335.54 76.78C334.729 78.6865 333.666 80.4758 332.38 82.1C332.8 82.4051 333.282 82.6135 333.792 82.7104C334.302 82.8072 334.828 82.79 335.33 82.66L335.54 76.78Z" fill="#ED847E"/>
<path d="M338.18 72.2C338.103 72.2002 338.027 72.1795 337.96 72.14C337.602 71.8585 337.182 71.6678 336.734 71.5842C336.287 71.5006 335.825 71.5267 335.39 71.66C335.346 71.6777 335.298 71.6862 335.25 71.6852C335.202 71.6841 335.155 71.6735 335.111 71.6539C335.067 71.6344 335.028 71.6063 334.995 71.5712C334.962 71.5362 334.937 71.495 334.92 71.45C334.904 71.4041 334.898 71.3555 334.901 71.307C334.904 71.2585 334.916 71.2111 334.938 71.1674C334.959 71.1238 334.989 71.0848 335.025 71.0526C335.062 71.0205 335.104 70.9958 335.15 70.98C335.698 70.8018 336.281 70.7596 336.849 70.8572C337.417 70.9547 337.953 71.1891 338.41 71.54C338.486 71.5993 338.535 71.6857 338.548 71.7809C338.561 71.8761 338.537 71.9726 338.48 72.05C338.445 72.0963 338.4 72.1339 338.348 72.1599C338.296 72.1859 338.238 72.1997 338.18 72.2V72.2Z" fill="#263238"/>
<path d="M355.3 82.52C354.06 87.9 352.66 97.75 356.3 101.33C356.3 101.33 354.64 106.78 344.65 106.78C333.65 106.78 339.6 101.33 339.6 101.33C345.6 99.9 345.65 95.46 344.75 91.28L355.3 82.52Z" fill="#FFC3BD"/>
<path d="M360.17 103.85C361.25 101.66 362.44 99.14 360.17 98.36C357.69 97.49 343.98 96.6099 339.17 98.2299C337.885 98.5575 336.783 99.3821 336.106 100.522C335.429 101.663 335.233 103.025 335.56 104.31L360.17 103.85Z" fill="#0CA062"/>
<path d="M370.69 103.44C377.02 106.36 380.24 128.5 380.24 128.5L367.49 132.5C365.212 126.642 363.364 120.626 361.96 114.5C360 105.26 364.21 100.46 370.69 103.44Z" fill="#263238"/>
<path d="M292.33 137.89L286.45 132.83L281.16 140.53C281.16 140.53 285.91 144.34 291.16 142.78L292.33 137.89Z" fill="#FFC3BD"/>
<path d="M278.7 130.38L277.89 137.99L281.16 140.53L286.45 132.83L278.7 130.38Z" fill="#FFC3BD"/>
<path d="M356.65 74.33C355.91 81.97 355.86 86.47 351.86 90.39C350.572 91.6661 348.961 92.5679 347.199 92.9989C345.438 93.4298 343.592 93.3736 341.86 92.8363C340.128 92.2991 338.575 91.3009 337.366 89.9487C336.158 88.5966 335.34 86.9413 335 85.16C333.6 78.3 335 66.96 342.63 63.92C344.254 63.2196 346.034 62.9586 347.791 63.1629C349.548 63.3673 351.22 64.0299 352.64 65.0843C354.061 66.1388 355.178 67.548 355.882 69.1707C356.586 70.7934 356.851 72.5726 356.65 74.33V74.33Z" fill="#FFC3BD"/>
<path d="M341 76.78C340.33 71.5 340.44 69.5 343.26 68.33C340.33 67.75 337.79 67.67 336.58 65.96C335.37 64.25 335.08 59.88 340.96 57.88C340.42 58.88 342.13 60.96 347.54 59.08C352.95 57.2 360.83 57 361.54 62.5C364.4 61.5 369.19 70.33 363.54 76.78C358.83 82.18 355.69 85.91 354.76 88.78C354.717 88.9144 354.645 89.0381 354.55 89.1429C354.455 89.2477 354.339 89.3312 354.21 89.3879C354.08 89.4446 353.94 89.4732 353.799 89.4718C353.658 89.4705 353.518 89.4392 353.39 89.38C351.44 88.47 347.95 89.25 346.39 89.67C346.17 89.727 345.938 89.7075 345.731 89.6148C345.523 89.5222 345.354 89.3618 345.25 89.16C344.24 87.08 341.51 81.14 341 76.78Z" fill="#263238"/>
<path d="M360.48 63.17C360.48 63.17 362.8 59.9 367.25 62.33C364.962 62.2234 362.673 62.5075 360.48 63.17Z" fill="#263238"/>
<path d="M360.86 63.87C360.86 63.87 364.09 61.87 361.57 58.1C361.725 60.0515 361.483 62.0141 360.86 63.87Z" fill="#263238"/>
<path d="M344.74 77C344.389 78.8906 343.451 80.6226 342.06 81.95C340.21 83.7 338.61 82.46 338.56 80.21C338.51 78.21 339.41 74.83 341.56 73.93C343.71 73.03 345.12 74.74 344.74 77Z" fill="#FFC3BD"/>
<path opacity="0.3" d="M339.68 198.12C340.4 214.9 341.53 234.38 343.17 245.51C343.8 249.75 344.72 255.69 345.82 262.58C350.24 238.46 352.88 207.38 339.68 198.12Z" fill="black"/>
<path d="M334.17 354.11C333.23 354.11 332.32 353.98 332.03 353.56C331.954 353.448 331.914 353.315 331.914 353.18C331.914 353.045 331.954 352.912 332.03 352.8C332.164 352.599 332.367 352.453 332.6 352.39C333.83 352.06 336.35 353.52 336.46 353.59C336.491 353.607 336.515 353.634 336.528 353.667C336.541 353.7 336.542 353.737 336.53 353.77C336.523 353.804 336.506 353.836 336.481 353.861C336.456 353.886 336.425 353.903 336.39 353.91C335.657 354.038 334.914 354.105 334.17 354.11ZM333.06 352.69C332.947 352.674 332.833 352.674 332.72 352.69C332.648 352.704 332.58 352.732 332.52 352.773C332.46 352.815 332.409 352.868 332.37 352.93C332.24 353.15 332.28 353.26 332.32 353.32C332.65 353.79 334.5 353.8 335.88 353.61C335.01 353.121 334.051 352.809 333.06 352.69V352.69Z" fill="#1999B9"/>
<path d="M336.4 353.91H336.33C335.46 353.51 333.75 351.91 333.92 351.09C333.92 350.89 334.1 350.65 334.58 350.6C334.759 350.577 334.94 350.593 335.112 350.644C335.284 350.696 335.444 350.783 335.58 350.9C336.49 351.67 336.58 353.65 336.58 353.73C336.579 353.761 336.572 353.791 336.558 353.819C336.544 353.847 336.525 353.871 336.5 353.89C336.469 353.906 336.435 353.913 336.4 353.91ZM334.71 350.91H334.61C334.29 350.91 334.27 351.06 334.26 351.1C334.16 351.6 335.31 352.85 336.2 353.39C336.145 352.563 335.834 351.773 335.31 351.13C335.14 350.994 334.928 350.924 334.71 350.93V350.91Z" fill="#1999B9"/>
<path d="M344.48 353.74H337.14L337 336.72H344.35L344.48 353.74Z" fill="#FFC3BD"/>
<path d="M337.21 352.89H345.21C345.353 352.888 345.492 352.937 345.603 353.029C345.713 353.121 345.786 353.249 345.81 353.39L347.04 359.92C347.068 360.081 347.06 360.246 347.017 360.403C346.974 360.561 346.897 360.707 346.791 360.831C346.685 360.955 346.552 361.054 346.404 361.121C346.255 361.189 346.093 361.222 345.93 361.22C343.04 361.22 338.86 361.01 335.23 361.01C330.97 361.01 327.29 361.24 322.3 361.24C319.3 361.24 318.56 358.19 319.83 357.91C325.62 356.66 330.32 356.52 335.39 353.46C335.934 353.108 336.563 352.911 337.21 352.89Z" fill="#263238"/>
<path opacity="0.2" d="M337.01 336.73L337.07 345.5H344.42L344.36 336.73H337.01Z" fill="black"/>
<path d="M325.54 166.87C325.54 166.87 322.54 221.8 322.6 244.2C322.6 267.5 334.4 343.8 334.4 343.8H346.84C346.84 343.8 343.6 268.86 345 246C346.49 221 353.71 166.89 353.71 166.89L325.54 166.87Z" fill="#0CA062"/>
<path d="M332.18 338.84C332.12 338.84 332.69 344.01 332.69 344.01H347.83L348.41 339.4L332.18 338.84Z" fill="#263238"/>
<path d="M328.22 103.37C328.22 103.37 315.7 135 321.15 189.67H366.87C367.35 183.67 362.57 131.41 369.39 102.99C365.064 102.153 360.688 101.598 356.29 101.33C350.728 101.01 345.152 101.01 339.59 101.33C335.753 101.716 331.952 102.398 328.22 103.37V103.37Z" fill="#263238"/>
<path opacity="0.2" d="M321.75 132C321.07 137 320.51 142.71 320.15 149C329.03 140.84 332.07 120.51 332.07 120.51L321.75 132Z" fill="black"/>
<path d="M332.93 118.43C331.13 123.11 329.31 127.62 327.31 132.15C325.31 136.68 323.24 141.15 320.91 145.63L320 147.3L319.54 148.14C319.35 148.48 319.37 148.5 318.85 149.37C317.954 150.78 316.711 151.937 315.24 152.73C314.024 153.369 312.697 153.77 311.33 153.91C309.451 154.082 307.557 153.93 305.73 153.46C304.285 153.102 302.868 152.641 301.49 152.08C299.016 151.056 296.62 149.852 294.32 148.48C293.19 147.83 292.11 147.13 291.04 146.48C289.97 145.83 289 145 287.85 144.2L293.25 135.92C297.125 138.055 301.193 139.82 305.4 141.19C306.293 141.466 307.206 141.673 308.13 141.81C308.658 141.922 309.203 141.922 309.73 141.81C309.79 141.81 309.6 141.75 309.27 141.92C308.868 142.125 308.524 142.427 308.27 142.8C308.06 143.15 308.33 142.63 308.42 142.43L308.78 141.64L309.5 140.07C311.4 135.83 313.16 131.44 314.87 127.07C316.58 122.7 318.24 118.14 319.77 113.73L332.93 118.43Z" fill="#263238"/>
<path d="M337.9 106.69C340.24 113.23 323.68 139.56 323.68 139.56L313.86 129.83C313.86 129.83 316.37 121.56 319.68 111.6C322.94 101.81 335.67 100.44 337.9 106.69Z" fill="#263238"/>
</svg>
