<svg xmlns="http://www.w3.org/2000/svg" width="80.2" height="90" viewBox="0 0 80.2 90">
  <g id="img_ssl_secured" transform="translate(-9.9 -5)">
    <g id="Group_1215" data-name="Group 1215">
      <path id="Path_1052" data-name="Path 1052" d="M50,37.4a7.066,7.066,0,0,0-7,6.9h0v2.5H57V44.3h0A7,7,0,0,0,50,37.4Z" fill="#96aaaf"/>
      <path id="Path_1053" data-name="Path 1053" d="M50,5S30,22.6,9.9,22.6c0,17.3.1,34.2,7.5,47.3C25,83.3,39.8,92.7,50,95c10.1-2.6,24.3-12.1,31.8-25.2S90.1,40,90.1,22.6C70,22.6,50,5,50,5ZM62,63.4a2.326,2.326,0,0,1-2.3,2.3H40.3A2.326,2.326,0,0,1,38,63.4V46.8h2V44.3h0a10,10,0,0,1,20,0h0v2.5h2Z" fill="#96aaaf"/>
    </g>
  </g>
</svg>
