<svg width="500" height="500" viewBox="0 0 500 500" fill="none" xmlns="http://www.w3.org/2000/svg">
<path d="M41.5401 202.37C42.0066 202.09 42.5407 201.942 43.0851 201.942C43.6294 201.942 44.1635 202.09 44.6301 202.37L45.4201 202.82L46.2401 203.23C46.7435 203.458 47.1742 203.82 47.4848 204.277C47.7954 204.734 47.9737 205.268 48.0001 205.82L48.1101 209.62L60.5001 209.23L60.3801 205.43C60.3731 204.885 60.5147 204.349 60.7895 203.879C61.0644 203.408 61.4621 203.021 61.9401 202.76C62.4813 202.456 63.0054 202.122 63.5101 201.76C63.956 201.453 64.4769 201.272 65.0175 201.237C65.558 201.201 66.0979 201.313 66.5801 201.56L69.9301 203.36L75.7901 192.43L72.4401 190.64C71.9615 190.387 71.5625 190.006 71.2871 189.54C71.0118 189.074 70.8709 188.541 70.8801 188C70.8917 187.383 70.8683 186.765 70.8101 186.15C70.7656 185.607 70.8696 185.063 71.111 184.575C71.3523 184.087 71.7219 183.674 72.1801 183.38L75.4101 181.38L68.8801 170.85L65.6301 172.85C65.1669 173.135 64.6338 173.286 64.09 173.286C63.5463 173.286 63.0132 173.135 62.5501 172.85L61.7601 172.4L61.0001 172C60.5066 171.77 60.0849 171.411 59.7801 170.96C59.4754 170.509 59.2991 169.984 59.2701 169.44L59.1501 165.63L46.7201 166L46.8401 169.79C46.847 170.335 46.7054 170.871 46.4306 171.341C46.1557 171.812 45.758 172.199 45.2801 172.46C44.739 172.765 44.2149 173.098 43.7101 173.46C43.263 173.769 42.7402 173.951 42.1977 173.986C41.6553 174.022 41.1134 173.909 40.6301 173.66L37.2901 171.86L31.4301 182.79L34.7701 184.58C35.2443 184.844 35.638 185.232 35.9092 185.702C36.1804 186.172 36.3189 186.707 36.3101 187.25C36.3101 187.87 36.3301 188.49 36.3701 189.11C36.4089 189.648 36.3022 190.186 36.0611 190.668C35.8201 191.15 35.4535 191.559 35.0001 191.85L31.7801 193.85L38.3101 204.38L41.5401 202.37ZM44.6401 182.81C45.5887 181.042 47.0404 179.594 48.8114 178.65C50.5825 177.707 52.5936 177.309 54.5905 177.508C56.5874 177.707 58.4806 178.494 60.0307 179.768C61.5808 181.043 62.7183 182.748 63.2994 184.669C63.8805 186.59 63.8792 188.64 63.2956 190.56C62.7121 192.48 61.5724 194.184 60.0207 195.457C58.469 196.729 56.5749 197.513 54.5777 197.71C52.5805 197.906 50.5699 197.506 48.8001 196.56C46.4254 195.288 44.6532 193.125 43.8731 190.546C43.093 187.968 43.3689 185.185 44.6401 182.81V182.81Z" fill="#EBEBEB"/>
<path d="M76.6 158.28C76.7966 157.952 77.08 157.686 77.4189 157.509C77.7577 157.333 78.1388 157.253 78.52 157.28H79.8C80.1797 157.254 80.5591 157.334 80.8963 157.51C81.2334 157.687 81.5151 157.953 81.71 158.28L83 160.58L90.52 156.24L89.19 153.94C89.0011 153.606 88.9085 153.227 88.9226 152.844C88.9367 152.461 89.057 152.089 89.27 151.77C89.5047 151.409 89.7184 151.035 89.91 150.65C90.0825 150.309 90.3455 150.023 90.67 149.822C90.9946 149.621 91.3682 149.513 91.75 149.51H94.41V140.83H91.79C91.4168 140.818 91.0536 140.706 90.7387 140.505C90.4237 140.305 90.1686 140.023 90 139.69C89.8084 139.305 89.5947 138.931 89.36 138.57C89.1468 138.253 89.0263 137.883 89.0122 137.501C88.9981 137.12 89.0908 136.742 89.28 136.41L90.61 134.1L83 129.76L81.66 132.08C81.4659 132.405 81.1858 132.671 80.8506 132.847C80.5154 133.024 80.138 133.104 79.76 133.08H78.52C78.1388 133.107 77.7577 133.028 77.4189 132.851C77.08 132.675 76.7966 132.408 76.6 132.08L75.27 129.77L67.75 134.11L69.08 136.41C69.2684 136.742 69.3616 137.119 69.3493 137.5C69.3369 137.881 69.2195 138.251 69.01 138.57C68.772 138.934 68.555 139.311 68.36 139.7C68.1875 140.041 67.9245 140.327 67.6 140.528C67.2754 140.729 66.9018 140.837 66.52 140.84H63.87V149.52H66.52C66.9018 149.523 67.2754 149.631 67.6 149.832C67.9245 150.033 68.1875 150.319 68.36 150.66C68.555 151.049 68.772 151.426 69.01 151.79C69.2195 152.109 69.3369 152.479 69.3493 152.86C69.3616 153.241 69.2684 153.618 69.08 153.95L67.75 156.25L75.27 160.59L76.6 158.28ZM72 145.17C72 143.764 72.4167 142.39 73.1976 141.221C73.9784 140.052 75.0882 139.141 76.3868 138.602C77.6854 138.064 79.1145 137.922 80.4934 138.196C81.8723 138.469 83.1392 139.146 84.134 140.139C85.1287 141.132 85.8067 142.398 86.0822 143.777C86.3576 145.155 86.2183 146.585 85.6816 147.884C85.145 149.183 84.2353 150.294 83.0674 151.077C81.8995 151.859 80.5258 152.278 79.12 152.28C77.2334 152.28 75.4239 151.531 74.0889 150.198C72.754 148.865 72.0026 147.057 72 145.17V145.17Z" fill="#EBEBEB"/>
<path d="M379.76 59.09C380.088 59.2866 380.355 59.57 380.531 59.9088C380.708 60.2477 380.787 60.6288 380.76 61.01C380.76 61.22 380.76 61.43 380.76 61.65C380.76 61.87 380.76 62.08 380.76 62.29C380.786 62.6697 380.706 63.0491 380.53 63.3862C380.353 63.7234 380.087 64.0051 379.76 64.2L377.45 65.53L381.79 73.05L384.09 71.72C384.424 71.531 384.803 71.4385 385.186 71.4526C385.57 71.4667 385.941 71.587 386.26 71.8C386.62 72.03 386.99 72.25 387.38 72.45C387.721 72.6199 388.007 72.8809 388.209 73.2039C388.41 73.527 388.518 73.8994 388.52 74.28V76.94H397.2V74.28C397.203 73.8994 397.31 73.527 397.512 73.2039C397.713 72.8809 398 72.6199 398.34 72.45C398.73 72.25 399.1 72.03 399.46 71.8C399.779 71.587 400.151 71.4667 400.534 71.4526C400.917 71.4385 401.296 71.531 401.63 71.72L403.93 73.05L408.27 65.53L406 64.19C405.675 63.9958 405.409 63.7158 405.233 63.3806C405.057 63.0454 404.976 62.668 405 62.29C405 62.07 405 61.86 405 61.65C405 61.44 405 61.22 405 61.01C404.973 60.6288 405.053 60.2477 405.229 59.9088C405.406 59.57 405.672 59.2866 406 59.09L408.31 57.76L403.97 50.24L401.67 51.57C401.339 51.7606 400.962 51.8551 400.58 51.8427C400.198 51.8304 399.828 51.7117 399.51 51.5C399.146 51.262 398.769 51.045 398.38 50.85C398.032 50.6818 397.737 50.4193 397.531 50.0923C397.324 49.7653 397.213 49.3869 397.21 49V46.36H388.53V49C388.528 49.382 388.421 49.7561 388.22 50.0809C388.019 50.4056 387.731 50.6684 387.39 50.84C387.001 51.035 386.624 51.252 386.26 51.49C385.942 51.7017 385.572 51.8204 385.19 51.8327C384.808 51.8451 384.431 51.7506 384.1 51.56L381.8 50.23L377.46 57.75L379.76 59.09ZM392.87 54.53C394.279 54.528 395.656 54.9439 396.828 55.7251C398.001 56.5062 398.915 57.6175 399.455 58.9183C399.996 60.2192 400.138 61.6511 399.864 63.0329C399.591 64.4147 398.914 65.6843 397.918 66.681C396.923 67.6778 395.654 68.3569 394.273 68.6324C392.891 68.908 391.459 68.7676 390.158 68.229C388.856 67.6904 387.743 66.7778 386.961 65.6067C386.178 64.4356 385.76 63.0586 385.76 61.65C385.76 59.7634 386.509 57.9539 387.842 56.6189C389.175 55.2839 390.983 54.5326 392.87 54.53V54.53Z" fill="#EBEBEB"/>
<path d="M216.5 396.85H403.19L407.08 320.25H212.61L216.5 396.85Z" fill="#EBEBEB"/>
<path d="M394.34 355.31H316.34L314.88 328.72H396.1L394.34 355.31ZM317.18 354.37H393.46L395.05 329.66H315.82L317.18 354.37Z" fill="#DBDBDB"/>
<path d="M392.9 385.91H319.35L318.15 361.91H394.4L392.9 385.91ZM320.24 385H392L393.38 362.87H319.14L320.24 385Z" fill="#DBDBDB"/>
<path d="M362.83 344.9H349.72L348.89 338.48H363.66L362.83 344.9ZM350.55 344H362L362.58 339.47H350L350.55 344Z" fill="#DBDBDB"/>
<path d="M362.83 377.11H349.72L348.89 370.7H363.66L362.83 377.11ZM350.55 376.17H362L362.58 371.64H350L350.55 376.17Z" fill="#DBDBDB"/>
<path d="M302.53 355.31H224.53L223 328.72H304.22L302.53 355.31ZM225.37 354.37H301.65L303.24 329.66H224L225.37 354.37Z" fill="#DBDBDB"/>
<path d="M301.09 385.91H227.54L226.34 361.91H302.59L301.09 385.91ZM228.43 385H300.21L301.59 362.87H227.33L228.43 385Z" fill="#DBDBDB"/>
<path d="M271 344.9H257.91L257.08 338.48H271.85L271 344.9ZM258.74 344H270.19L270.78 339.47H258.15L258.74 344Z" fill="#DBDBDB"/>
<path d="M271 377.11H257.91L257.08 370.7H271.85L271 377.11ZM258.72 376.17H270.17L270.76 371.64H258.15L258.72 376.17Z" fill="#DBDBDB"/>
<path d="M233.24 396.85L232.07 405.2L229.71 421.97H225.1V396.85H233.24Z" fill="#EBEBEB"/>
<path d="M233.24 396.85L232.07 405.2H225.1V396.85H233.24Z" fill="#DBDBDB"/>
<path d="M386.45 396.85L387.62 405.2L389.98 421.97H394.59V396.85H386.45Z" fill="#EBEBEB"/>
<path d="M386.45 396.85L387.62 405.2H394.59V396.85H386.45Z" fill="#DBDBDB"/>
<path d="M361.11 470.37C419.79 470.37 467.36 462.11 467.36 451.92C467.36 441.73 419.79 433.47 361.11 433.47C302.43 433.47 254.86 441.73 254.86 451.92C254.86 462.11 302.43 470.37 361.11 470.37Z" fill="#EBEBEB"/>
<path d="M29.71 422.48L84.78 422.24L139.85 422.15L250 421.98L360.15 422.15L415.22 422.23L470.29 422.48L415.22 422.72L360.15 422.81L250 422.98L139.85 422.81L84.78 422.72L29.71 422.48Z" fill="#263238"/>
<path d="M94.51 46.4401C86.2032 46.4401 78.0829 48.9033 71.1761 53.5183C64.2692 58.1334 58.886 64.6929 55.7071 72.3674C52.5282 80.0419 51.6965 88.4867 53.317 96.6339C54.9376 104.781 58.9377 112.265 64.8115 118.139C70.6854 124.012 78.169 128.012 86.3162 129.633C94.4634 131.254 102.908 130.422 110.583 127.243C118.257 124.064 124.817 118.681 129.432 111.774C134.047 104.867 136.51 96.7469 136.51 88.4401C136.51 77.301 132.085 66.6181 124.209 58.7416C116.332 50.8651 105.649 46.4401 94.51 46.4401V46.4401ZM94.51 108.02C90.6311 108.02 86.8393 106.87 83.6143 104.714C80.3892 102.559 77.8757 99.496 76.3918 95.9122C74.9079 92.3283 74.5201 88.3849 75.2776 84.5807C76.035 80.7764 77.9037 77.2823 80.6472 74.5402C83.3907 71.7981 86.8858 69.9312 90.6904 69.1756C94.4951 68.4201 98.4383 68.8099 102.021 70.2957C105.604 71.7814 108.666 74.2964 110.82 77.5226C112.974 80.7488 114.122 84.5411 114.12 88.4201C114.115 93.6166 112.046 98.5983 108.369 102.27C104.691 105.942 99.7065 108.003 94.51 108V108.02Z" fill="#455A64"/>
<path d="M102.58 48.18H86.4401L87.3301 36.76H101.69L102.58 48.18Z" fill="#455A64"/>
<path d="M71.85 53.62L60.44 65.04L52.99 56.33L63.14 46.17L71.85 53.62Z" fill="#455A64"/>
<path d="M53.9701 79.2V95.34L42.55 94.45V80.09L53.9701 79.2Z" fill="#455A64"/>
<path d="M59.41 109.92L70.83 121.34L62.12 128.79L51.96 118.64L59.41 109.92Z" fill="#455A64"/>
<path d="M84.98 127.81H101.13L100.24 139.23H85.88L84.98 127.81Z" fill="#455A64"/>
<path d="M115.71 122.37L127.13 110.95L134.58 119.66L124.42 129.82L115.71 122.37Z" fill="#455A64"/>
<path d="M133.59 96.79V80.65L145.02 81.54V95.9L133.59 96.79Z" fill="#455A64"/>
<path d="M128.16 66.0601L116.74 54.6501L125.45 47.2001L135.6 57.3501L128.16 66.0601Z" fill="#455A64"/>
<path d="M163.85 173.11C153.912 173.104 144.196 176.046 135.93 181.562C127.664 187.079 121.22 194.924 117.413 204.103C113.606 213.283 112.607 223.385 114.542 233.133C116.477 242.881 121.259 251.835 128.284 258.864C135.309 265.894 144.261 270.682 154.008 272.622C163.754 274.563 173.857 273.57 183.039 269.769C192.221 265.967 200.069 259.528 205.591 251.265C211.113 243.002 214.06 233.288 214.06 223.35C214.047 210.035 208.754 197.268 199.341 187.85C189.929 178.432 177.165 173.131 163.85 173.11V173.11ZM163.85 262.89C156.026 262.896 148.376 260.581 141.868 256.239C135.36 251.896 130.286 245.721 127.288 238.494C124.291 231.267 123.504 223.313 125.027 215.639C126.551 207.965 130.316 200.915 135.847 195.381C141.378 189.847 148.426 186.078 156.099 184.551C163.773 183.024 171.727 183.807 178.955 186.801C186.184 189.795 192.362 194.865 196.707 201.371C201.053 207.877 203.372 215.526 203.37 223.35C203.371 228.541 202.35 233.682 200.365 238.478C198.379 243.275 195.469 247.633 191.799 251.305C188.129 254.977 183.772 257.889 178.977 259.877C174.181 261.865 169.041 262.889 163.85 262.89V262.89ZM163.85 173.11C153.912 173.104 144.196 176.046 135.93 181.562C127.664 187.079 121.22 194.924 117.413 204.103C113.606 213.283 112.607 223.385 114.542 233.133C116.477 242.881 121.259 251.835 128.284 258.864C135.309 265.894 144.261 270.682 154.008 272.622C163.754 274.563 173.857 273.57 183.039 269.769C192.221 265.967 200.069 259.528 205.591 251.265C211.113 243.002 214.06 233.288 214.06 223.35C214.047 210.035 208.754 197.268 199.341 187.85C189.929 178.432 177.165 173.131 163.85 173.11ZM163.85 262.89C156.026 262.896 148.376 260.581 141.868 256.239C135.36 251.896 130.286 245.721 127.288 238.494C124.291 231.267 123.504 223.313 125.027 215.639C126.551 207.965 130.316 200.915 135.847 195.381C141.378 189.847 148.426 186.078 156.099 184.551C163.773 183.024 171.727 183.807 178.955 186.801C186.184 189.795 192.362 194.865 196.707 201.371C201.053 207.877 203.372 215.526 203.37 223.35C203.371 228.541 202.35 233.682 200.365 238.478C198.379 243.275 195.469 247.633 191.799 251.305C188.129 254.977 183.772 257.889 178.977 259.877C174.181 261.865 169.041 262.889 163.85 262.89V262.89ZM163.85 138.66C147.102 138.656 130.728 143.619 116.8 152.921C102.872 162.223 92.0152 175.446 85.6026 190.918C79.1901 206.391 77.5097 223.417 80.774 239.844C84.0383 256.272 92.1007 271.362 103.942 283.207C115.783 295.052 130.87 303.12 147.296 306.39C163.723 309.66 180.75 307.986 196.224 301.579C211.699 295.172 224.926 284.32 234.233 270.395C243.539 256.47 248.508 240.099 248.51 223.35C248.51 200.894 239.592 179.357 223.716 163.476C207.84 147.594 186.306 138.668 163.85 138.66V138.66ZM163.85 278.4C152.955 278.412 142.302 275.191 133.238 269.146C124.174 263.1 117.108 254.502 112.933 244.438C108.758 234.375 107.663 223.299 109.785 212.613C111.908 201.927 117.153 192.111 124.857 184.407C132.561 176.703 142.377 171.458 153.063 169.335C163.749 167.213 174.825 168.308 184.888 172.483C194.952 176.658 203.55 183.724 209.596 192.788C215.641 201.852 218.862 212.505 218.85 223.4C218.818 237.977 213.014 251.948 202.706 262.256C192.398 272.564 178.427 278.368 163.85 278.4ZM163.85 173.11C153.912 173.104 144.196 176.046 135.93 181.562C127.664 187.079 121.22 194.924 117.413 204.103C113.606 213.283 112.607 223.385 114.542 233.133C116.477 242.881 121.259 251.835 128.284 258.864C135.309 265.894 144.261 270.682 154.008 272.622C163.754 274.563 173.857 273.57 183.039 269.769C192.221 265.967 200.069 259.528 205.591 251.265C211.113 243.002 214.06 233.288 214.06 223.35C214.047 210.035 208.754 197.268 199.341 187.85C189.929 178.432 177.165 173.131 163.85 173.11V173.11ZM163.85 262.89C156.026 262.896 148.376 260.581 141.868 256.239C135.36 251.896 130.286 245.721 127.288 238.494C124.291 231.267 123.504 223.313 125.027 215.639C126.551 207.965 130.316 200.915 135.847 195.381C141.378 189.847 148.426 186.078 156.099 184.551C163.773 183.024 171.727 183.807 178.955 186.801C186.184 189.795 192.362 194.865 196.707 201.371C201.053 207.877 203.372 215.526 203.37 223.35C203.371 228.541 202.35 233.682 200.365 238.478C198.379 243.275 195.469 247.633 191.799 251.305C188.129 254.977 183.772 257.889 178.977 259.877C174.181 261.865 169.041 262.889 163.85 262.89V262.89Z" fill="#0CA766"/>
<path d="M173.78 140.2H154.39L156.32 120.85H171.85L173.78 140.2Z" fill="#0CA766"/>
<path d="M130.87 146.37L114.08 156.06L106.08 138.34L119.52 130.57L130.87 146.37Z" fill="#0CA766"/>
<path d="M96.8001 173.16L87.1001 189.95L71.3101 178.6L79.0701 165.16L96.8001 173.16Z" fill="#0CA766"/>
<path d="M80.6901 213.4V232.79L61.3301 230.86V215.33L80.6901 213.4Z" fill="#0CA766"/>
<path d="M86.8501 256.31L96.5501 273.1L78.8201 281.1L71.0601 267.65L86.8501 256.31Z" fill="#0CA766"/>
<path d="M113.65 290.38L130.44 300.07L119.09 315.87L105.64 308.11L113.65 290.38Z" fill="#0CA766"/>
<path d="M153.89 306.49H173.28L171.34 325.85H155.82L153.89 306.49Z" fill="#0CA766"/>
<path d="M196.79 300.32L213.58 290.63L221.59 308.36L208.14 316.12L196.79 300.32Z" fill="#0CA766"/>
<path d="M230.87 273.53L240.56 256.74L256.36 268.09L248.59 281.54L230.87 273.53Z" fill="#0CA766"/>
<path d="M246.98 233.29V213.9L266.33 215.83V231.36L246.98 233.29Z" fill="#0CA766"/>
<path d="M240.81 190.38L231.12 173.59L248.84 165.59L256.61 179.04L240.81 190.38Z" fill="#0CA766"/>
<path d="M214.02 156.31L197.23 146.62L208.57 130.82L222.02 138.59L214.02 156.31Z" fill="#0CA766"/>
<path d="M442.2 124.29C441.847 120.519 440.385 116.938 437.997 113.998C435.609 111.059 432.403 108.893 428.784 107.775C425.166 106.658 421.297 106.638 417.667 107.719C414.037 108.8 410.81 110.933 408.392 113.849C405.975 116.764 404.476 120.331 404.085 124.098C403.695 127.865 404.43 131.663 406.198 135.012C407.966 138.362 410.687 141.111 414.018 142.914C417.349 144.717 421.139 145.491 424.91 145.14C427.415 144.908 429.849 144.184 432.075 143.011C434.3 141.837 436.271 140.236 437.877 138.299C439.483 136.363 440.691 134.129 441.433 131.725C442.175 129.321 442.435 126.795 442.2 124.29V124.29ZM424.7 142.81C421.387 143.12 418.057 142.441 415.13 140.858C412.203 139.275 409.812 136.86 408.258 133.917C406.704 130.975 406.058 127.638 406.401 124.329C406.745 121.019 408.062 117.886 410.186 115.325C412.31 112.764 415.146 110.89 418.336 109.942C421.525 108.993 424.924 109.011 428.102 109.995C431.281 110.978 434.097 112.882 436.193 115.466C438.29 118.049 439.573 121.197 439.88 124.51C440.292 128.949 438.924 133.371 436.078 136.802C433.231 140.233 429.139 142.394 424.7 142.81ZM442.2 124.29C441.847 120.519 440.385 116.938 437.997 113.998C435.609 111.059 432.403 108.893 428.784 107.775C425.166 106.658 421.297 106.638 417.667 107.719C414.037 108.8 410.81 110.933 408.392 113.849C405.975 116.764 404.476 120.331 404.085 124.098C403.695 127.865 404.43 131.663 406.198 135.012C407.966 138.362 410.687 141.111 414.018 142.914C417.349 144.717 421.139 145.491 424.91 145.14C427.415 144.908 429.849 144.184 432.075 143.011C434.3 141.837 436.271 140.236 437.877 138.299C439.483 136.363 440.691 134.129 441.433 131.725C442.175 129.321 442.435 126.795 442.2 124.29V124.29ZM424.7 142.81C421.387 143.12 418.057 142.441 415.13 140.858C412.203 139.275 409.812 136.86 408.258 133.917C406.704 130.975 406.058 127.638 406.401 124.329C406.745 121.019 408.062 117.886 410.186 115.325C412.31 112.764 415.146 110.89 418.336 109.942C421.525 108.993 424.924 109.011 428.102 109.995C431.281 110.978 434.097 112.882 436.193 115.466C438.29 118.049 439.573 121.197 439.88 124.51C440.292 128.949 438.924 133.371 436.078 136.802C433.231 140.233 429.139 142.394 424.7 142.81ZM442.2 124.29C441.847 120.519 440.385 116.938 437.997 113.998C435.609 111.059 432.403 108.893 428.784 107.775C425.166 106.658 421.297 106.638 417.667 107.719C414.037 108.8 410.81 110.933 408.392 113.849C405.975 116.764 404.476 120.331 404.085 124.098C403.695 127.865 404.43 131.663 406.198 135.012C407.966 138.362 410.687 141.111 414.018 142.914C417.349 144.717 421.139 145.491 424.91 145.14C427.415 144.908 429.849 144.184 432.075 143.011C434.3 141.837 436.271 140.236 437.877 138.299C439.483 136.363 440.691 134.129 441.433 131.725C442.175 129.321 442.435 126.795 442.2 124.29V124.29ZM424.7 142.81C421.387 143.12 418.057 142.441 415.13 140.858C412.203 139.275 409.812 136.86 408.258 133.917C406.704 130.975 406.058 127.638 406.401 124.329C406.745 121.019 408.062 117.886 410.186 115.325C412.31 112.764 415.146 110.89 418.336 109.942C421.525 108.993 424.924 109.011 428.102 109.995C431.281 110.978 434.097 112.882 436.193 115.466C438.29 118.049 439.573 121.197 439.88 124.51C440.292 128.949 438.924 133.371 436.078 136.802C433.231 140.233 429.139 142.394 424.7 142.81ZM463.33 122.33C462.589 114.38 459.508 106.828 454.475 100.629C449.443 94.4304 442.685 89.8631 435.057 87.505C427.428 85.1469 419.272 85.1038 411.619 87.3812C403.966 89.6587 397.161 94.1543 392.063 100.3C386.965 106.445 383.804 113.964 382.98 121.906C382.155 129.848 383.704 137.856 387.431 144.917C391.158 151.978 396.895 157.776 403.917 161.577C410.939 165.378 418.93 167.011 426.88 166.27C437.539 165.274 447.367 160.086 454.202 151.846C461.037 143.607 464.32 132.99 463.33 122.33ZM425.19 148.1C420.829 148.505 416.447 147.607 412.596 145.521C408.746 143.435 405.6 140.253 403.558 136.379C401.516 132.505 400.669 128.112 401.123 123.757C401.578 119.401 403.314 115.278 406.112 111.909C408.91 108.54 412.644 106.077 416.843 104.83C421.041 103.584 425.515 103.611 429.698 104.907C433.881 106.204 437.585 108.711 440.343 112.114C443.101 115.516 444.787 119.659 445.19 124.02C445.724 129.864 443.918 135.681 440.169 140.195C436.419 144.71 431.033 147.552 425.19 148.1ZM421.37 107C417.595 107.347 414.008 108.806 411.063 111.191C408.117 113.577 405.946 116.784 404.823 120.404C403.7 124.025 403.676 127.897 404.755 131.531C405.833 135.165 407.965 138.397 410.881 140.819C413.797 143.241 417.366 144.743 421.136 145.136C424.907 145.529 428.709 144.795 432.062 143.027C435.414 141.258 438.167 138.535 439.972 135.202C441.777 131.868 442.552 128.074 442.2 124.3C441.731 119.244 439.273 114.581 435.367 111.337C431.461 108.093 426.426 106.533 421.37 107V107ZM424.7 142.82C421.387 143.13 418.057 142.451 415.13 140.868C412.203 139.285 409.812 136.87 408.258 133.927C406.704 130.985 406.058 127.648 406.401 124.339C406.745 121.029 408.062 117.896 410.186 115.335C412.31 112.774 415.146 110.9 418.336 109.952C421.525 109.003 424.924 109.021 428.102 110.005C431.281 110.988 434.097 112.892 436.193 115.476C438.29 118.059 439.573 121.207 439.88 124.52C440.289 128.958 438.92 133.376 436.074 136.806C433.228 140.235 429.137 142.394 424.7 142.81V142.82ZM442.2 124.3C441.847 120.529 440.385 116.948 437.997 114.008C435.609 111.069 432.403 108.903 428.784 107.785C425.166 106.668 421.297 106.648 417.667 107.729C414.037 108.81 410.81 110.943 408.392 113.859C405.975 116.774 404.476 120.341 404.085 124.108C403.695 127.875 404.43 131.673 406.198 135.022C407.966 138.372 410.687 141.121 414.018 142.924C417.349 144.727 421.139 145.501 424.91 145.15C427.416 144.918 429.851 144.194 432.077 143.02C434.303 141.845 436.275 140.243 437.881 138.306C439.487 136.368 440.695 134.133 441.436 131.728C442.177 129.323 442.437 126.795 442.2 124.29V124.3ZM424.7 142.82C421.387 143.13 418.057 142.451 415.13 140.868C412.203 139.285 409.812 136.87 408.258 133.927C406.704 130.985 406.058 127.648 406.401 124.339C406.745 121.029 408.062 117.896 410.186 115.335C412.31 112.774 415.146 110.9 418.336 109.952C421.525 109.003 424.924 109.021 428.102 110.005C431.281 110.988 434.097 112.892 436.193 115.476C438.29 118.059 439.573 121.207 439.88 124.52C440.289 128.958 438.92 133.376 436.074 136.806C433.228 140.235 429.137 142.394 424.7 142.81V142.82ZM442.2 124.3C441.847 120.529 440.385 116.948 437.997 114.008C435.609 111.069 432.403 108.903 428.784 107.785C425.166 106.668 421.297 106.648 417.667 107.729C414.037 108.81 410.81 110.943 408.392 113.859C405.975 116.774 404.476 120.341 404.085 124.108C403.695 127.875 404.43 131.673 406.198 135.022C407.966 138.372 410.687 141.121 414.018 142.924C417.349 144.727 421.139 145.501 424.91 145.15C427.416 144.918 429.851 144.194 432.077 143.02C434.303 141.845 436.275 140.243 437.881 138.306C439.487 136.368 440.695 134.133 441.436 131.728C442.177 129.323 442.437 126.795 442.2 124.29V124.3ZM424.7 142.82C421.387 143.13 418.057 142.451 415.13 140.868C412.203 139.285 409.812 136.87 408.258 133.927C406.704 130.985 406.058 127.648 406.401 124.339C406.745 121.029 408.062 117.896 410.186 115.335C412.31 112.774 415.146 110.9 418.336 109.952C421.525 109.003 424.924 109.021 428.102 110.005C431.281 110.988 434.097 112.892 436.193 115.476C438.29 118.059 439.573 121.207 439.88 124.52C440.289 128.958 438.92 133.376 436.074 136.806C433.228 140.235 429.137 142.394 424.7 142.81V142.82Z" fill="#0CA766"/>
<path d="M427.28 86.81L411.82 88.25L411.66 77.23L425.41 75.95L427.28 86.81Z" fill="#0CA766"/>
<path d="M398.34 94.76L388.43 106.7L380.52 99.03L389.34 88.4L398.34 94.76Z" fill="#0CA766"/>
<path d="M383.5 120.84L384.93 136.29L373.91 136.46L372.63 122.71L383.5 120.84Z" fill="#0CA766"/>
<path d="M391.44 149.78L403.38 159.69L395.7 167.6L385.08 158.78L391.44 149.78Z" fill="#0CA766"/>
<path d="M417.52 164.62L432.98 163.19L433.14 174.21L419.39 175.49L417.52 164.62Z" fill="#0CA766"/>
<path d="M446.46 156.68L456.37 144.73L464.28 152.41L455.46 163.04L446.46 156.68Z" fill="#0CA766"/>
<path d="M461.3 130.6L459.87 115.14L470.89 114.98L472.17 128.73L461.3 130.6Z" fill="#0CA766"/>
<path d="M453.36 101.66L441.41 91.75L449.09 83.84L459.72 92.66L453.36 101.66Z" fill="#0CA766"/>
<path d="M318.5 96.52C307.867 96.518 297.472 99.6693 288.63 105.575C279.788 111.481 272.896 119.877 268.825 129.7C264.755 139.523 263.689 150.333 265.762 160.762C267.835 171.191 272.954 180.771 280.472 188.291C287.991 195.81 297.57 200.931 307.998 203.006C318.427 205.081 329.237 204.017 339.061 199.949C348.885 195.88 357.281 188.99 363.189 180.149C369.097 171.308 372.25 160.913 372.25 150.28C372.25 136.024 366.587 122.351 356.508 112.27C346.428 102.188 332.756 96.5227 318.5 96.52V96.52ZM318.5 175.38C313.533 175.382 308.677 173.911 304.546 171.152C300.415 168.394 297.195 164.472 295.293 159.884C293.392 155.295 292.893 150.246 293.862 145.374C294.831 140.502 297.222 136.027 300.735 132.515C304.247 129.002 308.722 126.611 313.594 125.642C318.466 124.673 323.515 125.172 328.104 127.073C332.692 128.975 336.614 132.195 339.372 136.326C342.131 140.457 343.602 145.313 343.6 150.28C343.597 156.936 340.952 163.319 336.245 168.025C331.539 172.732 325.156 175.377 318.5 175.38V175.38Z" fill="#455A64"/>
<path d="M328.83 98.75H308.16L309.31 84.12H327.69L328.83 98.75Z" fill="#455A64"/>
<path d="M289.49 105.72L274.87 120.33L265.33 109.18L278.33 96.1801L289.49 105.72Z" fill="#455A64"/>
<path d="M266.59 138.46V159.13L251.96 157.99V139.6L266.59 138.46Z" fill="#455A64"/>
<path d="M273.56 177.81L288.17 192.42L277.02 201.96L264.02 188.96L273.56 177.81Z" fill="#455A64"/>
<path d="M306.3 200.7H326.97L325.83 215.33H307.44L306.3 200.7Z" fill="#455A64"/>
<path d="M345.65 193.74L360.26 179.12L369.8 190.28L356.8 203.28L345.65 193.74Z" fill="#455A64"/>
<path d="M368.54 160.99V140.32L383.17 141.46V159.85L368.54 160.99Z" fill="#455A64"/>
<path d="M361.58 121.65L346.96 107.03L358.12 97.49L371.12 110.49L361.58 121.65Z" fill="#455A64"/>
<path d="M56 44.48L55.41 43.66C56.46 42.91 57.08 42.54 57.11 42.53L57.62 43.39C57.0614 43.7248 56.5206 44.0887 56 44.48V44.48Z" fill="#263238"/>
<path d="M318 217.27C316.64 217.27 315.29 217.21 314 217.13L314.06 216.13C315.35 216.21 316.69 216.25 318.06 216.27L318 217.27ZM322 217.19L321.95 216.19C323.28 216.13 324.61 216.02 325.88 215.86L326 216.86C324.76 217 323.42 217.12 322.06 217.19H322ZM309.95 216.79C308.61 216.64 307.28 216.45 305.95 216.23L306.12 215.23C307.41 215.45 308.72 215.64 310.05 215.79L309.95 216.79ZM329.95 216.23L329.75 215.23C331.06 214.97 332.35 214.65 333.58 214.29L333.86 215.29C332.68 215.64 331.37 216 330 216.23H329.95ZM302.02 215.43C300.7 215.11 299.4 214.76 298.14 214.36L298.43 213.36C299.67 213.74 300.96 214.09 302.25 214.36L302.02 215.43ZM337.74 214L337.37 213.07C338.586 212.585 339.774 212.034 340.93 211.42L341.4 212.31C340.22 212.89 339 213.45 337.74 214ZM294.42 213C293.17 212.51 291.93 212 290.73 211.4L291.16 210.5C292.34 211.06 293.56 211.59 294.78 212.07L294.42 213ZM344.86 210.17L344.3 209.34C345.392 208.611 346.443 207.823 347.45 206.98L348.09 207.75C347.056 208.624 345.978 209.445 344.86 210.21V210.17ZM287.16 209.54C286 208.88 284.85 208.17 283.73 207.42L284.29 206.59C285.38 207.32 286.52 208.02 287.65 208.67L287.16 209.54ZM280.46 205.07C279.46 204.27 278.37 203.41 277.36 202.52L278.01 201.77C279.01 202.64 280.01 203.49 281.07 204.28L280.46 205.07ZM351.06 205.02L350.35 204.32C351.25 203.41 352.14 202.42 352.99 201.39L353.76 202.02C352.89 203.12 352 204.13 351.06 205.06V205.02ZM274.41 199.79C273.48 198.87 272.54 197.9 271.61 196.9L272.34 196.22C273.26 197.22 274.19 198.22 275.11 199.07L274.41 199.79ZM356.19 198.79L355.37 198.22C356.11 197.16 356.83 196.04 357.52 194.89L358.38 195.4C357.67 196.63 356.94 197.77 356.19 198.85V198.79ZM268.94 193.86C268.11 192.86 267.26 191.86 266.41 190.74L267.19 190.12C268.04 191.2 268.89 192.24 269.71 193.21L268.94 193.86ZM360.33 191.86L359.45 191.4C360.03 190.27 360.62 189.07 361.18 187.83L362.09 188.24C361.52 189.58 360.93 190.8 360.33 191.94V191.86ZM264 187.61C263.21 186.54 262.43 185.45 261.65 184.36L262.47 183.78C263.24 184.87 264.02 185.95 264.8 187.02L264 187.61ZM363.71 184.61L362.79 184.23C363.27 183.04 363.79 181.79 364.22 180.51L365.16 180.86C364.66 182.17 364.17 183.43 363.68 184.63L363.71 184.61ZM259.36 181.04C258.61 179.94 257.87 178.84 257.12 177.72L257.96 177.17C258.7 178.28 259.44 179.38 260.19 180.48L259.36 181.04ZM366.48 177.04L365.53 176.73C365.95 175.47 366.35 174.21 366.75 172.92L367.7 173.22C367.28 174.55 366.87 175.82 366.45 177.08L366.48 177.04ZM254.91 174.37L252.69 171.02L253.53 170.47L255.74 173.82L254.91 174.37ZM368.84 169.37L367.84 169.09C368.21 167.82 368.56 166.54 368.92 165.24L369.92 165.5C369.553 166.827 369.183 168.13 368.81 169.41L368.84 169.37ZM250.47 167.69C249.72 166.59 248.97 165.48 248.21 164.39L249.03 163.82C249.79 164.92 250.55 166.02 251.29 167.13L250.47 167.69ZM370.95 161.62L369.95 161.37C370.277 160.09 370.61 158.8 370.95 157.5L371.95 157.74C371.58 159.08 371.25 160.38 370.92 161.66L370.95 161.62ZM245.95 161.12C245.17 160.04 244.38 158.96 243.58 157.9L244.38 157.3C245.19 158.37 245.98 159.45 246.76 160.53L245.95 161.12ZM241.13 154.75C240.29 153.69 239.43 152.66 238.59 151.68L239.35 151.03C240.2 152.03 241.06 153.03 241.92 154.13L241.13 154.75ZM372.95 153.85L371.95 153.61L372.95 149.72L373.95 149.96L372.95 153.85ZM235.95 148.7C235.04 147.7 234.1 146.76 233.18 145.84L233.88 145.13C234.82 146.05 235.76 147.03 236.68 148.02L235.95 148.7ZM374.88 146.09L373.88 145.84C374.2 144.55 374.53 143.26 374.88 141.96L375.88 142.21C375.45 143.54 375.12 144.83 374.8 146.13L374.88 146.09ZM85.88 143.67C84.54 143.67 83.18 143.57 81.88 143.45L81.97 142.45C83.28 142.56 84.61 142.64 85.97 142.66L85.88 143.67ZM89.88 143.6V142.6C91.19 142.52 92.52 142.4 93.82 142.23L93.95 143.23C92.56 143.44 91.2 143.56 89.86 143.64L89.88 143.6ZM230.23 143.12C229.23 142.23 228.23 141.37 227.23 140.55L227.86 139.77C228.86 140.6 229.92 141.48 230.92 142.38L230.23 143.12ZM77.79 143C76.47 142.78 75.14 142.51 73.79 142.2L74.02 141.2C75.29 141.51 76.6 141.77 77.9 141.98L77.79 143ZM97.86 142.61L97.66 141.61C98.95 141.34 100.24 141.02 101.51 140.61L101.78 141.61C100.5 142 99.18 142.32 97.86 142.6V142.61ZM69.94 141.14C68.66 140.73 67.38 140.28 66.14 139.79L66.51 138.86C67.72 139.34 68.98 139.79 70.24 140.18L69.94 141.14ZM105.62 140.47L105.32 139.47L109.14 138.27L109.44 139.22C108.18 139.67 106.9 140.07 105.62 140.46V140.47ZM376.78 138.38L375.78 138.12C376.12 136.83 376.47 135.53 376.83 134.24L377.83 134.51C377.47 135.78 377.12 137.08 376.78 138.37V138.38ZM224 138.19C222.93 137.42 221.83 136.67 220.72 135.97L221.25 135.13C222.38 135.84 223.5 136.6 224.59 137.38L224 138.19ZM62.42 138.19C61.21 137.6 60.01 136.97 58.85 136.31L59.35 135.44C60.48 136.09 61.66 136.71 62.85 137.28L62.42 138.19ZM113.23 138.06L112.93 137.11L116.73 135.88L117.04 136.83L113.23 138.06ZM120.84 135.59L120.53 134.64L124.34 133.4L124.65 134.4L120.84 135.59ZM55.42 134.17C54.31 133.41 53.22 132.61 52.17 131.78L52.79 130.99C53.79 131.81 54.89 132.6 55.99 133.34L55.42 134.17ZM217.31 133.97C216.16 133.34 214.97 132.73 213.79 132.16L214.22 131.26C215.42 131.83 216.62 132.45 217.79 133.1L217.31 133.97ZM128.45 133.13L128.15 132.13L132 131L132.3 132L128.45 133.13ZM136.09 130.76L135.8 129.76C137.09 129.37 138.37 129 139.65 128.64L139.92 129.64L136.09 130.76ZM378.89 130.67L377.89 130.39C378.26 129.11 378.65 127.82 379.04 126.55L380.04 126.85C379.66 128.09 379.28 129.37 378.91 130.65L378.89 130.67ZM210.16 130.55C209.06 130.1 207.93 129.68 206.8 129.28L206.45 129.16L206.78 128.21L207.04 128.3C208.28 128.74 209.43 129.17 210.54 129.63L210.16 130.55ZM49.16 129.14C48.16 128.22 47.22 127.26 46.32 126.27L47.06 125.6C47.94 126.6 48.88 127.51 49.84 128.41L49.16 129.14ZM143.82 128.59L143.57 127.59C144.87 127.25 146.16 126.92 147.46 126.59L147.69 127.59C146.38 127.9 145.09 128.23 143.79 128.57L143.82 128.59ZM202.71 127.93C201.44 127.54 200.15 127.18 198.88 126.85L199.13 125.85C200.41 126.19 201.71 126.55 203 126.94L202.71 127.93ZM151.58 126.71L151.37 125.71C152.68 125.43 153.99 125.16 155.3 124.91L155.49 125.91C154.16 126.14 152.85 126.41 151.55 126.69L151.58 126.71ZM195.01 125.93C193.72 125.66 192.4 125.4 191.1 125.18L191.27 124.18C192.59 124.41 193.91 124.66 195.22 124.95L195.01 125.93ZM159.42 125.23L159.26 124.23C160.6 124.02 161.94 123.83 163.26 123.67L163.38 124.67C162 124.81 160.71 125 159.39 125.21L159.42 125.23ZM187.17 124.6C185.85 124.43 184.52 124.29 183.17 124.19L183.25 123.19C184.58 123.3 185.92 123.44 187.25 123.6L187.17 124.6ZM167.32 124.26L167.23 123.26C168.57 123.15 169.92 123.06 171.23 123V124C170 124 168.62 124.13 167.29 124.24L167.32 124.26ZM179.24 123.95C178.08 123.91 176.93 123.89 175.79 123.89H175.26V122.89H175.79C176.94 122.89 178.11 122.89 179.28 122.95L179.24 123.95ZM43.71 123.18C42.89 122.12 42.1 121.01 41.37 119.89L42.21 119.34C42.92 120.44 43.7 121.53 44.5 122.57L43.71 123.18ZM381.31 123.04L380.36 122.73C380.78 121.45 381.22 120.19 381.67 118.93L382.61 119.27C382.13 120.5 381.7 121.76 381.28 123L381.31 123.04ZM39.31 116.41C38.67 115.23 38.08 114.01 37.55 112.78L38.46 112.38C38.99 113.59 39.57 114.78 40.19 115.94L39.31 116.41ZM384 115.52L383.07 115.16C383.56 113.9 384.07 112.67 384.59 111.44L385.51 111.84C385 113.05 384.48 114.28 384 115.52ZM36.06 109C35.63 107.74 35.25 106.44 34.92 105.13L35.92 104.89C36.24 106.17 36.62 107.44 37.04 108.68L36.06 109ZM387.14 108.22L386.24 107.79C386.83 106.55 387.43 105.34 388.04 104.19L388.92 104.66C388.33 105.78 387.73 107 387.14 108.21V108.22ZM390.85 101.22L389.99 100.72C390.67 99.5501 391.39 98.4001 392.11 97.2901L392.95 97.84C392.23 98.88 391.53 100 390.85 101.17V101.22ZM34.1 101.22C33.98 100.5 33.87 99.7801 33.78 99.0501C33.69 98.3201 33.63 97.8201 33.57 97.2201L34.57 97.1201C34.63 97.7201 34.7 98.3201 34.77 98.9301C34.84 99.5401 34.96 100.35 35.08 101.05L34.1 101.22ZM395.22 94.5801L394.41 93.9901C395.21 92.9101 396.05 91.84 396.89 90.84L397.66 91.4801C396.83 92.4201 396 93.4701 395.22 94.5301V94.5801ZM33.22 93.2001C33.17 92.0801 33.14 90.95 33.14 89.84V89.1801H34.14V89.84C34.14 90.94 34.14 92.0501 34.22 93.1601L33.22 93.2001ZM400.22 88.5201L399.5 87.8301C400.43 86.8301 401.39 85.9001 402.36 85.0101L403.04 85.7501C402.16 86.5801 401.21 87.5101 400.29 88.4701L400.22 88.5201ZM34.35 85.1701L33.35 85.1001C33.44 83.7601 33.58 82.4101 33.75 81.1001L34.75 81.2301C34.58 82.5201 34.45 83.8501 34.35 85.1701ZM406.11 83.1701L405.48 82.3901C406.48 81.5601 407.61 80.7501 408.71 79.9901L409.28 80.8101C408.2 81.5101 407.13 82.3001 406.11 83.1201V83.1701ZM412.61 78.6701L412.09 77.8101C413.24 77.1301 414.43 76.4801 415.63 75.8801L416.08 76.7701C414.9 77.3101 413.73 78.0001 412.61 78.6201V78.6701ZM35.41 77.3101L34.41 77.1101C34.68 75.7901 35 74.4701 35.35 73.1901L36.35 73.4601C36 74.7201 35.68 76.0001 35.41 77.3101ZM37.52 69.6701L36.58 69.34C37.03 68.08 37.58 66.82 38.06 65.59L39 66.0001C38.45 67.1901 38 68.4301 37.52 69.6701V69.6701ZM40.7 62.4201L39.81 62.0001C40.44 60.8101 41.11 59.6401 41.81 58.5001L42.66 59.0301C42 60.0901 41.31 61.2501 40.7 62.4201V62.4201ZM44.89 55.7001L44.08 55.1101C44.87 54.0201 45.71 52.9601 46.58 51.9301L47.34 52.5801C46.49 53.5801 45.67 54.6301 44.89 55.7001V55.7001ZM50 49.6501L49.29 48.9501C50.24 47.9501 51.23 47.0501 52.23 46.1801L52.89 46.9401C51.93 47.7901 51 48.7001 50 49.6501Z" fill="#263238"/>
<path d="M420.11 74.8601L419.72 73.9401C420.34 73.6801 420.96 73.4301 421.6 73.1901L421.96 74.1301C421.33 74.3601 420.72 74.6101 420.11 74.8601Z" fill="#263238"/>
<path d="M60.4596 50.5007C64.6217 48.7869 66.6064 44.0235 64.8926 39.8614C63.1789 35.6993 58.4155 33.7146 54.2534 35.4284C50.0913 37.1422 48.1066 41.9055 49.8204 46.0676C51.5342 50.2297 56.2975 52.2145 60.4596 50.5007Z" fill="#263238"/>
<path d="M200.14 134.28C204.641 134.28 208.29 130.631 208.29 126.13C208.29 121.629 204.641 117.98 200.14 117.98C195.639 117.98 191.99 121.629 191.99 126.13C191.99 130.631 195.639 134.28 200.14 134.28Z" fill="#263238"/>
<path d="M421.78 81.81C426.281 81.81 429.93 78.1611 429.93 73.66C429.93 69.1589 426.281 65.51 421.78 65.51C417.279 65.51 413.63 69.1589 413.63 73.66C413.63 78.1611 417.279 81.81 421.78 81.81Z" fill="#263238"/>
<path d="M318.86 226.53C323.361 226.53 327.01 222.881 327.01 218.38C327.01 213.879 323.361 210.23 318.86 210.23C314.359 210.23 310.71 213.879 310.71 218.38C310.71 222.881 314.359 226.53 318.86 226.53Z" fill="#263238"/>
<path d="M334.52 454.81C336.52 455.46 393.79 454.71 395.95 453.3C396.78 452.78 397.16 444.43 397.32 434.3C397.32 434.19 397.32 434.09 397.32 433.98C397.32 431.9 397.38 429.75 397.38 427.58C397.38 427.28 397.38 426.98 397.38 426.69L360.07 426.79V427.96L360.3 434.05V434.67C360.3 434.67 338.51 444.76 336.3 446.57C334.09 448.38 332.51 454.17 334.52 454.81Z" fill="#EBEBEB"/>
<path d="M334.51 454.81C335.51 455.14 351.1 455.1 366.31 454.81C369.37 454.75 372.41 454.68 375.31 454.6C386.15 454.3 395.11 453.85 395.94 453.31C396.77 452.77 397.14 444.67 397.31 434.76C397.31 434.62 397.31 434.48 397.31 434.34C397.31 434.2 397.31 434.12 397.31 434.01H397.26L360.36 434.08V434.71C360.36 434.71 338.57 444.79 336.36 446.6C334.15 448.41 332.51 454.17 334.51 454.81Z" fill="#008EB1"/>
<path d="M335.14 452.58C344.79 452.22 383.74 451.67 393.31 452.04C393.38 452.04 393.38 452.1 393.31 452.1C383.75 452.67 344.8 452.91 335.14 452.74C334.94 452.74 334.94 452.59 335.14 452.58Z" fill="#263238"/>
<path d="M356.27 434.23C360.06 433.48 364.71 434 367.65 436.67C367.76 436.77 367.65 436.93 367.49 436.89C363.844 435.769 360.09 435.038 356.29 434.71C356.226 434.713 356.164 434.69 356.117 434.647C356.07 434.604 356.043 434.544 356.04 434.48C356.037 434.416 356.06 434.354 356.103 434.307C356.146 434.261 356.206 434.233 356.27 434.23V434.23Z" fill="#263238"/>
<path d="M353.55 435.92C357.34 435.16 361.99 435.69 364.93 438.36C365.04 438.46 364.93 438.62 364.77 438.58C361.124 437.459 357.37 436.728 353.57 436.4C353.539 436.401 353.507 436.396 353.477 436.386C353.448 436.375 353.421 436.358 353.397 436.337C353.374 436.315 353.355 436.29 353.342 436.261C353.329 436.232 353.321 436.202 353.32 436.17C353.319 436.139 353.324 436.107 353.334 436.077C353.345 436.048 353.362 436.021 353.383 435.997C353.405 435.974 353.43 435.955 353.459 435.942C353.488 435.929 353.518 435.921 353.55 435.92V435.92Z" fill="#263238"/>
<path d="M350.83 437.61C354.62 436.85 359.27 437.38 362.21 440.04C362.32 440.15 362.21 440.31 362.05 440.27C358.406 439.144 354.651 438.413 350.85 438.09C350.819 438.091 350.787 438.086 350.757 438.075C350.728 438.065 350.701 438.048 350.677 438.027C350.654 438.005 350.635 437.98 350.622 437.951C350.609 437.922 350.601 437.891 350.6 437.86C350.599 437.828 350.604 437.797 350.614 437.767C350.625 437.738 350.642 437.711 350.663 437.687C350.685 437.664 350.71 437.645 350.739 437.632C350.768 437.619 350.799 437.611 350.83 437.61Z" fill="#263238"/>
<path d="M366.31 454.8C369.37 454.74 372.41 454.67 375.31 454.59C386.15 454.29 395.11 453.84 395.94 453.3C396.77 452.76 397.14 444.66 397.31 434.75C397.31 434.61 397.31 434.47 397.31 434.33C397.31 434.19 397.31 434.11 397.31 434H397.26C392.23 437.55 374.41 449.41 366.31 454.8Z" fill="#263238"/>
<path d="M357.87 434.2H399.1C399.1 434.2 390.8 337.89 391.1 336.2C391.51 334.04 393.94 324.29 397.18 311.56C398.18 307.56 399.29 303.3 400.43 298.87C403.51 286.87 406.9 273.79 409.85 262.39C414.28 245.32 417.74 232.06 417.74 232.06H382.82C382.82 232.06 378.75 244.97 373.62 261.77C365.25 289.07 354.07 326.65 352.97 335.77C351.18 350.55 357.87 434.2 357.87 434.2Z" fill="#37474F"/>
<path d="M359.69 427.17C365.99 427.04 364.18 426.99 370.48 426.92C373.56 426.92 393.82 426.72 396.7 427.2C396.716 427.2 396.731 427.206 396.742 427.218C396.754 427.229 396.76 427.244 396.76 427.26C396.76 427.276 396.754 427.291 396.742 427.302C396.731 427.314 396.716 427.32 396.7 427.32C393.82 427.8 373.56 427.62 370.48 427.59C364.18 427.53 365.99 427.48 359.69 427.35C359.666 427.35 359.643 427.34 359.626 427.324C359.609 427.307 359.6 427.284 359.6 427.26C359.6 427.236 359.609 427.213 359.626 427.196C359.643 427.179 359.666 427.17 359.69 427.17V427.17Z" fill="#263238"/>
<path d="M383.37 330.32C384.72 324.32 386.74 318.52 388.5 312.67C392.073 300.777 395.667 288.893 399.28 277.02C401.093 271.08 402.907 265.143 404.72 259.21C405.65 256.21 406.57 253.21 407.5 250.21C408.43 247.21 409.5 244.38 410.29 241.42C410.63 240.22 410.82 240.88 410.38 242.42C409.51 245.49 408.66 248.57 407.76 251.64C405.98 257.72 404.193 263.793 402.4 269.86C398.8 281.953 395.193 294.03 391.58 306.09L386.12 324.23C385.198 327.108 384.453 330.04 383.89 333.01C383.405 336.115 383.285 339.267 383.53 342.4C383.92 348.71 384.65 355.01 385.24 361.31C385.83 367.61 386.4 373.92 386.99 380.23C388.15 392.777 389.3 405.33 390.44 417.89C390.58 419.48 390.72 421.07 390.85 422.67C390.85 423.2 390.08 423.16 390.03 422.67C388.67 410.25 387.63 397.8 386.46 385.37L383 348.24C382.71 345.13 382.38 342.02 382.38 338.9C382.389 336.012 382.721 333.134 383.37 330.32V330.32Z" fill="#263238"/>
<path d="M386.79 232.07C389.22 250.84 393.79 286.07 397.21 311.57C405.1 280.63 417.77 232.07 417.77 232.07H386.79Z" fill="#263238"/>
<path d="M378.21 455.36C380.21 456.02 437.47 455.48 439.64 454.08C440.47 453.56 440.88 445.21 441.08 435.08C441.08 434.97 441.08 434.87 441.08 434.76C441.08 432.68 441.16 430.54 441.17 428.36C441.17 428.06 441.17 427.76 441.17 427.47H403.87V428.63L404.08 434.72V435.35C404.08 435.35 382.25 445.35 380.03 447.15C377.81 448.95 376.2 454.71 378.21 455.36Z" fill="#EBEBEB"/>
<path d="M378.21 455.36C380.21 456.02 437.47 455.48 439.64 454.08C440.47 453.56 440.88 445.21 441.08 435.08C441.08 434.97 441.08 434.87 441.08 434.76L404.13 434.69V435.32C404.13 435.32 382.3 445.32 380.08 447.12C377.86 448.92 376.2 454.71 378.21 455.36Z" fill="#008EB1"/>
<path d="M378.83 453.13C388.48 452.81 427.44 452.4 437 452.81C437.08 452.81 437.08 452.87 437 452.87C427.44 453.4 388.49 453.5 378.83 453.29C378.63 453.29 378.63 453.14 378.83 453.13Z" fill="#263238"/>
<path d="M400 434.87C403.79 434.12 408.44 434.66 411.37 437.34C411.48 437.44 411.37 437.6 411.21 437.57C407.572 436.426 403.819 435.682 400.02 435.35C399.956 435.353 399.894 435.33 399.847 435.287C399.8 435.244 399.773 435.184 399.77 435.12C399.767 435.056 399.79 434.994 399.833 434.947C399.876 434.9 399.936 434.873 400 434.87V434.87Z" fill="#263238"/>
<path d="M397.3 436.54C401.09 435.8 405.75 436.34 408.67 439.02C408.79 439.12 408.67 439.28 408.51 439.24C404.87 438.098 401.119 437.347 397.32 437C397.27 436.987 397.225 436.959 397.192 436.919C397.159 436.879 397.14 436.829 397.138 436.777C397.136 436.726 397.15 436.675 397.18 436.632C397.209 436.589 397.251 436.557 397.3 436.54V436.54Z" fill="#263238"/>
<path d="M394.58 438.22C398.37 437.48 403.02 438.02 405.95 440.7C406.06 440.8 405.95 440.96 405.79 440.92C402.149 439.787 398.398 439.043 394.6 438.7C394.569 438.701 394.537 438.696 394.507 438.686C394.478 438.675 394.451 438.658 394.427 438.637C394.404 438.615 394.385 438.59 394.372 438.561C394.359 438.532 394.351 438.502 394.35 438.47C394.349 438.438 394.354 438.407 394.364 438.377C394.375 438.348 394.392 438.321 394.413 438.297C394.435 438.274 394.46 438.255 394.489 438.242C394.518 438.229 394.549 438.221 394.58 438.22V438.22Z" fill="#263238"/>
<path d="M384 232.07C384 232.07 384.81 248.79 388.63 262.07C388.94 263.17 389.27 264.25 389.63 265.28C393.14 266.698 396.514 268.432 399.71 270.46C399.71 270.46 400.11 283.91 400.51 298.92C400.96 315.69 401.42 334.4 401.33 338.37C400.98 353.21 403.18 434.85 403.18 434.85L444.41 435.01C444.41 435.01 436.96 343.85 437.01 338.41C437.09 329.67 435.01 291.03 433.41 262.85C432.41 245.49 431.62 232.11 431.62 232.11L384 232.07Z" fill="#37474F"/>
<path d="M404.55 427.47C410.84 427.37 409.04 427.31 415.33 427.28C418.42 427.28 438.67 427.17 441.55 427.66C441.62 427.66 441.61 427.78 441.55 427.79C438.67 428.25 418.41 427.99 415.33 427.95C409.03 427.86 410.84 427.82 404.55 427.66C404.53 427.654 404.513 427.641 404.5 427.624C404.488 427.607 404.481 427.586 404.481 427.565C404.481 427.544 404.488 427.523 404.5 427.506C404.513 427.489 404.53 427.477 404.55 427.47V427.47Z" fill="#263238"/>
<path d="M428.11 238C428.87 261 429.67 284 430.7 307C431.73 330 433.12 353.14 435.06 376.15C436.13 389.01 437.15 407.1 438.54 419.92C438.54 419.939 438.533 419.956 438.52 419.97C438.506 419.983 438.489 419.99 438.47 419.99C438.451 419.99 438.434 419.983 438.421 419.97C438.407 419.956 438.4 419.939 438.4 419.92C435.4 397.11 433.73 368.92 432.25 345.92C430.77 322.92 429.78 299.92 428.99 276.97C428.55 263.97 428.21 250.97 427.82 237.97C427.82 237.84 428.1 237.86 428.11 238Z" fill="#263238"/>
<path d="M387.87 264.24C391.97 265.957 395.915 268.025 399.66 270.42C399.684 270.441 399.7 270.469 399.705 270.501C399.711 270.532 399.706 270.564 399.691 270.592C399.676 270.62 399.651 270.642 399.622 270.654C399.593 270.666 399.561 270.668 399.53 270.66C395.53 268.73 391.53 266.87 387.63 264.72C387.574 264.684 387.534 264.628 387.516 264.564C387.499 264.5 387.506 264.432 387.535 264.373C387.565 264.313 387.616 264.267 387.677 264.242C387.739 264.218 387.808 264.217 387.87 264.24V264.24Z" fill="#263238"/>
<path d="M387.64 250.06C387.91 251.52 388.27 252.97 388.58 254.43C388.89 255.89 389.1 257.19 389.46 258.54C389.757 259.848 390.419 261.044 391.37 261.99C391.91 262.49 392.5 262.93 393.07 263.38C393.38 263.63 393.71 263.87 394.07 264.12C394.07 263.92 394 263.73 393.96 263.53C393.87 262.97 393.77 262.42 393.68 261.86C393.47 260.62 393.27 259.39 393.09 258.15C392.71 255.72 392.37 253.26 391.86 250.86C391.86 250.839 391.868 250.818 391.883 250.803C391.898 250.788 391.919 250.78 391.94 250.78C391.961 250.78 391.982 250.788 391.997 250.803C392.012 250.818 392.02 250.839 392.02 250.86C392.62 253.24 393.29 255.6 393.82 258.01C394.08 259.19 395 265.01 395.04 265.43C395.08 265.85 395.12 266.28 395.13 266.71C395.19 267.141 395.19 267.579 395.13 268.01C395.13 268.12 394.98 268.1 394.94 268.01C394.767 267.603 394.643 267.176 394.57 266.74C394.46 266.32 394.37 265.9 394.29 265.48C394.29 265.33 394.29 265.17 394.22 265.01C393.65 264.67 393.12 264.21 392.58 263.82C392.04 263.43 391.41 262.99 390.87 262.53C389.855 261.678 389.122 260.538 388.77 259.26C388.418 257.887 388.19 256.484 388.09 255.07C387.9 253.42 387.77 251.76 387.54 250.07C387.47 250 387.62 250 387.64 250.06Z" fill="#263238"/>
<path d="M406.15 188.93C400.46 198.41 376.15 218.93 367.6 219.37C361.41 219.73 339.92 202.74 334.15 196.76C328.58 191 348.78 175.34 352.28 178.5C357.22 182.95 368.04 195.79 370.43 196.2C372.1 196.48 382.43 191.64 398.43 182.5C407.35 177.44 409.55 183.27 406.15 188.93Z" fill="#AD6359"/>
<path d="M345.05 169.49C341.6 167.49 337.81 165.04 333.71 164.4C329.61 163.76 325.28 168.56 325.01 170.1C324.74 171.64 324.6 181.54 328.68 182.25C332.76 182.96 331.59 175.14 331.89 174.32C332.19 173.5 332.54 172.45 333.3 172.66C334.06 172.87 346.41 181.66 346.41 181.66L345.05 169.49Z" fill="#AD6359"/>
<path d="M344.69 170C344.46 170 334.28 163.73 330.18 163.1C326.08 162.47 321.75 167.25 321.48 168.79C321.21 170.33 321.07 180.23 325.15 180.95C329.23 181.67 328.06 173.84 328.36 173.02C328.66 172.2 329.01 171.14 329.77 171.35C330.53 171.56 342.88 180.35 342.88 180.35L344.69 170Z" fill="#AD6359"/>
<path d="M326.62 180.67C327.185 180.017 327.568 179.228 327.73 178.38C327.968 177.524 328.072 176.637 328.04 175.75C327.939 174.978 327.902 174.198 327.93 173.42C328.071 172.665 328.398 171.957 328.88 171.36C329.3 170.84 329.88 171.14 330.34 171.36C331.051 171.782 331.735 172.246 332.39 172.75L334.5 174.35C335.254 174.876 335.972 175.45 336.65 176.07C336.65 176.07 336.65 176.21 336.58 176.17C335.921 175.774 335.284 175.343 334.67 174.88C333.96 174.38 333.24 173.88 332.52 173.4C331.8 172.92 331.2 172.46 330.52 172.02C330.28 171.86 329.81 171.49 329.52 171.51C329.23 171.53 328.91 172.26 328.79 172.51C328.499 173.215 328.416 173.989 328.55 174.74C328.625 175.508 328.625 176.282 328.55 177.05C328.498 177.774 328.315 178.482 328.01 179.14C327.645 179.72 327.212 180.254 326.72 180.73C326.67 180.84 326.56 180.73 326.62 180.67Z" fill="#263238"/>
<path d="M355.76 183C355.76 183 346.25 170.7 344.26 168.24C340.26 163.31 321.78 151.7 319.06 150.92C316.34 150.14 314.34 155.65 326.81 163.92C333.38 168.28 333.94 172.57 333.4 174.81C332.86 177.05 329.98 180.88 326.2 180.11C322.42 179.34 320.92 173.36 317.54 172.11C314.16 170.86 315.34 177.69 317.16 181.82C319.118 185.854 322.184 189.246 326 191.6C329.07 193.4 338.47 199.6 338.47 199.6L355.76 183Z" fill="#AD6359"/>
<path d="M322 176.6C323.24 177.96 324.61 179.68 326.48 180.08C328.35 180.48 329.9 179.45 331.08 178.02C332.347 176.635 333.034 174.817 333 172.94C332.844 171.224 332.198 169.59 331.14 168.23C329.844 166.572 328.311 165.113 326.59 163.9C326.52 163.84 326.59 163.74 326.69 163.79C328.3 164.88 333.35 168.06 333.6 173.05C333.617 174.965 332.902 176.815 331.6 178.22C330.49 179.58 329.01 180.83 327.14 180.65C324.87 180.44 323.25 178.28 321.88 176.65C321.77 176.56 321.89 176.53 322 176.6Z" fill="#263238"/>
<path d="M352.68 178.85L337 207.09C337 207.09 360.41 220.89 368 220.09C375.59 219.29 397.6 201.45 406.22 189.75C411.47 182.63 407.77 176.6 397.55 181.94C387.03 187.42 372.29 194.94 371.24 195.15C370.19 195.36 352.68 178.85 352.68 178.85Z" fill="#008EB1"/>
<path d="M369 199.53C368.767 200.867 368.192 202.121 367.33 203.17C367.436 202.501 367.638 201.851 367.93 201.24C368.208 200.625 368.568 200.049 369 199.53V199.53Z" fill="white"/>
<path d="M348 193.22C347.89 193.885 347.688 194.531 347.4 195.14C347.126 195.758 346.766 196.334 346.33 196.85C346.554 195.513 347.13 194.26 348 193.22V193.22Z" fill="white"/>
<path d="M390.85 188.68C390.744 189.346 390.542 189.993 390.25 190.6C389.984 191.222 389.623 191.799 389.18 192.31C389.285 191.644 389.488 190.997 389.78 190.39C390.054 189.772 390.414 189.196 390.85 188.68V188.68Z" fill="white"/>
<path d="M367.32 214.79C366.651 214.684 366.001 214.482 365.39 214.19C364.769 213.922 364.193 213.561 363.68 213.12C364.349 213.226 364.999 213.428 365.61 213.72C366.227 213.996 366.802 214.356 367.32 214.79V214.79Z" fill="white"/>
<path d="M344.23 206.73C343.561 206.624 342.911 206.422 342.3 206.13C341.683 205.854 341.108 205.494 340.59 205.06C341.259 205.166 341.909 205.368 342.52 205.66C343.137 205.934 343.713 206.295 344.23 206.73V206.73Z" fill="white"/>
<path d="M354.7 184.55C354.032 184.448 353.382 184.249 352.77 183.96C352.153 183.684 351.578 183.324 351.06 182.89C351.729 182.992 352.379 183.191 352.99 183.48C353.607 183.756 354.182 184.116 354.7 184.55V184.55Z" fill="white"/>
<path d="M380.61 196.85C381.008 197.398 381.325 198.001 381.55 198.64C381.803 199.28 381.958 199.954 382.01 200.64C381.612 200.09 381.292 199.488 381.06 198.85C380.815 198.208 380.663 197.535 380.61 196.85V196.85Z" fill="white"/>
<path d="M356.18 201.37C356.576 201.916 356.893 202.515 357.12 203.15C357.365 203.792 357.517 204.465 357.57 205.15C357.173 204.604 356.857 204.005 356.63 203.37C356.386 202.728 356.234 202.055 356.18 201.37V201.37Z" fill="white"/>
<path d="M399.48 189.84C399.876 190.386 400.193 190.985 400.42 191.62C400.665 192.262 400.817 192.935 400.87 193.62C400.09 192.511 399.611 191.219 399.48 189.87V189.84Z" fill="white"/>
<path d="M391.53 203.1C392.08 202.702 392.682 202.382 393.32 202.15C393.962 201.905 394.635 201.753 395.32 201.7C394.772 202.098 394.169 202.415 393.53 202.64C392.889 202.888 392.215 203.043 391.53 203.1V203.1Z" fill="white"/>
<path d="M358.89 193C359.44 192.605 360.043 192.289 360.68 192.06C361.322 191.815 361.995 191.663 362.68 191.61C362.13 192.005 361.527 192.321 360.89 192.55C360.248 192.795 359.575 192.947 358.89 193V193Z" fill="white"/>
<path d="M374.78 208.81C375.33 208.415 375.933 208.099 376.57 207.87C377.212 207.625 377.885 207.473 378.57 207.42C378.02 207.815 377.417 208.131 376.78 208.36C376.138 208.605 375.465 208.757 374.78 208.81V208.81Z" fill="white"/>
<path d="M350.18 212.83C350.728 212.437 351.327 212.121 351.96 211.89C352.602 211.645 353.275 211.493 353.96 211.44C353.417 211.84 352.817 212.157 352.18 212.38C351.538 212.624 350.865 212.776 350.18 212.83Z" fill="white"/>
<path d="M351.11 197.1C352.11 194.95 356.17 186.35 357.01 184.1C357.01 184.1 357.01 184.03 356.95 184.1C355.74 186.1 351.5 194.43 350.47 196.58C348.312 200.807 346.382 205.146 344.69 209.58C344.69 209.66 344.78 209.74 344.83 209.66C347.2 205.63 349.09 201.33 351.11 197.1Z" fill="#263238"/>
<path d="M406.23 189.8C399.23 199.28 383.44 212.8 373.68 218.02L403.62 180.02C409 179.53 410.25 184.34 406.23 189.8Z" fill="#263238"/>
<path d="M435.87 256.91C435.72 257.06 375.31 252.91 374.8 252.27C374.1 251.34 393.22 189.95 398.01 180.93C400.01 177.09 409.82 176.53 413.68 180.17C423.35 189.26 430.08 218.66 431.49 227.47C433.84 242 436.41 256.38 435.87 256.91Z" fill="#008EB1"/>
<path d="M407.07 197.72C406.834 199.053 406.259 200.304 405.4 201.35C405.504 200.684 405.706 200.037 406 199.43C406.266 198.808 406.627 198.231 407.07 197.72V197.72Z" fill="white"/>
<path d="M400.15 222.69C400.044 223.356 399.842 224.003 399.55 224.61C399.28 225.23 398.92 225.806 398.48 226.32C398.586 225.654 398.788 225.007 399.08 224.4C399.356 223.783 399.716 223.208 400.15 222.69V222.69Z" fill="white"/>
<path d="M393.3 249.86C393.067 251.197 392.492 252.451 391.63 253.5C391.851 252.159 392.428 250.902 393.3 249.86V249.86Z" fill="white"/>
<path d="M421.23 216.72C420.997 218.057 420.422 219.311 419.56 220.36C419.664 219.691 419.866 219.04 420.16 218.43C420.428 217.809 420.789 217.233 421.23 216.72V216.72Z" fill="white"/>
<path d="M430 234.45C429.89 235.115 429.688 235.761 429.4 236.37C429.126 236.988 428.766 237.564 428.33 238.08C428.436 237.414 428.638 236.767 428.93 236.16C429.196 235.538 429.557 234.961 430 234.45V234.45Z" fill="white"/>
<path d="M406.23 244.31C406.123 244.978 405.925 245.627 405.64 246.24C405.362 246.858 404.998 247.433 404.56 247.95C404.793 246.613 405.368 245.359 406.23 244.31Z" fill="white"/>
<path d="M388.32 212.14C388.213 212.809 388.011 213.459 387.72 214.07C387.449 214.689 387.089 215.266 386.65 215.78C386.754 215.111 386.956 214.46 387.25 213.85C387.526 213.233 387.886 212.658 388.32 212.14V212.14Z" fill="white"/>
<path d="M414.29 209C412.953 208.767 411.699 208.192 410.65 207.33C411.987 207.563 413.241 208.138 414.29 209V209Z" fill="white"/>
<path d="M419.77 231C419.103 230.893 418.453 230.695 417.84 230.41C417.222 230.132 416.647 229.768 416.13 229.33C417.467 229.563 418.721 230.138 419.77 231V231Z" fill="white"/>
<path d="M416.86 255.69L415.79 255.62L415.38 255.44C414.763 255.164 414.188 254.804 413.67 254.37C414.339 254.476 414.989 254.678 415.6 254.97C416.042 255.169 416.464 255.41 416.86 255.69V255.69Z" fill="white"/>
<path d="M394.28 234.85C393.612 234.748 392.961 234.549 392.35 234.26C391.733 233.984 391.158 233.624 390.64 233.19C391.308 233.292 391.959 233.491 392.57 233.78C393.187 234.056 393.762 234.416 394.28 234.85Z" fill="white"/>
<path d="M414.29 189.86C413.623 189.753 412.973 189.555 412.36 189.27C411.741 188.995 411.165 188.631 410.65 188.19C411.987 188.423 413.241 188.998 414.29 189.86V189.86Z" fill="white"/>
<path d="M419.7 193.07C420.095 193.62 420.411 194.223 420.64 194.86C420.885 195.502 421.037 196.175 421.09 196.86C420.693 196.315 420.377 195.715 420.15 195.08C419.904 194.435 419.752 193.758 419.7 193.07V193.07Z" fill="white"/>
<path d="M427.8 221.29C428.197 221.836 428.513 222.435 428.74 223.07C428.985 223.712 429.137 224.385 429.19 225.07C428.795 224.52 428.479 223.917 428.25 223.28C428.006 222.642 427.854 221.971 427.8 221.29V221.29Z" fill="white"/>
<path d="M427.1 246.69C427.498 247.24 427.817 247.842 428.05 248.48C428.295 249.122 428.447 249.795 428.5 250.48C428.1 249.937 427.783 249.337 427.56 248.7C427.311 248.056 427.156 247.379 427.1 246.69V246.69Z" fill="white"/>
<path d="M398.37 209.36C398.765 209.91 399.081 210.513 399.31 211.15C399.556 211.791 399.708 212.465 399.76 213.15C398.976 212.043 398.497 210.75 398.37 209.4V209.36Z" fill="white"/>
<path d="M407.17 232.18C407.565 232.73 407.881 233.333 408.11 233.97C408.355 234.612 408.507 235.285 408.56 235.97C408.164 235.425 407.847 234.825 407.62 234.19C407.374 233.545 407.222 232.868 407.17 232.18V232.18Z" fill="white"/>
<path d="M383.26 241.49C383.653 242.038 383.969 242.637 384.2 243.27C384.445 243.912 384.597 244.585 384.65 245.27C383.866 244.163 383.387 242.87 383.26 241.52V241.49Z" fill="white"/>
<path d="M399.48 189.84C399.876 190.386 400.193 190.985 400.42 191.62C400.665 192.262 400.817 192.935 400.87 193.62C400.09 192.511 399.611 191.219 399.48 189.87V189.84Z" fill="white"/>
<path d="M391.53 203.1C392.08 202.702 392.682 202.382 393.32 202.15C393.962 201.905 394.635 201.753 395.32 201.7C394.772 202.098 394.169 202.415 393.53 202.64C392.889 202.888 392.215 203.043 391.53 203.1V203.1Z" fill="white"/>
<path d="M415.89 242.88C416.44 242.485 417.043 242.169 417.68 241.94C418.322 241.695 418.995 241.543 419.68 241.49C419.13 241.885 418.527 242.201 417.89 242.43C417.248 242.675 416.575 242.827 415.89 242.88V242.88Z" fill="white"/>
<path d="M383.82 225.82C384.368 225.422 384.971 225.105 385.61 224.88C386.251 224.634 386.925 224.482 387.61 224.43C387.065 224.827 386.465 225.143 385.83 225.37C385.185 225.616 384.508 225.768 383.82 225.82V225.82Z" fill="white"/>
<path d="M426.1 205.26C425.628 205.56 425.125 205.808 424.6 206C423.958 206.245 423.285 206.397 422.6 206.45C423.149 206.053 423.752 205.737 424.39 205.51C424.916 205.311 425.463 205.174 426.02 205.1C426.053 205.15 426.08 205.204 426.1 205.26V205.26Z" fill="white"/>
<path d="M397.13 242.88C397.68 242.485 398.283 242.169 398.92 241.94C399.562 241.695 400.235 241.543 400.92 241.49C400.37 241.885 399.767 242.201 399.13 242.43C398.488 242.675 397.815 242.827 397.13 242.88V242.88Z" fill="white"/>
<path d="M406.23 218.11C406.78 217.715 407.383 217.399 408.02 217.17C408.662 216.925 409.335 216.773 410.02 216.72C409.47 217.115 408.867 217.431 408.23 217.66C407.588 217.905 406.915 218.057 406.23 218.11Z" fill="white"/>
<path d="M397.64 181.91C397.64 181.91 397.69 181.91 397.64 181.91C397.29 184.64 396.64 190.98 400.96 190.91C402.715 190.717 404.378 190.023 405.75 188.91C407.173 187.907 408.481 186.75 409.65 185.46C411.011 184.061 412.256 182.553 413.37 180.95C413.37 180.88 413.52 180.95 413.47 181.03C412.34 182.63 411.37 184.32 410.08 185.81C408.853 187.272 407.434 188.561 405.86 189.64C404.398 190.774 402.627 191.436 400.78 191.54C399.979 191.525 399.209 191.232 398.6 190.713C397.991 190.193 397.581 189.478 397.44 188.69C396.997 186.444 397.066 184.126 397.64 181.91V181.91Z" fill="#263238"/>
<path d="M354.66 269.4L391.51 265.77L369.64 220.19L332.79 223.82L354.66 269.4Z" fill="#EBEBEB"/>
<path d="M352.14 269.65L388.99 266.02L367.12 220.44L330.27 224.07L352.14 269.65Z" fill="#C7C7C7"/>
<path d="M363.21 220.83C363.377 221.228 363.621 221.59 363.928 221.894C364.236 222.197 364.6 222.437 365 222.6C365.37 222.75 365.42 222.28 365.06 222.14C364.548 221.917 364.128 221.525 363.87 221.03C363.829 220.949 363.792 220.865 363.76 220.78C363.63 220.499 363.579 220.188 363.61 219.88C363.63 219.75 363.694 219.63 363.79 219.54V219.54H363.86C363.944 219.51 364.036 219.51 364.12 219.54C364.289 219.571 364.446 219.651 364.57 219.77C364.728 219.902 364.869 220.053 364.99 220.22C365.06 220.3 365.11 220.39 365.18 220.48V220.54C365.2 220.568 365.217 220.598 365.23 220.63C365.23 220.63 365.23 220.63 365.23 220.69L365.75 220.64C365.593 220.328 365.394 220.039 365.16 219.78C364.98 219.552 364.753 219.366 364.494 219.235C364.235 219.103 363.95 219.03 363.66 219.02C363.452 219.035 363.258 219.13 363.119 219.285C362.979 219.439 362.904 219.642 362.91 219.85C362.93 220.196 363.032 220.532 363.21 220.83V220.83Z" fill="#A6A6A6"/>
<path d="M360.32 221.11C360.655 221.91 361.29 222.545 362.09 222.88C362.46 223.04 362.51 222.57 362.14 222.42C361.627 222.198 361.207 221.806 360.95 221.31C360.95 221.23 360.87 221.14 360.84 221.06C360.717 220.78 360.669 220.474 360.7 220.17C360.719 220.039 360.778 219.916 360.87 219.82H361C361.085 219.794 361.175 219.794 361.26 219.82C361.425 219.862 361.579 219.941 361.71 220.05C361.867 220.184 362.005 220.338 362.12 220.51C362.191 220.587 362.255 220.671 362.31 220.76V220.82C362.333 220.848 362.353 220.878 362.37 220.91C362.37 220.91 362.37 220.91 362.37 220.97L362.9 220.92C362.743 220.608 362.544 220.319 362.31 220.06C362.129 219.831 361.9 219.644 361.639 219.513C361.378 219.381 361.092 219.309 360.8 219.3C360.592 219.32 360.4 219.418 360.261 219.573C360.122 219.729 360.046 219.931 360.05 220.14C360.064 220.48 360.156 220.812 360.32 221.11V221.11Z" fill="#A6A6A6"/>
<path d="M357.44 221.4C357.604 221.797 357.845 222.158 358.148 222.462C358.452 222.765 358.813 223.006 359.21 223.17C359.58 223.32 359.62 222.85 359.26 222.71C358.752 222.481 358.334 222.091 358.07 221.6C358.029 221.519 357.992 221.435 357.96 221.35C357.833 221.068 357.785 220.757 357.82 220.45C357.833 220.32 357.893 220.198 357.99 220.11V220.11H358.06C358.144 220.08 358.236 220.08 358.32 220.11C358.489 220.141 358.646 220.221 358.77 220.34C358.932 220.467 359.074 220.619 359.19 220.79C359.26 220.87 359.31 220.96 359.38 221.05V221.11C359.383 221.14 359.383 221.17 359.38 221.2C359.38 221.2 359.38 221.2 359.38 221.26L359.9 221.21C359.745 220.897 359.547 220.607 359.31 220.35C359.13 220.122 358.903 219.936 358.644 219.805C358.385 219.673 358.1 219.6 357.81 219.59C357.601 219.603 357.406 219.697 357.266 219.852C357.126 220.007 357.052 220.211 357.06 220.42C357.104 220.773 357.234 221.11 357.44 221.4V221.4Z" fill="#A6A6A6"/>
<path d="M354.55 221.68C354.885 222.48 355.52 223.115 356.32 223.45C356.69 223.6 356.74 223.13 356.37 222.99C355.86 222.767 355.443 222.375 355.19 221.88C355.145 221.801 355.108 221.717 355.08 221.63C354.951 221.352 354.899 221.045 354.93 220.74C354.947 220.606 355.01 220.482 355.11 220.39V220.39H355.18C355.266 220.37 355.355 220.37 355.44 220.39C355.605 220.432 355.759 220.511 355.89 220.62C356.05 220.751 356.188 220.906 356.3 221.08C356.371 221.157 356.435 221.241 356.49 221.33V221.39C356.513 221.418 356.534 221.448 356.55 221.48C356.55 221.48 356.55 221.48 356.55 221.54L357.07 221.49C356.913 221.178 356.715 220.889 356.48 220.63C356.3 220.402 356.073 220.216 355.814 220.085C355.555 219.953 355.27 219.88 354.98 219.87C354.772 219.885 354.578 219.98 354.439 220.135C354.299 220.289 354.224 220.492 354.23 220.7C354.254 221.048 354.364 221.385 354.55 221.68V221.68Z" fill="#A6A6A6"/>
<path d="M351.67 222C351.833 222.396 352.074 222.756 352.378 223.058C352.682 223.361 353.043 223.599 353.44 223.76C353.81 223.92 353.85 223.45 353.49 223.3C352.981 223.078 352.561 222.691 352.3 222.2C352.257 222.116 352.221 222.029 352.19 221.94C352.063 221.662 352.014 221.354 352.05 221.05C352.065 220.917 352.125 220.794 352.22 220.7V220.7H352.27H352.33C352.415 220.675 352.505 220.675 352.59 220.7C352.756 220.74 352.911 220.818 353.04 220.93C353.201 221.063 353.342 221.218 353.46 221.39C353.53 221.47 353.58 221.56 353.65 221.65V221.71C353.67 221.738 353.687 221.768 353.7 221.8C353.7 221.8 353.7 221.8 353.7 221.86H354.22C354.067 221.545 353.872 221.252 353.64 220.99C353.456 220.765 353.226 220.581 352.966 220.45C352.706 220.319 352.421 220.244 352.13 220.23C351.92 220.245 351.725 220.342 351.585 220.498C351.445 220.655 351.372 220.86 351.38 221.07C351.404 221.398 351.503 221.716 351.67 222V222Z" fill="#A6A6A6"/>
<path d="M348.78 222.25C349.115 223.05 349.75 223.685 350.55 224.02C350.92 224.17 350.97 223.7 350.61 223.56C350.098 223.337 349.678 222.945 349.42 222.45C349.375 222.371 349.338 222.287 349.31 222.2C349.18 221.919 349.129 221.608 349.16 221.3C349.176 221.168 349.24 221.047 349.34 220.96V220.96H349.41C349.495 220.935 349.585 220.935 349.67 220.96C349.836 221 349.991 221.078 350.12 221.19C350.278 221.322 350.419 221.473 350.54 221.64C350.606 221.723 350.666 221.809 350.72 221.9V221.96C350.743 221.988 350.764 222.018 350.78 222.05C350.78 222.05 350.78 222.05 350.78 222.11H351.3C351.143 221.798 350.944 221.509 350.71 221.25C350.53 221.022 350.303 220.836 350.044 220.705C349.785 220.573 349.5 220.5 349.21 220.49C349.002 220.505 348.808 220.6 348.669 220.755C348.529 220.909 348.454 221.112 348.46 221.32C348.492 221.651 348.602 221.97 348.78 222.25V222.25Z" fill="#A6A6A6"/>
<path d="M345.9 222.53C346.064 222.927 346.305 223.288 346.608 223.592C346.912 223.895 347.273 224.136 347.67 224.3C348.04 224.46 348.09 223.99 347.72 223.84C347.21 223.618 346.791 223.231 346.53 222.74L346.42 222.48C346.297 222.2 346.249 221.894 346.28 221.59C346.295 221.457 346.355 221.334 346.45 221.24V221.24H346.51C346.598 221.215 346.692 221.215 346.78 221.24C346.945 221.284 347.098 221.362 347.23 221.47C347.387 221.603 347.525 221.758 347.64 221.93C347.71 222.01 347.77 222.1 347.83 222.18V222.25C347.855 222.275 347.872 222.306 347.88 222.34C347.88 222.34 347.88 222.34 347.88 222.4L348.4 222.34C348.244 222.03 348.049 221.741 347.82 221.48C347.639 221.251 347.41 221.064 347.149 220.933C346.888 220.801 346.602 220.729 346.31 220.72C346.101 220.738 345.907 220.835 345.768 220.991C345.629 221.147 345.554 221.351 345.56 221.56C345.591 221.907 345.708 222.24 345.9 222.53V222.53Z" fill="#A6A6A6"/>
<path d="M343 222.82C343.337 223.618 343.972 224.253 344.77 224.59C345.14 224.74 345.19 224.27 344.83 224.13C344.318 223.907 343.898 223.515 343.64 223.02C343.599 222.939 343.562 222.855 343.53 222.77C343.4 222.489 343.349 222.178 343.38 221.87C343.396 221.738 343.46 221.617 343.56 221.53V221.53H343.63C343.715 221.505 343.805 221.505 343.89 221.53C344.059 221.561 344.216 221.641 344.34 221.76C344.498 221.892 344.639 222.043 344.76 222.21C344.83 222.29 344.88 222.38 344.95 222.47V222.53C344.973 222.558 344.994 222.588 345.01 222.62C345.01 222.62 345.01 222.62 345.01 222.68L345.53 222.63C345.373 222.318 345.174 222.029 344.94 221.77C344.76 221.542 344.533 221.356 344.274 221.225C344.015 221.093 343.73 221.02 343.44 221.01C343.232 221.025 343.038 221.12 342.899 221.275C342.759 221.429 342.684 221.632 342.69 221.84C342.716 222.186 342.822 222.522 343 222.82Z" fill="#A6A6A6"/>
<path d="M340.13 223.1C340.465 223.9 341.1 224.535 341.9 224.87C342.27 225.03 342.32 224.56 341.95 224.41C341.438 224.188 341.017 223.796 340.76 223.3C340.719 223.219 340.682 223.135 340.65 223.05C340.527 222.77 340.479 222.464 340.51 222.16C340.529 222.028 340.588 221.906 340.68 221.81H340.73H340.8C340.885 221.784 340.975 221.784 341.06 221.81C341.225 221.854 341.378 221.932 341.51 222.04C341.667 222.173 341.805 222.328 341.92 222.5C341.989 222.579 342.052 222.662 342.11 222.75V222.81C342.113 222.84 342.113 222.87 342.11 222.9C342.11 222.9 342.11 222.9 342.11 222.96H342.64C342.483 222.648 342.284 222.359 342.05 222.1C341.869 221.871 341.64 221.684 341.379 221.553C341.118 221.421 340.832 221.349 340.54 221.34C340.331 221.358 340.137 221.455 339.998 221.611C339.859 221.767 339.784 221.971 339.79 222.18C339.833 222.508 339.949 222.823 340.13 223.1Z" fill="#A6A6A6"/>
<path d="M337.25 223.39C337.581 224.189 338.213 224.825 339.01 225.16C339.38 225.31 339.43 224.84 339.07 224.7C338.56 224.474 338.141 224.083 337.88 223.59C337.839 223.509 337.802 223.425 337.77 223.34C337.64 223.059 337.589 222.748 337.62 222.44C337.64 222.31 337.704 222.19 337.8 222.1V222.1H337.87C337.954 222.07 338.046 222.07 338.13 222.1C338.299 222.131 338.456 222.211 338.58 222.33C338.74 222.46 338.882 222.611 339 222.78C339.07 222.86 339.12 222.95 339.19 223.04V223.1C339.21 223.128 339.227 223.158 339.24 223.19C339.24 223.19 339.24 223.19 339.24 223.25L339.76 223.2C339.605 222.887 339.407 222.597 339.17 222.34C338.99 222.112 338.763 221.926 338.504 221.795C338.245 221.664 337.96 221.59 337.67 221.58C337.461 221.593 337.266 221.687 337.126 221.842C336.986 221.997 336.912 222.201 336.92 222.41C336.949 222.759 337.062 223.095 337.25 223.39V223.39Z" fill="#A6A6A6"/>
<path d="M334.36 223.67C334.695 224.47 335.33 225.105 336.13 225.44C336.5 225.59 336.55 225.12 336.18 224.98C335.67 224.754 335.251 224.363 334.99 223.87C334.99 223.79 334.91 223.7 334.88 223.62C334.758 223.34 334.71 223.034 334.74 222.73C334.759 222.598 334.818 222.476 334.91 222.38V222.38H334.98C335.065 222.354 335.155 222.354 335.24 222.38C335.405 222.422 335.559 222.501 335.69 222.61C335.847 222.744 335.985 222.898 336.1 223.07C336.171 223.147 336.235 223.231 336.29 223.32V223.38C336.314 223.405 336.332 223.436 336.34 223.47C336.34 223.47 336.34 223.47 336.34 223.53L336.87 223.48C336.713 223.168 336.515 222.879 336.28 222.62C336.099 222.391 335.87 222.204 335.609 222.073C335.348 221.941 335.062 221.869 334.77 221.86C334.564 221.88 334.373 221.976 334.234 222.13C334.095 222.283 334.019 222.483 334.02 222.69C334.054 223.039 334.171 223.375 334.36 223.67Z" fill="#A6A6A6"/>
<path d="M331.48 224C331.644 224.397 331.885 224.758 332.188 225.062C332.492 225.365 332.853 225.606 333.25 225.77C333.62 225.92 333.66 225.45 333.3 225.31C332.792 225.081 332.374 224.691 332.11 224.2C332.067 224.116 332.031 224.029 332 223.94C331.873 223.662 331.824 223.354 331.86 223.05C331.873 222.92 331.933 222.798 332.03 222.71C332.03 222.71 332.03 222.71 332.03 222.71H332.1C332.185 222.685 332.275 222.685 332.36 222.71C332.528 222.75 332.683 222.833 332.81 222.95C332.972 223.077 333.114 223.229 333.23 223.4C333.3 223.48 333.35 223.57 333.42 223.66V223.72C333.44 223.748 333.457 223.778 333.47 223.81C333.47 223.81 333.47 223.81 333.47 223.87L333.99 223.82C333.833 223.505 333.635 223.212 333.4 222.95C333.22 222.722 332.993 222.536 332.734 222.405C332.475 222.274 332.19 222.2 331.9 222.19C331.691 222.205 331.495 222.302 331.355 222.458C331.215 222.615 331.142 222.82 331.15 223.03C331.18 223.375 331.294 223.708 331.48 224V224Z" fill="#A6A6A6"/>
<path d="M420.9 188C430.76 201.73 451.98 233.09 445.72 240.33C435.42 252.25 410.3 262.68 402.43 265.04C399.03 266.04 386.87 241.37 390.08 239.34C393.92 236.9 418.53 227.23 418.65 226.04C418.77 224.85 414.18 207.85 412.65 194.52C410.79 178 416.78 182.27 420.9 188Z" fill="#AD6359"/>
<path d="M402.45 237.61C402.45 237.61 392.1 234.61 385.24 232.91C381.41 231.98 374.7 230.97 371.58 231.57C366.9 232.47 347.93 239.23 349.47 243.87C350.86 248.07 366.47 240.19 366.47 240.19C366.47 240.19 350.06 246.75 352.67 251.49C355.28 256.23 371.67 245 371.67 245C371.67 245 354.97 252.12 358.43 256.59C361.05 259.96 376.48 250.59 376.48 250.59C376.48 250.59 362.16 256.81 364.7 260.39C367.51 264.39 382.29 256.63 382.29 256.63C390.29 264.63 397.22 265.73 402.47 265.01C403.65 264.87 402.45 237.61 402.45 237.61Z" fill="#AD6359"/>
<path d="M371.19 237.89C358.73 241.8 353.82 247.53 353.99 247.41C357.8 244.41 364.5 241.21 366.39 240.33C368.28 239.45 369.34 238.83 371.22 237.96C371.27 237.94 371.24 237.88 371.19 237.89Z" fill="#263238"/>
<path d="M375.23 244.31C370.126 245.674 365.307 247.94 361 251C360.85 251.12 360.94 251.16 361.12 251.07C363.49 249.89 372.87 245.45 375.29 244.4L375.23 244.31Z" fill="#263238"/>
<path d="M379.08 249.6C375.145 250.736 371.455 252.594 368.2 255.08C368.03 255.2 368.2 255.25 368.36 255.15C371.94 253.26 374.74 251.76 379.13 249.73C379.2 249.7 379.16 249.57 379.08 249.6Z" fill="#263238"/>
<path d="M397.65 235.52L411.5 265.07C411.5 265.07 444.5 247.27 447.03 238.9C449.56 230.53 427.03 193.75 420.24 186.24C413.45 178.73 411.24 181.81 411.39 190.38C411.54 198.95 418.32 225.63 418.15 226.12C417.98 226.61 397.65 235.52 397.65 235.52Z" fill="#008EB1"/>
<path d="M421.23 216.72C420.997 218.057 420.422 219.311 419.56 220.36C419.664 219.691 419.866 219.04 420.16 218.43C420.428 217.809 420.789 217.233 421.23 216.72V216.72Z" fill="white"/>
<path d="M430 234.45C429.89 235.115 429.688 235.761 429.4 236.37C429.126 236.988 428.766 237.564 428.33 238.08C428.436 237.414 428.638 236.767 428.93 236.16C429.196 235.538 429.557 234.961 430 234.45V234.45Z" fill="white"/>
<path d="M406.23 244.31C406.123 244.978 405.925 245.627 405.64 246.24C405.362 246.858 404.998 247.433 404.56 247.95C404.793 246.613 405.368 245.359 406.23 244.31Z" fill="white"/>
<path d="M419.77 231C419.103 230.893 418.453 230.695 417.84 230.41C417.222 230.132 416.647 229.768 416.13 229.33C417.467 229.563 418.721 230.138 419.77 231V231Z" fill="white"/>
<path d="M417.31 256C416.641 255.894 415.991 255.692 415.38 255.4C414.763 255.124 414.188 254.764 413.67 254.33C415.007 254.563 416.261 255.138 417.31 256V256Z" fill="white"/>
<path d="M442.82 239.56C441.483 239.327 440.229 238.752 439.18 237.89C439.849 237.994 440.5 238.196 441.11 238.49C441.731 238.758 442.307 239.119 442.82 239.56V239.56Z" fill="white"/>
<path d="M435.38 211.44C434.711 211.334 434.061 211.132 433.45 210.84C432.829 210.572 432.253 210.211 431.74 209.77C433.077 210.003 434.331 210.578 435.38 211.44V211.44Z" fill="white"/>
<path d="M414.29 189.86C413.623 189.753 412.973 189.555 412.36 189.27C412.016 189.114 411.682 188.937 411.36 188.74C411.36 188.61 411.36 188.48 411.36 188.36C411.764 188.472 412.159 188.616 412.54 188.79C413.171 189.063 413.76 189.423 414.29 189.86Z" fill="white"/>
<path d="M419.7 193.07C420.095 193.62 420.411 194.223 420.64 194.86C420.885 195.502 421.037 196.175 421.09 196.86C420.693 196.315 420.377 195.715 420.15 195.08C419.904 194.435 419.752 193.758 419.7 193.07V193.07Z" fill="white"/>
<path d="M427.8 221.29C428.197 221.836 428.513 222.435 428.74 223.07C428.985 223.712 429.137 224.385 429.19 225.07C428.795 224.52 428.479 223.917 428.25 223.28C428.006 222.642 427.854 221.971 427.8 221.29V221.29Z" fill="white"/>
<path d="M427.1 246.69C427.498 247.24 427.817 247.842 428.05 248.48C428.295 249.122 428.447 249.795 428.5 250.48C428.1 249.937 427.783 249.337 427.56 248.7C427.311 248.056 427.156 247.379 427.1 246.69V246.69Z" fill="white"/>
<path d="M407.17 232.18C407.565 232.73 407.881 233.333 408.11 233.97C408.355 234.612 408.507 235.285 408.56 235.97C408.164 235.425 407.847 234.825 407.62 234.19C407.374 233.545 407.222 232.868 407.17 232.18V232.18Z" fill="white"/>
<path d="M415.89 242.88C416.44 242.485 417.043 242.169 417.68 241.94C418.322 241.695 418.995 241.543 419.68 241.49C419.13 241.885 418.527 242.201 417.89 242.43C417.248 242.675 416.575 242.827 415.89 242.88V242.88Z" fill="white"/>
<path d="M422.63 206.45C423.739 205.67 425.031 205.191 426.38 205.06C425.834 205.457 425.235 205.773 424.6 206C423.968 206.242 423.305 206.394 422.63 206.45Z" fill="white"/>
<path d="M438.54 227C439.086 226.603 439.685 226.287 440.32 226.06C440.962 225.815 441.635 225.663 442.32 225.61C441.775 226.006 441.175 226.323 440.54 226.55C439.898 226.794 439.225 226.946 438.54 227V227Z" fill="white"/>
<path d="M400.89 241.49C400.781 241.572 400.667 241.649 400.55 241.72L400.47 241.54C400.609 241.513 400.749 241.497 400.89 241.49V241.49Z" fill="white"/>
<path d="M415.69 213.52C415.25 211.52 414.81 209.52 414.38 207.52C414.17 206.52 413.95 205.43 413.72 204.39L413.39 202.95C413.34 202.72 413.26 202.48 413.22 202.24C413.08 201.36 413.22 202.14 412.98 201.29C412.98 201.23 412.88 201.29 412.88 201.29C412.94 201.84 412.83 201.62 412.93 202.04C413.03 202.46 413.05 202.66 413.1 202.98C413.17 203.47 413.25 203.98 413.32 204.44C413.48 205.44 413.66 206.44 413.85 207.44C413.85 207.57 413.85 207.7 413.93 207.83C413.934 207.797 413.934 207.763 413.93 207.73C413.57 206.65 413.19 205.59 412.81 204.52H412.73C412.99 205.63 413.28 206.72 413.64 207.8C413.84 208.42 414.09 209.03 414.33 209.63C414.59 210.95 414.85 212.27 415.12 213.63C415.98 217.7 416.87 221.79 418.05 225.78C416.32 226.57 414.56 227.28 412.83 228.08C411.1 228.88 409.38 229.7 407.65 230.52C405.92 231.34 404.21 232.15 402.5 232.99L400 234.18C399.12 234.63 398.28 235.18 397.39 235.61C397.3 235.61 397.39 235.78 397.47 235.74C398.4 235.31 399.39 235.01 400.32 234.6C401.25 234.19 401.97 233.9 402.79 233.53C404.53 232.75 406.26 231.94 407.99 231.13C409.72 230.32 411.45 229.52 413.17 228.69C414.89 227.86 416.56 226.95 418.27 226.12C418.375 226.025 418.445 225.899 418.47 225.76C417.65 221.67 416.61 217.6 415.69 213.52Z" fill="#263238"/>
<path d="M411.42 247.18C410.42 245.04 406.21 236.5 405 234.46H404.94C405.7 236.63 409.59 245.17 410.62 247.32C412.567 251.663 414.75 255.896 417.16 260C417.16 260.07 417.34 260 417.3 259.94C415.63 255.57 413.46 251.4 411.42 247.18Z" fill="#263238"/>
<path d="M435.28 250.45C434.52 250.89 433.81 251.45 433.09 251.92L430.85 253.47C429.404 254.525 427.905 255.506 426.36 256.41C426.27 256.41 426.36 256.59 426.44 256.54C428.02 255.64 429.63 254.8 431.16 253.81C432.677 252.888 434.086 251.797 435.36 250.56C435.37 250.548 435.376 250.533 435.377 250.517C435.377 250.502 435.372 250.486 435.363 250.474C435.354 250.461 435.341 250.452 435.326 250.447C435.311 250.443 435.295 250.444 435.28 250.45Z" fill="#263238"/>
<path d="M401 188C404.07 188.51 409.6 183.12 411.41 179.24C411.53 178.97 410.96 176.24 410.41 173C410.09 171 409.78 168.77 409.64 166.71C409.64 166.29 408.23 167.16 408.23 167.16L405.61 167.98L396.94 170.69C397.844 173.215 398.439 175.841 398.71 178.51C398.736 178.793 398.736 179.077 398.71 179.36C398.71 179.36 398.71 179.45 398.71 179.51C398.49 181.1 398 187.46 401 188Z" fill="#AD6359"/>
<path d="M398.65 179.33C398.65 179.33 398.65 179.42 398.65 179.48C399.096 179.514 399.544 179.514 399.99 179.48C408.66 178.71 408.99 167.59 408.99 167.59L405.57 167.97L396.9 170.68C397.805 173.205 398.399 175.831 398.67 178.5C398.688 178.777 398.681 179.054 398.65 179.33V179.33Z" fill="#263238"/>
<path d="M410.88 152.83C412.34 157.4 410.1 170.68 406.88 173.68C402.2 178.02 394.47 178.53 390.75 172.9C387.15 167.43 390.38 150.18 393.99 147.44C399.31 143.42 408.73 146.08 410.88 152.83Z" fill="#AD6359"/>
<path d="M398 161.6C398 161.6 398.07 161.66 398.06 161.69C397.88 162.58 397.83 163.63 398.59 164.06C398.59 164.06 398.59 164.12 398.59 164.11C397.56 163.81 397.64 162.42 398 161.6Z" fill="#263238"/>
<path d="M398.91 160.8C400.36 160.93 400 163.8 398.65 163.71C397.3 163.62 397.68 160.69 398.91 160.8Z" fill="#263238"/>
<path d="M392.86 160.8C392.86 160.8 392.79 160.8 392.79 160.87C392.7 161.77 392.45 162.8 391.6 162.99V163.05C392.62 163 392.93 161.67 392.86 160.8Z" fill="#263238"/>
<path d="M392.18 159.76C390.74 159.47 390.27 162.36 391.6 162.63C392.93 162.9 393.38 160 392.18 159.76Z" fill="#263238"/>
<path d="M400.22 159.61C399.851 159.452 399.491 159.275 399.14 159.08C398.731 158.945 398.379 158.678 398.14 158.32C398.085 158.195 398.074 158.055 398.109 157.922C398.143 157.79 398.221 157.673 398.33 157.59C398.565 157.453 398.833 157.381 399.105 157.381C399.377 157.381 399.645 157.453 399.88 157.59C400.398 157.806 400.816 158.21 401.05 158.72C401.109 158.839 401.13 158.972 401.111 159.103C401.092 159.234 401.033 159.356 400.943 159.452C400.853 159.549 400.735 159.616 400.606 159.644C400.477 159.672 400.342 159.661 400.22 159.61Z" fill="#263238"/>
<path d="M391.24 158.16C391.65 158.16 392.02 158.06 392.43 158C392.856 158.006 393.271 157.869 393.61 157.61C393.704 157.511 393.761 157.382 393.772 157.246C393.783 157.109 393.747 156.973 393.67 156.86C393.49 156.653 393.257 156.499 392.997 156.415C392.736 156.33 392.457 156.318 392.19 156.38C391.63 156.415 391.105 156.662 390.72 157.07C390.637 157.167 390.583 157.286 390.566 157.413C390.549 157.54 390.57 157.669 390.625 157.784C390.68 157.9 390.767 157.997 390.877 158.064C390.986 158.13 391.112 158.164 391.24 158.16V158.16Z" fill="#263238"/>
<path d="M398.14 169.76C397.89 169.95 397.64 170.21 397.31 170.2C396.975 170.151 396.655 170.032 396.37 169.85C396.37 169.85 396.31 169.85 396.37 169.85C396.474 170.045 396.63 170.207 396.821 170.318C397.011 170.43 397.229 170.486 397.45 170.48C397.637 170.452 397.813 170.371 397.957 170.248C398.1 170.124 398.205 169.961 398.26 169.78C398.24 169.76 398.17 169.74 398.14 169.76Z" fill="#263238"/>
<path d="M397.52 167C397.248 167.327 396.911 167.595 396.531 167.786C396.151 167.977 395.735 168.087 395.31 168.11C394.938 168.135 394.564 168.105 394.2 168.02C394.128 168.013 394.057 167.996 393.99 167.97H393.8C393.754 167.954 393.714 167.924 393.686 167.885C393.657 167.846 393.641 167.799 393.64 167.75V167.75C393.64 167.75 393.64 167.69 393.64 167.66V167.58C393.7 166.89 393.9 165.84 393.9 165.84C393.63 165.94 392.27 166.36 392.33 166C392.804 162.885 393.591 159.826 394.68 156.87C394.68 156.849 394.688 156.828 394.703 156.813C394.718 156.798 394.739 156.79 394.76 156.79C394.781 156.79 394.802 156.798 394.817 156.813C394.832 156.828 394.84 156.849 394.84 156.87C394.42 159.75 393.5 162.54 393.04 165.43C393.524 165.267 394.03 165.18 394.54 165.17C394.63 165.17 394.12 167.17 394.11 167.5C394.672 167.627 395.253 167.64 395.82 167.539C396.387 167.438 396.927 167.224 397.41 166.91C397.52 166.82 397.59 166.89 397.52 167Z" fill="#263238"/>
<path d="M394.65 167.67C394.974 168.226 395.44 168.685 396 169C396.304 169.169 396.655 169.236 397 169.19C397.75 169.09 397.85 168.43 397.78 167.85C397.75 167.542 397.68 167.239 397.57 166.95C396.701 167.501 395.676 167.754 394.65 167.67V167.67Z" fill="#263238"/>
<path d="M396 169C396.304 169.169 396.655 169.236 397 169.19C397.75 169.09 397.85 168.43 397.78 167.85C397.397 167.81 397.011 167.902 396.687 168.111C396.364 168.32 396.121 168.634 396 169V169Z" fill="#FF98B9"/>
<path d="M391.34 153.26C395.57 156.49 401.8 152.26 401.8 152.26C402.124 153.233 402.754 154.076 403.595 154.663C404.436 155.251 405.444 155.551 406.47 155.52C406.47 155.52 406.96 162.98 408.91 163.07C411.91 163.2 413.33 153.13 412.49 151.07C412.15 150.416 411.677 149.84 411.102 149.378C410.527 148.917 409.862 148.58 409.15 148.39C408.927 147.19 408.259 146.118 407.28 145.39C405.28 143.73 398.2 145.47 398.2 145.47C397.846 144.51 397.27 143.647 396.52 142.95C396.341 142.777 396.13 142.641 395.897 142.552C395.665 142.463 395.417 142.422 395.169 142.431C394.92 142.44 394.676 142.5 394.451 142.606C394.226 142.713 394.025 142.864 393.86 143.05C394.201 143.62 394.413 144.259 394.48 144.92C394.72 147.11 392.94 147.02 393.06 145.05C393.078 144.309 393.362 143.599 393.86 143.05C393.05 141.72 391.64 141.23 390.74 141.87C389.1 143 387.82 150.58 391.34 153.26Z" fill="#263238"/>
<path d="M408.2 163.66C408.2 163.66 411.2 159.4 413.2 160.48C415.2 161.56 412.84 167.76 410.55 168.59C410.264 168.718 409.955 168.787 409.642 168.793C409.328 168.798 409.017 168.739 408.727 168.621C408.437 168.502 408.174 168.325 407.955 168.102C407.735 167.878 407.564 167.612 407.45 167.32L408.2 163.66Z" fill="#AD6359"/>
<path d="M398.59 179.25L401.74 186.84L411.11 177.09L413.83 180.15C413.83 180.15 404.74 195.59 404.67 194.9L401.45 188.36L397 193L397.23 181.52L398.59 179.25Z" fill="white"/>
<path d="M396.76 187.3C396.87 185.4 396.92 183.49 397.11 181.61C397.11 181.54 397.22 181.51 397.24 181.61C397.64 183.43 397.24 190.67 397.24 192.41C397.43 192.21 401.4 188.34 401.44 188.41C402.14 189.41 404.5 194.2 404.66 194.64C406.1 192.19 411.61 183.27 413.32 180.95C413.37 180.88 413.48 180.95 413.44 181.01C412.17 183.6 404.87 195.6 404.76 195.57C403.518 193.326 402.394 191.02 401.39 188.66C400.72 189.5 396.72 193.87 396.7 193.58C396.613 191.487 396.633 189.391 396.76 187.3V187.3Z" fill="#263238"/>
</svg>
