<svg width="500" height="373" viewBox="0 0 500 373" fill="none" xmlns="http://www.w3.org/2000/svg">
<path d="M500 327.4H0V327.65H500V327.4Z" fill="#EBEBEB"/>
<path d="M449.9 343.49H416.78V343.74H449.9V343.49Z" fill="#EBEBEB"/>
<path d="M331.22 346.21H322.53V346.46H331.22V346.21Z" fill="#EBEBEB"/>
<path d="M415.78 334.21H396.59V334.46H415.78V334.21Z" fill="#EBEBEB"/>
<path d="M95.65 335.89H52.46V336.14H95.65V335.89Z" fill="#EBEBEB"/>
<path d="M110.89 335.89H104.56V336.14H110.89V335.89Z" fill="#EBEBEB"/>
<path d="M225.15 340.11H131.47V340.36H225.15V340.11Z" fill="#EBEBEB"/>
<path d="M237 282.8H43.91C42.3973 282.797 40.9475 282.195 39.8788 281.124C38.8102 280.054 38.21 278.603 38.21 277.09V5.66C38.2231 4.15603 38.8292 2.71798 39.8964 1.65822C40.9637 0.598458 42.4059 0.00257639 43.91 0H237C238.514 0 239.967 0.601588 241.038 1.67242C242.108 2.74325 242.71 4.19561 242.71 5.71V277.09C242.71 278.604 242.108 280.057 241.038 281.128C239.967 282.198 238.514 282.8 237 282.8V282.8ZM43.91 0.200001C42.4636 0.20265 41.0774 0.779065 40.0556 1.80273C39.0338 2.82639 38.46 4.21365 38.46 5.66V277.09C38.46 278.536 39.0338 279.924 40.0556 280.947C41.0774 281.971 42.4636 282.547 43.91 282.55H237C238.447 282.547 239.834 281.971 240.858 280.948C241.881 279.924 242.457 278.537 242.46 277.09V5.66C242.457 4.21273 241.881 2.82549 240.858 1.80212C239.834 0.77874 238.447 0.202644 237 0.200001H43.91Z" fill="#EBEBEB"/>
<path d="M453.31 282.8H260.21C258.696 282.797 257.246 282.195 256.175 281.125C255.105 280.054 254.503 278.604 254.5 277.09V5.66C254.516 4.15511 255.124 2.71708 256.193 1.65759C257.262 0.598109 258.705 0.00254829 260.21 0H453.31C454.812 0.0052045 456.252 0.602249 457.317 1.66173C458.382 2.72121 458.987 4.15775 459 5.66V277.09C459 278.601 458.401 280.05 457.335 281.121C456.268 282.191 454.821 282.795 453.31 282.8V282.8ZM260.21 0.200001C258.763 0.202644 257.375 0.77874 256.352 1.80212C255.329 2.82549 254.753 4.21273 254.75 5.66V277.09C254.753 278.537 255.329 279.924 256.352 280.948C257.375 281.971 258.763 282.547 260.21 282.55H453.31C454.757 282.547 456.145 281.971 457.168 280.948C458.191 279.924 458.767 278.537 458.77 277.09V5.66C458.767 4.21273 458.191 2.82549 457.168 1.80212C456.145 0.77874 454.757 0.202644 453.31 0.200001H260.21Z" fill="#EBEBEB"/>
<path d="M434.86 60.4399H328.83V273.71H434.86V60.4399Z" fill="#EBEBEB"/>
<path d="M430.86 269.71V64.4399H332.83V269.71H430.86Z" fill="#F5F5F5"/>
<path d="M382.97 63.4199H380.72V271.72H382.97V63.4199Z" fill="#EBEBEB"/>
<path d="M437.31 57.6699H326.39V67.7099H437.31V57.6699Z" fill="#EBEBEB"/>
<path d="M437.31 68.8201H326.39V70.0101H437.31V68.8201Z" fill="#EBEBEB"/>
<path d="M437.31 71.52H326.39V72.71H437.31V71.52Z" fill="#EBEBEB"/>
<path d="M437.31 74.22H326.39V75.41H437.31V74.22Z" fill="#EBEBEB"/>
<path d="M437.31 76.9199H326.39V78.1099H437.31V76.9199Z" fill="#EBEBEB"/>
<path d="M437.31 79.6201H326.39V80.8101H437.31V79.6201Z" fill="#EBEBEB"/>
<path d="M437.31 82.3201H326.39V83.5101H437.31V82.3201Z" fill="#EBEBEB"/>
<path d="M437.31 85.02H326.39V86.21H437.31V85.02Z" fill="#EBEBEB"/>
<path d="M437.31 87.72H326.39V88.91H437.31V87.72Z" fill="#EBEBEB"/>
<path d="M437.31 90.4199H326.39V91.6099H437.31V90.4199Z" fill="#EBEBEB"/>
<path d="M437.31 93.1201H326.39V94.3101H437.31V93.1201Z" fill="#EBEBEB"/>
<path d="M437.31 95.8201H326.39V97.0101H437.31V95.8201Z" fill="#EBEBEB"/>
<path d="M437.31 98.52H326.39V99.71H437.31V98.52Z" fill="#EBEBEB"/>
<path d="M437.31 101.22H326.39V102.41H437.31V101.22Z" fill="#EBEBEB"/>
<path d="M437.31 103.92H326.39V105.11H437.31V103.92Z" fill="#EBEBEB"/>
<path d="M437.31 106.62H326.39V107.81H437.31V106.62Z" fill="#EBEBEB"/>
<path d="M437.31 109.32H326.39V110.51H437.31V109.32Z" fill="#EBEBEB"/>
<path d="M437.31 112.02H326.39V113.21H437.31V112.02Z" fill="#EBEBEB"/>
<path d="M437.31 114.72H326.39V115.91H437.31V114.72Z" fill="#EBEBEB"/>
<path d="M124.29 87.48H68.4301V326.62H124.29V87.48Z" fill="#F5F5F5"/>
<path d="M119.47 93.1599H73.25V322.1H119.47V93.1599Z" fill="#EBEBEB"/>
<path d="M111.05 98.72H81.66V100.67H111.05V98.72Z" fill="#E0E0E0"/>
<path d="M111.05 107.13H81.66V109.08H111.05V107.13Z" fill="#E0E0E0"/>
<path d="M111.05 115.55H81.66V117.5H111.05V115.55Z" fill="#E0E0E0"/>
<path d="M111.05 123.97H81.66V125.92H111.05V123.97Z" fill="#E0E0E0"/>
<path d="M111.05 132.39H81.66V134.34H111.05V132.39Z" fill="#E0E0E0"/>
<path d="M111.05 140.8H81.66V142.75H111.05V140.8Z" fill="#E0E0E0"/>
<path d="M111.05 149.22H81.66V151.17H111.05V149.22Z" fill="#E0E0E0"/>
<path d="M111.05 257.68H81.66V259.63H111.05V257.68Z" fill="#E0E0E0"/>
<path d="M111.05 266.1H81.66V268.05H111.05V266.1Z" fill="#E0E0E0"/>
<path d="M111.05 274.52H81.66V276.47H111.05V274.52Z" fill="#E0E0E0"/>
<path d="M111.05 282.93H81.66V284.88H111.05V282.93Z" fill="#E0E0E0"/>
<path d="M111.05 291.35H81.66V293.3H111.05V291.35Z" fill="#E0E0E0"/>
<path d="M111.05 299.77H81.66V301.72H111.05V299.77Z" fill="#E0E0E0"/>
<path d="M111.05 308.19H81.66V310.14H111.05V308.19Z" fill="#E0E0E0"/>
<path d="M109.25 201.28C111.045 201.28 112.5 199.825 112.5 198.03C112.5 196.235 111.045 194.78 109.25 194.78C107.455 194.78 106 196.235 106 198.03C106 199.825 107.455 201.28 109.25 201.28Z" fill="#E0E0E0"/>
<path d="M183.5 87.48H127.64V326.62H183.5V87.48Z" fill="#F5F5F5"/>
<path d="M178.68 93.1599H132.46V322.1H178.68V93.1599Z" fill="#EBEBEB"/>
<path d="M170.26 98.72H140.87V100.67H170.26V98.72Z" fill="#E0E0E0"/>
<path d="M170.26 107.13H140.87V109.08H170.26V107.13Z" fill="#E0E0E0"/>
<path d="M170.26 115.55H140.87V117.5H170.26V115.55Z" fill="#E0E0E0"/>
<path d="M170.26 123.97H140.87V125.92H170.26V123.97Z" fill="#E0E0E0"/>
<path d="M170.26 132.39H140.87V134.34H170.26V132.39Z" fill="#E0E0E0"/>
<path d="M170.26 140.8H140.87V142.75H170.26V140.8Z" fill="#E0E0E0"/>
<path d="M170.26 149.22H140.87V151.17H170.26V149.22Z" fill="#E0E0E0"/>
<path d="M170.26 257.68H140.87V259.63H170.26V257.68Z" fill="#E0E0E0"/>
<path d="M170.26 266.1H140.87V268.05H170.26V266.1Z" fill="#E0E0E0"/>
<path d="M170.26 274.52H140.87V276.47H170.26V274.52Z" fill="#E0E0E0"/>
<path d="M170.26 282.93H140.87V284.88H170.26V282.93Z" fill="#E0E0E0"/>
<path d="M170.26 291.35H140.87V293.3H170.26V291.35Z" fill="#E0E0E0"/>
<path d="M170.26 299.77H140.87V301.72H170.26V299.77Z" fill="#E0E0E0"/>
<path d="M170.26 308.19H140.87V310.14H170.26V308.19Z" fill="#E0E0E0"/>
<path d="M168.46 201.28C170.255 201.28 171.71 199.825 171.71 198.03C171.71 196.235 170.255 194.78 168.46 194.78C166.665 194.78 165.21 196.235 165.21 198.03C165.21 199.825 166.665 201.28 168.46 201.28Z" fill="#E0E0E0"/>
<path d="M242.71 87.48H186.85V326.62H242.71V87.48Z" fill="#F5F5F5"/>
<path d="M237.89 93.1599H191.67V322.1H237.89V93.1599Z" fill="#EBEBEB"/>
<path d="M229.48 98.72H200.09V100.67H229.48V98.72Z" fill="#E0E0E0"/>
<path d="M229.48 107.13H200.09V109.08H229.48V107.13Z" fill="#E0E0E0"/>
<path d="M229.48 115.55H200.09V117.5H229.48V115.55Z" fill="#E0E0E0"/>
<path d="M229.48 123.97H200.09V125.92H229.48V123.97Z" fill="#E0E0E0"/>
<path d="M229.48 132.39H200.09V134.34H229.48V132.39Z" fill="#E0E0E0"/>
<path d="M229.48 140.8H200.09V142.75H229.48V140.8Z" fill="#E0E0E0"/>
<path d="M229.48 149.22H200.09V151.17H229.48V149.22Z" fill="#E0E0E0"/>
<path d="M229.48 257.68H200.09V259.63H229.48V257.68Z" fill="#E0E0E0"/>
<path d="M229.48 266.1H200.09V268.05H229.48V266.1Z" fill="#E0E0E0"/>
<path d="M229.48 274.52H200.09V276.47H229.48V274.52Z" fill="#E0E0E0"/>
<path d="M229.48 282.93H200.09V284.88H229.48V282.93Z" fill="#E0E0E0"/>
<path d="M229.48 291.35H200.09V293.3H229.48V291.35Z" fill="#E0E0E0"/>
<path d="M229.48 299.77H200.09V301.72H229.48V299.77Z" fill="#E0E0E0"/>
<path d="M229.48 308.19H200.09V310.14H229.48V308.19Z" fill="#E0E0E0"/>
<path d="M227.68 201.28C229.475 201.28 230.93 199.825 230.93 198.03C230.93 196.235 229.475 194.78 227.68 194.78C225.885 194.78 224.43 196.235 224.43 198.03C224.43 199.825 225.885 201.28 227.68 201.28Z" fill="#E0E0E0"/>
<path d="M301.93 87.48H246.07V326.62H301.93V87.48Z" fill="#F5F5F5"/>
<path d="M297.1 93.1599H250.88V322.1H297.1V93.1599Z" fill="#EBEBEB"/>
<path d="M288.69 98.72H259.3V100.67H288.69V98.72Z" fill="#E0E0E0"/>
<path d="M288.69 107.13H259.3V109.08H288.69V107.13Z" fill="#E0E0E0"/>
<path d="M288.69 115.55H259.3V117.5H288.69V115.55Z" fill="#E0E0E0"/>
<path d="M288.69 123.97H259.3V125.92H288.69V123.97Z" fill="#E0E0E0"/>
<path d="M288.69 132.39H259.3V134.34H288.69V132.39Z" fill="#E0E0E0"/>
<path d="M288.69 140.8H259.3V142.75H288.69V140.8Z" fill="#E0E0E0"/>
<path d="M288.69 149.22H259.3V151.17H288.69V149.22Z" fill="#E0E0E0"/>
<path d="M288.69 257.68H259.3V259.63H288.69V257.68Z" fill="#E0E0E0"/>
<path d="M288.69 266.1H259.3V268.05H288.69V266.1Z" fill="#E0E0E0"/>
<path d="M288.69 274.52H259.3V276.47H288.69V274.52Z" fill="#E0E0E0"/>
<path d="M288.69 282.93H259.3V284.88H288.69V282.93Z" fill="#E0E0E0"/>
<path d="M288.69 291.35H259.3V293.3H288.69V291.35Z" fill="#E0E0E0"/>
<path d="M288.69 299.77H259.3V301.72H288.69V299.77Z" fill="#E0E0E0"/>
<path d="M288.69 308.19H259.3V310.14H288.69V308.19Z" fill="#E0E0E0"/>
<path d="M290.14 198C290.14 198.643 289.949 199.271 289.592 199.806C289.235 200.34 288.728 200.757 288.134 201.003C287.54 201.249 286.886 201.313 286.256 201.188C285.626 201.062 285.046 200.753 284.592 200.298C284.137 199.844 283.828 199.264 283.702 198.634C283.577 198.004 283.641 197.35 283.887 196.756C284.133 196.162 284.55 195.655 285.084 195.298C285.619 194.941 286.247 194.75 286.89 194.75C287.752 194.75 288.579 195.092 289.188 195.702C289.798 196.311 290.14 197.138 290.14 198V198Z" fill="#E0E0E0"/>
<path d="M196.443 55.7511C203.039 49.1552 203.039 38.461 196.443 31.8651C189.848 25.2691 179.153 25.2691 172.557 31.8651C165.961 38.461 165.961 49.1552 172.557 55.7511C179.153 62.3471 189.848 62.3471 196.443 55.7511Z" fill="#F5F5F5"/>
<path d="M184.5 58.17C192.431 58.17 198.86 51.7408 198.86 43.81C198.86 35.8791 192.431 29.45 184.5 29.45C176.569 29.45 170.14 35.8791 170.14 43.81C170.14 51.7408 176.569 58.17 184.5 58.17Z" fill="#FAFAFA"/>
<path d="M183.82 33.96V44L177.17 40.24" stroke="#F0F0F0" stroke-width="2" stroke-linecap="round" stroke-linejoin="round"/>
<path d="M250 372.56C357.082 372.56 443.89 367.492 443.89 361.24C443.89 354.988 357.082 349.92 250 349.92C142.917 349.92 56.11 354.988 56.11 361.24C56.11 367.492 142.917 372.56 250 372.56Z" fill="#F5F5F5"/>
<path d="M104.4 288.69C104.19 290.16 108.17 291.13 111.4 291.69C111.13 294.36 109.35 297.06 106.9 299.57C103.82 297.84 99.41 295.57 98.6 296.1C97.79 296.63 102.23 299.63 105.05 301.34C103.035 303.1 100.9 304.717 98.66 306.18C97.27 304.89 95.66 303.76 94.66 304.37C93.66 304.98 93.93 307.01 94.42 308.79C91.07 310.79 88.55 311.94 88.55 311.94C87.5737 308.822 86.825 305.637 86.31 302.41C86.48 302.07 86.65 301.74 86.8 301.41C87.34 300.16 86.8 299.63 85.92 299.41C85.6854 297.126 85.6854 294.824 85.92 292.54C89.72 291.75 94.34 290.27 92.61 288C91.56 286.62 89.61 286.47 87.67 286.81C87.9364 286.353 88.248 285.924 88.6 285.53C95.52 277.91 100.34 285.53 100.34 285.53C104.34 282.18 110 283.09 111.22 288.32C109 287.73 104.66 286.87 104.4 288.69Z" fill="#1999B9"/>
<path opacity="0.3" d="M104.4 288.69C104.19 290.16 108.17 291.13 111.4 291.69C111.13 294.36 109.35 297.06 106.9 299.57C103.82 297.84 99.41 295.57 98.6 296.1C97.79 296.63 102.23 299.63 105.05 301.34C103.035 303.1 100.9 304.717 98.66 306.18C97.27 304.89 95.66 303.76 94.66 304.37C93.66 304.98 93.93 307.01 94.42 308.79C91.07 310.79 88.55 311.94 88.55 311.94C87.5737 308.822 86.825 305.637 86.31 302.41C86.48 302.07 86.65 301.74 86.8 301.41C87.34 300.16 86.8 299.63 85.92 299.41C85.6854 297.126 85.6854 294.824 85.92 292.54C89.72 291.75 94.34 290.27 92.61 288C91.56 286.62 89.61 286.47 87.67 286.81C87.9364 286.353 88.248 285.924 88.6 285.53C95.52 277.91 100.34 285.53 100.34 285.53C104.34 282.18 110 283.09 111.22 288.32C109 287.73 104.66 286.87 104.4 288.69Z" fill="white"/>
<path d="M95.77 344.68L96.77 344.59C96.77 344.08 92.67 293.07 104.12 288.26C104.665 288.002 105.263 287.876 105.866 287.892C106.468 287.907 107.059 288.064 107.59 288.35C111.73 290.5 113.71 299.43 113.73 299.52L114.73 299.31C114.64 298.92 112.63 289.83 108.08 287.46C107.417 287.11 106.683 286.918 105.934 286.897C105.185 286.876 104.441 287.028 103.76 287.34C91.62 292.42 95.6 342.54 95.77 344.68Z" fill="#1999B9"/>
<path d="M94.33 343.57C94.53 341.27 99.2 287.3 90.47 281.57C88.37 280.2 86.47 279.91 84.92 280.71C80.79 282.79 80.25 291.62 80.23 291.99L81.23 292.05C81.23 291.96 81.76 283.42 85.38 281.6C86.62 280.98 88.15 281.24 89.93 282.41C98.17 287.81 93.39 342.93 93.34 343.48L94.33 343.57Z" fill="#1999B9"/>
<path d="M93.0001 347.93C93.0701 346.18 94.5101 304.86 86.5501 301.25C85.8103 300.901 85.0028 300.721 84.1851 300.721C83.3674 300.721 82.5598 300.901 81.8201 301.25C76.3601 303.65 72.9901 313.82 72.8201 314.25L73.8201 314.56C73.8201 314.46 77.1901 304.37 82.2401 302.15C82.8531 301.861 83.5224 301.711 84.2001 301.711C84.8777 301.711 85.547 301.861 86.1601 302.15C92.2601 304.92 92.4601 336.1 92.0301 347.89L93.0001 347.93Z" fill="#1999B9"/>
<path d="M95 346L96 345.89C94.6 333.59 91.92 300.83 96.3 296.89C96.5134 296.635 96.796 296.448 97.1136 296.35C97.4313 296.252 97.7704 296.249 98.09 296.34C101.03 297.46 102.81 308.12 103.25 312.13L104.25 312.02C104.08 310.48 102.48 296.95 98.45 295.4C97.9587 295.238 97.431 295.222 96.9306 295.353C96.4302 295.484 95.9785 295.758 95.63 296.14C90 301.27 94.83 344.22 95 346Z" fill="#1999B9"/>
<path d="M111.73 322.73H75.8L78.8 362.98H108.73L111.73 322.73Z" fill="#263238"/>
<path opacity="0.2" d="M100.81 322.73L99.81 362.98H78.8L75.8 322.73H100.81Z" fill="white"/>
<path d="M106.83 308C107.21 309 110 308.21 112.19 307.43C112.94 309.17 112.77 311.43 112.12 313.84C109.62 313.84 106.12 313.92 105.81 314.54C105.5 315.16 109.26 315.47 111.58 315.54C110.943 317.318 110.181 319.049 109.3 320.72C108.01 320.4 106.62 320.25 106.23 320.96C105.84 321.67 106.69 322.84 107.6 323.77C106.2 326.13 105.06 327.72 105.06 327.72C103.39 326.13 101.836 324.422 100.41 322.61C100.41 322.35 100.41 322.08 100.41 321.81C100.32 320.81 99.81 320.71 99.2 320.9C98.2593 319.583 97.4583 318.173 96.81 316.69C98.88 314.9 101.22 312.4 99.38 311.59C98.26 311.1 97.03 311.66 95.92 312.59C95.9365 312.217 95.9833 311.846 96.06 311.48C97.71 304.41 103.3 307.48 103.3 307.48C104.63 304.04 108.42 302.66 110.97 305.48C109.33 305.81 106.37 306.76 106.83 308Z" fill="#1999B9"/>
<path opacity="0.3" d="M106.83 308C107.21 309 110 308.21 112.19 307.43C112.94 309.17 112.77 311.43 112.12 313.84C109.62 313.84 106.12 313.92 105.81 314.54C105.5 315.16 109.26 315.47 111.58 315.54C110.943 317.318 110.181 319.049 109.3 320.72C108.01 320.4 106.62 320.25 106.23 320.96C105.84 321.67 106.69 322.84 107.6 323.77C106.2 326.13 105.06 327.72 105.06 327.72C103.39 326.13 101.836 324.422 100.41 322.61C100.41 322.35 100.41 322.08 100.41 321.81C100.32 320.81 99.81 320.71 99.2 320.9C98.2593 319.583 97.4583 318.173 96.81 316.69C98.88 314.9 101.22 312.4 99.38 311.59C98.26 311.1 97.03 311.66 95.92 312.59C95.9365 312.217 95.9833 311.846 96.06 311.48C97.71 304.41 103.3 307.48 103.3 307.48C104.63 304.04 108.42 302.66 110.97 305.48C109.33 305.81 106.37 306.76 106.83 308Z" fill="white"/>
<path d="M80.16 312.74C81.2763 312.842 82.377 313.074 83.44 313.43C83.7296 312.672 83.8918 311.871 83.92 311.06C84.15 303.81 78.92 306.87 76.23 304.74C75.608 304.193 74.8782 303.782 74.0876 303.534C73.297 303.286 72.4632 303.206 71.64 303.3C71.8725 303.7 72.0796 304.114 72.26 304.54C72.3237 304.699 72.3508 304.87 72.3392 305.041C72.3276 305.212 72.2777 305.378 72.1932 305.527C72.1086 305.676 71.9916 305.804 71.8508 305.901C71.7101 305.999 71.5491 306.063 71.38 306.09C70.7048 306.226 70.0038 306.142 69.38 305.85C69.1972 305.739 69.0203 305.619 68.85 305.49C68.4107 306.249 68.0744 307.062 67.85 307.91C67.5784 308.923 67.4208 309.962 67.38 311.01C67.7898 311.099 68.1939 311.212 68.59 311.35C68.7479 311.417 68.8884 311.519 69.0009 311.649C69.1134 311.779 69.1949 311.932 69.2393 312.098C69.2836 312.264 69.2896 312.437 69.2568 312.606C69.224 312.774 69.1533 312.933 69.05 313.07C68.6189 313.509 68.1104 313.865 67.55 314.12C67.7336 315.282 68.0386 316.422 68.46 317.52L68.83 317.57C69.1 317.63 69.36 317.69 69.61 317.77C69.7617 317.808 69.9091 317.862 70.05 317.93C70.2285 318.007 70.3845 318.128 70.5035 318.282C70.6224 318.436 70.7003 318.618 70.73 318.81C70.7483 318.999 70.7185 319.19 70.6434 319.365C70.5682 319.54 70.4501 319.693 70.3 319.81C70.1283 319.933 69.9478 320.043 69.76 320.14C70.45 321.338 71.4388 322.338 72.63 323.04C73.6587 322.559 74.6602 322.021 75.63 321.43C75.42 321.14 75.2 320.85 75 320.55C74.7621 320.22 74.6519 319.815 74.69 319.41C74.717 319.212 74.783 319.022 74.8843 318.851C74.9856 318.679 75.1201 318.529 75.28 318.41C75.4397 318.285 75.6226 318.193 75.818 318.14C76.0135 318.087 76.2176 318.072 76.4185 318.098C76.6195 318.124 76.8133 318.19 76.9886 318.292C77.164 318.393 77.3174 318.529 77.44 318.69C77.68 319.04 77.94 319.38 78.2 319.69C79.5883 318.679 80.8271 317.477 81.88 316.12H81.77C81.1156 315.944 80.4459 315.83 79.77 315.78C79.5691 315.754 79.3753 315.688 79.1997 315.587C79.0241 315.486 78.8702 315.351 78.7467 315.19C78.6232 315.03 78.5326 314.846 78.4799 314.651C78.4273 314.455 78.4137 314.251 78.44 314.05C78.4663 313.849 78.5319 313.655 78.633 313.48C78.7342 313.304 78.8689 313.15 79.0296 313.027C79.1902 312.903 79.3736 312.813 79.5693 312.76C79.765 312.707 79.9691 312.694 80.17 312.72L80.16 312.74Z" fill="#1999B9"/>
<path opacity="0.5" d="M80.16 312.74C81.2763 312.842 82.377 313.074 83.44 313.43C83.7296 312.672 83.8918 311.871 83.92 311.06C84.15 303.81 78.92 306.87 76.23 304.74C75.608 304.193 74.8782 303.782 74.0876 303.534C73.297 303.286 72.4632 303.206 71.64 303.3C71.8725 303.7 72.0796 304.114 72.26 304.54C72.3237 304.699 72.3508 304.87 72.3392 305.041C72.3276 305.212 72.2777 305.378 72.1932 305.527C72.1086 305.676 71.9916 305.804 71.8508 305.901C71.7101 305.999 71.5491 306.063 71.38 306.09C70.7048 306.226 70.0038 306.142 69.38 305.85C69.1972 305.739 69.0203 305.619 68.85 305.49C68.4107 306.249 68.0744 307.062 67.85 307.91C67.5784 308.923 67.4208 309.962 67.38 311.01C67.7898 311.099 68.1939 311.212 68.59 311.35C68.7479 311.417 68.8884 311.519 69.0009 311.649C69.1134 311.779 69.1949 311.932 69.2393 312.098C69.2836 312.264 69.2896 312.437 69.2568 312.606C69.224 312.774 69.1533 312.933 69.05 313.07C68.6189 313.509 68.1104 313.865 67.55 314.12C67.7336 315.282 68.0386 316.422 68.46 317.52L68.83 317.57C69.1 317.63 69.36 317.69 69.61 317.77C69.7617 317.808 69.9091 317.862 70.05 317.93C70.2285 318.007 70.3845 318.128 70.5035 318.282C70.6224 318.436 70.7003 318.618 70.73 318.81C70.7483 318.999 70.7185 319.19 70.6434 319.365C70.5682 319.54 70.4501 319.693 70.3 319.81C70.1283 319.933 69.9478 320.043 69.76 320.14C70.45 321.338 71.4388 322.338 72.63 323.04C73.6587 322.559 74.6602 322.021 75.63 321.43C75.42 321.14 75.2 320.85 75 320.55C74.7621 320.22 74.6519 319.815 74.69 319.41C74.717 319.212 74.783 319.022 74.8843 318.851C74.9856 318.679 75.1201 318.529 75.28 318.41C75.4397 318.285 75.6226 318.193 75.818 318.14C76.0135 318.087 76.2176 318.072 76.4185 318.098C76.6195 318.124 76.8133 318.19 76.9886 318.292C77.164 318.393 77.3174 318.529 77.44 318.69C77.68 319.04 77.94 319.38 78.2 319.69C79.5883 318.679 80.8271 317.477 81.88 316.12H81.77C81.1156 315.944 80.4459 315.83 79.77 315.78C79.5691 315.754 79.3753 315.688 79.1997 315.587C79.0241 315.486 78.8702 315.351 78.7467 315.19C78.6232 315.03 78.5326 314.846 78.4799 314.651C78.4273 314.455 78.4137 314.251 78.44 314.05C78.4663 313.849 78.5319 313.655 78.633 313.48C78.7342 313.304 78.8689 313.15 79.0296 313.027C79.1902 312.903 79.3736 312.813 79.5693 312.76C79.765 312.707 79.9691 312.694 80.17 312.72L80.16 312.74Z" fill="white"/>
<path d="M78.08 287.76C77.4574 287.324 76.7862 286.961 76.08 286.68C76.2611 286.153 76.5281 285.66 76.87 285.22C79.93 281.32 81.31 285.22 83.68 285.28C84.2404 285.268 84.7971 285.374 85.3139 285.591C85.8307 285.808 86.2961 286.131 86.68 286.54C86.3821 286.648 86.0915 286.775 85.81 286.92C85.708 286.977 85.6199 287.055 85.5519 287.15C85.4839 287.245 85.4377 287.353 85.4167 287.468C85.3957 287.583 85.4003 287.701 85.4302 287.813C85.4602 287.926 85.5147 288.031 85.59 288.12C85.8903 288.495 86.3045 288.762 86.77 288.88C86.9129 288.895 87.057 288.895 87.2 288.88C87.0995 289.472 86.9178 290.047 86.66 290.59C86.3602 291.243 85.9878 291.86 85.55 292.43C85.29 292.3 85.03 292.18 84.76 292.07C84.6467 292.034 84.5267 292.026 84.4094 292.044C84.2921 292.063 84.1806 292.108 84.0838 292.177C83.987 292.246 83.9074 292.336 83.8512 292.44C83.795 292.545 83.7638 292.661 83.76 292.78C83.7941 293.199 83.9025 293.609 84.08 293.99C83.4631 294.518 82.7928 294.981 82.08 295.37L81.86 295.24C81.7017 295.15 81.5381 295.07 81.37 295C81.2734 294.954 81.173 294.918 81.07 294.89C80.9402 294.845 80.8009 294.837 80.6665 294.864C80.5321 294.891 80.4075 294.954 80.3055 295.046C80.2036 295.138 80.128 295.255 80.0866 295.386C80.0452 295.517 80.0394 295.656 80.07 295.79C80.07 295.93 80.16 296.07 80.21 296.2C79.3223 296.53 78.3634 296.619 77.43 296.46C77.0907 295.751 76.7936 295.023 76.54 294.28L77.26 294.09C77.5282 294.021 77.7625 293.858 77.92 293.63C78.0694 293.395 78.1197 293.111 78.06 292.84C77.9942 292.568 77.8304 292.329 77.6 292.17C77.3599 292.026 77.0748 291.976 76.8 292.03C76.5173 292.115 76.2302 292.185 75.94 292.24C75.6582 291.099 75.537 289.924 75.58 288.75H75.65C76.0796 288.949 76.4883 289.19 76.87 289.47C77.106 289.62 77.3919 289.67 77.6648 289.609C77.9376 289.548 78.1751 289.381 78.325 289.145C78.4748 288.909 78.5248 288.623 78.4638 288.35C78.4029 288.077 78.236 287.84 78 287.69L78.08 287.76Z" fill="#1999B9"/>
<path opacity="0.3" d="M78.08 287.76C77.4574 287.324 76.7862 286.961 76.08 286.68C76.2611 286.153 76.5281 285.66 76.87 285.22C79.93 281.32 81.31 285.22 83.68 285.28C84.2404 285.268 84.7971 285.374 85.3139 285.591C85.8307 285.808 86.2961 286.131 86.68 286.54C86.3821 286.648 86.0915 286.775 85.81 286.92C85.708 286.977 85.6199 287.055 85.5519 287.15C85.4839 287.245 85.4377 287.353 85.4167 287.468C85.3957 287.583 85.4003 287.701 85.4302 287.813C85.4602 287.926 85.5147 288.031 85.59 288.12C85.8903 288.495 86.3045 288.762 86.77 288.88C86.9129 288.895 87.057 288.895 87.2 288.88C87.0995 289.472 86.9178 290.047 86.66 290.59C86.3602 291.243 85.9878 291.86 85.55 292.43C85.29 292.3 85.03 292.18 84.76 292.07C84.6467 292.034 84.5267 292.026 84.4094 292.044C84.2921 292.063 84.1806 292.108 84.0838 292.177C83.987 292.246 83.9074 292.336 83.8512 292.44C83.795 292.545 83.7638 292.661 83.76 292.78C83.7941 293.199 83.9025 293.609 84.08 293.99C83.4631 294.518 82.7928 294.981 82.08 295.37L81.86 295.24C81.7017 295.15 81.5381 295.07 81.37 295C81.2734 294.954 81.173 294.918 81.07 294.89C80.9402 294.845 80.8009 294.837 80.6665 294.864C80.5321 294.891 80.4075 294.954 80.3055 295.046C80.2036 295.138 80.128 295.255 80.0866 295.386C80.0452 295.517 80.0394 295.656 80.07 295.79C80.07 295.93 80.16 296.07 80.21 296.2C79.3223 296.53 78.3634 296.619 77.43 296.46C77.0907 295.751 76.7936 295.023 76.54 294.28L77.26 294.09C77.5282 294.021 77.7625 293.858 77.92 293.63C78.0694 293.395 78.1197 293.111 78.06 292.84C77.9942 292.568 77.8304 292.329 77.6 292.17C77.3599 292.026 77.0748 291.976 76.8 292.03C76.5173 292.115 76.2302 292.185 75.94 292.24C75.6582 291.099 75.537 289.924 75.58 288.75H75.65C76.0796 288.949 76.4883 289.19 76.87 289.47C77.106 289.62 77.3919 289.67 77.6648 289.609C77.9376 289.548 78.1751 289.381 78.325 289.145C78.4748 288.909 78.5248 288.623 78.4638 288.35C78.4029 288.077 78.236 287.84 78 287.69L78.08 287.76Z" fill="white"/>
<path d="M107.36 295C107.57 296.47 103.58 297.44 100.36 298C100.62 300.67 102.36 303.37 104.85 305.89C107.94 304.15 112.34 301.89 113.15 302.41C113.96 302.93 109.53 305.94 106.71 307.66C108.726 309.419 110.861 311.036 113.1 312.5C114.48 311.21 116.1 310.07 117.1 310.69C118.1 311.31 117.83 313.32 117.33 315.11C120.69 317.06 123.2 318.25 123.2 318.25C124.176 315.132 124.925 311.947 125.44 308.72C125.27 308.39 125.11 308.05 124.95 307.72C124.41 306.47 124.95 305.94 125.83 305.77C126.084 303.488 126.105 301.186 125.89 298.9C122.09 298.1 117.47 296.63 119.2 294.35C120.2 292.98 122.2 292.82 124.14 293.16C123.867 292.708 123.552 292.283 123.2 291.89C116.29 284.27 111.46 291.89 111.46 291.89C107.46 288.54 101.8 289.44 100.58 294.68C102.78 294.06 107.1 293.2 107.36 295Z" fill="#1999B9"/>
<path opacity="0.5" d="M107.36 295C107.57 296.47 103.58 297.44 100.36 298C100.62 300.67 102.36 303.37 104.85 305.89C107.94 304.15 112.34 301.89 113.15 302.41C113.96 302.93 109.53 305.94 106.71 307.66C108.726 309.419 110.861 311.036 113.1 312.5C114.48 311.21 116.1 310.07 117.1 310.69C118.1 311.31 117.83 313.32 117.33 315.11C120.69 317.06 123.2 318.25 123.2 318.25C124.176 315.132 124.925 311.947 125.44 308.72C125.27 308.39 125.11 308.05 124.95 307.72C124.41 306.47 124.95 305.94 125.83 305.77C126.084 303.488 126.105 301.186 125.89 298.9C122.09 298.1 117.47 296.63 119.2 294.35C120.2 292.98 122.2 292.82 124.14 293.16C123.867 292.708 123.552 292.283 123.2 291.89C116.29 284.27 111.46 291.89 111.46 291.89C107.46 288.54 101.8 289.44 100.58 294.68C102.78 294.06 107.1 293.2 107.36 295Z" fill="white"/>
<path d="M270.99 354.98V203.08H263.25V354.98L246.85 359.93V362.97H265.55H268.69H287.39V359.93L270.99 354.98Z" fill="#263238"/>
<path opacity="0.4" d="M287.39 359.93V362.98H246.85V359.93L263.25 354.98V203.08H270.99V354.98L287.39 359.93Z" fill="white"/>
<path d="M140.99 354.98V203.08H133.25V354.98L116.85 359.93V362.97H135.55H138.69H157.39V359.93L140.99 354.98Z" fill="#263238"/>
<path opacity="0.4" d="M157.39 359.93V362.98H116.85V359.93L133.25 354.98V203.08H140.99V354.98L157.39 359.93Z" fill="white"/>
<path opacity="0.2" d="M266.99 354.98V203.08H263.25V354.98L246.85 359.93V362.97H265.55H266.69H283.39V359.93L266.99 354.98Z" fill="black"/>
<path opacity="0.2" d="M136.99 354.98V203.08H133.25V354.98L116.85 359.93V362.97H135.55H136.69H153.39V359.93L136.99 354.98Z" fill="black"/>
<path opacity="0.2" d="M133.25 203.08H140.99V255.81L133.25 255V203.08Z" fill="black"/>
<path opacity="0.2" d="M270.99 203.08V269.38L263.25 268.57V203.08H270.99Z" fill="black"/>
<path d="M306.29 72.4199H98.4601V245.26H306.29V72.4199Z" fill="#1999B9"/>
<path opacity="0.7" d="M306.29 72.4199H98.4601V245.26H306.29V72.4199Z" fill="white"/>
<path d="M131.29 123.27C140.994 123.27 148.86 115.404 148.86 105.7C148.86 95.9962 140.994 88.1299 131.29 88.1299C121.586 88.1299 113.72 95.9962 113.72 105.7C113.72 115.404 121.586 123.27 131.29 123.27Z" fill="#1999B9"/>
<path opacity="0.9" d="M131.29 121C139.74 121 146.59 114.15 146.59 105.7C146.59 97.2499 139.74 90.3999 131.29 90.3999C122.84 90.3999 115.99 97.2499 115.99 105.7C115.99 114.15 122.84 121 131.29 121Z" fill="white"/>
<path d="M131.29 116.4C137.2 116.4 141.99 111.609 141.99 105.7C141.99 99.7906 137.2 95 131.29 95C125.381 95 120.59 99.7906 120.59 105.7C120.59 111.609 125.381 116.4 131.29 116.4Z" stroke="#1999B9" stroke-width="3" stroke-miterlimit="10"/>
<path d="M127.79 102.19C127.081 102.885 126.595 103.776 126.394 104.748C126.193 105.721 126.286 106.731 126.661 107.651C127.037 108.57 127.677 109.357 128.502 109.911C129.326 110.465 130.297 110.761 131.29 110.761C132.283 110.761 133.254 110.465 134.078 109.911C134.903 109.357 135.543 108.57 135.919 107.651C136.294 106.731 136.388 105.721 136.187 104.748C135.985 103.776 135.499 102.885 134.79 102.19C133.862 101.262 132.603 100.74 131.29 100.74C129.977 100.74 128.718 101.262 127.79 102.19V102.19Z" stroke="#1999B9" stroke-width="3" stroke-miterlimit="10"/>
<path d="M130.31 104.72C130.045 104.985 129.896 105.345 129.896 105.72C129.896 106.095 130.045 106.455 130.31 106.72C130.575 106.985 130.935 107.134 131.31 107.134C131.685 107.134 132.045 106.985 132.31 106.72C132.447 106.592 132.556 106.437 132.631 106.265C132.705 106.093 132.744 105.907 132.744 105.72C132.744 105.532 132.705 105.347 132.631 105.175C132.556 105.003 132.447 104.848 132.31 104.72C132.18 104.586 132.025 104.479 131.853 104.406C131.681 104.333 131.497 104.295 131.31 104.295C131.123 104.295 130.939 104.333 130.767 104.406C130.595 104.479 130.44 104.586 130.31 104.72V104.72Z" fill="#1999B9"/>
<path d="M145.56 91.44L144.27 87.27L140.28 91.26L141.53 95.46L145.73 96.72L149.73 92.72L145.56 91.44Z" fill="#263238"/>
<path opacity="0.2" d="M145.56 91.44L144.27 87.27L140.28 91.26L141.53 95.46L145.73 96.72L149.73 92.72L145.56 91.44Z" fill="white"/>
<path d="M131.29 105.7L146.17 90.8298" stroke="#263238" stroke-width="2" stroke-linecap="round" stroke-linejoin="round"/>
<path d="M199.84 92C199.84 92 204.55 92.65 205.07 93.07C205.59 93.49 205.6 95.01 205.6 95.01H208.21C208.21 95.01 207.06 98.01 205.39 97.77L205.07 96.77H199.84V92Z" fill="#1999B9"/>
<path opacity="0.9" d="M208.21 95C208.21 95 207.06 98 205.38 97.76L205.08 96.76H199.84V92C199.84 92 204.55 92.65 205.08 93.06C205.61 93.47 205.6 95.01 205.6 95.01L208.21 95Z" fill="white"/>
<path opacity="0.2" d="M206.3 94.9998C206.14 95.9624 205.83 96.8938 205.38 97.7598L205.08 96.7598C205.428 95.5613 205.428 94.2884 205.08 93.0898C205.6 93.5098 205.6 95.0398 205.6 95.0398L206.3 94.9998Z" fill="black"/>
<path d="M199.84 108.22V90.8298" stroke="#263238" stroke-width="2" stroke-linecap="round" stroke-linejoin="round"/>
<path d="M212.77 110.66H201.63V123.28H212.77V110.66Z" fill="#1999B9"/>
<path opacity="0.2" d="M212.77 110.66H201.63V123.28H212.77V110.66Z" fill="black"/>
<path d="M202.68 105.7H191.54V123.27H202.68V105.7Z" fill="#1999B9"/>
<path opacity="0.2" d="M202.68 105.7H191.54V123.27H202.68V105.7Z" fill="black"/>
<path d="M191.01 114.19H181.46V123.28H191.01V114.19Z" fill="#1999B9"/>
<path opacity="0.2" d="M191.01 114.19H181.46V123.28H191.01V114.19Z" fill="black"/>
<path d="M194.97 114.19H185.42V123.28H194.97V114.19Z" fill="#1999B9"/>
<path d="M206.65 105.7H195.51V123.27H206.65V105.7Z" fill="#1999B9"/>
<path d="M216.73 110.66H207.18V123.28H216.73V110.66Z" fill="#1999B9"/>
<path opacity="0.9" d="M204.66 111.67C204.66 112.353 204.457 113.02 204.078 113.588C203.698 114.155 203.159 114.597 202.528 114.858C201.897 115.119 201.203 115.187 200.533 115.053C199.864 114.919 199.249 114.589 198.767 114.106C198.285 113.622 197.957 113.007 197.825 112.337C197.693 111.667 197.763 110.973 198.026 110.343C198.288 109.713 198.732 109.174 199.301 108.797C199.869 108.419 200.537 108.218 201.22 108.22C201.673 108.22 202.121 108.309 202.539 108.483C202.957 108.656 203.336 108.911 203.656 109.231C203.976 109.552 204.229 109.932 204.401 110.35C204.573 110.769 204.661 111.217 204.66 111.67V111.67Z" fill="white"/>
<path d="M201.6 110V113.5H201.11V110.44H200.32V110H201.6Z" fill="#263238"/>
<path opacity="0.3" d="M206.65 105.7H195.51V123.27H206.65V105.7Z" fill="white"/>
<path d="M254.86 116.96H250.88V123.27H254.86V116.96Z" fill="#1999B9"/>
<path d="M261.66 114.58H257.68V123.27H261.66V114.58Z" fill="#1999B9"/>
<path d="M268.45 111.41H264.48V123.27H268.45V111.41Z" fill="#1999B9"/>
<path d="M275.26 106.65H271.28V123.27H275.26V106.65Z" fill="#1999B9"/>
<path opacity="0.9" d="M282.06 98.72H278.08V123.27H282.06V98.72Z" fill="white"/>
<path d="M250.88 113.49C250.88 113.49 270.45 109.9 280.07 90.3999" stroke="#263238" stroke-width="2" stroke-linecap="round" stroke-linejoin="round"/>
<path d="M280.82 88.75L276.84 91.19L281.6 93.36L280.82 88.75Z" fill="#263238"/>
<g opacity="0.2">
<path opacity="0.2" d="M284.81 157.36C281.47 153.67 273.88 152.68 269.81 154.36C269.215 154.597 268.64 154.881 268.09 155.21C266.49 148.7 267.09 140.64 267.57 134.51C267.77 131.93 267.94 129.7 267.94 127.88H264.94C264.94 129.59 264.77 131.76 264.58 134.29C264.06 141.06 263.38 150.06 265.58 157.29C264.874 158.109 264.313 159.042 263.92 160.05C262.04 164.84 264 170.38 265.33 173.26C268.33 179.65 269.46 185.26 268.78 189.7C267.187 186.665 264.536 184.321 261.33 183.11C259.125 182.217 256.742 181.853 254.372 182.048C252.001 182.242 249.709 182.99 247.68 184.23C244.08 186.57 243.02 191.67 245.11 196.63C246.88 200.82 251.32 205.17 258.01 203.63C261.296 202.968 264.357 201.473 266.9 199.29C266.358 201.247 265.429 203.076 264.17 204.67C261.74 207.79 255.86 213.02 243.75 213.02C231.27 213.02 227.75 207.93 224.28 203.02C222.867 200.763 221.113 198.739 219.08 197.02C215.4 194.19 209.82 193.94 204.87 196.37C203.407 197.09 202.059 198.024 200.87 199.14C201.416 198.064 202.087 197.057 202.87 196.14C203.55 195.35 204.28 194.58 205.06 193.77C208.37 190.28 212.06 186.32 211.76 180.64C211.673 178.172 210.787 175.8 209.233 173.881C207.68 171.961 205.545 170.599 203.15 170C199.88 169.24 196.15 169.66 192.62 170.08C191.36 170.22 190.14 170.36 188.96 170.46H188.77C183.77 170.84 179.62 170.35 177.01 165.77C173.43 159.51 176.56 154.88 178.75 152.68C181.067 150.463 183.904 148.864 187 148.03C185.256 149.927 184.169 152.336 183.9 154.9C183.695 156.782 183.991 158.684 184.756 160.415C185.522 162.146 186.73 163.645 188.26 164.76C190.509 166.348 193.228 167.132 195.978 166.983C198.727 166.834 201.346 165.762 203.41 163.94C205.123 162.415 206.304 160.383 206.78 158.14C207.6 153.97 205.32 149.26 201.31 146.71C205.26 146.54 209.47 146 212.53 142.27C212.984 141.676 213.295 140.985 213.439 140.252C213.582 139.518 213.556 138.761 213.36 138.04C213.149 137.062 212.727 136.143 212.125 135.345C211.522 134.547 210.753 133.89 209.87 133.42C208.919 132.996 207.944 132.629 206.95 132.32C203.46 131.16 201.34 130.32 201.34 127.8H198.34C198.34 132.62 202.77 134.09 206 135.17C206.878 135.454 207.739 135.788 208.58 136.17C209.05 136.444 209.457 136.813 209.776 137.254C210.094 137.695 210.317 138.198 210.43 138.73C210.519 139.009 210.545 139.304 210.507 139.594C210.469 139.885 210.367 140.163 210.21 140.41C207.63 143.56 203.97 143.67 199.73 143.8C197.667 143.805 195.609 143.996 193.58 144.37C190.468 144.169 187.348 144.62 184.421 145.694C181.494 146.769 178.823 148.443 176.58 150.61C171.84 155.38 171.03 161.47 174.36 167.3C175.411 169.225 176.976 170.821 178.88 171.91C172.36 173.44 165.39 176.76 162.36 184.84C161.733 186.64 161.215 188.477 160.81 190.34C159.81 194.52 158.64 199.26 155.58 204.1C151.2 211.01 140.08 214.18 132.24 210.75C125.06 207.61 124.24 199.51 125.78 193.53C125.96 192.82 126.17 192.1 126.42 191.38C128.038 193.809 130.249 195.783 132.845 197.117C135.44 198.451 138.334 199.099 141.25 199C143.333 198.956 145.361 198.328 147.104 197.188C148.848 196.048 150.236 194.441 151.11 192.55C152.64 188.95 151.92 184.72 149.21 181.24C146.33 177.54 141.82 175.56 137.73 176.19C132.99 176.93 129.15 180.29 126.47 184.5C125.723 182.026 125.429 179.438 125.6 176.86C125.9 172.63 128.83 169.2 131.67 165.86C132.57 164.8 133.5 163.7 134.34 162.6C136.67 159.51 137.59 156.46 137.06 153.52C136.43 149.99 133.83 146.81 129.11 143.79C127.04 142.47 126.11 141.35 126.06 139.94C125.92 137.94 127.34 136.52 128.97 134.86C130.76 133.05 132.79 130.99 132.79 127.86H129.79C129.79 129.76 128.42 131.15 126.84 132.75C124.96 134.65 122.84 136.75 123.07 140.14C123.28 143.24 125.54 145.07 127.49 146.32C131.41 148.83 133.64 151.43 134.11 154.05C134.49 156.16 133.78 158.36 131.95 160.79C131.16 161.79 130.3 162.84 129.38 163.92C126.23 167.61 122.98 171.43 122.61 176.63C122.359 180.535 123.045 184.443 124.61 188.03C123.919 189.575 123.364 191.178 122.95 192.82C121.02 200.5 122.79 209.88 131.11 213.52C133.729 214.638 136.552 215.204 139.4 215.18C146.83 215.18 154.4 211.64 158.19 205.73C161.52 200.47 162.79 195.25 163.8 191.07C164.185 189.324 164.669 187.601 165.25 185.91C169.2 175.38 181.25 174.25 188.45 173.57L189.29 173.49C190.54 173.39 191.78 173.25 193 173.11C196.47 172.71 199.75 172.33 202.51 172.97C204.279 173.4 205.859 174.399 207.006 175.814C208.153 177.228 208.804 178.98 208.86 180.8C209.13 185.18 206.14 188.33 202.97 191.67C202.21 192.48 201.42 193.31 200.7 194.15C196.27 199.26 195.7 205.22 195.82 211.23C195.809 214.359 195.962 217.487 196.28 220.6C196.28 221.13 196.28 221.67 196.28 222.19H199.28C199.28 221.69 199.28 221.19 199.28 220.68C199.28 220.68 199.28 220.57 199.28 220.39C199.28 218.86 199.15 217.33 199.06 215.83C198.97 214.33 198.87 212.72 198.83 211.21C198.779 208.686 199.449 206.201 200.762 204.045C202.074 201.889 203.975 200.153 206.24 199.04C210.18 197.11 214.52 197.24 217.3 199.38C219.089 200.918 220.63 202.723 221.87 204.73C225.57 210.03 229.75 216.04 243.8 216.04C257.18 216.04 263.8 210.09 266.58 206.54C269.26 203.264 270.6 199.094 270.33 194.87V194.87C273.18 189.08 272.42 181.4 268.07 172.03C266.14 167.87 265.65 163.92 266.73 161.18C266.79 161.03 266.85 160.89 266.92 160.75C268.141 163.362 270.067 165.582 272.48 167.16C273.729 167.973 275.127 168.53 276.594 168.796C278.06 169.062 279.565 169.033 281.02 168.71C281.981 168.469 282.88 168.028 283.657 167.414C284.435 166.8 285.073 166.028 285.53 165.15C287 162.27 286.76 159.52 284.81 157.36ZM192 148.07C192.611 147.778 193.251 147.554 193.91 147.4C195.8 147.56 197.635 148.112 199.3 149.02C202.1 150.6 204.58 154.02 203.88 157.61C203.524 159.221 202.667 160.678 201.43 161.77C199.879 163.117 197.925 163.91 195.874 164.026C193.824 164.142 191.793 163.573 190.1 162.41C188.987 161.602 188.108 160.514 187.551 159.256C186.995 157.999 186.78 156.617 186.93 155.25C187.091 153.719 187.641 152.256 188.529 150.999C189.416 149.742 190.612 148.733 192 148.07ZM138.23 179.14C141.23 178.67 144.66 180.21 146.89 183.07C147.859 184.191 148.509 185.552 148.773 187.01C149.037 188.468 148.905 189.97 148.39 191.36C147.05 194.53 143.75 195.83 141.12 195.98C135.85 196.27 130.64 193.1 127.93 187.98C130.15 183.57 133.7 179.83 138.19 179.14H138.23ZM257.39 200.73C252.52 201.83 249.3 198.73 247.92 195.45C246.64 192.45 246.72 188.45 249.35 186.73C251.2 185.568 253.346 184.964 255.53 184.99C257.155 184.993 258.766 185.298 260.28 185.89C261.933 186.494 263.413 187.493 264.591 188.8C265.77 190.108 266.61 191.683 267.04 193.39C267.12 193.69 267.18 193.99 267.23 194.29C264.83 198.29 260.59 200 257.35 200.73H257.39ZM282.9 163.73C282.636 164.242 282.264 164.692 281.81 165.048C281.356 165.403 280.831 165.656 280.27 165.79C278.145 166.215 275.937 165.791 274.12 164.61C271.806 163.055 270.053 160.797 269.12 158.17C269.714 157.76 270.355 157.424 271.03 157.17C274.03 155.93 280.26 156.8 282.65 159.44C283.69 160.59 283.78 162 282.86 163.71L282.9 163.73Z" fill="black"/>
</g>
<path d="M213.11 221.29H183.92C183.092 221.29 182.42 221.962 182.42 222.79V233.6C182.42 234.428 183.092 235.1 183.92 235.1H213.11C213.938 235.1 214.61 234.428 214.61 233.6V222.79C214.61 221.962 213.938 221.29 213.11 221.29Z" fill="#1999B9"/>
<path d="M189.69 229.7L189.9 229.26C190.263 229.56 190.719 229.723 191.19 229.72C191.87 229.72 192.19 229.46 192.19 229.11C192.19 228.16 189.82 228.76 189.82 227.31C189.82 226.71 190.29 226.19 191.32 226.19C191.762 226.185 192.195 226.307 192.57 226.54L192.39 226.99C192.071 226.784 191.7 226.673 191.32 226.67C190.65 226.67 190.37 226.95 190.37 227.29C190.37 228.24 192.74 227.65 192.74 229.08C192.74 229.68 192.25 230.19 191.22 230.19C190.668 230.212 190.126 230.039 189.69 229.7Z" fill="white"/>
<path d="M194.24 226.72H192.9V226.24H196.14V226.72H194.8V230.15H194.24V226.72Z" fill="white"/>
<path d="M199 229.17H197L196.57 230.17H196L197.77 226.26H198.33L200.1 230.17H199.51L199 229.17ZM198.81 228.72L197.97 226.81L197.12 228.72H198.81Z" fill="white"/>
<path d="M203.26 230.15L202.42 228.95H201.2V230.14H200.65V226.23H202.17C203.17 226.23 203.8 226.74 203.8 227.59C203.813 227.862 203.736 228.132 203.58 228.356C203.425 228.58 203.2 228.747 202.94 228.83L203.87 230.14L203.26 230.15ZM203.26 227.6C203.26 227.04 202.89 226.72 202.17 226.72H201.17V228.48H202.17C202.87 228.48 203.24 228.16 203.24 227.6H203.26Z" fill="white"/>
<path d="M205.43 226.72H204.09V226.24H207.32V226.72H206V230.15H205.45L205.43 226.72Z" fill="white"/>
<path d="M306.75 67.4199H98.01C97.27 67.4199 96.67 68.0199 96.67 68.7599V74.2699C96.67 75.01 97.27 75.6099 98.01 75.6099H306.75C307.49 75.6099 308.09 75.01 308.09 74.2699V68.7599C308.09 68.0199 307.49 67.4199 306.75 67.4199Z" fill="#263238"/>
<path opacity="0.4" d="M306.75 67.4199H98.01C97.27 67.4199 96.67 68.0199 96.67 68.7599V74.2699C96.67 75.01 97.27 75.6099 98.01 75.6099H306.75C307.49 75.6099 308.09 75.01 308.09 74.2699V68.7599C308.09 68.0199 307.49 67.4199 306.75 67.4199Z" fill="white"/>
<path opacity="0.4" d="M308.09 68.7599V72.6099H101C100.645 72.6099 100.304 72.4687 100.053 72.2174C99.8012 71.9661 99.66 71.6253 99.66 71.2699V67.4199H306.75C307.105 67.4199 307.446 67.5611 307.698 67.8124C307.949 68.0637 308.09 68.4045 308.09 68.7599V68.7599Z" fill="white"/>
<path opacity="0.1" d="M216.73 110.66H207.18V123.28H216.73V110.66Z" fill="white"/>
<path d="M347.489 71.9553C356.799 69.758 362.565 60.4297 360.368 51.1199C358.17 41.8101 348.842 36.0443 339.532 38.2416C330.222 40.4389 324.457 49.7673 326.654 59.0771C328.851 68.3868 338.18 74.1526 347.489 71.9553Z" fill="#0CA062"/>
<path d="M349.83 75.1999C349.83 76.0053 350.069 76.7926 350.517 77.4621C350.964 78.1316 351.601 78.6533 352.345 78.961C353.089 79.2688 353.908 79.3488 354.698 79.191C355.488 79.0331 356.213 78.6445 356.782 78.0743C357.35 77.5041 357.737 76.7779 357.893 75.9878C358.049 75.1976 357.967 74.379 357.657 73.6354C357.348 72.8919 356.825 72.257 356.154 71.8109C355.483 71.3649 354.696 71.1279 353.89 71.1299C353.356 71.1299 352.827 71.2352 352.334 71.4399C351.841 71.6446 351.393 71.9445 351.016 72.3226C350.639 72.7006 350.34 73.1494 350.136 73.6431C349.933 74.1369 349.829 74.6659 349.83 75.1999V75.1999Z" fill="#0CA062"/>
<path d="M356.21 80.5599C356.21 80.9891 356.337 81.4086 356.576 81.7655C356.814 82.1223 357.153 82.4005 357.55 82.5647C357.946 82.729 358.382 82.7719 358.803 82.6882C359.224 82.6045 359.611 82.3978 359.914 82.0943C360.218 81.7908 360.425 81.4042 360.508 80.9832C360.592 80.5623 360.549 80.126 360.385 79.7295C360.221 79.333 359.942 78.994 359.586 78.7556C359.229 78.5172 358.809 78.3899 358.38 78.3899C357.805 78.3925 357.255 78.622 356.848 79.0284C356.442 79.4348 356.213 79.9852 356.21 80.5599V80.5599Z" fill="#0CA062"/>
<path d="M361 82.68C360.998 82.9554 361.078 83.2251 361.229 83.455C361.381 83.6849 361.597 83.8646 361.851 83.9713C362.105 84.0781 362.385 84.107 362.655 84.0546C362.925 84.0021 363.174 83.8705 363.369 83.6765C363.565 83.4825 363.698 83.2348 363.753 82.9649C363.807 82.695 363.78 82.415 363.675 82.1604C363.57 81.9059 363.392 81.6882 363.163 81.535C362.935 81.3818 362.665 81.3001 362.39 81.3C362.023 81.3 361.671 81.4451 361.411 81.7036C361.15 81.9621 361.003 82.3131 361 82.68V82.68Z" fill="#0CA062"/>
<path opacity="0.6" d="M341.86 60.0999C341.78 58.9299 341.78 58.8299 341.78 58.7199C341.78 55.4799 345.03 53.5799 345.03 50.7799C345.048 50.44 344.99 50.1003 344.862 49.7851C344.733 49.4698 344.537 49.1867 344.287 48.9558C344.037 48.7248 343.739 48.5517 343.415 48.4487C343.091 48.3457 342.747 48.3154 342.41 48.3599C341.776 48.3588 341.152 48.5121 340.591 48.8066C340.03 49.1011 339.549 49.5278 339.19 50.0499L338.46 47.6599C338.951 47.04 339.586 46.5481 340.308 46.226C341.031 45.9038 341.82 45.7611 342.61 45.8099C343.294 45.7708 343.979 45.8681 344.625 46.096C345.271 46.324 345.865 46.6781 346.373 47.1377C346.881 47.5974 347.293 48.1534 347.584 48.7735C347.875 49.3936 348.041 50.0654 348.07 50.7499C348.07 53.8899 344.07 56.0199 344.07 59.7499V60.0899L341.86 60.0999ZM341.34 65.2899V62.0699H344.56V65.2899H341.34Z" fill="white"/>
<path d="M368.83 355.53L360.71 356.38L359.19 338.89L367.3 338.03L368.83 355.53Z" fill="#E4897B"/>
<path d="M409.31 354.94H401.45L400.8 336.73H408.67L409.31 354.94Z" fill="#E4897B"/>
<path d="M400.36 354H409.91C410.067 353.999 410.219 354.052 410.341 354.15C410.463 354.249 410.548 354.386 410.58 354.54L412.13 361.54C412.192 361.841 412.132 362.154 411.964 362.411C411.795 362.668 411.531 362.847 411.23 362.91C411.147 362.92 411.063 362.92 410.98 362.91C407.89 362.86 405.64 362.67 401.76 362.67C399.37 362.67 392.16 362.92 388.86 362.92C385.56 362.92 385.13 359.66 386.48 359.36C392.54 358.04 397.1 356.21 399.04 354.47C399.404 354.15 399.876 353.982 400.36 354V354Z" fill="#263238"/>
<path d="M359.86 353.78H369.41C369.567 353.779 369.719 353.832 369.841 353.93C369.963 354.029 370.048 354.166 370.08 354.32L371.63 361.32C371.692 361.621 371.632 361.934 371.464 362.191C371.295 362.448 371.031 362.627 370.73 362.69C370.647 362.7 370.563 362.7 370.48 362.69C367.39 362.64 365.14 362.45 361.26 362.45C358.87 362.45 351.66 362.7 348.36 362.7C345.06 362.7 344.63 359.44 345.98 359.14C352.04 357.82 356.6 355.99 358.54 354.25C358.904 353.93 359.376 353.762 359.86 353.78Z" fill="#263238"/>
<path opacity="0.2" d="M367.3 338.03L359.19 338.89L359.98 347.91L368.1 347.06L367.3 338.03Z" fill="black"/>
<path opacity="0.2" d="M408.67 336.74H400.8L401.14 346.13H409.01L408.67 336.74Z" fill="black"/>
<path d="M406.11 165.1L353.83 163.76C342.65 190.41 339.4 294.54 356.19 353.84L370.35 352.5C370.35 352.5 362.43 266.01 375.35 227.43C378.22 248.96 381.25 270.09 383.43 280.68C388.43 304.94 397.61 354.5 397.61 354.5H411.86C411.86 354.5 409.46 307.28 408.18 283.84C406.69 255.61 409.8 194.34 406.11 165.1Z" fill="#263238"/>
<path opacity="0.4" d="M411.91 354.5H397.66C397.66 354.5 388.46 304.94 383.48 280.68C381.3 270.09 378.27 248.96 375.4 227.43C373.117 234.705 371.52 242.178 370.63 249.75C364.78 293.5 370.35 352.5 370.35 352.5L356.19 353.84C339.4 294.54 342.65 190.41 353.83 163.76L406.11 165.1C409.8 194.34 406.69 255.61 408.23 283.84C409.51 307.28 411.91 354.5 411.91 354.5Z" fill="white"/>
<path opacity="0.2" d="M375.4 227.43C373.117 234.705 371.52 242.177 370.63 249.75C363.88 211.21 373.37 187.63 373.37 187.63C373.203 200.926 373.881 214.22 375.4 227.43V227.43Z" fill="black"/>
<path d="M368.78 112.54C368.78 112.54 382.26 107.54 404.87 112.59C406.983 113.069 408.842 114.315 410.089 116.087C411.336 117.858 411.882 120.029 411.62 122.18L406.32 166.87L353.83 163.76C353.83 163.76 351.83 140.17 368.78 112.54Z" fill="#0CA062"/>
<path d="M393.35 111.87C395.286 111.654 397.237 111.614 399.18 111.75C394.27 107.64 396.71 97.2098 398.7 91.5398L383.51 100.13C383.685 100.854 383.812 101.589 383.89 102.33C384.076 103.661 383.918 105.017 383.43 106.27C382.531 107.869 381.3 109.256 379.82 110.34L385.9 113.05L393.35 111.87Z" fill="#E4897B"/>
<path opacity="0.2" d="M395.19 97C394.59 104 387.09 105.88 383.43 106.27C383.918 105.018 384.076 103.661 383.89 102.33L395.19 97Z" fill="black"/>
<path d="M375.21 75.9299C375.21 75.9299 374.01 85.8299 379.76 89.9999C385.51 94.1699 384.28 69.9299 384.28 69.9299L375.21 75.9299Z" fill="#263238"/>
<path d="M397.5 96.85C397.217 97.464 396.883 98.0528 396.5 98.61C395.372 100.266 393.764 101.537 391.892 102.252C390.021 102.968 387.975 103.092 386.03 102.61C385.75 102.54 385.48 102.47 385.21 102.38C382.649 101.575 380.476 99.8513 379.11 97.54L378.96 97.29C378.77 96.9656 378.596 96.6319 378.44 96.29C378.114 95.5227 377.83 94.7382 377.59 93.94C375.51 87.21 375.75 75.94 381.99 72.11C386.99 68.98 394.81 70.03 397.94 75.01C398.84 76.42 397.83 80.11 397.99 81.78C398.7 88.53 399.46 92.83 397.5 96.85Z" fill="#E4897B"/>
<path d="M386.66 85.9198C386.81 86.5298 386.53 87.0998 386.11 87.1698C385.69 87.2398 385.29 86.7798 385.18 86.1698C385.07 85.5598 385.32 84.9898 385.73 84.9198C386.14 84.8498 386.55 85.2798 386.66 85.9198Z" fill="#263238"/>
<path d="M379.6 87.1198C379.75 87.7298 379.45 88.3098 379.05 88.3798C378.65 88.4498 378.22 87.9898 378.11 87.3798C378 86.7698 378.26 86.1898 378.66 86.1198C379.06 86.0498 379.49 86.5298 379.6 87.1198Z" fill="#263238"/>
<path d="M381.89 87.0498C381.478 89.0872 380.781 91.0565 379.82 92.8998C380.305 93.1266 380.834 93.2442 381.37 93.2442C381.906 93.2442 382.435 93.1266 382.92 92.8998L381.89 87.0498Z" fill="#DE5753"/>
<path d="M388.46 83.2498C388.395 83.2719 388.326 83.2761 388.259 83.2621C388.192 83.248 388.13 83.2161 388.08 83.1698C387.747 82.8417 387.343 82.5958 386.898 82.4517C386.454 82.3076 385.982 82.2693 385.52 82.3398C385.473 82.3517 385.425 82.3541 385.377 82.3469C385.33 82.3397 385.284 82.323 385.243 82.2978C385.202 82.2726 385.166 82.2395 385.138 82.2003C385.11 82.1612 385.09 82.1168 385.08 82.0699C385.068 82.0226 385.065 81.9734 385.073 81.9251C385.08 81.8769 385.096 81.8305 385.121 81.7887C385.146 81.7469 385.18 81.7104 385.219 81.6815C385.258 81.6525 385.303 81.6315 385.35 81.6198V81.6198C385.931 81.5154 386.528 81.5516 387.092 81.7256C387.655 81.8996 388.169 82.2063 388.59 82.6198C388.658 82.6891 388.697 82.7825 388.697 82.8798C388.697 82.9772 388.658 83.0706 388.59 83.1398C388.558 83.1879 388.513 83.226 388.46 83.2498V83.2498Z" fill="#263238"/>
<path d="M376.15 85.1999C376.083 85.2393 376.007 85.2601 375.93 85.2599C375.835 85.2319 375.755 85.1683 375.707 85.0825C375.658 84.9967 375.645 84.8953 375.67 84.7999C375.824 84.228 376.114 83.7015 376.514 83.2647C376.914 82.8279 377.414 82.4936 377.97 82.2899C378.017 82.2761 378.065 82.2716 378.114 82.2767C378.162 82.2818 378.209 82.2964 378.252 82.3196C378.294 82.3428 378.332 82.3742 378.363 82.412C378.393 82.4498 378.416 82.4933 378.43 82.5399V82.5399C378.453 82.6339 378.44 82.7331 378.394 82.8181C378.347 82.9031 378.271 82.9679 378.18 82.9999C377.749 83.1727 377.363 83.4433 377.054 83.7903C376.746 84.1374 376.521 84.5515 376.4 84.9999C376.376 85.0498 376.341 85.0937 376.298 85.1283C376.254 85.163 376.204 85.1874 376.15 85.1999V85.1999Z" fill="#263238"/>
<path d="M400.89 76.9999C400.89 76.7899 400.97 76.5799 401.01 76.3499C402.09 68.9299 391.19 64.5699 381.37 65.4999C377.1 65.8999 378.09 73.2099 378.09 73.2099C378.09 73.2099 375.66 73.2099 374.56 74.6899C372.63 77.2999 375.56 83.0199 375.56 83.0199C374.07 74.6899 378.4 74.1999 378.4 74.1999C378.4 74.1999 379.4 77.4399 381.4 77.1399C383.4 76.8399 388.22 72.1399 390.63 72.6799C391.395 72.8441 392.102 73.2083 392.68 73.7354C393.258 74.2625 393.686 74.9335 393.92 75.6799C393.952 76.4211 393.827 77.1606 393.553 77.85C393.279 78.5394 392.862 79.163 392.33 79.6799C390.27 81.9799 393.74 86.9199 396.16 88.4299C396.16 88.4299 396.08 87.1799 397.16 87.3399C398.24 87.4999 398.74 94.0099 397.08 97.3399C397.08 97.3399 399.83 94.1799 400.74 87.1799C401.259 83.8097 401.309 80.3839 400.89 76.9999V76.9999Z" fill="#263238"/>
<path d="M384.49 95.9998C385.408 95.9844 386.308 95.7471 387.114 95.3083C387.92 94.8695 388.609 94.2422 389.12 93.4798C389.143 93.4341 389.149 93.3813 389.136 93.3315C389.123 93.2818 389.093 93.2385 389.05 93.2098C389.007 93.1837 388.956 93.1753 388.908 93.1865C388.859 93.1977 388.817 93.2277 388.79 93.2698V93.2698C388.302 93.9653 387.658 94.5371 386.909 94.9399C386.161 95.3426 385.329 95.5652 384.48 95.5898C384.429 95.5898 384.381 95.6098 384.345 95.6455C384.31 95.6811 384.29 95.7294 384.29 95.7798V95.7798C384.288 95.8052 384.292 95.8305 384.301 95.8542C384.31 95.8779 384.324 95.8995 384.342 95.9174C384.36 95.9353 384.382 95.9493 384.405 95.9583C384.429 95.9674 384.455 95.9713 384.48 95.9698L384.49 95.9998Z" fill="#263238"/>
<path d="M402.37 87.5C401.818 89.3824 400.541 90.9686 398.82 91.91C396.53 93.14 394.82 91.22 394.97 88.77C395.13 86.58 396.49 83.24 399.03 83.05C401.57 82.86 403 85.18 402.37 87.5Z" fill="#E4897B"/>
<path opacity="0.1" d="M386 102.65C385.72 102.58 385.45 102.51 385.18 102.42C382.619 101.615 380.446 99.8912 379.08 97.5799C380.89 97.3799 384.69 96.9999 385.46 97.3299C386.23 97.6599 386.1 101.1 386 102.65Z" fill="black"/>
<path d="M404.79 167.71C404.75 168.683 404.73 169.653 404.73 170.62L406.73 170.76V167.83L404.79 167.71Z" fill="#263238"/>
<path d="M403.79 167.64L386.72 166.54C386.81 167.47 386.86 168.4 386.9 169.33L403.73 170.55C403.73 169.583 403.75 168.613 403.79 167.64Z" fill="#263238"/>
<path d="M359.42 167.35L385.9 169.26C385.86 168.333 385.8 167.403 385.72 166.47L360.15 164.82C359.88 165.66 359.63 166.5 359.42 167.35Z" fill="#263238"/>
<path d="M359.13 164.76L353.29 164.38L352.41 166.84L358.41 167.28C358.623 166.427 358.863 165.587 359.13 164.76Z" fill="#263238"/>
<path d="M367.53 165.5L367.26 167.77C367.252 167.837 367.257 167.906 367.276 167.971C367.295 168.036 367.327 168.096 367.37 168.149C367.413 168.201 367.466 168.244 367.526 168.275C367.586 168.307 367.652 168.325 367.72 168.33L373.51 168.79C373.576 168.797 373.643 168.79 373.706 168.771C373.769 168.751 373.828 168.719 373.878 168.676C373.929 168.633 373.97 168.58 374 168.52C374.029 168.461 374.046 168.396 374.05 168.33L374.23 165.98C374.235 165.914 374.227 165.847 374.207 165.783C374.186 165.72 374.152 165.661 374.109 165.611C374.065 165.561 374.011 165.52 373.952 165.49C373.892 165.461 373.826 165.444 373.76 165.44L368.07 165.06C367.941 165.051 367.813 165.092 367.713 165.173C367.613 165.255 367.547 165.372 367.53 165.5V165.5Z" fill="white"/>
<path d="M381.37 113.06L383.43 118.2L372.66 143.12L373.91 147.47L378.44 143.12L385.15 118.4L390.19 113.06H381.37Z" fill="white"/>
<path d="M377.37 109.84C377.37 109.84 355.56 150.24 348.64 185.45L345.48 183.45L354.41 150.82L355.77 135C355.77 135 354.02 138 350.63 134.67C347.24 131.34 348.95 118.34 368.78 112.53L377.37 109.84Z" fill="#263238"/>
<path opacity="0.5" d="M377.37 109.84C377.37 109.84 355.56 150.24 348.64 185.45L345.48 183.45L354.41 150.82L355.77 135C355.77 135 354.02 138 350.63 134.67C347.24 131.34 348.95 118.34 368.78 112.53L377.37 109.84Z" fill="white"/>
<path d="M370.39 117.32L368.18 111.17C372.252 109.52 376.607 108.681 381 108.7C381 108.7 366.19 131.32 360.8 146L365.07 118.43L370.39 117.32Z" fill="#263238"/>
<path opacity="0.4" d="M370.39 117.32L368.18 111.17C372.252 109.52 376.607 108.681 381 108.7C381 108.7 366.19 131.32 360.8 146L365.07 118.43L370.39 117.32Z" fill="white"/>
<path opacity="0.2" d="M355.77 135L361.43 131.31C361.43 131.31 361.84 138.58 354.79 146.37L355.77 135Z" fill="black"/>
<path d="M378.21 110.69L382.27 107.02L385.9 111.97L397.41 107.02L400.29 111.68L389.14 117.21L385.44 113.65L381.37 116.22L378.21 110.69Z" fill="#0CA062"/>
<path opacity="0.2" d="M378.21 110.69L382.27 107.02L385.9 111.97L397.41 107.02L400.29 111.68L389.14 117.21L385.44 113.65L381.37 116.22L378.21 110.69Z" fill="white"/>
<path d="M365.1 123L377.37 109.86C378.956 109.831 380.48 109.239 381.67 108.19C383.49 106.47 385.96 98.88 385.36 98.39C384.76 97.9 377.44 97.29 376.74 98.15C376.04 99.01 373.02 106.68 373.02 106.68L359.86 117L365.1 123Z" fill="#E4897B"/>
<path d="M366.45 111.5L368.87 109.35L374.68 113.86L372.05 117.35L366.45 111.5Z" fill="#1999B9"/>
<path opacity="0.2" d="M366.45 111.5L368.87 109.35L374.68 113.86L372.05 117.35L366.45 111.5Z" fill="white"/>
<path d="M367.11 110.12L374.11 115.63C374.11 115.63 357.88 141.27 352 135.86C346.12 130.45 349.12 122 367.11 110.12Z" fill="#263238"/>
<path opacity="0.6" d="M367.11 110.12L374.11 115.63C374.11 115.63 357.88 141.27 352 135.86C346.12 130.45 349.12 122 367.11 110.12Z" fill="white"/>
<path d="M398.16 108.7C398.16 108.7 399.87 168.37 405.74 186.31L416.3 183.31L410.78 156.31L412.78 120.5C412.865 118.718 412.384 116.955 411.405 115.464C410.425 113.973 408.999 112.83 407.33 112.2L398.16 108.7Z" fill="#263238"/>
<path opacity="0.5" d="M398.16 108.7C398.16 108.7 399.87 168.37 405.74 186.31L416.3 183.31L410.78 156.31L412.78 120.5C412.865 118.718 412.384 116.955 411.405 115.464C410.425 113.973 408.999 112.83 407.33 112.2L398.16 108.7Z" fill="white"/>
<path d="M397.85 107.74C397.85 107.74 403.85 111.61 407.53 122.98L401.73 124.73L406.73 129.34L400.27 147.47C400.27 147.47 395.56 119 397.85 107.74Z" fill="#263238"/>
<path opacity="0.4" d="M397.85 107.74C397.85 107.74 403.85 111.61 407.53 122.98L401.73 124.73L406.73 129.34L400.27 147.47C400.27 147.47 395.56 119 397.85 107.74Z" fill="white"/>
<path d="M384.44 140.1L368.18 132.42C367.667 130.919 366.64 129.647 365.28 128.83C363.09 127.62 355.1 127.58 354.82 128.3C354.54 129.02 356.19 136.18 357.22 136.59C358.25 137 366.48 137.53 366.48 137.53L380.29 146.92L384.44 140.1Z" fill="#E4897B"/>
<path d="M378.78 136.61L373.7 134.38L370.9 141.28L374.68 143.98L378.78 136.61Z" fill="#1999B9"/>
<path opacity="0.2" d="M378.78 136.61L373.7 134.38L370.9 141.28L374.68 143.98L378.78 136.61Z" fill="white"/>
<path d="M376.38 135.27L372.66 143.12C372.66 143.12 383.74 154 391.93 152.29C400.12 150.58 419.13 120.29 410.56 114.44C410.56 114.44 406.75 113.35 391.04 137.37C391 137.37 389.31 141.08 376.38 135.27Z" fill="#263238"/>
<path opacity="0.6" d="M376.38 135.27L372.66 143.12C372.66 143.12 383.74 154 391.93 152.29C400.12 150.58 419.13 120.29 410.56 114.44C410.56 114.44 406.75 113.35 391.04 137.37C391 137.37 389.31 141.08 376.38 135.27Z" fill="white"/>
</svg>
