<svg width="398" height="357" viewBox="0 0 398 357" fill="none" xmlns="http://www.w3.org/2000/svg">
<path d="M397.9 327.49H364.78V327.74H397.9V327.49Z" fill="#EBEBEB"/>
<path d="M279.22 330.21H270.53V330.46H279.22V330.21Z" fill="#EBEBEB"/>
<path d="M363.78 318.21H344.59V318.46H363.78V318.21Z" fill="#EBEBEB"/>
<path d="M43.65 319.89H0.459991V320.14H43.65V319.89Z" fill="#EBEBEB"/>
<path d="M58.89 319.89H52.56V320.14H58.89V319.89Z" fill="#EBEBEB"/>
<path d="M173.15 324.11H79.47V324.36H173.15V324.11Z" fill="#EBEBEB"/>
<path d="M11.99 311.4H42.53L42.53 180.3H11.99L11.99 311.4Z" fill="#E6E6E6"/>
<path d="M17.8 311.4H11.99V294.9H23.88L17.8 311.4Z" fill="#F0F0F0"/>
<path d="M165.49 311.4H196.03L196.03 180.3H165.49L165.49 311.4Z" fill="#E6E6E6"/>
<path d="M11.99 303.28H170.55L170.55 180.31H11.99L11.99 303.28Z" fill="#F0F0F0"/>
<path d="M16.49 185.12H89.33V280.65H16.49V185.12Z" fill="#E6E6E6"/>
<path d="M93.22 185.12H166.05V280.65H93.22V185.12Z" fill="#E6E6E6"/>
<path d="M109.51 197.43C109.51 198.451 109.207 199.449 108.64 200.298C108.072 201.147 107.266 201.808 106.322 202.198C105.379 202.588 104.341 202.69 103.34 202.49C102.338 202.29 101.419 201.798 100.698 201.075C99.9765 200.353 99.4859 199.432 99.2879 198.431C99.09 197.429 99.1936 196.391 99.5857 195.448C99.9777 194.506 100.641 193.701 101.491 193.135C102.34 192.569 103.339 192.268 104.36 192.27C105.727 192.273 107.037 192.817 108.002 193.785C108.968 194.752 109.51 196.063 109.51 197.43V197.43Z" fill="#FAFAFA"/>
<path d="M83.35 197.43C83.35 198.451 83.0474 199.448 82.4804 200.297C81.9134 201.145 81.1075 201.807 80.1646 202.197C79.2218 202.588 78.1843 202.69 77.1833 202.491C76.1824 202.292 75.263 201.8 74.5413 201.079C73.8197 200.357 73.3282 199.438 73.1291 198.437C72.93 197.436 73.0322 196.398 73.4228 195.455C73.8133 194.513 74.4747 193.707 75.3233 193.14C76.1718 192.573 77.1694 192.27 78.19 192.27C79.5585 192.27 80.871 192.814 81.8387 193.781C82.8064 194.749 83.35 196.062 83.35 197.43Z" fill="#FAFAFA"/>
<path d="M164.75 311.4H170.55V294.9H158.67L164.75 311.4Z" fill="#F0F0F0"/>
<path d="M232.48 311.4H258.95V153.96H232.48L232.48 311.4Z" fill="#E6E6E6"/>
<path d="M237.51 311.4H232.48V297.1H242.78L237.51 311.4Z" fill="#F0F0F0"/>
<path d="M365.51 311.4H391.98V153.96H365.51V311.4Z" fill="#E6E6E6"/>
<path d="M232.49 302.62H369.91V153.95L232.49 153.95L232.49 302.62Z" fill="#F0F0F0"/>
<path d="M236.38 157.86H366V186H236.38V157.86Z" fill="#E6E6E6"/>
<path d="M236.38 189.25H299.51V284.75H236.38V189.25Z" fill="#E6E6E6"/>
<path d="M302.88 189.25H366V284.75H302.88V189.25Z" fill="#E6E6E6"/>
<path d="M317 234.75C317 235.634 316.738 236.498 316.247 237.233C315.755 237.969 315.057 238.541 314.241 238.88C313.424 239.218 312.525 239.307 311.658 239.134C310.791 238.962 309.994 238.536 309.369 237.911C308.744 237.286 308.318 236.489 308.146 235.622C307.973 234.755 308.062 233.856 308.4 233.039C308.739 232.223 309.311 231.525 310.047 231.033C310.782 230.542 311.646 230.28 312.53 230.28C313.716 230.28 314.852 230.751 315.691 231.589C316.529 232.428 317 233.565 317 234.75V234.75Z" fill="#FAFAFA"/>
<path d="M294.32 234.75C294.32 235.635 294.058 236.499 293.566 237.234C293.074 237.97 292.376 238.543 291.558 238.881C290.741 239.219 289.842 239.307 288.974 239.133C288.107 238.96 287.31 238.533 286.686 237.907C286.061 237.281 285.636 236.484 285.465 235.616C285.293 234.748 285.383 233.849 285.723 233.033C286.063 232.216 286.637 231.518 287.374 231.029C288.11 230.539 288.975 230.278 289.86 230.28C291.044 230.283 292.178 230.755 293.014 231.593C293.85 232.431 294.32 233.566 294.32 234.75V234.75Z" fill="#FAFAFA"/>
<path d="M364.88 311.4H369.9V297.1H359.6L364.88 311.4Z" fill="#F0F0F0"/>
<path d="M305.07 172.14C305.072 173.024 304.811 173.89 304.322 174.626C303.832 175.362 303.134 175.937 302.318 176.277C301.501 176.617 300.602 176.707 299.734 176.535C298.866 176.364 298.069 175.939 297.443 175.314C296.817 174.689 296.39 173.893 296.217 173.026C296.043 172.158 296.131 171.259 296.469 170.442C296.807 169.624 297.38 168.926 298.116 168.434C298.851 167.942 299.715 167.68 300.6 167.68C301.784 167.68 302.919 168.15 303.757 168.986C304.595 169.822 305.067 170.956 305.07 172.14V172.14Z" fill="#FAFAFA"/>
<path d="M141.13 51.9901H137.1L123.29 45.4301H139.78L141.13 51.9901Z" fill="#E6E6E6"/>
<path d="M138.79 51.9901H134.76L120.95 45.4301H124.99L138.79 51.9901Z" fill="#F5F5F5"/>
<path d="M43.36 51.9901H39.33L25.51 45.4301H42.01L43.36 51.9901Z" fill="#E6E6E6"/>
<path d="M41.02 51.9901H36.99L23.18 45.4301H27.21L41.02 51.9901Z" fill="#F5F5F5"/>
<path d="M151.09 39.15H124.22V45.43H151.09V39.15Z" fill="#E6E6E6"/>
<path d="M13 45.4301L124.22 45.4301V39.1501L13 39.1501V45.4301Z" fill="#F5F5F5"/>
<path d="M141.13 107.99H137.1L123.29 101.43H139.78L141.13 107.99Z" fill="#E6E6E6"/>
<path d="M138.79 107.99H134.76L120.95 101.43H124.99L138.79 107.99Z" fill="#F5F5F5"/>
<path d="M43.36 107.99H39.33L25.51 101.43H42.01L43.36 107.99Z" fill="#E6E6E6"/>
<path d="M41.02 107.99H36.99L23.18 101.43H27.21L41.02 107.99Z" fill="#F5F5F5"/>
<path d="M151.09 95.1499H124.22V101.43H151.09V95.1499Z" fill="#E6E6E6"/>
<path d="M13 101.43L124.22 101.43V95.1499L13 95.1499V101.43Z" fill="#F5F5F5"/>
<path d="M76.2 61.8201H44.89V95.1501H76.2V61.8201Z" fill="#E0E0E0"/>
<path d="M36.87 95.1499H44.89L44.89 61.8199H36.87V95.1499Z" fill="#F0F0F0"/>
<path d="M84.41 56.6799H60.89V95.1499H84.41V56.6799Z" fill="#E6E6E6"/>
<path d="M54.1 95.1499H60.9L60.9 56.6799H54.1L54.1 95.1499Z" fill="#F0F0F0"/>
<path d="M87.65 61.8201H67.82V95.1501H87.65V61.8201Z" fill="#F0F0F0"/>
<path d="M63.29 95.1499H67.82V61.8199H63.29L63.29 95.1499Z" fill="#FAFAFA"/>
<path d="M110.06 67.46H84.05V95.1499H110.06V67.46Z" fill="#E6E6E6"/>
<path d="M77.39 95.1499H84.05V67.4599H77.39V95.1499Z" fill="#FAFAFA"/>
<path d="M116.88 63.1899H97.34V95.1499H116.88V63.1899Z" fill="#E6E6E6"/>
<path d="M91.7 95.1499H97.35V63.1899H91.7V95.1499Z" fill="#F0F0F0"/>
<path d="M122.08 67.46H103.1V95.1499H122.08V67.46Z" fill="#F0F0F0"/>
<path d="M99.33 95.1499H103.09V67.4599H99.33V95.1499Z" fill="#FAFAFA"/>
<path d="M306.65 30.32C299.71 31.23 293.32 36.51 295.49 43.67C299.09 55.53 281.81 54.4201 281.38 72.9601C280.76 99.1401 307.38 81.7001 305.58 106.57C304.25 124.67 329.58 141.79 337.31 119.17C345.78 94.4001 353.36 113.17 364.15 85.9501C371.61 67.1 345.56 58.95 355.32 54.5C362.45 51.28 368.13 44.33 361.47 37.5C352.4 28.13 364.47 24.6801 358.4 18.1801C352.33 11.6801 348.73 19.3701 338.1 13.1801C328.59 7.62005 316.62 16.4101 316.8 23.4401C317 29.9201 313.63 29.4 306.65 30.32Z" fill="#E6E6E6"/>
<path d="M293 111.4C293 111.4 293.86 154.25 326.62 154.25C359.38 154.25 360.23 111.4 360.23 111.4H293Z" fill="#F0F0F0"/>
<path d="M62 24.25H26.67V39.15H62V24.25Z" fill="#F0F0F0"/>
<path d="M62 19.75H25.51V24.25H62V19.75Z" fill="#F0F0F0"/>
<path d="M62 24.25H72.83V19.75H62V24.25Z" fill="#EBEBEB"/>
<path d="M62 39.15H71.89V24.25H62V39.15Z" fill="#EBEBEB"/>
<path opacity="0.7" d="M71.89 24.25H26.67V25.64H71.89V24.25Z" fill="#E0E0E0"/>
<path d="M122.4 3.59998H66.62V39.15H122.4V3.59998Z" fill="#F0F0F0"/>
<path d="M122.39 0.819946H64.8V3.59995H122.39V0.819946Z" fill="#F0F0F0"/>
<path d="M122.4 3.58997L139.5 3.58997V0.809967L122.4 0.809967V3.58997Z" fill="#EBEBEB"/>
<path d="M122.4 39.14H138.01V3.59001H122.4V39.14Z" fill="#EBEBEB"/>
<path opacity="0.7" d="M138.01 3.59998H66.62V5.21998H138.01V3.59998Z" fill="#E0E0E0"/>
<path d="M198 356.56C305.082 356.56 391.89 351.492 391.89 345.24C391.89 338.988 305.082 333.92 198 333.92C90.9175 333.92 4.10999 338.988 4.10999 345.24C4.10999 351.492 90.9175 356.56 198 356.56Z" fill="#F5F5F5"/>
<path d="M291.44 202.15C291.356 202.153 291.274 202.124 291.21 202.07C291.172 202.04 291.14 202.002 291.116 201.96C291.093 201.917 291.078 201.871 291.072 201.822C291.067 201.774 291.071 201.725 291.084 201.678C291.097 201.632 291.12 201.588 291.15 201.55C298.29 192.44 297.63 182.11 296.8 169.04C296.51 164.48 296.21 159.76 296.18 154.56C296.13 145.56 299.7 131.01 303.18 116.92C307.5 99.2799 311.96 81.0299 308.18 77.0299C301.47 69.8899 278.69 78.1999 266.56 86.8299C256.62 93.9099 248.77 92.5299 234.51 90.0099C230.78 89.3499 226.51 88.6099 221.73 87.9299C202.73 85.2399 200.67 88.2199 197.81 92.3399C197.26 93.1299 196.68 93.9499 195.96 94.7999C195.926 94.8353 195.884 94.8634 195.839 94.8826C195.793 94.9018 195.744 94.9117 195.695 94.9117C195.646 94.9117 195.597 94.9018 195.551 94.8826C195.506 94.8634 195.464 94.8353 195.43 94.7999C195.363 94.7278 195.326 94.6332 195.326 94.5349C195.326 94.4366 195.363 94.342 195.43 94.2699C196.074 93.5035 196.674 92.7023 197.23 91.8699C200.23 87.5299 202.42 84.3899 221.88 87.1399C226.7 87.8299 230.94 88.5699 234.68 89.2299C248.74 91.7099 256.48 93.0799 266.17 86.1799C278.8 77.1799 301.68 68.9399 308.77 76.4799C312.77 80.7699 308.49 98.3999 303.92 117.06C300.49 131.06 296.92 145.62 296.98 154.52C296.98 159.7 297.31 164.4 297.6 168.95C298.44 182.19 299.1 192.64 291.79 201.95C291.755 202.012 291.705 202.063 291.643 202.099C291.581 202.134 291.511 202.152 291.44 202.15V202.15Z" fill="#263238"/>
<path d="M197.079 121.801C200.59 118.29 200.59 112.598 197.079 109.087C193.568 105.576 187.876 105.576 184.365 109.087C180.854 112.598 180.854 118.29 184.365 121.801C187.876 125.312 193.568 125.312 197.079 121.801Z" fill="white"/>
<path d="M196.66 93.6299C195.709 90.8139 193.726 88.4632 191.11 87.0523C188.494 85.6414 185.44 85.2753 182.565 86.0278C179.689 86.7802 177.206 88.5953 175.617 91.1068C174.027 93.6182 173.449 96.6391 174 99.5599L178.76 123.39L204.21 116.75L196.66 93.6299Z" fill="#1999B9"/>
<path d="M201 95.67C201 96.9892 200.609 98.2788 199.876 99.3757C199.143 100.473 198.101 101.327 196.882 101.832C195.664 102.337 194.323 102.469 193.029 102.212C191.735 101.954 190.546 101.319 189.614 100.386C188.681 99.4536 188.046 98.2651 187.788 96.9713C187.531 95.6774 187.663 94.3363 188.168 93.1175C188.673 91.8987 189.527 90.857 190.624 90.1241C191.721 89.3912 193.011 89 194.33 89C195.206 88.9987 196.074 89.1703 196.884 89.505C197.694 89.8398 198.43 90.331 199.049 90.9507C199.669 91.5703 200.16 92.3061 200.495 93.116C200.83 93.9258 201.001 94.7937 201 95.67Z" fill="#263238"/>
<path d="M194.33 101.54C193.167 101.54 192.029 101.195 191.062 100.548C190.095 99.9018 189.341 98.9829 188.897 97.9079C188.452 96.8329 188.336 95.6501 188.564 94.5092C188.791 93.3683 189.352 92.3206 190.176 91.4987C190.999 90.6768 192.048 90.1175 193.189 89.8918C194.33 89.666 195.513 89.7839 196.587 90.2305C197.661 90.6771 198.579 91.4323 199.224 92.4006C199.869 93.3688 200.212 94.5066 200.21 95.67C200.21 96.4417 200.058 97.2059 199.762 97.9187C199.467 98.6315 199.033 99.2791 198.487 99.8243C197.941 100.369 197.293 100.802 196.579 101.096C195.866 101.39 195.102 101.541 194.33 101.54V101.54ZM194.33 90.79C193.365 90.79 192.421 91.0762 191.619 91.6125C190.816 92.1487 190.191 92.9108 189.821 93.8025C189.452 94.6942 189.355 95.6754 189.544 96.6221C189.732 97.5687 190.197 98.4382 190.879 99.1207C191.562 99.8032 192.431 100.268 193.378 100.456C194.325 100.645 195.306 100.548 196.197 100.179C197.089 99.8092 197.851 99.1837 198.388 98.3812C198.924 97.5787 199.21 96.6352 199.21 95.67C199.21 94.3758 198.696 93.1345 197.781 92.2193C196.866 91.3042 195.624 90.79 194.33 90.79V90.79Z" fill="#1999B9"/>
<path d="M194.33 96.67C194.089 96.6727 193.855 96.5882 193.671 96.432C193.487 96.2758 193.366 96.0585 193.33 95.82C193.31 95.69 193.316 95.5573 193.348 95.4296C193.379 95.3019 193.435 95.1816 193.513 95.0757C193.591 94.9698 193.69 94.8804 193.802 94.8125C193.915 94.7446 194.04 94.6995 194.17 94.68L330.72 73.79C330.985 73.7502 331.255 73.8174 331.471 73.9768C331.687 74.1362 331.83 74.3748 331.87 74.64C331.91 74.9052 331.843 75.1754 331.683 75.391C331.524 75.6067 331.285 75.7502 331.02 75.79L194.48 96.65L194.33 96.67Z" fill="#263238"/>
<path d="M274.88 331.69H274.74C274.609 331.673 274.483 331.63 274.369 331.564C274.255 331.497 274.155 331.409 274.075 331.304C273.995 331.199 273.936 331.079 273.903 330.951C273.869 330.824 273.862 330.691 273.88 330.56L311.07 55.3199C311.107 55.0594 311.246 54.824 311.455 54.6649C311.665 54.5057 311.929 54.4357 312.19 54.4699C312.452 54.5048 312.69 54.6422 312.851 54.8522C313.013 55.0621 313.084 55.3274 313.05 55.5899L275.87 330.82C275.838 331.06 275.721 331.281 275.539 331.441C275.356 331.601 275.122 331.69 274.88 331.69V331.69Z" fill="#263238"/>
<path d="M313.06 78.1298C313.06 78.9328 312.822 79.7178 312.376 80.3854C311.93 81.0531 311.296 81.5735 310.554 81.8808C309.812 82.1881 308.996 82.2685 308.208 82.1118C307.42 81.9551 306.697 81.5685 306.129 81.0007C305.561 80.4329 305.175 79.7095 305.018 78.9219C304.861 78.1343 304.942 77.318 305.249 76.5761C305.556 75.8343 306.077 75.2002 306.744 74.754C307.412 74.3079 308.197 74.0698 309 74.0698C310.077 74.0698 311.109 74.4976 311.871 75.259C312.632 76.0204 313.06 77.053 313.06 78.1298Z" fill="#263238"/>
<path d="M72.12 338.18L323.88 338.18V286.14H72.12V338.18Z" fill="#008EB1"/>
<path opacity="0.1" d="M72.12 338.18L323.88 338.18V286.14H72.12V338.18Z" fill="white"/>
<path d="M72.12 263.26H323.88L327.7 224.15C328.222 218.808 327.62 213.416 325.933 208.32C324.246 203.225 321.512 198.538 317.906 194.563C314.299 190.587 309.901 187.41 304.993 185.236C300.086 183.063 294.778 181.94 289.41 181.94H106.59C101.222 181.94 95.9143 183.063 91.0067 185.236C86.0991 187.41 81.7008 190.587 78.0945 194.563C74.4882 198.538 71.7537 203.225 70.0669 208.32C68.38 213.416 67.7782 218.808 68.3 224.15L72.12 263.26Z" fill="#008EB1"/>
<path opacity="0.3" d="M72.12 263.26H323.88L327.7 224.15C328.222 218.808 327.62 213.416 325.933 208.32C324.246 203.225 321.512 198.538 317.906 194.563C314.299 190.587 309.901 187.41 304.993 185.236C300.086 183.063 294.778 181.94 289.41 181.94H106.59C101.222 181.94 95.9143 183.063 91.0067 185.236C86.0991 187.41 81.7008 190.587 78.0945 194.563C74.4882 198.538 71.7537 203.225 70.0669 208.32C68.38 213.416 67.7782 218.808 68.3 224.15L72.12 263.26Z" fill="black"/>
<path opacity="0.9" d="M72.12 289.09L323.88 289.09V286.14L72.12 286.14V289.09Z" fill="#008EB1"/>
<path d="M72.12 286.14L323.88 286.14V258.67L72.12 258.67V286.14Z" fill="#008EB1"/>
<path opacity="0.2" d="M72.12 286.14L323.88 286.14V258.67L72.12 258.67V286.14Z" fill="black"/>
<path d="M327.4 215.77C323.906 215.77 320.449 216.486 317.242 217.872C314.035 219.259 311.146 221.287 308.752 223.833C306.359 226.378 304.512 229.386 303.325 232.672C302.138 235.958 301.636 239.453 301.85 242.94L306.85 324.83C306.995 327.24 308.055 329.503 309.814 331.157C311.572 332.812 313.896 333.732 316.31 333.73H338.43C340.844 333.73 343.168 332.809 344.927 331.155C346.687 329.502 347.75 327.24 347.9 324.83L352.9 242.94C353.114 239.457 352.614 235.967 351.43 232.684C350.246 229.401 348.403 226.395 346.015 223.851C343.627 221.306 340.743 219.277 337.542 217.887C334.341 216.498 330.89 215.777 327.4 215.77V215.77Z" fill="#008EB1"/>
<path opacity="0.1" d="M346.036 250.665C350.359 240.381 345.526 228.539 335.242 224.216C324.957 219.893 313.116 224.725 308.792 235.01C304.469 245.294 309.302 257.136 319.586 261.459C329.871 265.782 341.713 260.95 346.036 250.665Z" fill="white"/>
<path d="M322.75 342.63H332.05L333.5 333.73H321.3L322.75 342.63Z" fill="#263238"/>
<path d="M63.46 342.63H72.76L74.21 333.73H62.01L63.46 342.63Z" fill="#263238"/>
<path d="M68.6 215.77C65.1061 215.77 61.6492 216.486 58.4422 217.872C55.2352 219.259 52.346 221.287 49.9525 223.833C47.5589 226.378 45.7118 229.386 44.5247 232.672C43.3376 235.958 42.8357 239.453 43.05 242.94L48.05 324.83C48.2001 327.24 49.2631 329.502 51.0226 331.155C52.782 332.809 55.1055 333.73 57.52 333.73H79.64C82.0542 333.732 84.3779 332.812 86.1362 331.157C87.8946 329.503 88.9547 327.24 89.1 324.83L94.1 242.94C94.3141 239.457 93.8137 235.967 92.6296 232.684C91.4456 229.401 89.6029 226.395 87.2147 223.851C84.8266 221.306 81.9434 219.277 78.7423 217.887C75.5411 216.498 72.0897 215.777 68.6 215.77V215.77Z" fill="#008EB1"/>
<path opacity="0.1" d="M87.2167 250.653C91.5399 240.369 86.7073 228.527 76.4228 224.204C66.1384 219.881 54.2966 224.713 49.9734 234.998C45.6502 245.282 50.4828 257.124 60.7672 261.447C71.0517 265.77 82.8935 260.938 87.2167 250.653Z" fill="white"/>
<path d="M128 156.94C129.35 157.78 130.93 158.72 132.41 159.6C133.89 160.48 135.41 161.38 136.97 162.24C140.02 163.98 143.11 165.62 146.21 167.24C149.31 168.86 152.44 170.24 155.58 171.53C158.609 172.784 161.723 173.82 164.9 174.63L163.66 174.51C166.48 174.61 169.71 174.58 172.87 174.51L182.47 174.26C188.9 174.1 195.39 173.93 201.87 173.99L202.77 181.22C199.59 182.05 196.4 182.75 193.2 183.42C190 184.09 186.8 184.7 183.58 185.27C180.36 185.84 177.11 186.36 173.84 186.79C170.57 187.22 167.31 187.64 163.66 187.79H163.25L162.41 187.65C158.431 186.987 154.517 185.984 150.71 184.65C147.046 183.398 143.448 181.959 139.93 180.34C136.43 178.76 133.05 177.01 129.72 175.18C128.07 174.26 126.42 173.32 124.8 172.33C123.18 171.34 121.61 170.33 119.9 169.21L128 156.94Z" fill="#FFC3BD"/>
<path d="M115 159.34C113.41 152.9 122.18 152.45 147.46 164.15L141.9 184.43C141.9 184.43 119.83 179 115 159.34Z" fill="#0CA766"/>
<path opacity="0.2" d="M125.15 165.35C123.02 165.35 120.98 166.85 119.28 168.96C125.86 178.68 136.8 182.85 140.57 184.04H140.7L140.98 184.11C137.11 170.88 131 165.45 125.15 165.35Z" fill="black"/>
<path d="M226.04 254.1L236.42 252.46L233.69 225.99L223.31 227.63L226.04 254.1Z" fill="#FFC3BD"/>
<path d="M236.89 246.5L224.51 246.68C224.295 246.691 224.091 246.779 223.935 246.927C223.779 247.076 223.681 247.276 223.66 247.49L222.07 257.8C222.03 258.04 222.042 258.286 222.104 258.521C222.166 258.756 222.277 258.975 222.43 259.164C222.583 259.353 222.775 259.508 222.992 259.617C223.209 259.727 223.447 259.789 223.69 259.8C227.77 259.66 232.1 259.35 237.24 259.28C240.4 259.23 248.19 259.46 252.56 259.4C256.93 259.34 257.28 254.52 255.47 254.11C247.36 252.28 241.3 249.68 238.61 247.11C238.137 246.692 237.521 246.473 236.89 246.5Z" fill="#263238"/>
<path d="M150.22 224C150.22 224 188.22 180.22 208.11 184.44C230.92 189.29 240 237.77 240 237.77L222.34 239.77C222.34 239.77 213.11 218.09 202.58 210.15C181 245 125.79 270.76 119 234.8C128.07 231.15 150.22 224 150.22 224Z" fill="#263238"/>
<path d="M241.71 238.08L219.68 242.39L218.02 235.12L241 230.15L241.71 238.08Z" fill="#263238"/>
<path d="M199.47 174.19L207.97 172.56L211.52 182.69C211.52 182.69 203.02 185.51 198.89 180.16L199.47 174.19Z" fill="#FFC3BD"/>
<path d="M217.78 174.6L219.97 181.94L211.52 182.69L207.97 172.56L217.78 174.6Z" fill="#FFC3BD"/>
<path d="M103.69 237.4C103.69 237.4 87.13 213 79 173.68C78.5555 171.489 78.5889 169.227 79.0977 167.05C79.6065 164.873 80.5789 162.831 81.9486 161.064C83.3182 159.296 85.0528 157.845 87.0342 156.809C89.0156 155.773 91.1971 155.176 93.43 155.06C101.43 154.64 109.87 154.53 116.73 154.56C120.081 154.571 123.338 155.67 126.011 157.692C128.683 159.714 130.627 162.548 131.55 165.77C135.28 178.85 137.63 195.98 152.25 220.3C154.6 224.2 151.72 229.25 147.25 230.01L103.69 237.4Z" fill="#0CA766"/>
<path opacity="0.2" d="M78.79 168.9C84.38 161.1 89.37 160 90.79 160.44C103.71 164.52 89.79 200.12 87.69 204.09C84.0433 194.145 81.1387 183.944 79 173.57C78.6882 172.034 78.6173 170.458 78.79 168.9V168.9Z" fill="black"/>
<path opacity="0.2" d="M143.89 240.44C143.54 241.71 144.53 245.84 150.55 250.52C158.72 248.29 167.55 243.85 175.86 237.96C163.67 234.52 146.34 231.59 143.89 240.44Z" fill="black"/>
<path d="M93.33 130C95.93 137.08 99.26 149.87 95.23 155C100.201 159.313 106.66 161.512 113.23 161.13C121.53 160.86 119.84 157.54 117.12 154.6C109.05 153.23 108.22 146.43 108.6 140.77L93.33 130Z" fill="#FFC3BD"/>
<path opacity="0.2" d="M99.55 134.37L108.55 140.73C108.44 142.061 108.44 143.399 108.55 144.73C105.49 145.79 100.5 142.97 99.63 139.79C99.3358 137.997 99.3088 136.171 99.55 134.37Z" fill="black"/>
<path d="M110 122.22C111.62 125.32 114.68 126.91 116.84 125.79C119 124.67 119.43 121.24 117.84 118.14C116.25 115.04 113.16 113.45 111 114.58C108.84 115.71 108.36 119.13 110 122.22Z" fill="#0CA766"/>
<path d="M107.88 123.32C109.6 126.61 112.88 128.32 115.15 127.11C117.42 125.9 117.9 122.27 116.15 118.98C114.4 115.69 111.15 113.98 108.88 115.19C106.61 116.4 106.16 120 107.88 123.32Z" fill="white"/>
<path d="M110.41 120.48L114.52 119.28C114.52 119.28 111.75 114.77 111.99 111.1C112.23 107.43 112.93 104.61 105.79 104.77C98.65 104.93 94.68 112 110.41 120.48Z" fill="#263238"/>
<path d="M87.66 126.74C92.66 135.01 95.14 140.09 101.84 142.43C103.979 143.237 106.299 143.441 108.546 143.018C110.793 142.596 112.88 141.564 114.581 140.035C116.281 138.507 117.528 136.54 118.185 134.35C118.843 132.161 118.886 129.832 118.31 127.62C116.19 119.11 108.39 107.01 98.06 107.55C87.73 108.09 82.68 118.47 87.66 126.74Z" fill="#FFC3BD"/>
<path d="M86.83 118.94C94.65 117.7 108.07 113 106.34 103.67C105.17 97.4 95.4 99.33 93.34 102.5C90.134 106.827 86.0819 110.457 81.43 113.17C76.67 115.83 75.16 120.8 86.83 118.94Z" fill="#263238"/>
<path d="M90.72 133.22L94.65 131.52C94.65 131.52 91.33 127.39 91.11 123.72C90.89 120.05 91.22 117.16 84.17 118.22C77.12 119.28 74.06 126.83 90.72 133.22Z" fill="#263238"/>
<path d="M89.67 129.13C89.6044 129.131 89.5394 129.118 89.4791 129.092C89.4188 129.066 89.3647 129.028 89.32 128.98C83.95 123.7 83.12 118.58 83.11 115.98C83.11 113.56 83.77 111.38 84.86 110.28C84.9065 110.233 84.9618 110.196 85.0227 110.171C85.0836 110.145 85.149 110.132 85.215 110.132C85.281 110.132 85.3464 110.145 85.4073 110.171C85.4682 110.196 85.5235 110.233 85.57 110.28C85.6616 110.373 85.7129 110.499 85.7129 110.63C85.7129 110.761 85.6616 110.887 85.57 110.98C84.4893 112.413 83.97 114.191 84.11 115.98C84.11 118.4 84.91 123.22 90.02 128.25C90.0669 128.296 90.1041 128.352 90.1294 128.413C90.1548 128.474 90.1679 128.539 90.1679 128.605C90.1679 128.671 90.1548 128.736 90.1294 128.797C90.1041 128.858 90.0669 128.914 90.02 128.96C89.9772 129.012 89.9238 129.054 89.8634 129.083C89.803 129.112 89.7371 129.128 89.67 129.13V129.13Z" fill="#0CA766"/>
<path d="M87.88 137.16C89.7072 138.401 91.9377 138.901 94.12 138.56C96.98 138.08 97.12 135.31 95.12 133.32C93.4 131.52 89.83 129.62 87.5 131.12C85.17 132.62 85.64 135.63 87.88 137.16Z" fill="#FFC3BD"/>
<path d="M94.53 130.85C96.87 133.74 97.14 137.4 95.13 139.03C93.12 140.66 89.6 139.64 87.26 136.75C84.92 133.86 84.65 130.21 86.66 128.58C88.67 126.95 92.2 128 94.53 130.85Z" fill="white"/>
<path d="M92.69 132.35C94.89 135.06 95.14 138.5 93.25 140.03C91.36 141.56 88.05 140.61 85.85 137.89C83.65 135.17 83.4 131.74 85.29 130.21C87.18 128.68 90.49 129.63 92.69 132.35Z" fill="#0CA766"/>
<path d="M99.08 124.4H98.33C98.467 123.436 98.9592 122.559 99.71 121.94C99.9006 121.762 100.13 121.631 100.38 121.556C100.629 121.481 100.893 121.466 101.15 121.51C101.367 121.564 101.569 121.666 101.742 121.807C101.915 121.949 102.054 122.128 102.15 122.33L101.48 122.68C101.435 122.574 101.367 122.479 101.28 122.403C101.193 122.327 101.091 122.271 100.98 122.24C100.83 122.223 100.679 122.241 100.537 122.291C100.395 122.341 100.266 122.423 100.16 122.53C99.5992 123.013 99.2186 123.673 99.08 124.4V124.4Z" fill="#263238"/>
<path d="M107.81 119.08C107.728 118.91 107.685 118.724 107.685 118.535C107.685 118.346 107.728 118.16 107.81 117.99C107.927 117.786 108.087 117.61 108.279 117.473C108.47 117.337 108.689 117.244 108.92 117.2C109.299 117.1 109.697 117.099 110.075 117.199C110.454 117.299 110.8 117.496 111.08 117.77L110.56 118.31C110.374 118.123 110.142 117.99 109.887 117.923C109.632 117.856 109.364 117.858 109.11 117.93C108.982 117.947 108.86 117.992 108.751 118.061C108.642 118.13 108.55 118.222 108.48 118.33C108.445 118.403 108.427 118.484 108.427 118.565C108.427 118.646 108.445 118.726 108.48 118.8L107.81 119.08Z" fill="#263238"/>
<path d="M106.25 121.11C106.25 121.11 109.96 124.37 112.75 125.48C112.09 127.21 109.68 127.67 109.68 127.67L106.25 121.11Z" fill="#ED847E"/>
<path d="M107.67 132.36C105.945 132.908 104.075 132.757 102.46 131.94C102.434 131.926 102.411 131.906 102.392 131.882C102.374 131.859 102.361 131.831 102.353 131.802C102.346 131.773 102.344 131.743 102.349 131.713C102.353 131.684 102.364 131.655 102.38 131.63C102.395 131.603 102.416 131.58 102.441 131.561C102.466 131.543 102.494 131.53 102.524 131.524C102.555 131.517 102.586 131.517 102.616 131.523C102.646 131.529 102.675 131.542 102.7 131.56C103.593 131.987 104.57 132.209 105.56 132.209C106.55 132.209 107.527 131.987 108.42 131.56C108.476 131.535 108.539 131.533 108.597 131.554C108.654 131.574 108.702 131.616 108.73 131.67C108.744 131.696 108.752 131.725 108.754 131.754C108.757 131.784 108.753 131.813 108.744 131.841C108.734 131.869 108.719 131.895 108.7 131.917C108.68 131.939 108.657 131.957 108.63 131.97C108.32 132.123 107.999 132.254 107.67 132.36V132.36Z" fill="#263238"/>
<path d="M95.28 122.63C95.2007 122.645 95.1193 122.645 95.04 122.63C94.9792 122.62 94.9209 122.599 94.8686 122.566C94.8164 122.534 94.7712 122.491 94.7358 122.44C94.7003 122.39 94.6753 122.333 94.6623 122.273C94.6493 122.213 94.6485 122.151 94.66 122.09C94.7792 121.384 95.0719 120.718 95.5117 120.153C95.9515 119.587 96.5247 119.14 97.18 118.85C97.2958 118.806 97.4242 118.807 97.5393 118.853C97.6543 118.899 97.7475 118.988 97.8 119.1C97.8242 119.155 97.8369 119.214 97.8373 119.274C97.8377 119.334 97.8259 119.394 97.8024 119.449C97.779 119.504 97.7446 119.554 97.7011 119.596C97.6577 119.637 97.6063 119.669 97.55 119.69V119.69C97.0288 119.923 96.5734 120.282 96.2245 120.734C95.8755 121.186 95.6438 121.717 95.55 122.28C95.5389 122.357 95.5082 122.429 95.4609 122.491C95.4136 122.552 95.3513 122.6 95.28 122.63Z" fill="#263238"/>
<path d="M111.05 115.25C110.982 115.284 110.906 115.302 110.83 115.302C110.754 115.302 110.678 115.284 110.61 115.25C110.095 114.966 109.521 114.804 108.934 114.776C108.346 114.749 107.76 114.856 107.22 115.09C107.111 115.148 106.983 115.162 106.864 115.129C106.745 115.095 106.643 115.017 106.58 114.91C106.548 114.86 106.527 114.804 106.518 114.746C106.509 114.687 106.512 114.627 106.527 114.57C106.542 114.513 106.569 114.459 106.605 114.413C106.642 114.366 106.688 114.328 106.74 114.3C107.417 113.994 108.155 113.849 108.898 113.875C109.64 113.901 110.366 114.098 111.02 114.45C111.075 114.475 111.125 114.51 111.166 114.555C111.207 114.599 111.238 114.652 111.258 114.709C111.278 114.767 111.285 114.827 111.281 114.888C111.276 114.948 111.259 115.007 111.23 115.06C111.192 115.141 111.129 115.208 111.05 115.25V115.25Z" fill="#263238"/>
<path d="M223.49 342.17L232.37 336.77L219.83 312.96L210.95 318.36L223.49 342.17Z" fill="#FFC3BD"/>
<path d="M228.76 329.39L218.42 334.56C218.244 334.665 218.112 334.83 218.049 335.026C217.987 335.221 217.998 335.432 218.08 335.62L221.39 345.46C221.45 345.691 221.557 345.907 221.705 346.094C221.853 346.281 222.038 346.435 222.249 346.546C222.46 346.657 222.692 346.723 222.929 346.739C223.167 346.755 223.406 346.721 223.63 346.64C226.92 344.91 229.22 343.46 233.41 341.37C235.99 340.08 243.94 336.51 247.5 334.73C251.06 332.95 249.2 328.51 247.5 328.86C240.02 330.42 233.79 330.53 230.5 329.33C230.222 329.219 229.923 329.167 229.624 329.178C229.324 329.188 229.03 329.26 228.76 329.39V329.39Z" fill="#263238"/>
<path d="M142.21 230.87C142.21 230.87 161.53 233.53 189.67 252C209.16 264.8 226.17 317.33 226.17 317.33L210.93 327.74C210.93 327.74 191.56 285.57 175.34 270C122.04 257.31 106.34 273.9 103.69 237.41C113.11 234.79 142.21 230.87 142.21 230.87Z" fill="#263238"/>
<path d="M229.83 319.64L209.76 329.71L206.21 323.15L227.02 312.2L229.83 319.64Z" fill="#263238"/>
<path d="M92.32 172.83C90.37 179.14 88.32 185.65 86.61 192.02C85.73 195.21 84.93 198.41 84.25 201.52C83.93 203.07 83.64 204.61 83.44 206.06C83.2393 207.3 83.1357 208.554 83.13 209.81C83.13 210.03 83.13 210.16 83.13 210.22C83.13 210.28 83.13 210.22 83.13 210.17C83.13 210.08 83.04 209.95 82.98 209.84C82.92 209.73 82.77 209.46 82.68 209.33C82.32 208.85 82.24 208.87 82.25 208.89C82.3606 209.007 82.4811 209.114 82.61 209.21C83.7141 209.975 84.8817 210.644 86.1 211.21C88.87 212.55 91.94 213.84 95.04 215.04C101.25 217.48 107.71 219.74 114.04 222.13L112.44 229.24C105.457 228.513 98.5266 227.347 91.69 225.75C88.149 224.95 84.6566 223.948 81.23 222.75C79.2549 222.067 77.3468 221.203 75.53 220.17C74.9342 219.807 74.3599 219.409 73.81 218.98C72.9695 218.323 72.2314 217.544 71.62 216.67C71.3904 216.331 71.1832 215.976 71 215.61C70.9 215.4 70.8 215.18 70.72 214.98L70.59 214.64C70.41 214.17 70.3 213.77 70.18 213.36C70.0052 212.659 69.875 211.947 69.79 211.23C69.546 209.061 69.5192 206.874 69.71 204.7C69.86 202.7 70.1 200.89 70.37 199.07C70.92 195.42 71.67 191.93 72.47 188.47C74.1007 181.606 76.0833 174.83 78.41 168.17L92.32 172.83Z" fill="#FFC3BD"/>
<path d="M89.81 155.69C87.81 156.23 78.74 157.59 72.3 179.76L94.09 188.26C94.09 188.26 109.18 150.51 89.81 155.69Z" fill="#0CA766"/>
<path d="M113.79 221.9L121.44 225.71L114.44 234.16C114.44 234.16 106.44 229.02 107.9 224.67L110.8 222.25C111.212 221.91 111.713 221.695 112.243 221.633C112.774 221.571 113.311 221.664 113.79 221.9V221.9Z" fill="#FFC3BD"/>
<path d="M128.35 233.4L120.71 239.64L114.4 234.16L121.44 225.71L128.35 233.4Z" fill="#FFC3BD"/>
</svg>
