<svg width="500" height="373" viewBox="0 0 500 373" fill="none" xmlns="http://www.w3.org/2000/svg">
<path d="M500 327.4H0V327.65H500V327.4Z" fill="#E0E0E0"/>
<path d="M377.66 337.99H343.26V338.24H377.66V337.99Z" fill="#E0E0E0"/>
<path d="M111.04 338.11H91.6799V338.36H111.04V338.11Z" fill="#E0E0E0"/>
<path d="M251 337.53H211.76V337.78H251V337.53Z" fill="#E0E0E0"/>
<path d="M210.76 333.97H193.22V334.22H210.76V333.97Z" fill="#E0E0E0"/>
<path d="M424.56 334.1H371.57V334.35H424.56V334.1Z" fill="#E0E0E0"/>
<path d="M237 282.8H43.91C42.3973 282.797 40.9475 282.195 39.8788 281.124C38.8102 280.054 38.21 278.603 38.21 277.09V5.66C38.2231 4.15603 38.8292 2.71798 39.8964 1.65822C40.9637 0.598458 42.4059 0.00257639 43.91 0H237C238.514 0 239.967 0.601588 241.038 1.67242C242.108 2.74325 242.71 4.19561 242.71 5.71V277.09C242.71 278.604 242.108 280.057 241.038 281.128C239.967 282.198 238.514 282.8 237 282.8V282.8ZM43.91 0.200001C42.4636 0.20265 41.0774 0.779065 40.0556 1.80273C39.0338 2.82639 38.46 4.21365 38.46 5.66V277.09C38.46 278.536 39.0338 279.924 40.0556 280.947C41.0774 281.971 42.4636 282.547 43.91 282.55H237C238.447 282.547 239.834 281.971 240.858 280.948C241.881 279.924 242.457 278.537 242.46 277.09V5.66C242.457 4.21273 241.881 2.82549 240.858 1.80212C239.834 0.77874 238.447 0.202644 237 0.200001H43.91Z" fill="#E0E0E0"/>
<path d="M453.31 282.8H260.21C258.696 282.797 257.246 282.195 256.175 281.125C255.105 280.054 254.503 278.604 254.5 277.09V5.66C254.516 4.15511 255.124 2.71708 256.193 1.65759C257.262 0.598109 258.705 0.00254829 260.21 0H453.31C454.812 0.0052045 456.252 0.602249 457.317 1.66173C458.382 2.72121 458.987 4.15775 459 5.66V277.09C459 278.601 458.401 280.05 457.335 281.121C456.268 282.191 454.821 282.795 453.31 282.8V282.8ZM260.21 0.200001C258.763 0.202644 257.375 0.77874 256.352 1.80212C255.329 2.82549 254.753 4.21273 254.75 5.66V277.09C254.753 278.537 255.329 279.924 256.352 280.948C257.375 281.971 258.763 282.547 260.21 282.55H453.31C454.757 282.547 456.145 281.971 457.168 280.948C458.191 279.924 458.767 278.537 458.77 277.09V5.66C458.767 4.21273 458.191 2.82549 457.168 1.80212C456.145 0.77874 454.757 0.202644 453.31 0.200001H260.21Z" fill="#E0E0E0"/>
<path d="M439.31 202.23C427.01 183.5 438.24 163.37 436.37 142.53C434.5 121.69 414.7 117.15 418.45 99.5299C422.79 79.0499 411.22 59.3999 398.11 59.3999C385 59.3999 373.44 78.9999 377.78 99.4999C381.53 117.15 361.78 121.7 359.86 142.5C357.94 163.3 369.22 183.5 356.91 202.2C344.6 220.9 347.84 245.73 354.77 258.04C356.613 261.306 358.835 264.344 361.39 267.09C366.087 272.132 371.771 276.153 378.089 278.902C384.408 281.651 391.224 283.07 398.115 283.07C405.006 283.07 411.822 281.651 418.141 278.902C424.459 276.153 430.143 272.132 434.84 267.09C437.388 264.341 439.607 261.304 441.45 258.04C448.39 245.76 451.62 221 439.31 202.23Z" fill="#E0E0E0"/>
<path d="M398.11 216.44C398.927 216.44 399.736 216.601 400.49 216.913C401.245 217.226 401.931 217.684 402.508 218.262C403.086 218.839 403.544 219.525 403.857 220.28C404.169 221.034 404.33 221.843 404.33 222.66V327.4H391.89V222.66C391.89 221.843 392.051 221.034 392.364 220.28C392.676 219.525 393.134 218.839 393.712 218.262C394.289 217.684 394.975 217.226 395.73 216.913C396.484 216.601 397.293 216.44 398.11 216.44V216.44Z" fill="#F0F0F0"/>
<path d="M319.91 327.4H303V222.67C303.005 220.425 303.899 218.274 305.487 216.687C307.074 215.099 309.225 214.205 311.47 214.2V214.2C313.715 214.205 315.866 215.099 317.453 216.687C319.041 218.274 319.935 220.425 319.94 222.67L319.91 327.4Z" fill="#E0E0E0"/>
<path d="M311.44 299.15C340.253 299.15 363.61 275.793 363.61 246.98C363.61 218.167 340.253 194.81 311.44 194.81C282.627 194.81 259.27 218.167 259.27 246.98C259.27 275.793 282.627 299.15 311.44 299.15Z" fill="#F0F0F0"/>
<path d="M372.744 231.325C375.481 220.305 368.767 209.152 357.746 206.415C346.726 203.678 335.574 210.392 332.836 221.412C330.099 232.432 336.813 243.585 347.833 246.322C358.854 249.06 370.006 242.345 372.744 231.325Z" fill="#F0F0F0"/>
<path d="M281.251 216.149C282.332 209.515 277.83 203.262 271.196 202.181C264.562 201.101 258.308 205.603 257.228 212.237C256.147 218.871 260.649 225.124 267.283 226.205C273.917 227.285 280.171 222.783 281.251 216.149Z" fill="#F0F0F0"/>
<path d="M282.48 216.44C287.196 216.44 291.02 212.617 291.02 207.9C291.02 203.184 287.196 199.36 282.48 199.36C277.763 199.36 273.94 203.184 273.94 207.9C273.94 212.617 277.763 216.44 282.48 216.44Z" fill="#F0F0F0"/>
<path d="M204 264.89C195.888 266.098 188.135 269.056 181.28 273.56C181.22 265.64 179.77 258.13 176.05 252.06C170.39 257.57 165.8 264.71 162.05 272.39C160.68 258 156.89 244 148.5 235.13C135.93 243.04 129.45 256.22 126.37 270.18C121.282 260.767 113.896 252.793 104.9 247C97.2101 255.1 94.7501 266.3 94.9601 277.78C86.2201 267.6 76.5201 259.66 67.0601 258.73C64.7301 274.82 69.6901 290 76.0001 302C80.0968 309.699 86.2169 316.134 93.7009 320.612C101.185 325.09 109.749 327.44 118.47 327.41H159.56C177.07 327.41 193.49 318.07 201.7 302.6C206.89 292.8 209.37 280.19 204 264.89Z" fill="#E0E0E0"/>
<path d="M192.26 57.1399C197.33 42.2699 193.26 31.6799 180.89 31.6799C173.11 31.6799 163.46 35.8499 154.06 42.6299C153 38.7599 150.01 36.4499 145.2 36.4499C136.73 36.4499 125.06 43.6099 115.91 53.7099C113.334 51.2624 109.923 49.886 106.37 49.8599C98.26 49.3999 88.45 53.5199 79.92 60.2099C79.4926 59.6117 78.9283 59.1244 78.2742 58.7887C77.6201 58.4529 76.8952 58.2785 76.16 58.2799C71.49 58.0199 65.16 62.1799 62.03 67.5599C61.84 67.8899 61.67 68.2199 61.49 68.5599H194.72C195.12 63.8599 194.29 59.9399 192.26 57.1399Z" fill="#F0F0F0"/>
<path d="M192.67 147.43C195.15 140.17 193.18 135 187.12 135C183.31 135 178.6 137 174.01 140.35C173.763 139.417 173.191 138.602 172.398 138.052C171.604 137.503 170.641 137.254 169.68 137.35C165.55 137.35 159.85 140.85 155.37 145.79C154.114 144.59 152.447 143.918 150.71 143.91C146.71 143.68 141.96 145.69 137.79 148.96C137.588 148.671 137.321 148.433 137.01 148.267C136.699 148.1 136.353 148.008 136 148C133.72 147.87 130.63 149.9 129.1 152.53L128.83 153.01H193.91C194.182 151.061 193.742 149.08 192.67 147.43V147.43Z" fill="#F0F0F0"/>
<path d="M342.77 92.49C342.256 92.4179 341.739 92.3811 341.22 92.38C341.7 85.13 338.93 80.49 333 80.49C328.73 80.49 323.48 82.91 318.14 87C319.67 72.92 314.77 63.77 303.67 63.77C294.73 63.77 283.4 69.77 272.21 79.43C271.21 73.91 267.93 70.59 262.39 70.59C252.66 70.59 238.83 80.83 227.74 95.27C226.476 93.6049 224.856 92.244 222.997 91.287C221.139 90.3301 219.089 89.8015 217 89.74C207.74 89.09 196.23 94.97 186 104.55C185.628 103.742 185.035 103.056 184.291 102.569C183.546 102.083 182.679 101.816 181.79 101.8C176.72 101.44 169.79 106.73 165.68 113.8H350.92C355.27 103.08 351.81 93.7 342.77 92.49Z" fill="#F0F0F0"/>
<path d="M250 372.56C357.083 372.56 443.89 367.492 443.89 361.24C443.89 354.988 357.083 349.92 250 349.92C142.918 349.92 56.1101 354.988 56.1101 361.24C56.1101 367.492 142.918 372.56 250 372.56Z" fill="#F5F5F5"/>
<path d="M48.8601 95.5601L276.83 128.38L307.42 159.25L48.8601 95.5601Z" fill="#1999B9"/>
<path opacity="0.6" d="M48.8601 95.5601L276.83 128.38L307.42 159.25L48.8601 95.5601Z" fill="white"/>
<path d="M48.8601 95.5601L276.83 128.38L266.25 173.02L48.8601 95.5601Z" fill="#1999B9"/>
<path opacity="0.2" d="M48.8601 95.5601L276.83 128.38L266.25 173.02L48.8601 95.5601Z" fill="black"/>
<path d="M261.57 43.8801L274.8 105.88C275.144 107.499 274.832 109.188 273.932 110.578C273.032 111.967 271.618 112.942 270 113.29L151.92 138.49C150.301 138.832 148.613 138.518 147.225 137.619C145.836 136.719 144.86 135.307 144.51 133.69L131.27 71.6901C130.929 70.07 131.244 68.3807 132.145 66.9919C133.046 65.6032 134.461 64.6281 136.08 64.2801L254.16 39.0801C255.78 38.739 257.47 39.0536 258.858 39.9551C260.247 40.8565 261.222 42.2714 261.57 43.8901V43.8801Z" fill="#1999B9"/>
<path opacity="0.4" d="M261.57 43.8801L274.8 105.88C275.144 107.499 274.832 109.188 273.932 110.578C273.032 111.967 271.618 112.942 270 113.29L151.92 138.49C150.301 138.832 148.613 138.518 147.225 137.619C145.836 136.719 144.86 135.307 144.51 133.69L131.27 71.6901C130.929 70.07 131.244 68.3807 132.145 66.9919C133.046 65.6032 134.461 64.6281 136.08 64.2801L254.16 39.0801C255.78 38.739 257.47 39.0536 258.858 39.9551C260.247 40.8565 261.222 42.2714 261.57 43.8901V43.8801Z" fill="black"/>
<path d="M258.66 39.8201L219.21 88.2501C215.551 92.7402 210.469 95.8469 204.805 97.0561C199.141 98.2654 193.233 97.5048 188.06 94.9001L132.27 66.8001C133.173 65.5035 134.535 64.599 136.08 64.2701L254.16 39.0701C255.701 38.7421 257.309 39.0101 258.66 39.8201V39.8201Z" fill="#1999B9"/>
<path d="M48.8601 95.5601L236.89 140.25L266.25 173.02L48.8601 95.5601Z" fill="#1999B9"/>
<path opacity="0.6" d="M48.8601 95.5601L236.89 140.25L266.25 173.02L48.8601 95.5601Z" fill="white"/>
<path d="M117.449 138.635L116.944 139.498L137.868 151.755L138.374 150.892L117.449 138.635Z" fill="#1999B9"/>
<path d="M147.612 156.296L147.106 157.158L154.631 161.566L155.136 160.703L147.612 156.296Z" fill="#1999B9"/>
<path d="M48.8601 95.5601L236.89 140.25L200.34 184.3L48.8601 95.5601Z" fill="#1999B9"/>
<path d="M300.36 200.26C300.107 200.261 299.856 200.213 299.62 200.12L269 188C268.51 187.803 268.118 187.42 267.91 186.934C267.701 186.449 267.693 185.901 267.887 185.41C268.081 184.919 268.462 184.524 268.946 184.313C269.43 184.101 269.978 184.089 270.47 184.28L301.1 196.4C301.533 196.571 301.893 196.889 302.118 197.297C302.342 197.705 302.417 198.179 302.329 198.637C302.241 199.094 301.997 199.507 301.637 199.803C301.278 200.1 300.826 200.261 300.36 200.26V200.26Z" fill="#1999B9"/>
<path opacity="0.3" d="M300.36 200.26C300.107 200.261 299.856 200.213 299.62 200.12L269 188C268.51 187.803 268.118 187.42 267.91 186.934C267.701 186.449 267.693 185.901 267.887 185.41C268.081 184.919 268.462 184.524 268.946 184.313C269.43 184.101 269.978 184.089 270.47 184.28L301.1 196.4C301.533 196.571 301.893 196.889 302.118 197.297C302.342 197.705 302.417 198.179 302.329 198.637C302.241 199.094 301.997 199.507 301.637 199.803C301.278 200.1 300.826 200.261 300.36 200.26V200.26Z" fill="black"/>
<path d="M298.55 182.7C298.299 182.699 298.051 182.648 297.82 182.55L281.37 176C281.124 175.905 280.9 175.762 280.709 175.579C280.519 175.397 280.366 175.178 280.26 174.937C280.155 174.695 280.098 174.435 280.093 174.171C280.088 173.908 280.136 173.646 280.233 173.4C280.33 173.155 280.474 172.931 280.658 172.742C280.842 172.553 281.061 172.402 281.303 172.298C281.546 172.194 281.806 172.138 282.07 172.135C282.334 172.132 282.595 172.182 282.84 172.28L299.29 178.8C299.783 178.994 300.179 179.376 300.391 179.861C300.603 180.347 300.613 180.897 300.42 181.39C300.279 181.773 300.025 182.104 299.69 182.338C299.356 182.572 298.958 182.699 298.55 182.7Z" fill="#1999B9"/>
<path opacity="0.5" d="M298.55 182.7C298.299 182.699 298.051 182.648 297.82 182.55L281.37 176C281.124 175.905 280.9 175.762 280.709 175.579C280.519 175.397 280.366 175.178 280.26 174.937C280.155 174.695 280.098 174.435 280.093 174.171C280.088 173.908 280.136 173.646 280.233 173.4C280.33 173.155 280.474 172.931 280.658 172.742C280.842 172.553 281.061 172.402 281.303 172.298C281.546 172.194 281.806 172.138 282.07 172.135C282.334 172.132 282.595 172.182 282.84 172.28L299.29 178.8C299.783 178.994 300.179 179.376 300.391 179.861C300.603 180.347 300.613 180.897 300.42 181.39C300.279 181.773 300.025 182.104 299.69 182.338C299.356 182.572 298.958 182.699 298.55 182.7Z" fill="white"/>
<path d="M264.16 200C263.91 199.997 263.663 199.95 263.43 199.86L233.56 188C233.314 187.905 233.089 187.762 232.899 187.579C232.709 187.397 232.556 187.178 232.45 186.937C232.345 186.695 232.288 186.435 232.283 186.171C232.278 185.908 232.326 185.646 232.423 185.4C232.52 185.155 232.664 184.931 232.848 184.742C233.032 184.553 233.251 184.402 233.493 184.298C233.736 184.194 233.996 184.138 234.26 184.135C234.524 184.132 234.785 184.182 235.03 184.28L264.9 196.1C265.333 196.271 265.693 196.589 265.918 196.997C266.142 197.405 266.217 197.879 266.129 198.337C266.041 198.794 265.797 199.207 265.437 199.503C265.078 199.8 264.626 199.961 264.16 199.96V200Z" fill="#1999B9"/>
<path opacity="0.3" d="M264.16 200C263.91 199.997 263.663 199.95 263.43 199.86L233.56 188C233.314 187.905 233.089 187.762 232.899 187.579C232.709 187.397 232.556 187.178 232.45 186.937C232.345 186.695 232.288 186.435 232.283 186.171C232.278 185.908 232.326 185.646 232.423 185.4C232.52 185.155 232.664 184.931 232.848 184.742C233.032 184.553 233.251 184.402 233.493 184.298C233.736 184.194 233.996 184.138 234.26 184.135C234.524 184.132 234.785 184.182 235.03 184.28L264.9 196.1C265.333 196.271 265.693 196.589 265.918 196.997C266.142 197.405 266.217 197.879 266.129 198.337C266.041 198.794 265.797 199.207 265.437 199.503C265.078 199.8 264.626 199.961 264.16 199.96V200Z" fill="black"/>
<path d="M372.3 109.82C374.95 114.99 377.38 120.17 379.69 125.47C382 130.77 384.15 136.14 386.03 141.77L386.71 143.9C386.83 144.28 387 144.9 387.1 145.34C387.2 145.78 387.29 146.28 387.34 146.7C387.569 148.313 387.686 149.941 387.69 151.57C387.705 154.575 387.565 157.579 387.27 160.57C386.711 166.36 385.803 172.11 384.55 177.79L379.06 177.18C378.99 171.55 378.94 165.86 378.74 160.31C378.65 157.55 378.49 154.78 378.21 152.18C378.083 150.959 377.883 149.747 377.61 148.55C377.56 148.27 377.48 148.06 377.42 147.83C377.36 147.6 377.3 147.52 377.2 147.22L376.44 145.33C374.35 140.27 372 135.17 369.6 130.09L362.34 114.85L372.3 109.82Z" fill="#E4897B"/>
<path d="M379.14 175.42L376.58 180.21L384.76 182.49C384.76 182.49 386.32 178.64 384.46 175.6L379.14 175.42Z" fill="#E4897B"/>
<path d="M373.45 187.11L380.97 187.71L384.76 182.49L376.58 180.21L373.45 187.11Z" fill="#E4897B"/>
<path d="M337.87 75.2601C337.76 75.8501 337.35 76.2601 336.97 76.1801C336.59 76.1001 336.38 75.5701 336.5 74.9901C336.62 74.4101 337.02 73.9901 337.4 74.0701C337.78 74.1501 338 74.6801 337.87 75.2601Z" fill="#263238"/>
<path d="M337.41 76.26C336.354 77.896 335.079 79.3798 333.62 80.67C333.96 81.0323 334.375 81.3165 334.836 81.5029C335.297 81.6893 335.793 81.7737 336.29 81.75L337.41 76.26Z" fill="#DE5753"/>
<path d="M340.65 72.4701C340.555 72.4677 340.466 72.4282 340.4 72.3601C340.113 72.0315 339.752 71.7752 339.347 71.6119C338.942 71.4486 338.505 71.3829 338.07 71.4201C337.987 71.4209 337.907 71.3923 337.843 71.3394C337.779 71.2864 337.736 71.2126 337.722 71.131C337.707 71.0493 337.722 70.9653 337.764 70.8937C337.806 70.8221 337.872 70.7677 337.95 70.7401C338.506 70.6696 339.071 70.7378 339.594 70.9384C340.118 71.139 340.583 71.466 340.95 71.8901C341.014 71.9555 341.05 72.0435 341.05 72.1351C341.05 72.2267 341.014 72.3147 340.95 72.3801C340.91 72.4167 340.862 72.4439 340.81 72.4594C340.758 72.475 340.704 72.4787 340.65 72.4701Z" fill="#263238"/>
<path d="M354.41 83.4299C353.36 88.8099 352.31 98.6499 356.07 102.24C356.07 102.24 354.6 107.69 344.61 107.69C333.61 107.69 339.37 102.24 339.37 102.24C345.37 100.81 345.2 96.3599 344.16 92.1899L354.41 83.4299Z" fill="#E4897B"/>
<path d="M357.58 105.63C358.37 103 359.24 99.9899 357.44 99.0399C355.44 98.0399 344.57 96.9399 340.82 98.8899C337.07 100.84 338.14 106.19 338.14 106.19L357.58 105.63Z" fill="#263238"/>
<path d="M380.64 355C380.329 355.041 380.014 355.02 379.712 354.938C379.409 354.855 379.127 354.713 378.88 354.52C378.793 354.399 378.746 354.254 378.746 354.105C378.746 353.956 378.793 353.811 378.88 353.69C378.937 353.586 379.016 353.496 379.111 353.425C379.206 353.355 379.314 353.305 379.43 353.28C380.51 353.04 382.53 354.42 382.62 354.48C382.646 354.502 382.666 354.529 382.678 354.561C382.69 354.592 382.694 354.626 382.69 354.66C382.684 354.692 382.669 354.722 382.646 354.745C382.622 354.769 382.592 354.784 382.56 354.79C381.929 354.926 381.286 354.996 380.64 355V355ZM379.72 353.6H379.51C379.442 353.614 379.378 353.643 379.323 353.684C379.268 353.726 379.222 353.779 379.19 353.84C379.03 354.12 379.13 354.24 379.19 354.28C379.5 354.7 381 354.7 382.1 354.52C381.383 354.047 380.57 353.739 379.72 353.62V353.6Z" fill="#1999B9"/>
<path d="M382.52 354.82H382.44C381.68 354.4 380.21 352.82 380.36 351.98C380.385 351.85 380.455 351.733 380.557 351.649C380.659 351.566 380.788 351.52 380.92 351.52C381.052 351.506 381.185 351.518 381.312 351.556C381.439 351.593 381.557 351.656 381.66 351.74C382.51 352.44 382.66 354.56 382.66 354.65C382.664 354.682 382.658 354.714 382.644 354.742C382.63 354.771 382.608 354.794 382.58 354.81C382.561 354.818 382.54 354.821 382.52 354.82ZM381.04 351.82H381C380.77 351.82 380.75 351.96 380.74 352C380.65 352.49 381.59 353.7 382.34 354.27C382.289 353.435 381.99 352.633 381.48 351.97C381.413 351.917 381.335 351.879 381.253 351.856C381.171 351.834 381.084 351.828 381 351.84L381.04 351.82Z" fill="#1999B9"/>
<path d="M336.53 355C335.59 355 334.68 354.87 334.37 354.45C334.292 354.339 334.25 354.206 334.25 354.07C334.25 353.934 334.292 353.801 334.37 353.69C334.431 353.587 334.511 353.498 334.608 353.427C334.704 353.357 334.814 353.307 334.93 353.28C336.14 352.95 338.72 354.41 338.83 354.47C338.859 354.489 338.882 354.516 338.897 354.548C338.911 354.58 338.915 354.615 338.91 354.65C338.904 354.685 338.887 354.717 338.862 354.742C338.837 354.768 338.805 354.784 338.77 354.79C338.031 354.929 337.281 354.999 336.53 355V355ZM335.36 353.58C335.25 353.564 335.139 353.564 335.03 353.58C334.96 353.594 334.893 353.622 334.834 353.664C334.776 353.705 334.726 353.758 334.69 353.82C334.56 354.04 334.61 354.14 334.69 354.2C335.02 354.66 336.88 354.69 338.26 354.5C337.361 354.015 336.376 353.709 335.36 353.6V353.58Z" fill="#1999B9"/>
<path d="M338.75 354.82H338.68C337.79 354.43 336.04 352.82 336.17 352.01C336.17 351.81 336.34 351.57 336.82 351.52C336.998 351.493 337.181 351.506 337.354 351.558C337.527 351.609 337.686 351.699 337.82 351.82C338.76 352.58 338.95 354.56 338.96 354.65C338.964 354.68 338.959 354.711 338.947 354.74C338.935 354.768 338.915 354.792 338.89 354.81C338.869 354.821 338.845 354.828 338.821 354.83C338.797 354.832 338.773 354.828 338.75 354.82V354.82ZM336.96 351.82H336.85C336.54 351.82 336.52 351.98 336.51 352.02C336.43 352.52 337.63 353.77 338.51 354.31C338.424 353.47 338.073 352.679 337.51 352.05C337.367 351.926 337.188 351.853 337 351.84L336.96 351.82Z" fill="#1999B9"/>
<path d="M346.83 354.64H339.48L338.75 337.63H346.1L346.83 354.64Z" fill="#E4897B"/>
<path d="M390.94 354.64H383.59L379.9 337.63H387.24L390.94 354.64Z" fill="#E4897B"/>
<path d="M383.07 353.79H391.32C391.467 353.791 391.61 353.842 391.724 353.935C391.839 354.027 391.918 354.156 391.95 354.3L393.4 360.83C393.433 360.989 393.43 361.153 393.391 361.311C393.351 361.469 393.277 361.615 393.173 361.74C393.07 361.865 392.939 361.965 392.791 362.033C392.643 362.1 392.482 362.133 392.32 362.13C389.44 362.08 388.04 361.91 384.41 361.91C382.18 361.91 377.58 362.15 374.49 362.15C371.4 362.15 371.01 359.15 372.27 358.82C377.93 357.58 380.06 355.87 381.87 354.25C382.199 353.953 382.627 353.789 383.07 353.79V353.79Z" fill="#263238"/>
<path d="M339.53 353.79H347.53C347.677 353.791 347.82 353.842 347.934 353.935C348.049 354.027 348.128 354.156 348.16 354.3L349.61 360.83C349.645 360.988 349.643 361.151 349.606 361.308C349.568 361.465 349.496 361.611 349.394 361.736C349.292 361.861 349.163 361.962 349.017 362.03C348.871 362.098 348.711 362.132 348.55 362.13C345.66 362.08 341.48 361.91 337.84 361.91C333.59 361.91 329.91 362.15 324.92 362.15C321.92 362.15 321.07 359.15 322.33 358.82C328.08 357.56 332.77 357.43 337.74 354.37C338.269 354.01 338.89 353.809 339.53 353.79V353.79Z" fill="#263238"/>
<path d="M336 115.14C329.857 114.664 323.744 113.853 317.69 112.71C314.69 112.13 311.63 111.48 308.59 110.66C305.474 109.862 302.414 108.86 299.43 107.66C298.66 107.34 297.88 106.99 297.11 106.66C296.243 106.233 295.408 105.745 294.61 105.2C293.17 104.25 291.93 103.26 290.7 102.28C288.25 100.28 285.98 98.2799 283.7 96.2299C279.23 92.09 274.99 87.81 270.9 83.31L274.58 79.2L289.09 89.63C291.48 91.35 293.9 93.04 296.28 94.63C297.46 95.42 298.67 96.1599 299.78 96.7899C300.244 97.0547 300.725 97.2885 301.22 97.49C301.81 97.72 302.41 97.95 303.04 98.17C308.445 99.8342 313.972 101.071 319.57 101.87C325.28 102.77 331.18 103.51 336.88 104.11L336 115.14Z" fill="#E4897B"/>
<path d="M369.22 103.9C376.11 105.48 383.07 125.61 383.07 125.61L368.9 135.78C368.9 135.78 364.9 126.4 361.04 118.2C357 109.61 362.18 102.29 369.22 103.9Z" fill="#0CA062"/>
<path d="M365.25 114.9L362.44 121.19C365.35 127.47 368.01 133.69 368.72 135.35C368.62 127.92 367.21 118.7 365.25 114.9Z" fill="#0CA062"/>
<path opacity="0.6" d="M365.25 114.9L362.44 121.19C365.35 127.47 368.01 133.69 368.72 135.35C368.62 127.92 367.21 118.7 365.25 114.9Z" fill="black"/>
<path d="M328.07 104.28C328.07 104.28 320.25 113.11 327.63 167.78H366.92C367.2 161.78 363.41 132.32 369.22 103.9C364.877 103.064 360.484 102.509 356.07 102.24C350.508 101.92 344.932 101.92 339.37 102.24C335.556 102.624 331.778 103.306 328.07 104.28V104.28Z" fill="#0CA062"/>
<path d="M325.16 114.9C324.9 116.97 324.7 119.42 324.57 122.31C328.45 121.146 332.137 119.414 335.51 117.17L325.16 114.9Z" fill="#1999B9"/>
<path opacity="0.6" d="M325.16 114.9C324.9 116.97 324.7 119.42 324.57 122.31C328.45 121.146 332.137 119.414 335.51 117.17L325.16 114.9Z" fill="black"/>
<path d="M342 116C336.74 120.66 316.66 120.19 316.66 120.19L316 100.75C322.781 101.716 329.621 102.21 336.47 102.23C347.66 102 347.74 110.86 342 116Z" fill="#0CA062"/>
<path d="M274.77 79.2401L269.77 73.3501L264.38 79.3501C264.38 79.3501 267.7 84.9301 272.97 84.0501L274.77 79.2401Z" fill="#E4897B"/>
<path d="M262.61 66.48L260.67 74.17L264.34 79.31L269.73 73.35L262.61 66.48Z" fill="#E4897B"/>
<path d="M338.75 337.64L339.13 346.4H346.48L346.1 337.64H338.75Z" fill="#CE6F64"/>
<path d="M387.25 337.64H379.9L381.8 346.4H389.15L387.25 337.64Z" fill="#CE6F64"/>
<path d="M343.17 68C336.58 65 334.5 51.67 353.46 55C353.46 55 350.6 58.16 356.4 60.16C362.2 62.16 357.35 74.51 343.17 68Z" fill="#263238"/>
<path d="M357.49 78C355.6 85 354.86 89.26 350.49 92.19C343.95 96.59 335.82 91.54 335.56 84.07C335.33 77.36 338.46 66.97 346.01 65.55C347.676 65.2232 349.399 65.3289 351.013 65.8569C352.627 66.3849 354.079 67.3176 355.23 68.5661C356.381 69.8145 357.193 71.3371 357.589 72.9886C357.985 74.6401 357.95 76.3654 357.49 78Z" fill="#E4897B"/>
<path d="M353.2 58.5001C357.69 61.0001 363.77 62.5001 363.2 66.0601C362.45 70.4101 366.87 67.6902 365.84 74.1602C365.17 78.3902 357.37 91.2101 351.84 90.5901C343.58 89.5901 344.63 77.0302 344.6 70.4102C344.58 66.5002 344.4 53.5701 353.2 58.5001Z" fill="#263238"/>
<path d="M343.61 64.1101C341.61 64.5801 338.96 76.1101 346.71 77.1701C355.62 78.3801 343.61 64.1101 343.61 64.1101Z" fill="#263238"/>
<path d="M343.81 68.1999C341.36 68.4199 335.81 65.4699 336.49 61.0299C336.49 60.9999 340 66.2199 343.81 68.1999Z" fill="#263238"/>
<path d="M347.45 78.0901C346.698 79.7389 345.422 81.0926 343.82 81.9401C341.71 83.0401 340.52 81.4401 341 79.3201C341.43 77.4201 343.05 74.5501 345.22 74.3201C347.39 74.0901 348.32 76.0901 347.45 78.0901Z" fill="#E4897B"/>
<path d="M358.45 69.9999C359.944 69.3514 361.255 68.3423 362.263 67.0631C363.272 65.7839 363.948 64.2744 364.23 62.6699C364.23 62.6699 367.53 71.8399 358.45 69.9999Z" fill="#263238"/>
<path d="M366.79 69.8501C366.094 69.3828 365.293 69.0952 364.459 69.0132C363.625 68.9312 362.784 69.0573 362.01 69.3801C362.01 69.3801 365.09 65.3901 366.79 69.8501Z" fill="#263238"/>
<path d="M341.57 167.78C341.57 167.78 349.91 223.92 354.48 244.95C359.48 267.95 378.38 344.71 378.38 344.71H391.83C391.83 344.71 379.38 269.84 376.52 247C373.42 222.25 366.92 167.74 366.92 167.74L341.57 167.78Z" fill="#263238"/>
<path d="M376.23 339.75C376.17 339.75 377.62 344.92 377.62 344.92H392.76L392.48 340.31L376.23 339.75Z" fill="#1999B9"/>
<path opacity="0.1" d="M376.23 339.75C376.17 339.75 377.62 344.92 377.62 344.92H392.76L392.48 340.31L376.23 339.75Z" fill="black"/>
<path opacity="0.4" d="M346.84 187.78C356.48 189.67 355.46 225.62 354.3 244.11C351.52 231.04 347.45 205.89 344.67 188.04C345.342 187.709 346.108 187.617 346.84 187.78Z" fill="black"/>
<path d="M327.63 167.78C327.63 167.78 326.63 222.7 327.42 245.11C328.25 268.41 336.42 344.71 336.42 344.71H348.86C348.86 344.71 349.32 269.77 349.86 246.89C350.47 221.94 353.48 167.78 353.48 167.78H327.63Z" fill="#263238"/>
<path d="M339 335.77C338.97 335.77 338.941 335.759 338.918 335.739C338.896 335.718 338.882 335.69 338.88 335.66C336.68 314.54 331.51 263.44 330.88 245.11C330.21 226.4 330.82 184.42 331.02 172C331.02 171.968 331.033 171.938 331.055 171.915C331.078 171.893 331.108 171.88 331.14 171.88C331.173 171.88 331.204 171.892 331.228 171.915C331.253 171.937 331.267 171.967 331.27 172C331.07 184.42 330.46 226.4 331.13 245.1C331.78 263.43 336.95 314.51 339.13 335.63C339.13 335.664 339.118 335.697 339.096 335.723C339.074 335.748 339.043 335.765 339.01 335.77H339Z" fill="#0CA062"/>
<path d="M334 339.75C333.95 339.75 334.71 344.92 334.71 344.92H349.84L350.25 340.31L334 339.75Z" fill="#1999B9"/>
<path opacity="0.1" d="M334 339.75C333.95 339.75 334.71 344.92 334.71 344.92H349.84L350.25 340.31L334 339.75Z" fill="black"/>
</svg>
